<?xml version="1.0" encoding="UTF-8" standalone="no"?>
<!DOCTYPE svg PUBLIC "-//W3C//DTD SVG 1.1//EN"
 "http://www.w3.org/Graphics/SVG/1.1/DTD/svg11.dtd">
<!-- Generated by graphviz version 12.1.0 (20240811.2233)
 -->
<!-- Title: app.reaction.Reaction Pages: 1 -->
<svg width="231pt" height="297pt"
 viewBox="0.00 0.00 231.00 297.00" xmlns="http://www.w3.org/2000/svg" xmlns:xlink="http://www.w3.org/1999/xlink">
<g id="graph0" class="graph" transform="scale(1 1) rotate(0) translate(4 293)">
<title>app.reaction.Reaction</title>
<!-- Node1 -->
<g id="Node000001" class="node">
<title>Node1</title>
<g id="a_Node000001"><a xlink:title=" ">
<polygon fill="#999999" stroke="none" points="213,-52 108,-52 108,0 213,0 213,-52"/>
<text text-anchor="start" x="112.88" y="-38.5" font-family="Helvetica,sans-Serif" font-size="10.00">app.reaction.Reaction</text>
<text text-anchor="start" x="159" y="-22.5" font-family="Helvetica,sans-Serif" font-size="10.00"> </text>
<text text-anchor="start" x="159" y="-6.5" font-family="Helvetica,sans-Serif" font-size="10.00"> </text>
<polygon fill="#666666" stroke="#666666" points="108,-34 108,-34 213,-34 213,-34 108,-34"/>
<polygon fill="#666666" stroke="#666666" points="108,-18 108,-18 213,-18 213,-18 108,-18"/>
<polygon fill="none" stroke="#666666" points="108,0 108,-52 213,-52 213,0 108,0"/>
</a>
</g>
</g>
<!-- Node2 -->
<g id="Node000002" class="node">
<title>Node2</title>
<g id="a_Node000002"><a xlink:href="classapp_1_1reaction_1_1BaseReaction.html" target="_top" xlink:title=" ">
<polygon fill="white" stroke="none" points="127,-141 0,-141 0,-89 127,-89 127,-141"/>
<text text-anchor="start" x="4.62" y="-127.5" font-family="Helvetica,sans-Serif" font-size="10.00">app.reaction.BaseReaction</text>
<text text-anchor="start" x="62" y="-111.5" font-family="Helvetica,sans-Serif" font-size="10.00"> </text>
<text text-anchor="start" x="62" y="-95.5" font-family="Helvetica,sans-Serif" font-size="10.00"> </text>
<polygon fill="#666666" stroke="#666666" points="0,-123 0,-123 127,-123 127,-123 0,-123"/>
<polygon fill="#666666" stroke="#666666" points="0,-107 0,-107 127,-107 127,-107 0,-107"/>
<polygon fill="none" stroke="#666666" points="0,-89 0,-141 127,-141 127,-89 0,-89"/>
</a>
</g>
</g>
<!-- Node2&#45;&gt;Node1 -->
<g id="edge1_Node000001_Node000002" class="edge">
<title>Node2&#45;&gt;Node1</title>
<g id="a_edge1_Node000001_Node000002"><a xlink:title=" ">
<path fill="none" stroke="#63b8ff" d="M99.8,-81.45C110.68,-71.68 122.45,-61.13 132.7,-51.93"/>
<polygon fill="none" stroke="#63b8ff" points="97.53,-78.78 92.42,-88.06 102.2,-83.99 97.53,-78.78"/>
</a>
</g>
</g>
<!-- Node3 -->
<g id="Node000003" class="node">
<title>Node3</title>
<g id="a_Node000003"><a xlink:title=" ">
<polygon fill="white" stroke="none" points="57,-289 2,-289 2,-237 57,-237 57,-289"/>
<text text-anchor="start" x="6.62" y="-275.5" font-family="Helvetica,sans-Serif" font-size="10.00">SQLModel</text>
<text text-anchor="start" x="28" y="-259.5" font-family="Helvetica,sans-Serif" font-size="10.00"> </text>
<text text-anchor="start" x="28" y="-243.5" font-family="Helvetica,sans-Serif" font-size="10.00"> </text>
<polygon fill="#666666" stroke="#666666" points="2,-271 2,-271 57,-271 57,-271 2,-271"/>
<polygon fill="#666666" stroke="#666666" points="2,-255 2,-255 57,-255 57,-255 2,-255"/>
<polygon fill="none" stroke="#666666" points="2,-237 2,-289 57,-289 57,-237 2,-237"/>
</a>
</g>
</g>
<!-- Node3&#45;&gt;Node2 -->
<g id="edge2_Node000002_Node000003" class="edge">
<title>Node3&#45;&gt;Node2</title>
<g id="a_edge2_Node000002_Node000003"><a xlink:title=" ">
<path fill="none" stroke="#63b8ff" d="M37.85,-226.13C44.02,-199.66 52.25,-164.32 57.7,-140.89"/>
<polygon fill="none" stroke="#63b8ff" points="34.47,-225.23 35.61,-235.76 41.29,-226.81 34.47,-225.23"/>
</a>
</g>
</g>
<!-- Node4 -->
<g id="Node000004" class="node">
<title>Node4</title>
<g id="a_Node000004"><a xlink:title=" ">
<polygon fill="white" stroke="none" points="121.5,-289 75.5,-289 75.5,-237 121.5,-237 121.5,-289"/>
<text text-anchor="start" x="80.5" y="-275.5" font-family="Helvetica,sans-Serif" font-size="10.00">Optional</text>
<text text-anchor="start" x="97" y="-259.5" font-family="Helvetica,sans-Serif" font-size="10.00"> </text>
<text text-anchor="start" x="97" y="-243.5" font-family="Helvetica,sans-Serif" font-size="10.00"> </text>
<polygon fill="#666666" stroke="#666666" points="75.5,-271 75.5,-271 121.5,-271 121.5,-271 75.5,-271"/>
<polygon fill="#666666" stroke="#666666" points="75.5,-255 75.5,-255 121.5,-255 121.5,-255 75.5,-255"/>
<polygon fill="none" stroke="#666666" points="75.5,-237 75.5,-289 121.5,-289 121.5,-237 75.5,-237"/>
</a>
</g>
</g>
<!-- Node4&#45;&gt;Node2 -->
<g id="edge3_Node000002_Node000004" class="edge">
<title>Node4&#45;&gt;Node2</title>
<g id="a_edge3_Node000002_Node000004"><a xlink:title=" ">
<path fill="none" stroke="#63b8ff" d="M92.56,-237.23C87.06,-214.27 78.79,-179.77 72.48,-153.44"/>
<polygon fill="none" stroke="#63b8ff" points="72.47,-153.43 67.19,-148.53 69.68,-141.76 74.97,-146.67 72.47,-153.43"/>
</a>
</g>
<text text-anchor="middle" x="116.28" y="-209.5" font-family="Helvetica,sans-Serif" font-size="10.00" fill="grey"> +description</text>
<text text-anchor="middle" x="116.28" y="-197.5" font-family="Helvetica,sans-Serif" font-size="10.00" fill="grey">+id</text>
<text text-anchor="middle" x="116.28" y="-185.5" font-family="Helvetica,sans-Serif" font-size="10.00" fill="grey">+parameters</text>
<text text-anchor="middle" x="116.28" y="-173.5" font-family="Helvetica,sans-Serif" font-size="10.00" fill="grey">+service_id</text>
<text text-anchor="middle" x="116.28" y="-161.5" font-family="Helvetica,sans-Serif" font-size="10.00" fill="grey">+url</text>
</g>
<!-- Node5 -->
<g id="Node000005" class="node">
<title>Node5</title>
<g id="a_Node000005"><a xlink:title=" ">
<polygon fill="white" stroke="none" points="176,-141 145,-141 145,-89 176,-89 176,-141"/>
<text text-anchor="start" x="150" y="-127.5" font-family="Helvetica,sans-Serif" font-size="10.00">table</text>
<text text-anchor="start" x="159" y="-111.5" font-family="Helvetica,sans-Serif" font-size="10.00"> </text>
<text text-anchor="start" x="159" y="-95.5" font-family="Helvetica,sans-Serif" font-size="10.00"> </text>
<polygon fill="#666666" stroke="#666666" points="145,-123 145,-123 176,-123 176,-123 145,-123"/>
<polygon fill="#666666" stroke="#666666" points="145,-107 145,-107 176,-107 176,-107 145,-107"/>
<polygon fill="none" stroke="#666666" points="145,-89 145,-141 176,-141 176,-89 145,-89"/>
</a>
</g>
</g>
<!-- Node5&#45;&gt;Node1 -->
<g id="edge4_Node000001_Node000005" class="edge">
<title>Node5&#45;&gt;Node1</title>
<g id="a_edge4_Node000001_Node000005"><a xlink:title=" ">
<path fill="none" stroke="#63b8ff" d="M160.5,-78.05C160.5,-69.21 160.5,-59.94 160.5,-51.76"/>
<polygon fill="none" stroke="#63b8ff" points="157,-77.79 160.5,-87.79 164,-77.79 157,-77.79"/>
</a>
</g>
</g>
<!-- Node6 -->
<g id="Node000006" class="node">
<title>Node6</title>
<g id="a_Node000006"><a xlink:title=" ">
<polygon fill="white" stroke="none" points="223,-141 194,-141 194,-89 223,-89 223,-141"/>
<text text-anchor="start" x="198.75" y="-127.5" font-family="Helvetica,sans-Serif" font-size="10.00">True</text>
<text text-anchor="start" x="207" y="-111.5" font-family="Helvetica,sans-Serif" font-size="10.00"> </text>
<text text-anchor="start" x="207" y="-95.5" font-family="Helvetica,sans-Serif" font-size="10.00"> </text>
<polygon fill="#666666" stroke="#666666" points="194,-123 194,-123 223,-123 223,-123 194,-123"/>
<polygon fill="#666666" stroke="#666666" points="194,-107 194,-107 223,-107 223,-107 194,-107"/>
<polygon fill="none" stroke="#666666" points="194,-89 194,-141 223,-141 223,-89 194,-89"/>
</a>
</g>
</g>
<!-- Node6&#45;&gt;Node1 -->
<g id="edge5_Node000001_Node000006" class="edge">
<title>Node6&#45;&gt;Node1</title>
<g id="a_edge5_Node000001_Node000006"><a xlink:title=" ">
<path fill="none" stroke="#63b8ff" d="M189.32,-79.24C184.25,-70.05 178.88,-60.31 174.16,-51.76"/>
<polygon fill="none" stroke="#63b8ff" points="186.25,-80.91 194.14,-87.98 192.38,-77.53 186.25,-80.91"/>
</a>
</g>
</g>
</g>
</svg>
