<?xml version="1.0" encoding="UTF-8" standalone="no"?>
<!DOCTYPE svg PUBLIC "-//W3C//DTD SVG 1.1//EN"
 "http://www.w3.org/Graphics/SVG/1.1/DTD/svg11.dtd">
<!-- Generated by graphviz version 12.1.0 (20240811.2233)
 -->
<!-- Title: app.core.oauth_config.WebOAuthConfig Pages: 1 -->
<svg width="136pt" height="172pt"
 viewBox="0.00 0.00 136.00 172.00" xmlns="http://www.w3.org/2000/svg" xmlns:xlink="http://www.w3.org/1999/xlink">
<g id="graph0" class="graph" transform="scale(1 1) rotate(0) translate(4 168)">
<title>app.core.oauth_config.WebOAuthConfig</title>
<!-- Node1 -->
<g id="Node000001" class="node">
<title>Node1</title>
<g id="a_Node000001"><a xlink:title=" ">
<polygon fill="#999999" stroke="none" points="128,-64 0,-64 0,0 128,0 128,-64"/>
<text text-anchor="start" x="4.75" y="-50.5" font-family="Helvetica,sans-Serif" font-size="10.00">app.core.oauth_config.Web</text>
<text text-anchor="start" x="35.88" y="-38.5" font-family="Helvetica,sans-Serif" font-size="10.00">OAuthConfig</text>
<text text-anchor="start" x="62.5" y="-22.5" font-family="Helvetica,sans-Serif" font-size="10.00"> </text>
<text text-anchor="start" x="62.5" y="-6.5" font-family="Helvetica,sans-Serif" font-size="10.00"> </text>
<polygon fill="#666666" stroke="#666666" points="0,-34 0,-34 128,-34 128,-34 0,-34"/>
<polygon fill="#666666" stroke="#666666" points="0,-18 0,-18 128,-18 128,-18 0,-18"/>
<polygon fill="none" stroke="#666666" points="0,0 0,-64 128,-64 128,0 0,0"/>
</a>
</g>
</g>
<!-- Node2 -->
<g id="Node000002" class="node">
<title>Node2</title>
<g id="a_Node000002"><a xlink:title=" ">
<polygon fill="white" stroke="none" points="76.5,-164 51.5,-164 51.5,-112 76.5,-112 76.5,-164"/>
<text text-anchor="start" x="56.12" y="-150.5" font-family="Helvetica,sans-Serif" font-size="10.00">List</text>
<text text-anchor="start" x="62.5" y="-134.5" font-family="Helvetica,sans-Serif" font-size="10.00"> </text>
<text text-anchor="start" x="62.5" y="-118.5" font-family="Helvetica,sans-Serif" font-size="10.00"> </text>
<polygon fill="#666666" stroke="#666666" points="51.5,-146 51.5,-146 76.5,-146 76.5,-146 51.5,-146"/>
<polygon fill="#666666" stroke="#666666" points="51.5,-130 51.5,-130 76.5,-130 76.5,-130 51.5,-130"/>
<polygon fill="none" stroke="#666666" points="51.5,-112 51.5,-164 76.5,-164 76.5,-112 51.5,-112"/>
</a>
</g>
</g>
<!-- Node2&#45;&gt;Node1 -->
<g id="edge1_Node000001_Node000002" class="edge">
<title>Node2&#45;&gt;Node1</title>
<g id="a_edge1_Node000001_Node000002"><a xlink:title=" ">
<path fill="none" stroke="#63b8ff" d="M64,-112.09C64,-101.41 64,-88.62 64,-76.46"/>
<polygon fill="none" stroke="#63b8ff" points="64,-76.55 60,-70.55 64,-64.55 68,-70.55 64,-76.55"/>
</a>
</g>
<text text-anchor="middle" x="84.25" y="-84.5" font-family="Helvetica,sans-Serif" font-size="10.00" fill="grey"> +scopes</text>
</g>
</g>
</svg>
