<?xml version="1.0" encoding="UTF-8" standalone="no"?>
<!DOCTYPE svg PUBLIC "-//W3C//DTD SVG 1.1//EN"
 "http://www.w3.org/Graphics/SVG/1.1/DTD/svg11.dtd">
<!-- Generated by graphviz version 12.1.0 (20240811.2233)
 -->
<!-- Title: app.oauth2.OAuth2PasswordBearerWithCookie Pages: 1 -->
<svg width="145pt" height="176pt"
 viewBox="0.00 0.00 145.00 176.00" xmlns="http://www.w3.org/2000/svg" xmlns:xlink="http://www.w3.org/1999/xlink">
<g id="graph0" class="graph" transform="scale(1 1) rotate(0) translate(4 172)">
<title>app.oauth2.OAuth2PasswordBearerWithCookie</title>
<!-- Node1 -->
<g id="Node000001" class="node">
<title>Node1</title>
<g id="a_Node000001"><a xlink:title=" ">
<polygon fill="#999999" stroke="none" points="137,-80 0,-80 0,0 137,0 137,-80"/>
<text text-anchor="start" x="4.75" y="-66.5" font-family="Helvetica,sans-Serif" font-size="10.00">app.oauth2.OAuth2Password</text>
<text text-anchor="start" x="28.75" y="-54.5" font-family="Helvetica,sans-Serif" font-size="10.00">BearerWithCookie</text>
<text text-anchor="start" x="23" y="-38.5" font-family="Helvetica,sans-Serif" font-size="10.00">+</text>
<text text-anchor="start" x="52" y="-38.5" font-family="Helvetica,sans-Serif" font-size="10.00">auto_error</text>
<text text-anchor="start" x="23" y="-22.5" font-family="Helvetica,sans-Serif" font-size="10.00">+</text>
<text text-anchor="start" x="52" y="-22.5" font-family="Helvetica,sans-Serif" font-size="10.00">__init__()</text>
<text text-anchor="start" x="23" y="-6.5" font-family="Helvetica,sans-Serif" font-size="10.00">+</text>
<text text-anchor="start" x="52" y="-6.5" font-family="Helvetica,sans-Serif" font-size="10.00">__call__()</text>
<polygon fill="#666666" stroke="#666666" points="0,-50 0,-50 137,-50 137,-50 0,-50"/>
<polygon fill="#666666" stroke="#666666" points="0,-34 0,-34 50,-34 50,-34 0,-34"/>
<polygon fill="#666666" stroke="#666666" points="50,-34 50,-34 137,-34 137,-34 50,-34"/>
<polygon fill="none" stroke="#666666" points="0,0 0,-80 137,-80 137,0 0,0"/>
</a>
</g>
</g>
<!-- Node2 -->
<g id="Node000002" class="node">
<title>Node2</title>
<g id="a_Node000002"><a xlink:title=" ">
<polygon fill="white" stroke="none" points="90,-168 47,-168 47,-116 90,-116 90,-168"/>
<text text-anchor="start" x="52" y="-154.5" font-family="Helvetica,sans-Serif" font-size="10.00">OAuth2</text>
<text text-anchor="start" x="67" y="-138.5" font-family="Helvetica,sans-Serif" font-size="10.00"> </text>
<text text-anchor="start" x="67" y="-122.5" font-family="Helvetica,sans-Serif" font-size="10.00"> </text>
<polygon fill="#666666" stroke="#666666" points="47,-150 47,-150 90,-150 90,-150 47,-150"/>
<polygon fill="#666666" stroke="#666666" points="47,-134 47,-134 90,-134 90,-134 47,-134"/>
<polygon fill="none" stroke="#666666" points="47,-116 47,-168 90,-168 90,-116 47,-116"/>
</a>
</g>
</g>
<!-- Node2&#45;&gt;Node1 -->
<g id="edge1_Node000001_Node000002" class="edge">
<title>Node2&#45;&gt;Node1</title>
<g id="a_edge1_Node000001_Node000002"><a xlink:title=" ">
<path fill="none" stroke="#63b8ff" d="M68.5,-104.61C68.5,-96.5 68.5,-87.86 68.5,-79.65"/>
<polygon fill="none" stroke="#63b8ff" points="65,-104.51 68.5,-114.51 72,-104.51 65,-104.51"/>
</a>
</g>
</g>
</g>
</svg>
