<?xml version="1.0" encoding="UTF-8" standalone="no"?>
<!DOCTYPE svg PUBLIC "-//W3C//DTD SVG 1.1//EN"
 "http://www.w3.org/Graphics/SVG/1.1/DTD/svg11.dtd">
<!-- Generated by graphviz version 12.1.0 (20240811.2233)
 -->
<!-- Title: app.user_action.UserActionCreate Pages: 1 -->
<svg width="138pt" height="160pt"
 viewBox="0.00 0.00 138.00 160.00" xmlns="http://www.w3.org/2000/svg" xmlns:xlink="http://www.w3.org/1999/xlink">
<g id="graph0" class="graph" transform="scale(1 1) rotate(0) translate(4 156)">
<title>app.user_action.UserActionCreate</title>
<!-- Node1 -->
<g id="Node000001" class="node">
<title>Node1</title>
<g id="a_Node000001"><a xlink:title=" ">
<polygon fill="#999999" stroke="none" points="130,-64 0,-64 0,0 130,0 130,-64"/>
<text text-anchor="start" x="4.62" y="-50.5" font-family="Helvetica,sans-Serif" font-size="10.00">app.user_action.UserAction</text>
<text text-anchor="start" x="50.38" y="-38.5" font-family="Helvetica,sans-Serif" font-size="10.00">Create</text>
<text text-anchor="start" x="20" y="-22.5" font-family="Helvetica,sans-Serif" font-size="10.00">+</text>
<text text-anchor="start" x="46" y="-22.5" font-family="Helvetica,sans-Serif" font-size="10.00">parameters</text>
<text text-anchor="start" x="63.5" y="-6.5" font-family="Helvetica,sans-Serif" font-size="10.00"> </text>
<polygon fill="#666666" stroke="#666666" points="0,-34 0,-34 130,-34 130,-34 0,-34"/>
<polygon fill="#666666" stroke="#666666" points="0,-18 0,-18 44,-18 44,-18 0,-18"/>
<polygon fill="#666666" stroke="#666666" points="44,-18 44,-18 130,-18 130,-18 44,-18"/>
<polygon fill="none" stroke="#666666" points="0,0 0,-64 130,-64 130,0 0,0"/>
</a>
</g>
</g>
<!-- Node2 -->
<g id="Node000002" class="node">
<title>Node2</title>
<g id="a_Node000002"><a xlink:title=" ">
<polygon fill="white" stroke="none" points="94,-152 36,-152 36,-100 94,-100 94,-152"/>
<text text-anchor="start" x="40.62" y="-138.5" font-family="Helvetica,sans-Serif" font-size="10.00">BaseModel</text>
<text text-anchor="start" x="63.5" y="-122.5" font-family="Helvetica,sans-Serif" font-size="10.00"> </text>
<text text-anchor="start" x="63.5" y="-106.5" font-family="Helvetica,sans-Serif" font-size="10.00"> </text>
<polygon fill="#666666" stroke="#666666" points="36,-134 36,-134 94,-134 94,-134 36,-134"/>
<polygon fill="#666666" stroke="#666666" points="36,-118 36,-118 94,-118 94,-118 36,-118"/>
<polygon fill="none" stroke="#666666" points="36,-100 36,-152 94,-152 94,-100 36,-100"/>
</a>
</g>
</g>
<!-- Node2&#45;&gt;Node1 -->
<g id="edge1_Node000001_Node000002" class="edge">
<title>Node2&#45;&gt;Node1</title>
<g id="a_edge1_Node000001_Node000002"><a xlink:title=" ">
<path fill="none" stroke="#63b8ff" d="M65,-89.06C65,-80.78 65,-72.04 65,-63.98"/>
<polygon fill="none" stroke="#63b8ff" points="61.5,-88.83 65,-98.83 68.5,-88.83 61.5,-88.83"/>
</a>
</g>
</g>
</g>
</svg>
