<?xml version="1.0" encoding="UTF-8" standalone="no"?>
<!DOCTYPE svg PUBLIC "-//W3C//DTD SVG 1.1//EN"
 "http://www.w3.org/Graphics/SVG/1.1/DTD/svg11.dtd">
<!-- Generated by graphviz version 12.1.0 (20240811.2233)
 -->
<!-- Title: user.RegisteringUser Pages: 1 -->
<svg width="145pt" height="273pt"
 viewBox="0.00 0.00 145.16 273.00" xmlns="http://www.w3.org/2000/svg" xmlns:xlink="http://www.w3.org/1999/xlink">
<g id="graph0" class="graph" transform="scale(1 1) rotate(0) translate(4 269)">
<title>user.RegisteringUser</title>
<!-- Node1 -->
<g id="Node000001" class="node">
<title>Node1</title>
<g id="a_Node000001"><a xlink:title=" ">
<polygon fill="#999999" stroke="none" points="112.5,-52 10.5,-52 10.5,0 112.5,0 112.5,-52"/>
<text text-anchor="start" x="15.38" y="-38.5" font-family="Helvetica,sans-Serif" font-size="10.00">user.RegisteringUser</text>
<text text-anchor="start" x="60" y="-22.5" font-family="Helvetica,sans-Serif" font-size="10.00"> </text>
<text text-anchor="start" x="60" y="-6.5" font-family="Helvetica,sans-Serif" font-size="10.00"> </text>
<polygon fill="#666666" stroke="#666666" points="10.5,-34 10.5,-34 112.5,-34 112.5,-34 10.5,-34"/>
<polygon fill="#666666" stroke="#666666" points="10.5,-18 10.5,-18 112.5,-18 112.5,-18 10.5,-18"/>
<polygon fill="none" stroke="#666666" points="10.5,0 10.5,-52 112.5,-52 112.5,0 10.5,0"/>
</a>
</g>
</g>
<!-- Node2 -->
<g id="Node000002" class="node">
<title>Node2</title>
<g id="a_Node000002"><a xlink:href="classuser_1_1BaseUser.html" target="_top" xlink:title=" ">
<polygon fill="white" stroke="none" points="99,-141 24,-141 24,-89 99,-89 99,-141"/>
<text text-anchor="start" x="28.88" y="-127.5" font-family="Helvetica,sans-Serif" font-size="10.00">user.BaseUser</text>
<text text-anchor="start" x="36.5" y="-111.5" font-family="Helvetica,sans-Serif" font-size="10.00">+</text>
<text text-anchor="start" x="55" y="-111.5" font-family="Helvetica,sans-Serif" font-size="10.00">email</text>
<text text-anchor="start" x="60" y="-95.5" font-family="Helvetica,sans-Serif" font-size="10.00"> </text>
<polygon fill="#666666" stroke="#666666" points="24,-123 24,-123 99,-123 99,-123 24,-123"/>
<polygon fill="#666666" stroke="#666666" points="24,-107 24,-107 53,-107 53,-107 24,-107"/>
<polygon fill="#666666" stroke="#666666" points="53,-107 53,-107 99,-107 99,-107 53,-107"/>
<polygon fill="none" stroke="#666666" points="24,-89 24,-141 99,-141 99,-89 24,-89"/>
</a>
</g>
</g>
<!-- Node2&#45;&gt;Node1 -->
<g id="edge1_Node000001_Node000002" class="edge">
<title>Node2&#45;&gt;Node1</title>
<g id="a_edge1_Node000001_Node000002"><a xlink:title=" ">
<path fill="none" stroke="#63b8ff" d="M61.5,-78.05C61.5,-69.21 61.5,-59.94 61.5,-51.76"/>
<polygon fill="none" stroke="#63b8ff" points="58,-77.79 61.5,-87.79 65,-77.79 58,-77.79"/>
</a>
</g>
</g>
<!-- Node3 -->
<g id="Node000003" class="node">
<title>Node3</title>
<g id="a_Node000003"><a xlink:title=" ">
<polygon fill="white" stroke="none" points="55,-265 0,-265 0,-213 55,-213 55,-265"/>
<text text-anchor="start" x="4.62" y="-251.5" font-family="Helvetica,sans-Serif" font-size="10.00">SQLModel</text>
<text text-anchor="start" x="26" y="-235.5" font-family="Helvetica,sans-Serif" font-size="10.00"> </text>
<text text-anchor="start" x="26" y="-219.5" font-family="Helvetica,sans-Serif" font-size="10.00"> </text>
<polygon fill="#666666" stroke="#666666" points="0,-247 0,-247 55,-247 55,-247 0,-247"/>
<polygon fill="#666666" stroke="#666666" points="0,-231 0,-231 55,-231 55,-231 0,-231"/>
<polygon fill="none" stroke="#666666" points="0,-213 0,-265 55,-265 55,-213 0,-213"/>
</a>
</g>
</g>
<!-- Node3&#45;&gt;Node2 -->
<g id="edge2_Node000002_Node000003" class="edge">
<title>Node3&#45;&gt;Node2</title>
<g id="a_edge2_Node000002_Node000003"><a xlink:title=" ">
<path fill="none" stroke="#63b8ff" d="M37.53,-202.01C43,-182.37 49.64,-158.54 54.55,-140.95"/>
<polygon fill="none" stroke="#63b8ff" points="34.18,-200.99 34.87,-211.56 40.92,-202.87 34.18,-200.99"/>
</a>
</g>
</g>
<!-- Node4 -->
<g id="Node000004" class="node">
<title>Node4</title>
<g id="a_Node000004"><a xlink:title=" ">
<polygon fill="white" stroke="none" points="119.5,-265 73.5,-265 73.5,-213 119.5,-213 119.5,-265"/>
<text text-anchor="start" x="78.5" y="-251.5" font-family="Helvetica,sans-Serif" font-size="10.00">Optional</text>
<text text-anchor="start" x="95" y="-235.5" font-family="Helvetica,sans-Serif" font-size="10.00"> </text>
<text text-anchor="start" x="95" y="-219.5" font-family="Helvetica,sans-Serif" font-size="10.00"> </text>
<polygon fill="#666666" stroke="#666666" points="73.5,-247 73.5,-247 119.5,-247 119.5,-247 73.5,-247"/>
<polygon fill="#666666" stroke="#666666" points="73.5,-231 73.5,-231 119.5,-231 119.5,-231 73.5,-231"/>
<polygon fill="none" stroke="#666666" points="73.5,-213 73.5,-265 119.5,-265 119.5,-213 73.5,-213"/>
</a>
</g>
</g>
<!-- Node4&#45;&gt;Node2 -->
<g id="edge3_Node000002_Node000004" class="edge">
<title>Node4&#45;&gt;Node2</title>
<g id="a_edge3_Node000002_Node000004"><a xlink:title=" ">
<path fill="none" stroke="#63b8ff" d="M89.33,-213.02C84.4,-195.83 77.77,-172.7 72.21,-153.33"/>
<polygon fill="none" stroke="#63b8ff" points="72.22,-153.35 66.72,-148.69 68.91,-141.82 74.41,-146.48 72.22,-153.35"/>
</a>
</g>
<text text-anchor="middle" x="110.16" y="-185.5" font-family="Helvetica,sans-Serif" font-size="10.00" fill="grey"> +founder_id</text>
<text text-anchor="middle" x="110.16" y="-173.5" font-family="Helvetica,sans-Serif" font-size="10.00" fill="grey">+id</text>
<text text-anchor="middle" x="110.16" y="-161.5" font-family="Helvetica,sans-Serif" font-size="10.00" fill="grey">+investor_id</text>
</g>
</g>
</svg>
