<?xml version="1.0" encoding="UTF-8" standalone="no"?>
<!DOCTYPE svg PUBLIC "-//W3C//DTD SVG 1.1//EN"
 "http://www.w3.org/Graphics/SVG/1.1/DTD/svg11.dtd">
<!-- Generated by graphviz version 12.1.0 (20240811.2233)
 -->
<!-- Title: app.user_reaction.UserReaction Pages: 1 -->
<svg width="172pt" height="212pt"
 viewBox="0.00 0.00 171.50 212.00" xmlns="http://www.w3.org/2000/svg" xmlns:xlink="http://www.w3.org/1999/xlink">
<g id="graph0" class="graph" transform="scale(1 1) rotate(0) translate(4 208)">
<title>app.user_reaction.UserReaction</title>
<!-- Node1 -->
<g id="Node000001" class="node">
<title>Node1</title>
<g id="a_Node000001"><a xlink:title=" ">
<polygon fill="#999999" stroke="none" points="163.5,-116 13.5,-116 13.5,0 163.5,0 163.5,-116"/>
<text text-anchor="start" x="18.38" y="-102.5" font-family="Helvetica,sans-Serif" font-size="10.00">app.user_reaction.UserReaction</text>
<text text-anchor="start" x="27.5" y="-86.5" font-family="Helvetica,sans-Serif" font-size="10.00">+</text>
<text text-anchor="start" x="47.5" y="-86.5" font-family="Helvetica,sans-Serif" font-size="10.00">id</text>
<text text-anchor="start" x="27.5" y="-70.5" font-family="Helvetica,sans-Serif" font-size="10.00">+</text>
<text text-anchor="start" x="47.5" y="-70.5" font-family="Helvetica,sans-Serif" font-size="10.00">api_endpoint_url</text>
<text text-anchor="start" x="27.5" y="-54.5" font-family="Helvetica,sans-Serif" font-size="10.00">+</text>
<text text-anchor="start" x="47.5" y="-54.5" font-family="Helvetica,sans-Serif" font-size="10.00">linked_action</text>
<text text-anchor="start" x="27.5" y="-38.5" font-family="Helvetica,sans-Serif" font-size="10.00">+</text>
<text text-anchor="start" x="47.5" y="-38.5" font-family="Helvetica,sans-Serif" font-size="10.00">linked_base_reaction</text>
<text text-anchor="start" x="27.5" y="-22.5" font-family="Helvetica,sans-Serif" font-size="10.00">+</text>
<text text-anchor="start" x="47.5" y="-22.5" font-family="Helvetica,sans-Serif" font-size="10.00">parameters</text>
<text text-anchor="start" x="87" y="-6.5" font-family="Helvetica,sans-Serif" font-size="10.00"> </text>
<polygon fill="#666666" stroke="#666666" points="13.5,-98 13.5,-98 163.5,-98 163.5,-98 13.5,-98"/>
<polygon fill="#666666" stroke="#666666" points="13.5,-18 13.5,-18 45.5,-18 45.5,-18 13.5,-18"/>
<polygon fill="#666666" stroke="#666666" points="45.5,-18 45.5,-18 163.5,-18 163.5,-18 45.5,-18"/>
<polygon fill="none" stroke="#666666" points="13.5,0 13.5,-116 163.5,-116 163.5,0 13.5,0"/>
</a>
</g>
</g>
<!-- Node2 -->
<g id="Node000002" class="node">
<title>Node2</title>
<g id="a_Node000002"><a xlink:title=" ">
<polygon fill="white" stroke="none" points="55,-204 0,-204 0,-152 55,-152 55,-204"/>
<text text-anchor="start" x="4.62" y="-190.5" font-family="Helvetica,sans-Serif" font-size="10.00">SQLModel</text>
<text text-anchor="start" x="26" y="-174.5" font-family="Helvetica,sans-Serif" font-size="10.00"> </text>
<text text-anchor="start" x="26" y="-158.5" font-family="Helvetica,sans-Serif" font-size="10.00"> </text>
<polygon fill="#666666" stroke="#666666" points="0,-186 0,-186 55,-186 55,-186 0,-186"/>
<polygon fill="#666666" stroke="#666666" points="0,-170 0,-170 55,-170 55,-170 0,-170"/>
<polygon fill="none" stroke="#666666" points="0,-152 0,-204 55,-204 55,-152 0,-152"/>
</a>
</g>
</g>
<!-- Node2&#45;&gt;Node1 -->
<g id="edge1_Node000001_Node000002" class="edge">
<title>Node2&#45;&gt;Node1</title>
<g id="a_edge1_Node000001_Node000002"><a xlink:title=" ">
<path fill="none" stroke="#63b8ff" d="M45.48,-142.21C49.78,-133.9 54.48,-124.81 59.14,-115.79"/>
<polygon fill="none" stroke="#63b8ff" points="42.47,-140.43 40.98,-150.92 48.68,-143.64 42.47,-140.43"/>
</a>
</g>
</g>
<!-- Node3 -->
<g id="Node000003" class="node">
<title>Node3</title>
<g id="a_Node000003"><a xlink:title=" ">
<polygon fill="white" stroke="none" points="104,-204 73,-204 73,-152 104,-152 104,-204"/>
<text text-anchor="start" x="78" y="-190.5" font-family="Helvetica,sans-Serif" font-size="10.00">table</text>
<text text-anchor="start" x="87" y="-174.5" font-family="Helvetica,sans-Serif" font-size="10.00"> </text>
<text text-anchor="start" x="87" y="-158.5" font-family="Helvetica,sans-Serif" font-size="10.00"> </text>
<polygon fill="#666666" stroke="#666666" points="73,-186 73,-186 104,-186 104,-186 73,-186"/>
<polygon fill="#666666" stroke="#666666" points="73,-170 73,-170 104,-170 104,-170 73,-170"/>
<polygon fill="none" stroke="#666666" points="73,-152 73,-204 104,-204 104,-152 73,-152"/>
</a>
</g>
</g>
<!-- Node3&#45;&gt;Node1 -->
<g id="edge2_Node000001_Node000003" class="edge">
<title>Node3&#45;&gt;Node1</title>
<g id="a_edge2_Node000001_Node000003"><a xlink:title=" ">
<path fill="none" stroke="#63b8ff" d="M88.5,-140.82C88.5,-132.89 88.5,-124.31 88.5,-115.79"/>
<polygon fill="none" stroke="#63b8ff" points="85,-140.75 88.5,-150.75 92,-140.75 85,-140.75"/>
</a>
</g>
</g>
<!-- Node4 -->
<g id="Node000004" class="node">
<title>Node4</title>
<g id="a_Node000004"><a xlink:title=" ">
<polygon fill="white" stroke="none" points="151,-204 122,-204 122,-152 151,-152 151,-204"/>
<text text-anchor="start" x="126.75" y="-190.5" font-family="Helvetica,sans-Serif" font-size="10.00">True</text>
<text text-anchor="start" x="135" y="-174.5" font-family="Helvetica,sans-Serif" font-size="10.00"> </text>
<text text-anchor="start" x="135" y="-158.5" font-family="Helvetica,sans-Serif" font-size="10.00"> </text>
<polygon fill="#666666" stroke="#666666" points="122,-186 122,-186 151,-186 151,-186 122,-186"/>
<polygon fill="#666666" stroke="#666666" points="122,-170 122,-170 151,-170 151,-170 122,-170"/>
<polygon fill="none" stroke="#666666" points="122,-152 122,-204 151,-204 151,-152 122,-152"/>
</a>
</g>
</g>
<!-- Node4&#45;&gt;Node1 -->
<g id="edge3_Node000001_Node000004" class="edge">
<title>Node4&#45;&gt;Node1</title>
<g id="a_edge3_Node000001_Node000004"><a xlink:title=" ">
<path fill="none" stroke="#63b8ff" d="M122.12,-141.66C118.8,-133.49 115.19,-124.61 111.6,-115.79"/>
<polygon fill="none" stroke="#63b8ff" points="118.86,-142.92 125.87,-150.86 125.34,-140.28 118.86,-142.92"/>
</a>
</g>
</g>
</g>
</svg>
