<?xml version="1.0" encoding="UTF-8" standalone="no"?>
<!DOCTYPE svg PUBLIC "-//W3C//DTD SVG 1.1//EN"
 "http://www.w3.org/Graphics/SVG/1.1/DTD/svg11.dtd">
<!-- Generated by graphviz version 12.1.0 (20240811.2233)
 -->
<!-- Title: app.user_reaction.UserReactionCreate Pages: 1 -->
<svg width="158pt" height="192pt"
 viewBox="0.00 0.00 158.00 192.00" xmlns="http://www.w3.org/2000/svg" xmlns:xlink="http://www.w3.org/1999/xlink">
<g id="graph0" class="graph" transform="scale(1 1) rotate(0) translate(4 188)">
<title>app.user_reaction.UserReactionCreate</title>
<!-- Node1 -->
<g id="Node000001" class="node">
<title>Node1</title>
<g id="a_Node000001"><a xlink:title=" ">
<polygon fill="#999999" stroke="none" points="150,-96 0,-96 0,0 150,0 150,-96"/>
<text text-anchor="start" x="4.88" y="-82.5" font-family="Helvetica,sans-Serif" font-size="10.00">app.user_reaction.UserReaction</text>
<text text-anchor="start" x="60.38" y="-70.5" font-family="Helvetica,sans-Serif" font-size="10.00">Create</text>
<text text-anchor="start" x="19.5" y="-54.5" font-family="Helvetica,sans-Serif" font-size="10.00">+</text>
<text text-anchor="start" x="45" y="-54.5" font-family="Helvetica,sans-Serif" font-size="10.00">api_endpoint_url</text>
<text text-anchor="start" x="19.5" y="-38.5" font-family="Helvetica,sans-Serif" font-size="10.00">+</text>
<text text-anchor="start" x="45" y="-38.5" font-family="Helvetica,sans-Serif" font-size="10.00">linked_action</text>
<text text-anchor="start" x="19.5" y="-22.5" font-family="Helvetica,sans-Serif" font-size="10.00">+</text>
<text text-anchor="start" x="45" y="-22.5" font-family="Helvetica,sans-Serif" font-size="10.00">parameters</text>
<text text-anchor="start" x="73.5" y="-6.5" font-family="Helvetica,sans-Serif" font-size="10.00"> </text>
<polygon fill="#666666" stroke="#666666" points="0,-66 0,-66 150,-66 150,-66 0,-66"/>
<polygon fill="#666666" stroke="#666666" points="0,-18 0,-18 43,-18 43,-18 0,-18"/>
<polygon fill="#666666" stroke="#666666" points="43,-18 43,-18 150,-18 150,-18 43,-18"/>
<polygon fill="none" stroke="#666666" points="0,0 0,-96 150,-96 150,0 0,0"/>
</a>
</g>
</g>
<!-- Node2 -->
<g id="Node000002" class="node">
<title>Node2</title>
<g id="a_Node000002"><a xlink:title=" ">
<polygon fill="white" stroke="none" points="104,-184 46,-184 46,-132 104,-132 104,-184"/>
<text text-anchor="start" x="50.62" y="-170.5" font-family="Helvetica,sans-Serif" font-size="10.00">BaseModel</text>
<text text-anchor="start" x="73.5" y="-154.5" font-family="Helvetica,sans-Serif" font-size="10.00"> </text>
<text text-anchor="start" x="73.5" y="-138.5" font-family="Helvetica,sans-Serif" font-size="10.00"> </text>
<polygon fill="#666666" stroke="#666666" points="46,-166 46,-166 104,-166 104,-166 46,-166"/>
<polygon fill="#666666" stroke="#666666" points="46,-150 46,-150 104,-150 104,-150 46,-150"/>
<polygon fill="none" stroke="#666666" points="46,-132 46,-184 104,-184 104,-132 46,-132"/>
</a>
</g>
</g>
<!-- Node2&#45;&gt;Node1 -->
<g id="edge1_Node000001_Node000002" class="edge">
<title>Node2&#45;&gt;Node1</title>
<g id="a_edge1_Node000001_Node000002"><a xlink:title=" ">
<path fill="none" stroke="#63b8ff" d="M75,-120.93C75,-112.86 75,-104.19 75,-95.75"/>
<polygon fill="none" stroke="#63b8ff" points="71.5,-120.71 75,-130.71 78.5,-120.71 71.5,-120.71"/>
</a>
</g>
</g>
</g>
</svg>
