<?xml version="1.0" encoding="UTF-8" standalone="no"?>
<!DOCTYPE svg PUBLIC "-//W3C//DTD SVG 1.1//EN"
 "http://www.w3.org/Graphics/SVG/1.1/DTD/svg11.dtd">
<!-- Generated by graphviz version 12.1.0 (20240811.2233)
 -->
<!-- Title: app.user_action.UserAction Pages: 1 -->
<svg width="162pt" height="196pt"
 viewBox="0.00 0.00 161.50 196.00" xmlns="http://www.w3.org/2000/svg" xmlns:xlink="http://www.w3.org/1999/xlink">
<g id="graph0" class="graph" transform="scale(1 1) rotate(0) translate(4 192)">
<title>app.user_action.UserAction</title>
<!-- Node1 -->
<g id="Node000001" class="node">
<title>Node1</title>
<g id="a_Node000001"><a xlink:title=" ">
<polygon fill="#999999" stroke="none" points="153.5,-100 23.5,-100 23.5,0 153.5,0 153.5,-100"/>
<text text-anchor="start" x="28.12" y="-86.5" font-family="Helvetica,sans-Serif" font-size="10.00">app.user_action.UserAction</text>
<text text-anchor="start" x="34.5" y="-70.5" font-family="Helvetica,sans-Serif" font-size="10.00">+</text>
<text text-anchor="start" x="51.5" y="-70.5" font-family="Helvetica,sans-Serif" font-size="10.00">id</text>
<text text-anchor="start" x="34.5" y="-54.5" font-family="Helvetica,sans-Serif" font-size="10.00">+</text>
<text text-anchor="start" x="51.5" y="-54.5" font-family="Helvetica,sans-Serif" font-size="10.00">linked_base_action</text>
<text text-anchor="start" x="34.5" y="-38.5" font-family="Helvetica,sans-Serif" font-size="10.00">+</text>
<text text-anchor="start" x="51.5" y="-38.5" font-family="Helvetica,sans-Serif" font-size="10.00">hook_url</text>
<text text-anchor="start" x="34.5" y="-22.5" font-family="Helvetica,sans-Serif" font-size="10.00">+</text>
<text text-anchor="start" x="51.5" y="-22.5" font-family="Helvetica,sans-Serif" font-size="10.00">parameters</text>
<text text-anchor="start" x="87" y="-6.5" font-family="Helvetica,sans-Serif" font-size="10.00"> </text>
<polygon fill="#666666" stroke="#666666" points="23.5,-82 23.5,-82 153.5,-82 153.5,-82 23.5,-82"/>
<polygon fill="#666666" stroke="#666666" points="23.5,-18 23.5,-18 49.5,-18 49.5,-18 23.5,-18"/>
<polygon fill="#666666" stroke="#666666" points="49.5,-18 49.5,-18 153.5,-18 153.5,-18 49.5,-18"/>
<polygon fill="none" stroke="#666666" points="23.5,0 23.5,-100 153.5,-100 153.5,0 23.5,0"/>
</a>
</g>
</g>
<!-- Node2 -->
<g id="Node000002" class="node">
<title>Node2</title>
<g id="a_Node000002"><a xlink:title=" ">
<polygon fill="white" stroke="none" points="55,-188 0,-188 0,-136 55,-136 55,-188"/>
<text text-anchor="start" x="4.62" y="-174.5" font-family="Helvetica,sans-Serif" font-size="10.00">SQLModel</text>
<text text-anchor="start" x="26" y="-158.5" font-family="Helvetica,sans-Serif" font-size="10.00"> </text>
<text text-anchor="start" x="26" y="-142.5" font-family="Helvetica,sans-Serif" font-size="10.00"> </text>
<polygon fill="#666666" stroke="#666666" points="0,-170 0,-170 55,-170 55,-170 0,-170"/>
<polygon fill="#666666" stroke="#666666" points="0,-154 0,-154 55,-154 55,-154 0,-154"/>
<polygon fill="none" stroke="#666666" points="0,-136 0,-188 55,-188 55,-136 0,-136"/>
</a>
</g>
</g>
<!-- Node2&#45;&gt;Node1 -->
<g id="edge1_Node000001_Node000002" class="edge">
<title>Node2&#45;&gt;Node1</title>
<g id="a_edge1_Node000001_Node000002"><a xlink:title=" ">
<path fill="none" stroke="#63b8ff" d="M46.8,-126.2C51.46,-117.79 56.54,-108.64 61.49,-99.72"/>
<polygon fill="none" stroke="#63b8ff" points="43.86,-124.27 42.08,-134.72 49.99,-127.67 43.86,-124.27"/>
</a>
</g>
</g>
<!-- Node3 -->
<g id="Node000003" class="node">
<title>Node3</title>
<g id="a_Node000003"><a xlink:title=" ">
<polygon fill="white" stroke="none" points="104,-188 73,-188 73,-136 104,-136 104,-188"/>
<text text-anchor="start" x="78" y="-174.5" font-family="Helvetica,sans-Serif" font-size="10.00">table</text>
<text text-anchor="start" x="87" y="-158.5" font-family="Helvetica,sans-Serif" font-size="10.00"> </text>
<text text-anchor="start" x="87" y="-142.5" font-family="Helvetica,sans-Serif" font-size="10.00"> </text>
<polygon fill="#666666" stroke="#666666" points="73,-170 73,-170 104,-170 104,-170 73,-170"/>
<polygon fill="#666666" stroke="#666666" points="73,-154 73,-154 104,-154 104,-154 73,-154"/>
<polygon fill="none" stroke="#666666" points="73,-136 73,-188 104,-188 104,-136 73,-136"/>
</a>
</g>
</g>
<!-- Node3&#45;&gt;Node1 -->
<g id="edge2_Node000001_Node000003" class="edge">
<title>Node3&#45;&gt;Node1</title>
<g id="a_edge2_Node000001_Node000003"><a xlink:title=" ">
<path fill="none" stroke="#63b8ff" d="M88.5,-124.53C88.5,-116.58 88.5,-108.05 88.5,-99.72"/>
<polygon fill="none" stroke="#63b8ff" points="85,-124.53 88.5,-134.53 92,-124.53 85,-124.53"/>
</a>
</g>
</g>
<!-- Node4 -->
<g id="Node000004" class="node">
<title>Node4</title>
<g id="a_Node000004"><a xlink:title=" ">
<polygon fill="white" stroke="none" points="151,-188 122,-188 122,-136 151,-136 151,-188"/>
<text text-anchor="start" x="126.75" y="-174.5" font-family="Helvetica,sans-Serif" font-size="10.00">True</text>
<text text-anchor="start" x="135" y="-158.5" font-family="Helvetica,sans-Serif" font-size="10.00"> </text>
<text text-anchor="start" x="135" y="-142.5" font-family="Helvetica,sans-Serif" font-size="10.00"> </text>
<polygon fill="#666666" stroke="#666666" points="122,-170 122,-170 151,-170 151,-170 122,-170"/>
<polygon fill="#666666" stroke="#666666" points="122,-154 122,-154 151,-154 151,-154 122,-154"/>
<polygon fill="none" stroke="#666666" points="122,-136 122,-188 151,-188 151,-136 122,-136"/>
</a>
</g>
</g>
<!-- Node4&#45;&gt;Node1 -->
<g id="edge3_Node000001_Node000004" class="edge">
<title>Node4&#45;&gt;Node1</title>
<g id="a_edge3_Node000001_Node000004"><a xlink:title=" ">
<path fill="none" stroke="#63b8ff" d="M121.07,-125.65C117.47,-117.39 113.57,-108.44 109.76,-99.72"/>
<polygon fill="none" stroke="#63b8ff" points="117.8,-126.89 125,-134.65 124.21,-124.09 117.8,-126.89"/>
</a>
</g>
</g>
</g>
</svg>
