<?xml version="1.0" encoding="UTF-8" standalone="no"?>
<!DOCTYPE svg PUBLIC "-//W3C//DTD SVG 1.1//EN"
 "http://www.w3.org/Graphics/SVG/1.1/DTD/svg11.dtd">
<!-- Generated by graphviz version 12.1.0 (20240811.2233)
 -->
<!-- Title: user.EmailCheck Pages: 1 -->
<svg width="93pt" height="148pt"
 viewBox="0.00 0.00 93.00 148.00" xmlns="http://www.w3.org/2000/svg" xmlns:xlink="http://www.w3.org/1999/xlink">
<g id="graph0" class="graph" transform="scale(1 1) rotate(0) translate(4 144)">
<title>user.EmailCheck</title>
<!-- Node1 -->
<g id="Node000001" class="node">
<title>Node1</title>
<g id="a_Node000001"><a xlink:title=" ">
<polygon fill="#999999" stroke="none" points="85,-52 0,-52 0,0 85,0 85,-52"/>
<text text-anchor="start" x="5" y="-38.5" font-family="Helvetica,sans-Serif" font-size="10.00">user.EmailCheck</text>
<text text-anchor="start" x="41" y="-22.5" font-family="Helvetica,sans-Serif" font-size="10.00"> </text>
<text text-anchor="start" x="41" y="-6.5" font-family="Helvetica,sans-Serif" font-size="10.00"> </text>
<polygon fill="#666666" stroke="#666666" points="0,-34 0,-34 85,-34 85,-34 0,-34"/>
<polygon fill="#666666" stroke="#666666" points="0,-18 0,-18 85,-18 85,-18 0,-18"/>
<polygon fill="none" stroke="#666666" points="0,0 0,-52 85,-52 85,0 0,0"/>
</a>
</g>
</g>
<!-- Node2 -->
<g id="Node000002" class="node">
<title>Node2</title>
<g id="a_Node000002"><a xlink:title=" ">
<polygon fill="white" stroke="none" points="71.5,-140 13.5,-140 13.5,-88 71.5,-88 71.5,-140"/>
<text text-anchor="start" x="18.12" y="-126.5" font-family="Helvetica,sans-Serif" font-size="10.00">BaseModel</text>
<text text-anchor="start" x="41" y="-110.5" font-family="Helvetica,sans-Serif" font-size="10.00"> </text>
<text text-anchor="start" x="41" y="-94.5" font-family="Helvetica,sans-Serif" font-size="10.00"> </text>
<polygon fill="#666666" stroke="#666666" points="13.5,-122 13.5,-122 71.5,-122 71.5,-122 13.5,-122"/>
<polygon fill="#666666" stroke="#666666" points="13.5,-106 13.5,-106 71.5,-106 71.5,-106 13.5,-106"/>
<polygon fill="none" stroke="#666666" points="13.5,-88 13.5,-140 71.5,-140 71.5,-88 13.5,-88"/>
</a>
</g>
</g>
<!-- Node2&#45;&gt;Node1 -->
<g id="edge1_Node000001_Node000002" class="edge">
<title>Node2&#45;&gt;Node1</title>
<g id="a_edge1_Node000001_Node000002"><a xlink:title=" ">
<path fill="none" stroke="#63b8ff" d="M42.5,-76.66C42.5,-68.29 42.5,-59.57 42.5,-51.82"/>
<polygon fill="none" stroke="#63b8ff" points="39,-76.61 42.5,-86.61 46,-76.61 39,-76.61"/>
</a>
</g>
</g>
</g>
</svg>
