<?xml version="1.0" encoding="UTF-8" standalone="no"?>
<!DOCTYPE svg PUBLIC "-//W3C//DTD SVG 1.1//EN"
 "http://www.w3.org/Graphics/SVG/1.1/DTD/svg11.dtd">
<!-- Generated by graphviz version 12.1.0 (20240811.2233)
 -->
<!-- Title: user.User Pages: 1 -->
<svg width="269pt" height="273pt"
 viewBox="0.00 0.00 269.00 273.00" xmlns="http://www.w3.org/2000/svg" xmlns:xlink="http://www.w3.org/1999/xlink">
<g id="graph0" class="graph" transform="scale(1 1) rotate(0) translate(4 269)">
<title>user.User</title>
<!-- Node1 -->
<g id="Node000001" class="node">
<title>Node1</title>
<g id="a_Node000001"><a xlink:title=" ">
<polygon fill="#999999" stroke="none" points="189.5,-52 137.5,-52 137.5,0 189.5,0 189.5,-52"/>
<text text-anchor="start" x="142.12" y="-38.5" font-family="Helvetica,sans-Serif" font-size="10.00">user.User</text>
<text text-anchor="start" x="162" y="-22.5" font-family="Helvetica,sans-Serif" font-size="10.00"> </text>
<text text-anchor="start" x="162" y="-6.5" font-family="Helvetica,sans-Serif" font-size="10.00"> </text>
<polygon fill="#666666" stroke="#666666" points="137.5,-34 137.5,-34 189.5,-34 189.5,-34 137.5,-34"/>
<polygon fill="#666666" stroke="#666666" points="137.5,-18 137.5,-18 189.5,-18 189.5,-18 137.5,-18"/>
<polygon fill="none" stroke="#666666" points="137.5,0 137.5,-52 189.5,-52 189.5,0 137.5,0"/>
</a>
</g>
</g>
<!-- Node2 -->
<g id="Node000002" class="node">
<title>Node2</title>
<g id="a_Node000002"><a xlink:href="classuser_1_1BaseUser.html" target="_top" xlink:title=" ">
<polygon fill="white" stroke="none" points="93,-141 18,-141 18,-89 93,-89 93,-141"/>
<text text-anchor="start" x="22.88" y="-127.5" font-family="Helvetica,sans-Serif" font-size="10.00">user.BaseUser</text>
<text text-anchor="start" x="30.5" y="-111.5" font-family="Helvetica,sans-Serif" font-size="10.00">+</text>
<text text-anchor="start" x="49" y="-111.5" font-family="Helvetica,sans-Serif" font-size="10.00">email</text>
<text text-anchor="start" x="54" y="-95.5" font-family="Helvetica,sans-Serif" font-size="10.00"> </text>
<polygon fill="#666666" stroke="#666666" points="18,-123 18,-123 93,-123 93,-123 18,-123"/>
<polygon fill="#666666" stroke="#666666" points="18,-107 18,-107 47,-107 47,-107 18,-107"/>
<polygon fill="#666666" stroke="#666666" points="47,-107 47,-107 93,-107 93,-107 47,-107"/>
<polygon fill="none" stroke="#666666" points="18,-89 18,-141 93,-141 93,-89 18,-89"/>
</a>
</g>
</g>
<!-- Node2&#45;&gt;Node1 -->
<g id="edge1_Node000001_Node000002" class="edge">
<title>Node2&#45;&gt;Node1</title>
<g id="a_edge1_Node000001_Node000002"><a xlink:title=" ">
<path fill="none" stroke="#63b8ff" d="M95.07,-82.13C109.27,-70.68 124.92,-58.08 137.65,-47.82"/>
<polygon fill="none" stroke="#63b8ff" points="93.22,-79.12 87.63,-88.12 97.61,-84.57 93.22,-79.12"/>
</a>
</g>
</g>
<!-- Node3 -->
<g id="Node000003" class="node">
<title>Node3</title>
<g id="a_Node000003"><a xlink:title=" ">
<polygon fill="white" stroke="none" points="55,-265 0,-265 0,-213 55,-213 55,-265"/>
<text text-anchor="start" x="4.62" y="-251.5" font-family="Helvetica,sans-Serif" font-size="10.00">SQLModel</text>
<text text-anchor="start" x="26" y="-235.5" font-family="Helvetica,sans-Serif" font-size="10.00"> </text>
<text text-anchor="start" x="26" y="-219.5" font-family="Helvetica,sans-Serif" font-size="10.00"> </text>
<polygon fill="#666666" stroke="#666666" points="0,-247 0,-247 55,-247 55,-247 0,-247"/>
<polygon fill="#666666" stroke="#666666" points="0,-231 0,-231 55,-231 55,-231 0,-231"/>
<polygon fill="none" stroke="#666666" points="0,-213 0,-265 55,-265 55,-213 0,-213"/>
</a>
</g>
</g>
<!-- Node3&#45;&gt;Node2 -->
<g id="edge2_Node000002_Node000003" class="edge">
<title>Node3&#45;&gt;Node2</title>
<g id="a_edge2_Node000002_Node000003"><a xlink:title=" ">
<path fill="none" stroke="#63b8ff" d="M32.8,-201.94C35.08,-188.39 38.02,-172.9 41.5,-159 42.99,-153.06 44.87,-146.75 46.76,-140.84"/>
<polygon fill="none" stroke="#63b8ff" points="29.36,-201.34 31.22,-211.77 36.27,-202.45 29.36,-201.34"/>
</a>
</g>
</g>
<!-- Node4 -->
<g id="Node000004" class="node">
<title>Node4</title>
<g id="a_Node000004"><a xlink:title=" ">
<polygon fill="white" stroke="none" points="135.5,-265 89.5,-265 89.5,-213 135.5,-213 135.5,-265"/>
<text text-anchor="start" x="94.5" y="-251.5" font-family="Helvetica,sans-Serif" font-size="10.00">Optional</text>
<text text-anchor="start" x="111" y="-235.5" font-family="Helvetica,sans-Serif" font-size="10.00"> </text>
<text text-anchor="start" x="111" y="-219.5" font-family="Helvetica,sans-Serif" font-size="10.00"> </text>
<polygon fill="#666666" stroke="#666666" points="89.5,-247 89.5,-247 135.5,-247 135.5,-247 89.5,-247"/>
<polygon fill="#666666" stroke="#666666" points="89.5,-231 89.5,-231 135.5,-231 135.5,-231 89.5,-231"/>
<polygon fill="none" stroke="#666666" points="89.5,-213 89.5,-265 135.5,-265 135.5,-213 89.5,-213"/>
</a>
</g>
</g>
<!-- Node4&#45;&gt;Node1 -->
<g id="edge6_Node000001_Node000004" class="edge">
<title>Node4&#45;&gt;Node1</title>
<g id="a_edge6_Node000001_Node000004"><a xlink:title=" ">
<path fill="none" stroke="#63b8ff" d="M115.45,-213.15C119.34,-183.29 127.14,-131.87 139.25,-89 141.59,-80.73 144.61,-72.03 147.73,-63.85"/>
<polygon fill="none" stroke="#63b8ff" points="147.69,-63.95 146.19,-56.89 152.12,-52.79 153.62,-59.85 147.69,-63.95"/>
</a>
</g>
<text text-anchor="middle" x="156.88" y="-111.5" font-family="Helvetica,sans-Serif" font-size="10.00" fill="grey"> +image</text>
</g>
<!-- Node4&#45;&gt;Node2 -->
<g id="edge3_Node000002_Node000004" class="edge">
<title>Node4&#45;&gt;Node2</title>
<g id="a_edge3_Node000002_Node000004"><a xlink:title=" ">
<path fill="none" stroke="#63b8ff" d="M89.71,-224.78C79.24,-217.42 67.78,-207.27 61.5,-195 55.11,-182.51 52.86,-167.43 52.46,-153.81"/>
<polygon fill="none" stroke="#63b8ff" points="52.46,-153.73 48.53,-147.68 52.59,-141.73 56.53,-147.77 52.46,-153.73"/>
</a>
</g>
<text text-anchor="middle" x="88.5" y="-185.5" font-family="Helvetica,sans-Serif" font-size="10.00" fill="grey"> +founder_id</text>
<text text-anchor="middle" x="88.5" y="-173.5" font-family="Helvetica,sans-Serif" font-size="10.00" fill="grey">+id</text>
<text text-anchor="middle" x="88.5" y="-161.5" font-family="Helvetica,sans-Serif" font-size="10.00" fill="grey">+investor_id</text>
</g>
<!-- Node5 -->
<g id="Node000005" class="node">
<title>Node5</title>
<g id="a_Node000005"><a xlink:title=" ">
<polygon fill="white" stroke="none" points="214,-141 183,-141 183,-89 214,-89 214,-141"/>
<text text-anchor="start" x="188" y="-127.5" font-family="Helvetica,sans-Serif" font-size="10.00">table</text>
<text text-anchor="start" x="197" y="-111.5" font-family="Helvetica,sans-Serif" font-size="10.00"> </text>
<text text-anchor="start" x="197" y="-95.5" font-family="Helvetica,sans-Serif" font-size="10.00"> </text>
<polygon fill="#666666" stroke="#666666" points="183,-123 183,-123 214,-123 214,-123 183,-123"/>
<polygon fill="#666666" stroke="#666666" points="183,-107 183,-107 214,-107 214,-107 183,-107"/>
<polygon fill="none" stroke="#666666" points="183,-89 183,-141 214,-141 214,-89 183,-89"/>
</a>
</g>
</g>
<!-- Node5&#45;&gt;Node1 -->
<g id="edge4_Node000001_Node000005" class="edge">
<title>Node5&#45;&gt;Node1</title>
<g id="a_edge4_Node000001_Node000005"><a xlink:title=" ">
<path fill="none" stroke="#63b8ff" d="M184.28,-78.65C180.65,-69.63 176.83,-60.12 173.46,-51.76"/>
<polygon fill="none" stroke="#63b8ff" points="181.02,-79.93 188,-87.9 187.51,-77.31 181.02,-79.93"/>
</a>
</g>
</g>
<!-- Node6 -->
<g id="Node000006" class="node">
<title>Node6</title>
<g id="a_Node000006"><a xlink:title=" ">
<polygon fill="white" stroke="none" points="261,-141 232,-141 232,-89 261,-89 261,-141"/>
<text text-anchor="start" x="236.75" y="-127.5" font-family="Helvetica,sans-Serif" font-size="10.00">True</text>
<text text-anchor="start" x="245" y="-111.5" font-family="Helvetica,sans-Serif" font-size="10.00"> </text>
<text text-anchor="start" x="245" y="-95.5" font-family="Helvetica,sans-Serif" font-size="10.00"> </text>
<polygon fill="#666666" stroke="#666666" points="232,-123 232,-123 261,-123 261,-123 232,-123"/>
<polygon fill="#666666" stroke="#666666" points="232,-107 232,-107 261,-107 261,-107 232,-107"/>
<polygon fill="none" stroke="#666666" points="232,-89 232,-141 261,-141 261,-89 232,-89"/>
</a>
</g>
</g>
<!-- Node6&#45;&gt;Node1 -->
<g id="edge5_Node000001_Node000006" class="edge">
<title>Node6&#45;&gt;Node1</title>
<g id="a_edge5_Node000001_Node000006"><a xlink:title=" ">
<path fill="none" stroke="#63b8ff" d="M224.57,-90.14C224.21,-89.75 223.85,-89.38 223.5,-89 211.88,-76.69 198.83,-63.17 187.88,-51.9"/>
<polygon fill="none" stroke="#63b8ff" points="221.8,-92.3 231.17,-97.23 226.92,-87.53 221.8,-92.3"/>
</a>
</g>
</g>
</g>
</svg>
