<?xml version="1.0" encoding="UTF-8" standalone="no"?>
<!DOCTYPE svg PUBLIC "-//W3C//DTD SVG 1.1//EN"
 "http://www.w3.org/Graphics/SVG/1.1/DTD/svg11.dtd">
<!-- Generated by graphviz version 12.1.0 (20240811.2233)
 -->
<!-- Title: app.user_reaction.UserReactionCreate Pages: 1 -->
<svg width="185pt" height="196pt"
 viewBox="0.00 0.00 185.18 196.00" xmlns="http://www.w3.org/2000/svg" xmlns:xlink="http://www.w3.org/1999/xlink">
<g id="graph0" class="graph" transform="scale(1 1) rotate(0) translate(4 192)">
<title>app.user_reaction.UserReactionCreate</title>
<!-- Node1 -->
<g id="Node000001" class="node">
<title>Node1</title>
<g id="a_Node000001"><a xlink:title=" ">
<polygon fill="#999999" stroke="none" points="150,-64 0,-64 0,0 150,0 150,-64"/>
<text text-anchor="start" x="4.88" y="-50.5" font-family="Helvetica,sans-Serif" font-size="10.00">app.user_reaction.UserReaction</text>
<text text-anchor="start" x="60.38" y="-38.5" font-family="Helvetica,sans-Serif" font-size="10.00">Create</text>
<text text-anchor="start" x="73.5" y="-22.5" font-family="Helvetica,sans-Serif" font-size="10.00"> </text>
<text text-anchor="start" x="73.5" y="-6.5" font-family="Helvetica,sans-Serif" font-size="10.00"> </text>
<polygon fill="#666666" stroke="#666666" points="0,-34 0,-34 150,-34 150,-34 0,-34"/>
<polygon fill="#666666" stroke="#666666" points="0,-18 0,-18 150,-18 150,-18 0,-18"/>
<polygon fill="none" stroke="#666666" points="0,0 0,-64 150,-64 150,0 0,0"/>
</a>
</g>
</g>
<!-- Node2 -->
<g id="Node000002" class="node">
<title>Node2</title>
<g id="a_Node000002"><a xlink:title=" ">
<polygon fill="white" stroke="none" points="69,-188 11,-188 11,-136 69,-136 69,-188"/>
<text text-anchor="start" x="15.62" y="-174.5" font-family="Helvetica,sans-Serif" font-size="10.00">BaseModel</text>
<text text-anchor="start" x="38.5" y="-158.5" font-family="Helvetica,sans-Serif" font-size="10.00"> </text>
<text text-anchor="start" x="38.5" y="-142.5" font-family="Helvetica,sans-Serif" font-size="10.00"> </text>
<polygon fill="#666666" stroke="#666666" points="11,-170 11,-170 69,-170 69,-170 11,-170"/>
<polygon fill="#666666" stroke="#666666" points="11,-154 11,-154 69,-154 69,-154 11,-154"/>
<polygon fill="none" stroke="#666666" points="11,-136 11,-188 69,-188 69,-136 11,-136"/>
</a>
</g>
</g>
<!-- Node2&#45;&gt;Node1 -->
<g id="edge1_Node000001_Node000002" class="edge">
<title>Node2&#45;&gt;Node1</title>
<g id="a_edge1_Node000001_Node000002"><a xlink:title=" ">
<path fill="none" stroke="#63b8ff" d="M49.86,-124.94C55.13,-105.67 61.55,-82.2 66.58,-63.8"/>
<polygon fill="none" stroke="#63b8ff" points="46.49,-123.99 47.23,-134.56 53.24,-125.83 46.49,-123.99"/>
</a>
</g>
</g>
<!-- Node3 -->
<g id="Node000003" class="node">
<title>Node3</title>
<g id="a_Node000003"><a xlink:title=" ">
<polygon fill="white" stroke="none" points="133,-188 87,-188 87,-136 133,-136 133,-188"/>
<text text-anchor="start" x="92" y="-174.5" font-family="Helvetica,sans-Serif" font-size="10.00">Optional</text>
<text text-anchor="start" x="108.5" y="-158.5" font-family="Helvetica,sans-Serif" font-size="10.00"> </text>
<text text-anchor="start" x="108.5" y="-142.5" font-family="Helvetica,sans-Serif" font-size="10.00"> </text>
<polygon fill="#666666" stroke="#666666" points="87,-170 87,-170 133,-170 133,-170 87,-170"/>
<polygon fill="#666666" stroke="#666666" points="87,-154 87,-154 133,-154 133,-154 87,-154"/>
<polygon fill="none" stroke="#666666" points="87,-136 87,-188 133,-188 133,-136 87,-136"/>
</a>
</g>
</g>
<!-- Node3&#45;&gt;Node1 -->
<g id="edge2_Node000001_Node000003" class="edge">
<title>Node3&#45;&gt;Node1</title>
<g id="a_edge2_Node000001_Node000003"><a xlink:title=" ">
<path fill="none" stroke="#63b8ff" d="M103.17,-136.02C98.53,-119.07 92.28,-96.21 86.85,-76.34"/>
<polygon fill="none" stroke="#63b8ff" points="86.82,-76.24 81.38,-71.51 83.66,-64.67 89.1,-69.4 86.82,-76.24"/>
</a>
</g>
<text text-anchor="middle" x="137.43" y="-108.5" font-family="Helvetica,sans-Serif" font-size="10.00" fill="grey"> +api_endpoint_url</text>
<text text-anchor="middle" x="137.43" y="-96.5" font-family="Helvetica,sans-Serif" font-size="10.00" fill="grey">+linked_action</text>
<text text-anchor="middle" x="137.43" y="-84.5" font-family="Helvetica,sans-Serif" font-size="10.00" fill="grey">+parameters</text>
</g>
</g>
</svg>
