<?xml version="1.0" encoding="UTF-8" standalone="no"?>
<!DOCTYPE svg PUBLIC "-//W3C//DTD SVG 1.1//EN"
 "http://www.w3.org/Graphics/SVG/1.1/DTD/svg11.dtd">
<!-- Generated by graphviz version 12.1.0 (20240811.2233)
 -->
<!-- Title: app.core.settings.Settings Pages: 1 -->
<svg width="132pt" height="180pt"
 viewBox="0.00 0.00 132.00 180.00" xmlns="http://www.w3.org/2000/svg" xmlns:xlink="http://www.w3.org/1999/xlink">
<g id="graph0" class="graph" transform="scale(1 1) rotate(0) translate(4 176)">
<title>app.core.settings.Settings</title>
<!-- Node1 -->
<g id="Node000001" class="node">
<title>Node1</title>
<g id="a_Node000001"><a xlink:title=" ">
<polygon fill="#999999" stroke="none" points="124,-84 0,-84 0,0 124,0 124,-84"/>
<text text-anchor="start" x="5" y="-70.5" font-family="Helvetica,sans-Serif" font-size="10.00">app.core.settings.Settings</text>
<text text-anchor="start" x="4.5" y="-54.5" font-family="Helvetica,sans-Serif" font-size="10.00">+</text>
<text text-anchor="start" x="15" y="-54.5" font-family="Helvetica,sans-Serif" font-size="10.00">APP_HOST</text>
<text text-anchor="start" x="4.5" y="-38.5" font-family="Helvetica,sans-Serif" font-size="10.00">+</text>
<text text-anchor="start" x="15" y="-38.5" font-family="Helvetica,sans-Serif" font-size="10.00">APP_PORT</text>
<text text-anchor="start" x="4.5" y="-22.5" font-family="Helvetica,sans-Serif" font-size="10.00">+</text>
<text text-anchor="start" x="15" y="-22.5" font-family="Helvetica,sans-Serif" font-size="10.00">PROVIDERS_CONFIG</text>
<text text-anchor="start" x="60.5" y="-6.5" font-family="Helvetica,sans-Serif" font-size="10.00"> </text>
<polygon fill="#666666" stroke="#666666" points="0,-66 0,-66 124,-66 124,-66 0,-66"/>
<polygon fill="#666666" stroke="#666666" points="0,-18 0,-18 13,-18 13,-18 0,-18"/>
<polygon fill="#666666" stroke="#666666" points="13,-18 13,-18 124,-18 124,-18 13,-18"/>
<polygon fill="none" stroke="#666666" points="0,0 0,-84 124,-84 124,0 0,0"/>
</a>
</g>
</g>
<!-- Node2 -->
<g id="Node000002" class="node">
<title>Node2</title>
<g id="a_Node000002"><a xlink:title=" ">
<polygon fill="white" stroke="none" points="96,-172 28,-172 28,-120 96,-120 96,-172"/>
<text text-anchor="start" x="32.75" y="-158.5" font-family="Helvetica,sans-Serif" font-size="10.00">BaseSettings</text>
<text text-anchor="start" x="60.5" y="-142.5" font-family="Helvetica,sans-Serif" font-size="10.00"> </text>
<text text-anchor="start" x="60.5" y="-126.5" font-family="Helvetica,sans-Serif" font-size="10.00"> </text>
<polygon fill="#666666" stroke="#666666" points="28,-154 28,-154 96,-154 96,-154 28,-154"/>
<polygon fill="#666666" stroke="#666666" points="28,-138 28,-138 96,-138 96,-138 28,-138"/>
<polygon fill="none" stroke="#666666" points="28,-120 28,-172 96,-172 96,-120 28,-120"/>
</a>
</g>
</g>
<!-- Node2&#45;&gt;Node1 -->
<g id="edge1_Node000001_Node000002" class="edge">
<title>Node2&#45;&gt;Node1</title>
<g id="a_edge1_Node000001_Node000002"><a xlink:title=" ">
<path fill="none" stroke="#63b8ff" d="M62,-108.77C62,-100.75 62,-92.19 62,-83.99"/>
<polygon fill="none" stroke="#63b8ff" points="58.5,-108.53 62,-118.53 65.5,-108.53 58.5,-108.53"/>
</a>
</g>
</g>
</g>
</svg>
