<?xml version="1.0" encoding="UTF-8" standalone="no"?>
<!DOCTYPE svg PUBLIC "-//W3C//DTD SVG 1.1//EN"
 "http://www.w3.org/Graphics/SVG/1.1/DTD/svg11.dtd">
<!-- Generated by graphviz version 12.1.0 (20240811.2233)
 -->
<!-- Title: app.action.Action Pages: 1 -->
<svg width="220pt" height="297pt"
 viewBox="0.00 0.00 220.00 297.00" xmlns="http://www.w3.org/2000/svg" xmlns:xlink="http://www.w3.org/1999/xlink">
<g id="graph0" class="graph" transform="scale(1 1) rotate(0) translate(4 293)">
<title>app.action.Action</title>
<!-- Node1 -->
<g id="Node000001" class="node">
<title>Node1</title>
<g id="a_Node000001"><a xlink:title=" ">
<polygon fill="#999999" stroke="none" points="192,-52 107,-52 107,0 192,0 192,-52"/>
<text text-anchor="start" x="111.62" y="-38.5" font-family="Helvetica,sans-Serif" font-size="10.00">app.action.Action</text>
<text text-anchor="start" x="148" y="-22.5" font-family="Helvetica,sans-Serif" font-size="10.00"> </text>
<text text-anchor="start" x="148" y="-6.5" font-family="Helvetica,sans-Serif" font-size="10.00"> </text>
<polygon fill="#666666" stroke="#666666" points="107,-34 107,-34 192,-34 192,-34 107,-34"/>
<polygon fill="#666666" stroke="#666666" points="107,-18 107,-18 192,-18 192,-18 107,-18"/>
<polygon fill="none" stroke="#666666" points="107,0 107,-52 192,-52 192,0 107,0"/>
</a>
</g>
</g>
<!-- Node2 -->
<g id="Node000002" class="node">
<title>Node2</title>
<g id="a_Node000002"><a xlink:href="classapp_1_1action_1_1BaseAction.html" target="_top" xlink:title=" ">
<polygon fill="white" stroke="none" points="115.5,-141 7.5,-141 7.5,-89 115.5,-89 115.5,-141"/>
<text text-anchor="start" x="12.38" y="-127.5" font-family="Helvetica,sans-Serif" font-size="10.00">app.action.BaseAction</text>
<text text-anchor="start" x="24" y="-111.5" font-family="Helvetica,sans-Serif" font-size="10.00">+</text>
<text text-anchor="start" x="46.5" y="-111.5" font-family="Helvetica,sans-Serif" font-size="10.00">is_polling</text>
<text text-anchor="start" x="60" y="-95.5" font-family="Helvetica,sans-Serif" font-size="10.00"> </text>
<polygon fill="#666666" stroke="#666666" points="7.5,-123 7.5,-123 115.5,-123 115.5,-123 7.5,-123"/>
<polygon fill="#666666" stroke="#666666" points="7.5,-107 7.5,-107 44.5,-107 44.5,-107 7.5,-107"/>
<polygon fill="#666666" stroke="#666666" points="44.5,-107 44.5,-107 115.5,-107 115.5,-107 44.5,-107"/>
<polygon fill="none" stroke="#666666" points="7.5,-89 7.5,-141 115.5,-141 115.5,-89 7.5,-89"/>
</a>
</g>
</g>
<!-- Node2&#45;&gt;Node1 -->
<g id="edge1_Node000001_Node000002" class="edge">
<title>Node2&#45;&gt;Node1</title>
<g id="a_edge1_Node000001_Node000002"><a xlink:title=" ">
<path fill="none" stroke="#63b8ff" d="M94.57,-81.31C104.47,-71.52 115.16,-60.95 124.46,-51.76"/>
<polygon fill="none" stroke="#63b8ff" points="92.21,-78.72 87.56,-88.24 97.13,-83.7 92.21,-78.72"/>
</a>
</g>
</g>
<!-- Node3 -->
<g id="Node000003" class="node">
<title>Node3</title>
<g id="a_Node000003"><a xlink:title=" ">
<polygon fill="white" stroke="none" points="55,-289 0,-289 0,-237 55,-237 55,-289"/>
<text text-anchor="start" x="4.62" y="-275.5" font-family="Helvetica,sans-Serif" font-size="10.00">SQLModel</text>
<text text-anchor="start" x="26" y="-259.5" font-family="Helvetica,sans-Serif" font-size="10.00"> </text>
<text text-anchor="start" x="26" y="-243.5" font-family="Helvetica,sans-Serif" font-size="10.00"> </text>
<polygon fill="#666666" stroke="#666666" points="0,-271 0,-271 55,-271 55,-271 0,-271"/>
<polygon fill="#666666" stroke="#666666" points="0,-255 0,-255 55,-255 55,-255 0,-255"/>
<polygon fill="none" stroke="#666666" points="0,-237 0,-289 55,-289 55,-237 0,-237"/>
</a>
</g>
</g>
<!-- Node3&#45;&gt;Node2 -->
<g id="edge2_Node000002_Node000003" class="edge">
<title>Node3&#45;&gt;Node2</title>
<g id="a_edge2_Node000002_Node000003"><a xlink:title=" ">
<path fill="none" stroke="#63b8ff" d="M35.85,-226.13C42.02,-199.66 50.25,-164.32 55.7,-140.89"/>
<polygon fill="none" stroke="#63b8ff" points="32.47,-225.23 33.61,-235.76 39.29,-226.81 32.47,-225.23"/>
</a>
</g>
</g>
<!-- Node4 -->
<g id="Node000004" class="node">
<title>Node4</title>
<g id="a_Node000004"><a xlink:title=" ">
<polygon fill="white" stroke="none" points="119.5,-289 73.5,-289 73.5,-237 119.5,-237 119.5,-289"/>
<text text-anchor="start" x="78.5" y="-275.5" font-family="Helvetica,sans-Serif" font-size="10.00">Optional</text>
<text text-anchor="start" x="95" y="-259.5" font-family="Helvetica,sans-Serif" font-size="10.00"> </text>
<text text-anchor="start" x="95" y="-243.5" font-family="Helvetica,sans-Serif" font-size="10.00"> </text>
<polygon fill="#666666" stroke="#666666" points="73.5,-271 73.5,-271 119.5,-271 119.5,-271 73.5,-271"/>
<polygon fill="#666666" stroke="#666666" points="73.5,-255 73.5,-255 119.5,-255 119.5,-255 73.5,-255"/>
<polygon fill="none" stroke="#666666" points="73.5,-237 73.5,-289 119.5,-289 119.5,-237 73.5,-237"/>
</a>
</g>
</g>
<!-- Node4&#45;&gt;Node2 -->
<g id="edge3_Node000002_Node000004" class="edge">
<title>Node4&#45;&gt;Node2</title>
<g id="a_edge3_Node000002_Node000004"><a xlink:title=" ">
<path fill="none" stroke="#63b8ff" d="M90.56,-237.23C85.06,-214.27 76.79,-179.77 70.48,-153.44"/>
<polygon fill="none" stroke="#63b8ff" points="70.47,-153.43 65.19,-148.53 67.68,-141.76 72.97,-146.67 70.47,-153.43"/>
</a>
</g>
<text text-anchor="middle" x="114.66" y="-209.5" font-family="Helvetica,sans-Serif" font-size="10.00" fill="grey"> +description</text>
<text text-anchor="middle" x="114.66" y="-197.5" font-family="Helvetica,sans-Serif" font-size="10.00" fill="grey">+id</text>
<text text-anchor="middle" x="114.66" y="-185.5" font-family="Helvetica,sans-Serif" font-size="10.00" fill="grey">+parameters</text>
<text text-anchor="middle" x="114.66" y="-173.5" font-family="Helvetica,sans-Serif" font-size="10.00" fill="grey">+service_id</text>
<text text-anchor="middle" x="114.66" y="-161.5" font-family="Helvetica,sans-Serif" font-size="10.00" fill="grey">+trigger_data</text>
</g>
<!-- Node5 -->
<g id="Node000005" class="node">
<title>Node5</title>
<g id="a_Node000005"><a xlink:title=" ">
<polygon fill="white" stroke="none" points="165,-141 134,-141 134,-89 165,-89 165,-141"/>
<text text-anchor="start" x="139" y="-127.5" font-family="Helvetica,sans-Serif" font-size="10.00">table</text>
<text text-anchor="start" x="148" y="-111.5" font-family="Helvetica,sans-Serif" font-size="10.00"> </text>
<text text-anchor="start" x="148" y="-95.5" font-family="Helvetica,sans-Serif" font-size="10.00"> </text>
<polygon fill="#666666" stroke="#666666" points="134,-123 134,-123 165,-123 165,-123 134,-123"/>
<polygon fill="#666666" stroke="#666666" points="134,-107 134,-107 165,-107 165,-107 134,-107"/>
<polygon fill="none" stroke="#666666" points="134,-89 134,-141 165,-141 165,-89 134,-89"/>
</a>
</g>
</g>
<!-- Node5&#45;&gt;Node1 -->
<g id="edge4_Node000001_Node000005" class="edge">
<title>Node5&#45;&gt;Node1</title>
<g id="a_edge4_Node000001_Node000005"><a xlink:title=" ">
<path fill="none" stroke="#63b8ff" d="M149.5,-78.05C149.5,-69.21 149.5,-59.94 149.5,-51.76"/>
<polygon fill="none" stroke="#63b8ff" points="146,-77.79 149.5,-87.79 153,-77.79 146,-77.79"/>
</a>
</g>
</g>
<!-- Node6 -->
<g id="Node000006" class="node">
<title>Node6</title>
<g id="a_Node000006"><a xlink:title=" ">
<polygon fill="white" stroke="none" points="212,-141 183,-141 183,-89 212,-89 212,-141"/>
<text text-anchor="start" x="187.75" y="-127.5" font-family="Helvetica,sans-Serif" font-size="10.00">True</text>
<text text-anchor="start" x="196" y="-111.5" font-family="Helvetica,sans-Serif" font-size="10.00"> </text>
<text text-anchor="start" x="196" y="-95.5" font-family="Helvetica,sans-Serif" font-size="10.00"> </text>
<polygon fill="#666666" stroke="#666666" points="183,-123 183,-123 212,-123 212,-123 183,-123"/>
<polygon fill="#666666" stroke="#666666" points="183,-107 183,-107 212,-107 212,-107 183,-107"/>
<polygon fill="none" stroke="#666666" points="183,-89 183,-141 212,-141 212,-89 183,-89"/>
</a>
</g>
</g>
<!-- Node6&#45;&gt;Node1 -->
<g id="edge5_Node000001_Node000006" class="edge">
<title>Node6&#45;&gt;Node1</title>
<g id="a_edge5_Node000001_Node000006"><a xlink:title=" ">
<path fill="none" stroke="#63b8ff" d="M178.32,-79.24C173.25,-70.05 167.88,-60.31 163.16,-51.76"/>
<polygon fill="none" stroke="#63b8ff" points="175.25,-80.91 183.14,-87.98 181.38,-77.53 175.25,-80.91"/>
</a>
</g>
</g>
</g>
</svg>
