<?xml version="1.0" encoding="UTF-8" standalone="no"?>
<!DOCTYPE svg PUBLIC "-//W3C//DTD SVG 1.1//EN"
 "http://www.w3.org/Graphics/SVG/1.1/DTD/svg11.dtd">
<!-- Generated by graphviz version 12.1.0 (20240811.2233)
 -->
<!-- Title: app.action.Action Pages: 1 -->
<svg width="213pt" height="300pt"
 viewBox="0.00 0.00 212.50 300.00" xmlns="http://www.w3.org/2000/svg" xmlns:xlink="http://www.w3.org/1999/xlink">
<g id="graph0" class="graph" transform="scale(1 1) rotate(0) translate(4 296)">
<title>app.action.Action</title>
<!-- Node1 -->
<g id="Node000001" class="node">
<title>Node1</title>
<g id="a_Node000001"><a xlink:title=" ">
<polygon fill="#999999" stroke="none" points="184.5,-52 99.5,-52 99.5,0 184.5,0 184.5,-52"/>
<text text-anchor="start" x="104.12" y="-38.5" font-family="Helvetica,sans-Serif" font-size="10.00">app.action.Action</text>
<text text-anchor="start" x="140.5" y="-22.5" font-family="Helvetica,sans-Serif" font-size="10.00"> </text>
<text text-anchor="start" x="140.5" y="-6.5" font-family="Helvetica,sans-Serif" font-size="10.00"> </text>
<polygon fill="#666666" stroke="#666666" points="99.5,-34 99.5,-34 184.5,-34 184.5,-34 99.5,-34"/>
<polygon fill="#666666" stroke="#666666" points="99.5,-18 99.5,-18 184.5,-18 184.5,-18 99.5,-18"/>
<polygon fill="none" stroke="#666666" points="99.5,0 99.5,-52 184.5,-52 184.5,0 99.5,0"/>
</a>
</g>
</g>
<!-- Node2 -->
<g id="Node000002" class="node">
<title>Node2</title>
<g id="a_Node000002"><a xlink:href="classapp_1_1action_1_1BaseAction.html" target="_top" xlink:title=" ">
<polygon fill="white" stroke="none" points="108,-204 0,-204 0,-88 108,-88 108,-204"/>
<text text-anchor="start" x="4.88" y="-190.5" font-family="Helvetica,sans-Serif" font-size="10.00">app.action.BaseAction</text>
<text text-anchor="start" x="14.5" y="-174.5" font-family="Helvetica,sans-Serif" font-size="10.00">+</text>
<text text-anchor="start" x="35" y="-174.5" font-family="Helvetica,sans-Serif" font-size="10.00">id</text>
<text text-anchor="start" x="14.5" y="-158.5" font-family="Helvetica,sans-Serif" font-size="10.00">+</text>
<text text-anchor="start" x="35" y="-158.5" font-family="Helvetica,sans-Serif" font-size="10.00">description</text>
<text text-anchor="start" x="14.5" y="-142.5" font-family="Helvetica,sans-Serif" font-size="10.00">+</text>
<text text-anchor="start" x="35" y="-142.5" font-family="Helvetica,sans-Serif" font-size="10.00">is_polling</text>
<text text-anchor="start" x="14.5" y="-126.5" font-family="Helvetica,sans-Serif" font-size="10.00">+</text>
<text text-anchor="start" x="35" y="-126.5" font-family="Helvetica,sans-Serif" font-size="10.00">parameters</text>
<text text-anchor="start" x="14.5" y="-110.5" font-family="Helvetica,sans-Serif" font-size="10.00">+</text>
<text text-anchor="start" x="35" y="-110.5" font-family="Helvetica,sans-Serif" font-size="10.00">service_id</text>
<text text-anchor="start" x="52.5" y="-94.5" font-family="Helvetica,sans-Serif" font-size="10.00"> </text>
<polygon fill="#666666" stroke="#666666" points="0,-186 0,-186 108,-186 108,-186 0,-186"/>
<polygon fill="#666666" stroke="#666666" points="0,-106 0,-106 33,-106 33,-106 0,-106"/>
<polygon fill="#666666" stroke="#666666" points="33,-106 33,-106 108,-106 108,-106 33,-106"/>
<polygon fill="none" stroke="#666666" points="0,-88 0,-204 108,-204 108,-88 0,-88"/>
</a>
</g>
</g>
<!-- Node2&#45;&gt;Node1 -->
<g id="edge1_Node000001_Node000002" class="edge">
<title>Node2&#45;&gt;Node1</title>
<g id="a_edge1_Node000001_Node000002"><a xlink:title=" ">
<path fill="none" stroke="#63b8ff" d="M103.12,-79.13C110.35,-69.44 117.39,-60 123.45,-51.87"/>
<polygon fill="none" stroke="#63b8ff" points="100.53,-76.75 97.36,-86.86 106.14,-80.94 100.53,-76.75"/>
</a>
</g>
</g>
<!-- Node3 -->
<g id="Node000003" class="node">
<title>Node3</title>
<g id="a_Node000003"><a xlink:title=" ">
<polygon fill="white" stroke="none" points="81.5,-292 26.5,-292 26.5,-240 81.5,-240 81.5,-292"/>
<text text-anchor="start" x="31.12" y="-278.5" font-family="Helvetica,sans-Serif" font-size="10.00">SQLModel</text>
<text text-anchor="start" x="52.5" y="-262.5" font-family="Helvetica,sans-Serif" font-size="10.00"> </text>
<text text-anchor="start" x="52.5" y="-246.5" font-family="Helvetica,sans-Serif" font-size="10.00"> </text>
<polygon fill="#666666" stroke="#666666" points="26.5,-274 26.5,-274 81.5,-274 81.5,-274 26.5,-274"/>
<polygon fill="#666666" stroke="#666666" points="26.5,-258 26.5,-258 81.5,-258 81.5,-258 26.5,-258"/>
<polygon fill="none" stroke="#666666" points="26.5,-240 26.5,-292 81.5,-292 81.5,-240 26.5,-240"/>
</a>
</g>
</g>
<!-- Node3&#45;&gt;Node2 -->
<g id="edge2_Node000002_Node000003" class="edge">
<title>Node3&#45;&gt;Node2</title>
<g id="a_edge2_Node000002_Node000003"><a xlink:title=" ">
<path fill="none" stroke="#63b8ff" d="M54,-228.82C54,-220.89 54,-212.31 54,-203.79"/>
<polygon fill="none" stroke="#63b8ff" points="50.5,-228.75 54,-238.75 57.5,-228.75 50.5,-228.75"/>
</a>
</g>
</g>
<!-- Node4 -->
<g id="Node000004" class="node">
<title>Node4</title>
<g id="a_Node000004"><a xlink:title=" ">
<polygon fill="white" stroke="none" points="157.5,-172 126.5,-172 126.5,-120 157.5,-120 157.5,-172"/>
<text text-anchor="start" x="131.5" y="-158.5" font-family="Helvetica,sans-Serif" font-size="10.00">table</text>
<text text-anchor="start" x="140.5" y="-142.5" font-family="Helvetica,sans-Serif" font-size="10.00"> </text>
<text text-anchor="start" x="140.5" y="-126.5" font-family="Helvetica,sans-Serif" font-size="10.00"> </text>
<polygon fill="#666666" stroke="#666666" points="126.5,-154 126.5,-154 157.5,-154 157.5,-154 126.5,-154"/>
<polygon fill="#666666" stroke="#666666" points="126.5,-138 126.5,-138 157.5,-138 157.5,-138 126.5,-138"/>
<polygon fill="none" stroke="#666666" points="126.5,-120 126.5,-172 157.5,-172 157.5,-120 126.5,-120"/>
</a>
</g>
</g>
<!-- Node4&#45;&gt;Node1 -->
<g id="edge3_Node000001_Node000004" class="edge">
<title>Node4&#45;&gt;Node1</title>
<g id="a_edge3_Node000001_Node000004"><a xlink:title=" ">
<path fill="none" stroke="#63b8ff" d="M142,-108.98C142,-90.43 142,-68.3 142,-51.7"/>
<polygon fill="none" stroke="#63b8ff" points="138.5,-108.75 142,-118.75 145.5,-108.75 138.5,-108.75"/>
</a>
</g>
</g>
<!-- Node5 -->
<g id="Node000005" class="node">
<title>Node5</title>
<g id="a_Node000005"><a xlink:title=" ">
<polygon fill="white" stroke="none" points="204.5,-172 175.5,-172 175.5,-120 204.5,-120 204.5,-172"/>
<text text-anchor="start" x="180.25" y="-158.5" font-family="Helvetica,sans-Serif" font-size="10.00">True</text>
<text text-anchor="start" x="188.5" y="-142.5" font-family="Helvetica,sans-Serif" font-size="10.00"> </text>
<text text-anchor="start" x="188.5" y="-126.5" font-family="Helvetica,sans-Serif" font-size="10.00"> </text>
<polygon fill="#666666" stroke="#666666" points="175.5,-154 175.5,-154 204.5,-154 204.5,-154 175.5,-154"/>
<polygon fill="#666666" stroke="#666666" points="175.5,-138 175.5,-138 204.5,-138 204.5,-138 175.5,-138"/>
<polygon fill="none" stroke="#666666" points="175.5,-120 175.5,-172 204.5,-172 204.5,-120 175.5,-120"/>
</a>
</g>
</g>
<!-- Node5&#45;&gt;Node1 -->
<g id="edge4_Node000001_Node000005" class="edge">
<title>Node5&#45;&gt;Node1</title>
<g id="a_edge4_Node000001_Node000005"><a xlink:title=" ">
<path fill="none" stroke="#63b8ff" d="M175.72,-109.53C172.84,-102.4 169.83,-94.96 167,-88 162.17,-76.13 156.78,-62.97 152.25,-51.92"/>
<polygon fill="none" stroke="#63b8ff" points="172.4,-110.65 179.39,-118.61 178.89,-108.03 172.4,-110.65"/>
</a>
</g>
</g>
</g>
</svg>
