<?xml version="1.0" encoding="UTF-8" standalone="no"?>
<!DOCTYPE svg PUBLIC "-//W3C//DTD SVG 1.1//EN"
 "http://www.w3.org/Graphics/SVG/1.1/DTD/svg11.dtd">
<!-- Generated by graphviz version 12.1.0 (20240811.2233)
 -->
<!-- Title: app.user.BaseUser Pages: 1 -->
<svg width="128pt" height="160pt"
 viewBox="0.00 0.00 127.50 160.00" xmlns="http://www.w3.org/2000/svg" xmlns:xlink="http://www.w3.org/1999/xlink">
<g id="graph0" class="graph" transform="scale(1 1) rotate(0) translate(4 156)">
<title>app.user.BaseUser</title>
<!-- Node1 -->
<g id="Node000001" class="node">
<title>Node1</title>
<g id="a_Node000001"><a xlink:title=" ">
<polygon fill="#999999" stroke="none" points="108.5,-52 14.5,-52 14.5,0 108.5,0 108.5,-52"/>
<text text-anchor="start" x="19.5" y="-38.5" font-family="Helvetica,sans-Serif" font-size="10.00">app.user.BaseUser</text>
<text text-anchor="start" x="31.5" y="-22.5" font-family="Helvetica,sans-Serif" font-size="10.00">+</text>
<text text-anchor="start" x="54.5" y="-22.5" font-family="Helvetica,sans-Serif" font-size="10.00">email</text>
<text text-anchor="start" x="60" y="-6.5" font-family="Helvetica,sans-Serif" font-size="10.00"> </text>
<polygon fill="#666666" stroke="#666666" points="14.5,-34 14.5,-34 108.5,-34 108.5,-34 14.5,-34"/>
<polygon fill="#666666" stroke="#666666" points="14.5,-18 14.5,-18 52.5,-18 52.5,-18 14.5,-18"/>
<polygon fill="#666666" stroke="#666666" points="52.5,-18 52.5,-18 108.5,-18 108.5,-18 52.5,-18"/>
<polygon fill="none" stroke="#666666" points="14.5,0 14.5,-52 108.5,-52 108.5,0 14.5,0"/>
</a>
</g>
</g>
<!-- Node2 -->
<g id="Node000002" class="node">
<title>Node2</title>
<g id="a_Node000002"><a xlink:title=" ">
<polygon fill="white" stroke="none" points="55,-152 0,-152 0,-100 55,-100 55,-152"/>
<text text-anchor="start" x="4.62" y="-138.5" font-family="Helvetica,sans-Serif" font-size="10.00">SQLModel</text>
<text text-anchor="start" x="26" y="-122.5" font-family="Helvetica,sans-Serif" font-size="10.00"> </text>
<text text-anchor="start" x="26" y="-106.5" font-family="Helvetica,sans-Serif" font-size="10.00"> </text>
<polygon fill="#666666" stroke="#666666" points="0,-134 0,-134 55,-134 55,-134 0,-134"/>
<polygon fill="#666666" stroke="#666666" points="0,-118 0,-118 55,-118 55,-118 0,-118"/>
<polygon fill="none" stroke="#666666" points="0,-100 0,-152 55,-152 55,-100 0,-100"/>
</a>
</g>
</g>
<!-- Node2&#45;&gt;Node1 -->
<g id="edge1_Node000001_Node000002" class="edge">
<title>Node2&#45;&gt;Node1</title>
<g id="a_edge1_Node000001_Node000002"><a xlink:title=" ">
<path fill="none" stroke="#63b8ff" d="M39.82,-89.49C44.14,-77.04 48.89,-63.34 52.85,-51.94"/>
<polygon fill="none" stroke="#63b8ff" points="36.63,-87.99 36.66,-98.59 43.25,-90.29 36.63,-87.99"/>
</a>
</g>
</g>
<!-- Node3 -->
<g id="Node000003" class="node">
<title>Node3</title>
<g id="a_Node000003"><a xlink:title=" ">
<polygon fill="white" stroke="none" points="119.5,-152 73.5,-152 73.5,-100 119.5,-100 119.5,-152"/>
<text text-anchor="start" x="78.5" y="-138.5" font-family="Helvetica,sans-Serif" font-size="10.00">Optional</text>
<text text-anchor="start" x="95" y="-122.5" font-family="Helvetica,sans-Serif" font-size="10.00"> </text>
<text text-anchor="start" x="95" y="-106.5" font-family="Helvetica,sans-Serif" font-size="10.00"> </text>
<polygon fill="#666666" stroke="#666666" points="73.5,-134 73.5,-134 119.5,-134 119.5,-134 73.5,-134"/>
<polygon fill="#666666" stroke="#666666" points="73.5,-118 73.5,-118 119.5,-118 119.5,-118 73.5,-118"/>
<polygon fill="none" stroke="#666666" points="73.5,-100 73.5,-152 119.5,-152 119.5,-100 73.5,-100"/>
</a>
</g>
</g>
<!-- Node3&#45;&gt;Node1 -->
<g id="edge2_Node000001_Node000003" class="edge">
<title>Node3&#45;&gt;Node1</title>
<g id="a_edge2_Node000001_Node000003"><a xlink:title=" ">
<path fill="none" stroke="#63b8ff" d="M87.58,-100.02C83.67,-89.07 79,-76.01 74.7,-63.97"/>
<polygon fill="none" stroke="#63b8ff" points="74.75,-64.09 68.96,-59.78 70.71,-52.79 76.49,-57.09 74.75,-64.09"/>
</a>
</g>
<text text-anchor="middle" x="89.35" y="-72.5" font-family="Helvetica,sans-Serif" font-size="10.00" fill="grey"> +id</text>
</g>
</g>
</svg>
