<?xml version="1.0" encoding="UTF-8" standalone="no"?>
<!DOCTYPE svg PUBLIC "-//W3C//DTD SVG 1.1//EN"
 "http://www.w3.org/Graphics/SVG/1.1/DTD/svg11.dtd">
<!-- Generated by graphviz version 12.1.0 (20240811.2233)
 -->
<!-- Title: app.core.oauth_config.ProviderConfig Pages: 1 -->
<svg width="195pt" height="196pt"
 viewBox="0.00 0.00 195.25 196.00" xmlns="http://www.w3.org/2000/svg" xmlns:xlink="http://www.w3.org/1999/xlink">
<g id="graph0" class="graph" transform="scale(1 1) rotate(0) translate(4 192)">
<title>app.core.oauth_config.ProviderConfig</title>
<!-- Node1 -->
<g id="Node000001" class="node">
<title>Node1</title>
<g id="a_Node000001"><a xlink:title=" ">
<polygon fill="#999999" stroke="none" points="145,-64 0,-64 0,0 145,0 145,-64"/>
<text text-anchor="start" x="5" y="-50.5" font-family="Helvetica,sans-Serif" font-size="10.00">app.core.oauth_config.Provider</text>
<text text-anchor="start" x="58.25" y="-38.5" font-family="Helvetica,sans-Serif" font-size="10.00">Config</text>
<text text-anchor="start" x="71" y="-22.5" font-family="Helvetica,sans-Serif" font-size="10.00"> </text>
<text text-anchor="start" x="71" y="-6.5" font-family="Helvetica,sans-Serif" font-size="10.00"> </text>
<polygon fill="#666666" stroke="#666666" points="0,-34 0,-34 145,-34 145,-34 0,-34"/>
<polygon fill="#666666" stroke="#666666" points="0,-18 0,-18 145,-18 145,-18 0,-18"/>
<polygon fill="none" stroke="#666666" points="0,0 0,-64 145,-64 145,0 0,0"/>
</a>
</g>
</g>
<!-- Node2 -->
<g id="Node000002" class="node">
<title>Node2</title>
<g id="a_Node000002"><a xlink:title=" ">
<polygon fill="white" stroke="none" points="95.5,-188 49.5,-188 49.5,-136 95.5,-136 95.5,-188"/>
<text text-anchor="start" x="54.5" y="-174.5" font-family="Helvetica,sans-Serif" font-size="10.00">Optional</text>
<text text-anchor="start" x="71" y="-158.5" font-family="Helvetica,sans-Serif" font-size="10.00"> </text>
<text text-anchor="start" x="71" y="-142.5" font-family="Helvetica,sans-Serif" font-size="10.00"> </text>
<polygon fill="#666666" stroke="#666666" points="49.5,-170 49.5,-170 95.5,-170 95.5,-170 49.5,-170"/>
<polygon fill="#666666" stroke="#666666" points="49.5,-154 49.5,-154 95.5,-154 95.5,-154 49.5,-154"/>
<polygon fill="none" stroke="#666666" points="49.5,-136 49.5,-188 95.5,-188 95.5,-136 49.5,-136"/>
</a>
</g>
</g>
<!-- Node2&#45;&gt;Node1 -->
<g id="edge1_Node000001_Node000002" class="edge">
<title>Node2&#45;&gt;Node1</title>
<g id="a_edge1_Node000001_Node000002"><a xlink:title=" ">
<path fill="none" stroke="#63b8ff" d="M72.5,-136.02C72.5,-119.15 72.5,-96.43 72.5,-76.62"/>
<polygon fill="none" stroke="#63b8ff" points="72.5,-76.7 68.5,-70.7 72.5,-64.7 76.5,-70.7 72.5,-76.7"/>
</a>
</g>
<text text-anchor="middle" x="129.88" y="-108.5" font-family="Helvetica,sans-Serif" font-size="10.00" fill="grey"> #_PROVIDERS_CACHE</text>
<text text-anchor="middle" x="129.88" y="-96.5" font-family="Helvetica,sans-Serif" font-size="10.00" fill="grey">+mobile</text>
<text text-anchor="middle" x="129.88" y="-84.5" font-family="Helvetica,sans-Serif" font-size="10.00" fill="grey">+web</text>
</g>
</g>
</svg>
