<?xml version="1.0" encoding="UTF-8" standalone="no"?>
<!DOCTYPE svg PUBLIC "-//W3C//DTD SVG 1.1//EN"
 "http://www.w3.org/Graphics/SVG/1.1/DTD/svg11.dtd">
<!-- Generated by graphviz version 12.1.0 (20240811.2233)
 -->
<!-- Title: user.User Pages: 1 -->
<svg width="179pt" height="284pt"
 viewBox="0.00 0.00 179.00 284.00" xmlns="http://www.w3.org/2000/svg" xmlns:xlink="http://www.w3.org/1999/xlink">
<g id="graph0" class="graph" transform="scale(1 1) rotate(0) translate(4 280)">
<title>user.User</title>
<!-- Node1 -->
<g id="Node000001" class="node">
<title>Node1</title>
<g id="a_Node000001"><a xlink:title=" ">
<polygon fill="#999999" stroke="none" points="134.5,-52 82.5,-52 82.5,0 134.5,0 134.5,-52"/>
<text text-anchor="start" x="87.12" y="-38.5" font-family="Helvetica,sans-Serif" font-size="10.00">user.User</text>
<text text-anchor="start" x="88.5" y="-22.5" font-family="Helvetica,sans-Serif" font-size="10.00">+</text>
<text text-anchor="start" x="100.5" y="-22.5" font-family="Helvetica,sans-Serif" font-size="10.00">image</text>
<text text-anchor="start" x="107" y="-6.5" font-family="Helvetica,sans-Serif" font-size="10.00"> </text>
<polygon fill="#666666" stroke="#666666" points="82.5,-34 82.5,-34 134.5,-34 134.5,-34 82.5,-34"/>
<polygon fill="#666666" stroke="#666666" points="82.5,-18 82.5,-18 98.5,-18 98.5,-18 82.5,-18"/>
<polygon fill="#666666" stroke="#666666" points="98.5,-18 98.5,-18 134.5,-18 134.5,-18 98.5,-18"/>
<polygon fill="none" stroke="#666666" points="82.5,0 82.5,-52 134.5,-52 134.5,0 82.5,0"/>
</a>
</g>
</g>
<!-- Node2 -->
<g id="Node000002" class="node">
<title>Node2</title>
<g id="a_Node000002"><a xlink:href="classuser_1_1BaseUser.html" target="_top" xlink:title=" ">
<polygon fill="white" stroke="none" points="75,-188 0,-188 0,-88 75,-88 75,-188"/>
<text text-anchor="start" x="4.88" y="-174.5" font-family="Helvetica,sans-Serif" font-size="10.00">user.BaseUser</text>
<text text-anchor="start" x="6.5" y="-158.5" font-family="Helvetica,sans-Serif" font-size="10.00">+</text>
<text text-anchor="start" x="19" y="-158.5" font-family="Helvetica,sans-Serif" font-size="10.00">id</text>
<text text-anchor="start" x="6.5" y="-142.5" font-family="Helvetica,sans-Serif" font-size="10.00">+</text>
<text text-anchor="start" x="19" y="-142.5" font-family="Helvetica,sans-Serif" font-size="10.00">email</text>
<text text-anchor="start" x="6.5" y="-126.5" font-family="Helvetica,sans-Serif" font-size="10.00">+</text>
<text text-anchor="start" x="19" y="-126.5" font-family="Helvetica,sans-Serif" font-size="10.00">founder_id</text>
<text text-anchor="start" x="6.5" y="-110.5" font-family="Helvetica,sans-Serif" font-size="10.00">+</text>
<text text-anchor="start" x="19" y="-110.5" font-family="Helvetica,sans-Serif" font-size="10.00">investor_id</text>
<text text-anchor="start" x="36" y="-94.5" font-family="Helvetica,sans-Serif" font-size="10.00"> </text>
<polygon fill="#666666" stroke="#666666" points="0,-170 0,-170 75,-170 75,-170 0,-170"/>
<polygon fill="#666666" stroke="#666666" points="0,-106 0,-106 17,-106 17,-106 0,-106"/>
<polygon fill="#666666" stroke="#666666" points="17,-106 17,-106 75,-106 75,-106 17,-106"/>
<polygon fill="none" stroke="#666666" points="0,-88 0,-188 75,-188 75,-88 0,-88"/>
</a>
</g>
</g>
<!-- Node2&#45;&gt;Node1 -->
<g id="edge1_Node000001_Node000002" class="edge">
<title>Node2&#45;&gt;Node1</title>
<g id="a_edge1_Node000001_Node000002"><a xlink:title=" ">
<path fill="none" stroke="#63b8ff" d="M75.14,-78.69C81.21,-69.27 87.21,-59.98 92.4,-51.94"/>
<polygon fill="none" stroke="#63b8ff" points="72.36,-76.54 69.88,-86.84 78.24,-80.34 72.36,-76.54"/>
</a>
</g>
</g>
<!-- Node3 -->
<g id="Node000003" class="node">
<title>Node3</title>
<g id="a_Node000003"><a xlink:title=" ">
<polygon fill="white" stroke="none" points="65,-276 10,-276 10,-224 65,-224 65,-276"/>
<text text-anchor="start" x="14.62" y="-262.5" font-family="Helvetica,sans-Serif" font-size="10.00">SQLModel</text>
<text text-anchor="start" x="36" y="-246.5" font-family="Helvetica,sans-Serif" font-size="10.00"> </text>
<text text-anchor="start" x="36" y="-230.5" font-family="Helvetica,sans-Serif" font-size="10.00"> </text>
<polygon fill="#666666" stroke="#666666" points="10,-258 10,-258 65,-258 65,-258 10,-258"/>
<polygon fill="#666666" stroke="#666666" points="10,-242 10,-242 65,-242 65,-242 10,-242"/>
<polygon fill="none" stroke="#666666" points="10,-224 10,-276 65,-276 65,-224 10,-224"/>
</a>
</g>
</g>
<!-- Node3&#45;&gt;Node2 -->
<g id="edge2_Node000002_Node000003" class="edge">
<title>Node3&#45;&gt;Node2</title>
<g id="a_edge2_Node000002_Node000003"><a xlink:title=" ">
<path fill="none" stroke="#63b8ff" d="M37.5,-212.53C37.5,-204.58 37.5,-196.05 37.5,-187.72"/>
<polygon fill="none" stroke="#63b8ff" points="34,-212.53 37.5,-222.53 41,-212.53 34,-212.53"/>
</a>
</g>
</g>
<!-- Node4 -->
<g id="Node000004" class="node">
<title>Node4</title>
<g id="a_Node000004"><a xlink:title=" ">
<polygon fill="white" stroke="none" points="124,-164 93,-164 93,-112 124,-112 124,-164"/>
<text text-anchor="start" x="98" y="-150.5" font-family="Helvetica,sans-Serif" font-size="10.00">table</text>
<text text-anchor="start" x="107" y="-134.5" font-family="Helvetica,sans-Serif" font-size="10.00"> </text>
<text text-anchor="start" x="107" y="-118.5" font-family="Helvetica,sans-Serif" font-size="10.00"> </text>
<polygon fill="#666666" stroke="#666666" points="93,-146 93,-146 124,-146 124,-146 93,-146"/>
<polygon fill="#666666" stroke="#666666" points="93,-130 93,-130 124,-130 124,-130 93,-130"/>
<polygon fill="none" stroke="#666666" points="93,-112 93,-164 124,-164 124,-112 93,-112"/>
</a>
</g>
</g>
<!-- Node4&#45;&gt;Node1 -->
<g id="edge3_Node000001_Node000004" class="edge">
<title>Node4&#45;&gt;Node1</title>
<g id="a_edge3_Node000001_Node000004"><a xlink:title=" ">
<path fill="none" stroke="#63b8ff" d="M108.5,-100.87C108.5,-84.82 108.5,-66.33 108.5,-51.86"/>
<polygon fill="none" stroke="#63b8ff" points="105,-100.53 108.5,-110.53 112,-100.53 105,-100.53"/>
</a>
</g>
</g>
<!-- Node5 -->
<g id="Node000005" class="node">
<title>Node5</title>
<g id="a_Node000005"><a xlink:title=" ">
<polygon fill="white" stroke="none" points="171,-164 142,-164 142,-112 171,-112 171,-164"/>
<text text-anchor="start" x="146.75" y="-150.5" font-family="Helvetica,sans-Serif" font-size="10.00">True</text>
<text text-anchor="start" x="155" y="-134.5" font-family="Helvetica,sans-Serif" font-size="10.00"> </text>
<text text-anchor="start" x="155" y="-118.5" font-family="Helvetica,sans-Serif" font-size="10.00"> </text>
<polygon fill="#666666" stroke="#666666" points="142,-146 142,-146 171,-146 171,-146 142,-146"/>
<polygon fill="#666666" stroke="#666666" points="142,-130 142,-130 171,-130 171,-130 142,-130"/>
<polygon fill="none" stroke="#666666" points="142,-112 142,-164 171,-164 171,-112 142,-112"/>
</a>
</g>
</g>
<!-- Node5&#45;&gt;Node1 -->
<g id="edge4_Node000001_Node000005" class="edge">
<title>Node5&#45;&gt;Node1</title>
<g id="a_edge4_Node000001_Node000005"><a xlink:title=" ">
<path fill="none" stroke="#63b8ff" d="M141.14,-101.81C134.05,-85.54 125.78,-66.61 119.35,-51.86"/>
<polygon fill="none" stroke="#63b8ff" points="137.8,-102.89 145,-110.65 144.21,-100.09 137.8,-102.89"/>
</a>
</g>
</g>
</g>
</svg>
