<?xml version="1.0" encoding="UTF-8" standalone="no"?>
<!DOCTYPE svg PUBLIC "-//W3C//DTD SVG 1.1//EN"
 "http://www.w3.org/Graphics/SVG/1.1/DTD/svg11.dtd">
<!-- Generated by graphviz version 12.1.0 (20240811.2233)
 -->
<!-- Title: user.BaseUser Pages: 1 -->
<svg width="180pt" height="284pt"
 viewBox="0.00 0.00 180.00 284.00" xmlns="http://www.w3.org/2000/svg" xmlns:xlink="http://www.w3.org/1999/xlink">
<g id="graph0" class="graph" transform="scale(1 1) rotate(0) translate(4 280)">
<title>user.BaseUser</title>
<!-- Node1 -->
<g id="Node000001" class="node">
<title>Node1</title>
<g id="a_Node000001"><a xlink:title=" ">
<polygon fill="#999999" stroke="none" points="135.5,-188 60.5,-188 60.5,-88 135.5,-88 135.5,-188"/>
<text text-anchor="start" x="65.38" y="-174.5" font-family="Helvetica,sans-Serif" font-size="10.00">user.BaseUser</text>
<text text-anchor="start" x="67" y="-158.5" font-family="Helvetica,sans-Serif" font-size="10.00">+</text>
<text text-anchor="start" x="79.5" y="-158.5" font-family="Helvetica,sans-Serif" font-size="10.00">id</text>
<text text-anchor="start" x="67" y="-142.5" font-family="Helvetica,sans-Serif" font-size="10.00">+</text>
<text text-anchor="start" x="79.5" y="-142.5" font-family="Helvetica,sans-Serif" font-size="10.00">email</text>
<text text-anchor="start" x="67" y="-126.5" font-family="Helvetica,sans-Serif" font-size="10.00">+</text>
<text text-anchor="start" x="79.5" y="-126.5" font-family="Helvetica,sans-Serif" font-size="10.00">founder_id</text>
<text text-anchor="start" x="67" y="-110.5" font-family="Helvetica,sans-Serif" font-size="10.00">+</text>
<text text-anchor="start" x="79.5" y="-110.5" font-family="Helvetica,sans-Serif" font-size="10.00">investor_id</text>
<text text-anchor="start" x="96.5" y="-94.5" font-family="Helvetica,sans-Serif" font-size="10.00"> </text>
<polygon fill="#666666" stroke="#666666" points="60.5,-170 60.5,-170 135.5,-170 135.5,-170 60.5,-170"/>
<polygon fill="#666666" stroke="#666666" points="60.5,-106 60.5,-106 77.5,-106 77.5,-106 60.5,-106"/>
<polygon fill="#666666" stroke="#666666" points="77.5,-106 77.5,-106 135.5,-106 135.5,-106 77.5,-106"/>
<polygon fill="none" stroke="#666666" points="60.5,-88 60.5,-188 135.5,-188 135.5,-88 60.5,-88"/>
</a>
</g>
</g>
<!-- Node3 -->
<g id="Node000003" class="node">
<title>Node3</title>
<g id="a_Node000003"><a xlink:href="classuser_1_1RegisteringUser.html" target="_top" xlink:title=" ">
<polygon fill="white" stroke="none" points="102,-52 0,-52 0,0 102,0 102,-52"/>
<text text-anchor="start" x="4.88" y="-38.5" font-family="Helvetica,sans-Serif" font-size="10.00">user.RegisteringUser</text>
<text text-anchor="start" x="49.5" y="-22.5" font-family="Helvetica,sans-Serif" font-size="10.00"> </text>
<text text-anchor="start" x="49.5" y="-6.5" font-family="Helvetica,sans-Serif" font-size="10.00"> </text>
<polygon fill="#666666" stroke="#666666" points="0,-34 0,-34 102,-34 102,-34 0,-34"/>
<polygon fill="#666666" stroke="#666666" points="0,-18 0,-18 102,-18 102,-18 0,-18"/>
<polygon fill="none" stroke="#666666" points="0,0 0,-52 102,-52 102,0 0,0"/>
</a>
</g>
</g>
<!-- Node1&#45;&gt;Node3 -->
<g id="edge2_Node000001_Node000003" class="edge">
<title>Node1&#45;&gt;Node3</title>
<g id="a_edge2_Node000001_Node000003"><a xlink:title=" ">
<path fill="none" stroke="#63b8ff" d="M72.71,-77.81C68.81,-68.69 64.99,-59.73 61.65,-51.94"/>
<polygon fill="none" stroke="#63b8ff" points="69.37,-78.9 76.52,-86.72 75.81,-76.15 69.37,-78.9"/>
</a>
</g>
</g>
<!-- Node4 -->
<g id="Node000004" class="node">
<title>Node4</title>
<g id="a_Node000004"><a xlink:href="classuser_1_1User.html" target="_top" xlink:title=" ">
<polygon fill="white" stroke="none" points="172,-52 120,-52 120,0 172,0 172,-52"/>
<text text-anchor="start" x="124.62" y="-38.5" font-family="Helvetica,sans-Serif" font-size="10.00">user.User</text>
<text text-anchor="start" x="126" y="-22.5" font-family="Helvetica,sans-Serif" font-size="10.00">+</text>
<text text-anchor="start" x="138" y="-22.5" font-family="Helvetica,sans-Serif" font-size="10.00">image</text>
<text text-anchor="start" x="144.5" y="-6.5" font-family="Helvetica,sans-Serif" font-size="10.00"> </text>
<polygon fill="#666666" stroke="#666666" points="120,-34 120,-34 172,-34 172,-34 120,-34"/>
<polygon fill="#666666" stroke="#666666" points="120,-18 120,-18 136,-18 136,-18 120,-18"/>
<polygon fill="#666666" stroke="#666666" points="136,-18 136,-18 172,-18 172,-18 136,-18"/>
<polygon fill="none" stroke="#666666" points="120,0 120,-52 172,-52 172,0 120,0"/>
</a>
</g>
</g>
<!-- Node1&#45;&gt;Node4 -->
<g id="edge3_Node000001_Node000004" class="edge">
<title>Node1&#45;&gt;Node4</title>
<g id="a_edge3_Node000001_Node000004"><a xlink:title=" ">
<path fill="none" stroke="#63b8ff" d="M123.83,-77.81C127.81,-68.69 131.72,-59.73 135.12,-51.94"/>
<polygon fill="none" stroke="#63b8ff" points="120.73,-76.16 119.94,-86.72 127.15,-78.96 120.73,-76.16"/>
</a>
</g>
</g>
<!-- Node2 -->
<g id="Node000002" class="node">
<title>Node2</title>
<g id="a_Node000002"><a xlink:title=" ">
<polygon fill="white" stroke="none" points="125.5,-276 70.5,-276 70.5,-224 125.5,-224 125.5,-276"/>
<text text-anchor="start" x="75.12" y="-262.5" font-family="Helvetica,sans-Serif" font-size="10.00">SQLModel</text>
<text text-anchor="start" x="96.5" y="-246.5" font-family="Helvetica,sans-Serif" font-size="10.00"> </text>
<text text-anchor="start" x="96.5" y="-230.5" font-family="Helvetica,sans-Serif" font-size="10.00"> </text>
<polygon fill="#666666" stroke="#666666" points="70.5,-258 70.5,-258 125.5,-258 125.5,-258 70.5,-258"/>
<polygon fill="#666666" stroke="#666666" points="70.5,-242 70.5,-242 125.5,-242 125.5,-242 70.5,-242"/>
<polygon fill="none" stroke="#666666" points="70.5,-224 70.5,-276 125.5,-276 125.5,-224 70.5,-224"/>
</a>
</g>
</g>
<!-- Node2&#45;&gt;Node1 -->
<g id="edge1_Node000001_Node000002" class="edge">
<title>Node2&#45;&gt;Node1</title>
<g id="a_edge1_Node000001_Node000002"><a xlink:title=" ">
<path fill="none" stroke="#63b8ff" d="M98,-212.53C98,-204.58 98,-196.05 98,-187.72"/>
<polygon fill="none" stroke="#63b8ff" points="94.5,-212.53 98,-222.53 101.5,-212.53 94.5,-212.53"/>
</a>
</g>
</g>
</g>
</svg>
