<?xml version="1.0" encoding="UTF-8" standalone="no"?>
<!DOCTYPE svg PUBLIC "-//W3C//DTD SVG 1.1//EN"
 "http://www.w3.org/Graphics/SVG/1.1/DTD/svg11.dtd">
<!-- Generated by graphviz version 12.1.0 (20240811.2233)
 -->
<!-- Title: app.oauth_models.ServiceAccount Pages: 1 -->
<svg width="347pt" height="384pt"
 viewBox="0.00 0.00 347.03 384.00" xmlns="http://www.w3.org/2000/svg" xmlns:xlink="http://www.w3.org/1999/xlink">
<g id="graph0" class="graph" transform="scale(1 1) rotate(0) translate(4 380)">
<title>app.oauth_models.ServiceAccount</title>
<!-- Node1 -->
<g id="Node000001" class="node">
<title>Node1</title>
<g id="a_Node000001"><a xlink:title=" ">
<polygon fill="#999999" stroke="none" points="199,-144 74,-144 74,0 199,0 199,-144"/>
<text text-anchor="start" x="78.75" y="-130.5" font-family="Helvetica,sans-Serif" font-size="10.00">app.oauth_models.Service</text>
<text text-anchor="start" x="118.5" y="-118.5" font-family="Helvetica,sans-Serif" font-size="10.00">Account</text>
<text text-anchor="start" x="88" y="-102.5" font-family="Helvetica,sans-Serif" font-size="10.00">+</text>
<text text-anchor="start" x="108" y="-102.5" font-family="Helvetica,sans-Serif" font-size="10.00">user_id</text>
<text text-anchor="start" x="88" y="-86.5" font-family="Helvetica,sans-Serif" font-size="10.00">+</text>
<text text-anchor="start" x="108" y="-86.5" font-family="Helvetica,sans-Serif" font-size="10.00">service_id</text>
<text text-anchor="start" x="88" y="-70.5" font-family="Helvetica,sans-Serif" font-size="10.00">+</text>
<text text-anchor="start" x="108" y="-70.5" font-family="Helvetica,sans-Serif" font-size="10.00">token_type</text>
<text text-anchor="start" x="88" y="-54.5" font-family="Helvetica,sans-Serif" font-size="10.00">+</text>
<text text-anchor="start" x="108" y="-54.5" font-family="Helvetica,sans-Serif" font-size="10.00">is_active</text>
<text text-anchor="start" x="88" y="-38.5" font-family="Helvetica,sans-Serif" font-size="10.00">+</text>
<text text-anchor="start" x="108" y="-38.5" font-family="Helvetica,sans-Serif" font-size="10.00">error_count</text>
<text text-anchor="start" x="89.5" y="-22.5" font-family="Helvetica,sans-Serif" font-size="10.00">&#45;</text>
<text text-anchor="start" x="108" y="-22.5" font-family="Helvetica,sans-Serif" font-size="10.00">__tablename__</text>
<text text-anchor="start" x="135" y="-6.5" font-family="Helvetica,sans-Serif" font-size="10.00"> </text>
<polygon fill="#666666" stroke="#666666" points="74,-114 74,-114 199,-114 199,-114 74,-114"/>
<polygon fill="#666666" stroke="#666666" points="74,-18 74,-18 106,-18 106,-18 74,-18"/>
<polygon fill="#666666" stroke="#666666" points="106,-18 106,-18 199,-18 199,-18 106,-18"/>
<polygon fill="none" stroke="#666666" points="74,0 74,-144 199,-144 199,0 74,0"/>
</a>
</g>
</g>
<!-- Node2 -->
<g id="Node000002" class="node">
<title>Node2</title>
<g id="a_Node000002"><a xlink:title=" ">
<polygon fill="white" stroke="none" points="55,-376 0,-376 0,-324 55,-324 55,-376"/>
<text text-anchor="start" x="4.62" y="-362.5" font-family="Helvetica,sans-Serif" font-size="10.00">SQLModel</text>
<text text-anchor="start" x="26" y="-346.5" font-family="Helvetica,sans-Serif" font-size="10.00"> </text>
<text text-anchor="start" x="26" y="-330.5" font-family="Helvetica,sans-Serif" font-size="10.00"> </text>
<polygon fill="#666666" stroke="#666666" points="0,-358 0,-358 55,-358 55,-358 0,-358"/>
<polygon fill="#666666" stroke="#666666" points="0,-342 0,-342 55,-342 55,-342 0,-342"/>
<polygon fill="none" stroke="#666666" points="0,-324 0,-376 55,-376 55,-324 0,-324"/>
</a>
</g>
</g>
<!-- Node2&#45;&gt;Node1 -->
<g id="edge1_Node000001_Node000002" class="edge">
<title>Node2&#45;&gt;Node1</title>
<g id="a_edge1_Node000001_Node000002"><a xlink:title=" ">
<path fill="none" stroke="#63b8ff" d="M38.35,-313.61C50.32,-275.64 70.8,-213.79 92.5,-162 95.03,-155.96 97.78,-149.75 100.63,-143.56"/>
<polygon fill="none" stroke="#63b8ff" points="35.15,-312.09 35.51,-322.68 41.84,-314.18 35.15,-312.09"/>
</a>
</g>
</g>
<!-- Node3 -->
<g id="Node000003" class="node">
<title>Node3</title>
<g id="a_Node000003"><a xlink:title=" ">
<polygon fill="white" stroke="none" points="104,-376 73,-376 73,-324 104,-324 104,-376"/>
<text text-anchor="start" x="78" y="-362.5" font-family="Helvetica,sans-Serif" font-size="10.00">table</text>
<text text-anchor="start" x="87" y="-346.5" font-family="Helvetica,sans-Serif" font-size="10.00"> </text>
<text text-anchor="start" x="87" y="-330.5" font-family="Helvetica,sans-Serif" font-size="10.00"> </text>
<polygon fill="#666666" stroke="#666666" points="73,-358 73,-358 104,-358 104,-358 73,-358"/>
<polygon fill="#666666" stroke="#666666" points="73,-342 73,-342 104,-342 104,-342 73,-342"/>
<polygon fill="none" stroke="#666666" points="73,-324 73,-376 104,-376 104,-324 73,-324"/>
</a>
</g>
</g>
<!-- Node3&#45;&gt;Node1 -->
<g id="edge2_Node000001_Node000003" class="edge">
<title>Node3&#45;&gt;Node1</title>
<g id="a_edge2_Node000001_Node000003"><a xlink:title=" ">
<path fill="none" stroke="#63b8ff" d="M94.8,-312.78C102.23,-270.03 114.77,-197.94 124.16,-143.94"/>
<polygon fill="none" stroke="#63b8ff" points="91.37,-312.08 93.1,-322.53 98.27,-313.28 91.37,-312.08"/>
</a>
</g>
</g>
<!-- Node4 -->
<g id="Node000004" class="node">
<title>Node4</title>
<g id="a_Node000004"><a xlink:title=" ">
<polygon fill="white" stroke="none" points="151,-376 122,-376 122,-324 151,-324 151,-376"/>
<text text-anchor="start" x="126.75" y="-362.5" font-family="Helvetica,sans-Serif" font-size="10.00">True</text>
<text text-anchor="start" x="135" y="-346.5" font-family="Helvetica,sans-Serif" font-size="10.00"> </text>
<text text-anchor="start" x="135" y="-330.5" font-family="Helvetica,sans-Serif" font-size="10.00"> </text>
<polygon fill="#666666" stroke="#666666" points="122,-358 122,-358 151,-358 151,-358 122,-358"/>
<polygon fill="#666666" stroke="#666666" points="122,-342 122,-342 151,-342 151,-342 122,-342"/>
<polygon fill="none" stroke="#666666" points="122,-324 122,-376 151,-376 151,-324 122,-324"/>
</a>
</g>
</g>
<!-- Node4&#45;&gt;Node1 -->
<g id="edge3_Node000001_Node000004" class="edge">
<title>Node4&#45;&gt;Node1</title>
<g id="a_edge3_Node000001_Node000004"><a xlink:title=" ">
<path fill="none" stroke="#63b8ff" d="M136.5,-312.78C136.5,-270.03 136.5,-197.94 136.5,-143.94"/>
<polygon fill="none" stroke="#63b8ff" points="133,-312.51 136.5,-322.51 140,-312.51 133,-312.51"/>
</a>
</g>
</g>
<!-- Node5 -->
<g id="Node000005" class="node">
<title>Node5</title>
<g id="a_Node000005"><a xlink:title=" ">
<polygon fill="white" stroke="none" points="215.5,-376 169.5,-376 169.5,-324 215.5,-324 215.5,-376"/>
<text text-anchor="start" x="174.5" y="-362.5" font-family="Helvetica,sans-Serif" font-size="10.00">Optional</text>
<text text-anchor="start" x="191" y="-346.5" font-family="Helvetica,sans-Serif" font-size="10.00"> </text>
<text text-anchor="start" x="191" y="-330.5" font-family="Helvetica,sans-Serif" font-size="10.00"> </text>
<polygon fill="#666666" stroke="#666666" points="169.5,-358 169.5,-358 215.5,-358 215.5,-358 169.5,-358"/>
<polygon fill="#666666" stroke="#666666" points="169.5,-342 169.5,-342 215.5,-342 215.5,-342 169.5,-342"/>
<polygon fill="none" stroke="#666666" points="169.5,-324 169.5,-376 215.5,-376 215.5,-324 169.5,-324"/>
</a>
</g>
</g>
<!-- Node5&#45;&gt;Node1 -->
<g id="edge4_Node000001_Node000005" class="edge">
<title>Node5&#45;&gt;Node1</title>
<g id="a_edge4_Node000001_Node000005"><a xlink:title=" ">
<path fill="none" stroke="#63b8ff" d="M186.02,-324.04C184.56,-318.14 183.05,-311.86 181.75,-306 170.8,-256.66 159.96,-201.12 151.63,-156.64"/>
<polygon fill="none" stroke="#63b8ff" points="151.6,-156.5 146.57,-151.33 149.41,-144.7 154.44,-149.86 151.6,-156.5"/>
</a>
</g>
<text text-anchor="middle" x="219.62" y="-296.5" font-family="Helvetica,sans-Serif" font-size="10.00" fill="grey"> +expires_at</text>
<text text-anchor="middle" x="219.62" y="-284.5" font-family="Helvetica,sans-Serif" font-size="10.00" fill="grey">+extra_data</text>
<text text-anchor="middle" x="219.62" y="-272.5" font-family="Helvetica,sans-Serif" font-size="10.00" fill="grey">+granted_scopes</text>
<text text-anchor="middle" x="219.62" y="-260.5" font-family="Helvetica,sans-Serif" font-size="10.00" fill="grey">+id</text>
<text text-anchor="middle" x="219.62" y="-248.5" font-family="Helvetica,sans-Serif" font-size="10.00" fill="grey">+last_error</text>
<text text-anchor="middle" x="219.62" y="-236.5" font-family="Helvetica,sans-Serif" font-size="10.00" fill="grey">+last_used_at</text>
<text text-anchor="middle" x="219.62" y="-224.5" font-family="Helvetica,sans-Serif" font-size="10.00" fill="grey">+refresh_token</text>
<text text-anchor="start" x="181.75" y="-212.5" font-family="Helvetica,sans-Serif" font-size="10.00" fill="grey">+remote_account</text>
<text text-anchor="middle" x="219.62" y="-200.5" font-family="Helvetica,sans-Serif" font-size="10.00" fill="grey">_id</text>
<text text-anchor="middle" x="219.62" y="-188.5" font-family="Helvetica,sans-Serif" font-size="10.00" fill="grey">+remote_email</text>
<text text-anchor="middle" x="219.62" y="-176.5" font-family="Helvetica,sans-Serif" font-size="10.00" fill="grey">+remote_name</text>
<text text-anchor="middle" x="219.62" y="-164.5" font-family="Helvetica,sans-Serif" font-size="10.00" fill="grey">...</text>
</g>
<!-- Node6 -->
<g id="Node000006" class="node">
<title>Node6</title>
<g id="a_Node000006"><a xlink:title=" ">
<polygon fill="white" stroke="none" points="303,-376 256,-376 256,-324 303,-324 303,-376"/>
<text text-anchor="start" x="260.75" y="-362.5" font-family="Helvetica,sans-Serif" font-size="10.00">datetime</text>
<text text-anchor="start" x="278" y="-346.5" font-family="Helvetica,sans-Serif" font-size="10.00"> </text>
<text text-anchor="start" x="278" y="-330.5" font-family="Helvetica,sans-Serif" font-size="10.00"> </text>
<polygon fill="#666666" stroke="#666666" points="256,-358 256,-358 303,-358 303,-358 256,-358"/>
<polygon fill="#666666" stroke="#666666" points="256,-342 256,-342 303,-342 303,-342 256,-342"/>
<polygon fill="none" stroke="#666666" points="256,-324 256,-376 303,-376 303,-324 256,-324"/>
</a>
</g>
</g>
<!-- Node6&#45;&gt;Node1 -->
<g id="edge5_Node000001_Node000006" class="edge">
<title>Node6&#45;&gt;Node1</title>
<g id="a_edge5_Node000001_Node000006"><a xlink:title=" ">
<path fill="none" stroke="#63b8ff" d="M282.55,-324.05C285.91,-286.25 287.42,-213.43 257.5,-162 245.94,-142.12 227.98,-125.38 209.41,-111.97"/>
<polygon fill="none" stroke="#63b8ff" points="209.4,-111.96 202.19,-111.86 199.5,-105.17 206.71,-105.27 209.4,-111.96"/>
</a>
</g>
<text text-anchor="middle" x="311.66" y="-236.5" font-family="Helvetica,sans-Serif" font-size="10.00" fill="grey"> +created_at</text>
<text text-anchor="middle" x="311.66" y="-224.5" font-family="Helvetica,sans-Serif" font-size="10.00" fill="grey">+updated_at</text>
</g>
</g>
</svg>
