<?xml version="1.0" encoding="UTF-8" standalone="no"?>
<!DOCTYPE svg PUBLIC "-//W3C//DTD SVG 1.1//EN"
 "http://www.w3.org/Graphics/SVG/1.1/DTD/svg11.dtd">
<!-- Generated by graphviz version 12.1.0 (20240811.2233)
 -->
<!-- Title: user.OAuth2PasswordBearerWithCookie Pages: 1 -->
<svg width="144pt" height="176pt"
 viewBox="0.00 0.00 144.00 176.00" xmlns="http://www.w3.org/2000/svg" xmlns:xlink="http://www.w3.org/1999/xlink">
<g id="graph0" class="graph" transform="scale(1 1) rotate(0) translate(4 172)">
<title>user.OAuth2PasswordBearerWithCookie</title>
<!-- Node1 -->
<g id="Node000001" class="node">
<title>Node1</title>
<g id="a_Node000001"><a xlink:title=" ">
<polygon fill="#999999" stroke="none" points="136,-80 0,-80 0,0 136,0 136,-80"/>
<text text-anchor="start" x="4.62" y="-66.5" font-family="Helvetica,sans-Serif" font-size="10.00">user.OAuth2PasswordBearer</text>
<text text-anchor="start" x="42.5" y="-54.5" font-family="Helvetica,sans-Serif" font-size="10.00">WithCookie</text>
<text text-anchor="start" x="22.5" y="-38.5" font-family="Helvetica,sans-Serif" font-size="10.00">+</text>
<text text-anchor="start" x="51" y="-38.5" font-family="Helvetica,sans-Serif" font-size="10.00">auto_error</text>
<text text-anchor="start" x="22.5" y="-22.5" font-family="Helvetica,sans-Serif" font-size="10.00">+</text>
<text text-anchor="start" x="51" y="-22.5" font-family="Helvetica,sans-Serif" font-size="10.00">__init__()</text>
<text text-anchor="start" x="22.5" y="-6.5" font-family="Helvetica,sans-Serif" font-size="10.00">+</text>
<text text-anchor="start" x="51" y="-6.5" font-family="Helvetica,sans-Serif" font-size="10.00">__call__()</text>
<polygon fill="#666666" stroke="#666666" points="0,-50 0,-50 136,-50 136,-50 0,-50"/>
<polygon fill="#666666" stroke="#666666" points="0,-34 0,-34 49,-34 49,-34 0,-34"/>
<polygon fill="#666666" stroke="#666666" points="49,-34 49,-34 136,-34 136,-34 49,-34"/>
<polygon fill="none" stroke="#666666" points="0,0 0,-80 136,-80 136,0 0,0"/>
</a>
</g>
</g>
<!-- Node2 -->
<g id="Node000002" class="node">
<title>Node2</title>
<g id="a_Node000002"><a xlink:title=" ">
<polygon fill="white" stroke="none" points="89.5,-168 46.5,-168 46.5,-116 89.5,-116 89.5,-168"/>
<text text-anchor="start" x="51.5" y="-154.5" font-family="Helvetica,sans-Serif" font-size="10.00">OAuth2</text>
<text text-anchor="start" x="66.5" y="-138.5" font-family="Helvetica,sans-Serif" font-size="10.00"> </text>
<text text-anchor="start" x="66.5" y="-122.5" font-family="Helvetica,sans-Serif" font-size="10.00"> </text>
<polygon fill="#666666" stroke="#666666" points="46.5,-150 46.5,-150 89.5,-150 89.5,-150 46.5,-150"/>
<polygon fill="#666666" stroke="#666666" points="46.5,-134 46.5,-134 89.5,-134 89.5,-134 46.5,-134"/>
<polygon fill="none" stroke="#666666" points="46.5,-116 46.5,-168 89.5,-168 89.5,-116 46.5,-116"/>
</a>
</g>
</g>
<!-- Node2&#45;&gt;Node1 -->
<g id="edge1_Node000001_Node000002" class="edge">
<title>Node2&#45;&gt;Node1</title>
<g id="a_edge1_Node000001_Node000002"><a xlink:title=" ">
<path fill="none" stroke="#63b8ff" d="M68,-104.61C68,-96.5 68,-87.86 68,-79.65"/>
<polygon fill="none" stroke="#63b8ff" points="64.5,-104.51 68,-114.51 71.5,-104.51 64.5,-104.51"/>
</a>
</g>
</g>
</g>
</svg>
