<?xml version="1.0" encoding="UTF-8" standalone="no"?>
<!DOCTYPE svg PUBLIC "-//W3C//DTD SVG 1.1//EN"
 "http://www.w3.org/Graphics/SVG/1.1/DTD/svg11.dtd">
<!-- Generated by graphviz version 12.1.0 (20240811.2233)
 -->
<!-- Title: app.core.oauth_config.MobileOAuthConfig Pages: 1 -->
<svg width="145pt" height="172pt"
 viewBox="0.00 0.00 145.00 172.00" xmlns="http://www.w3.org/2000/svg" xmlns:xlink="http://www.w3.org/1999/xlink">
<g id="graph0" class="graph" transform="scale(1 1) rotate(0) translate(4 168)">
<title>app.core.oauth_config.MobileOAuthConfig</title>
<!-- Node1 -->
<g id="Node000001" class="node">
<title>Node1</title>
<g id="a_Node000001"><a xlink:title=" ">
<polygon fill="#999999" stroke="none" points="137,-64 0,-64 0,0 137,0 137,-64"/>
<text text-anchor="start" x="4.75" y="-50.5" font-family="Helvetica,sans-Serif" font-size="10.00">app.core.oauth_config.Mobile</text>
<text text-anchor="start" x="40.38" y="-38.5" font-family="Helvetica,sans-Serif" font-size="10.00">OAuthConfig</text>
<text text-anchor="start" x="67" y="-22.5" font-family="Helvetica,sans-Serif" font-size="10.00"> </text>
<text text-anchor="start" x="67" y="-6.5" font-family="Helvetica,sans-Serif" font-size="10.00"> </text>
<polygon fill="#666666" stroke="#666666" points="0,-34 0,-34 137,-34 137,-34 0,-34"/>
<polygon fill="#666666" stroke="#666666" points="0,-18 0,-18 137,-18 137,-18 0,-18"/>
<polygon fill="none" stroke="#666666" points="0,0 0,-64 137,-64 137,0 0,0"/>
</a>
</g>
</g>
<!-- Node2 -->
<g id="Node000002" class="node">
<title>Node2</title>
<g id="a_Node000002"><a xlink:title=" ">
<polygon fill="white" stroke="none" points="81,-164 56,-164 56,-112 81,-112 81,-164"/>
<text text-anchor="start" x="60.62" y="-150.5" font-family="Helvetica,sans-Serif" font-size="10.00">List</text>
<text text-anchor="start" x="67" y="-134.5" font-family="Helvetica,sans-Serif" font-size="10.00"> </text>
<text text-anchor="start" x="67" y="-118.5" font-family="Helvetica,sans-Serif" font-size="10.00"> </text>
<polygon fill="#666666" stroke="#666666" points="56,-146 56,-146 81,-146 81,-146 56,-146"/>
<polygon fill="#666666" stroke="#666666" points="56,-130 56,-130 81,-130 81,-130 56,-130"/>
<polygon fill="none" stroke="#666666" points="56,-112 56,-164 81,-164 81,-112 56,-112"/>
</a>
</g>
</g>
<!-- Node2&#45;&gt;Node1 -->
<g id="edge1_Node000001_Node000002" class="edge">
<title>Node2&#45;&gt;Node1</title>
<g id="a_edge1_Node000001_Node000002"><a xlink:title=" ">
<path fill="none" stroke="#63b8ff" d="M68.5,-112.09C68.5,-101.41 68.5,-88.62 68.5,-76.46"/>
<polygon fill="none" stroke="#63b8ff" points="68.5,-76.55 64.5,-70.55 68.5,-64.55 72.5,-70.55 68.5,-76.55"/>
</a>
</g>
<text text-anchor="middle" x="88.75" y="-84.5" font-family="Helvetica,sans-Serif" font-size="10.00" fill="grey"> +scopes</text>
</g>
</g>
</svg>
