<?xml version="1.0" encoding="UTF-8" standalone="no"?>
<!DOCTYPE svg PUBLIC "-//W3C//DTD SVG 1.1//EN"
 "http://www.w3.org/Graphics/SVG/1.1/DTD/svg11.dtd">
<!-- Generated by graphviz version 12.1.0 (20240811.2233)
 -->
<!-- Title: app.oauth_models.UserServiceSubscription Pages: 1 -->
<svg width="310pt" height="232pt"
 viewBox="0.00 0.00 310.13 232.00" xmlns="http://www.w3.org/2000/svg" xmlns:xlink="http://www.w3.org/1999/xlink">
<g id="graph0" class="graph" transform="scale(1 1) rotate(0) translate(4 228)">
<title>app.oauth_models.UserServiceSubscription</title>
<!-- Node1 -->
<g id="Node000001" class="node">
<title>Node1</title>
<g id="a_Node000001"><a xlink:title=" ">
<polygon fill="#999999" stroke="none" points="209.5,-112 63.5,-112 63.5,0 209.5,0 209.5,-112"/>
<text text-anchor="start" x="68.25" y="-98.5" font-family="Helvetica,sans-Serif" font-size="10.00">app.oauth_models.UserService</text>
<text text-anchor="start" x="109.5" y="-86.5" font-family="Helvetica,sans-Serif" font-size="10.00">Subscription</text>
<text text-anchor="start" x="83" y="-70.5" font-family="Helvetica,sans-Serif" font-size="10.00">+</text>
<text text-anchor="start" x="108.5" y="-70.5" font-family="Helvetica,sans-Serif" font-size="10.00">user_id</text>
<text text-anchor="start" x="83" y="-54.5" font-family="Helvetica,sans-Serif" font-size="10.00">+</text>
<text text-anchor="start" x="108.5" y="-54.5" font-family="Helvetica,sans-Serif" font-size="10.00">service_id</text>
<text text-anchor="start" x="83" y="-38.5" font-family="Helvetica,sans-Serif" font-size="10.00">+</text>
<text text-anchor="start" x="108.5" y="-38.5" font-family="Helvetica,sans-Serif" font-size="10.00">is_active</text>
<text text-anchor="start" x="84.5" y="-22.5" font-family="Helvetica,sans-Serif" font-size="10.00">&#45;</text>
<text text-anchor="start" x="108.5" y="-22.5" font-family="Helvetica,sans-Serif" font-size="10.00">__tablename__</text>
<text text-anchor="start" x="135" y="-6.5" font-family="Helvetica,sans-Serif" font-size="10.00"> </text>
<polygon fill="#666666" stroke="#666666" points="63.5,-82 63.5,-82 209.5,-82 209.5,-82 63.5,-82"/>
<polygon fill="#666666" stroke="#666666" points="63.5,-18 63.5,-18 106.5,-18 106.5,-18 63.5,-18"/>
<polygon fill="#666666" stroke="#666666" points="106.5,-18 106.5,-18 209.5,-18 209.5,-18 106.5,-18"/>
<polygon fill="none" stroke="#666666" points="63.5,0 63.5,-112 209.5,-112 209.5,0 63.5,0"/>
</a>
</g>
</g>
<!-- Node2 -->
<g id="Node000002" class="node">
<title>Node2</title>
<g id="a_Node000002"><a xlink:title=" ">
<polygon fill="white" stroke="none" points="55,-224 0,-224 0,-172 55,-172 55,-224"/>
<text text-anchor="start" x="4.62" y="-210.5" font-family="Helvetica,sans-Serif" font-size="10.00">SQLModel</text>
<text text-anchor="start" x="26" y="-194.5" font-family="Helvetica,sans-Serif" font-size="10.00"> </text>
<text text-anchor="start" x="26" y="-178.5" font-family="Helvetica,sans-Serif" font-size="10.00"> </text>
<polygon fill="#666666" stroke="#666666" points="0,-206 0,-206 55,-206 55,-206 0,-206"/>
<polygon fill="#666666" stroke="#666666" points="0,-190 0,-190 55,-190 55,-190 0,-190"/>
<polygon fill="none" stroke="#666666" points="0,-172 0,-224 55,-224 55,-172 0,-172"/>
</a>
</g>
</g>
<!-- Node2&#45;&gt;Node1 -->
<g id="edge1_Node000001_Node000002" class="edge">
<title>Node2&#45;&gt;Node1</title>
<g id="a_edge1_Node000001_Node000002"><a xlink:title=" ">
<path fill="none" stroke="#63b8ff" d="M53.5,-163.61C65.53,-148.15 80.14,-129.38 93.73,-111.93"/>
<polygon fill="none" stroke="#63b8ff" points="51.05,-161.06 47.67,-171.1 56.57,-165.36 51.05,-161.06"/>
</a>
</g>
</g>
<!-- Node3 -->
<g id="Node000003" class="node">
<title>Node3</title>
<g id="a_Node000003"><a xlink:title=" ">
<polygon fill="white" stroke="none" points="104,-224 73,-224 73,-172 104,-172 104,-224"/>
<text text-anchor="start" x="78" y="-210.5" font-family="Helvetica,sans-Serif" font-size="10.00">table</text>
<text text-anchor="start" x="87" y="-194.5" font-family="Helvetica,sans-Serif" font-size="10.00"> </text>
<text text-anchor="start" x="87" y="-178.5" font-family="Helvetica,sans-Serif" font-size="10.00"> </text>
<polygon fill="#666666" stroke="#666666" points="73,-206 73,-206 104,-206 104,-206 73,-206"/>
<polygon fill="#666666" stroke="#666666" points="73,-190 73,-190 104,-190 104,-190 73,-190"/>
<polygon fill="none" stroke="#666666" points="73,-172 73,-224 104,-224 104,-172 73,-172"/>
</a>
</g>
</g>
<!-- Node3&#45;&gt;Node1 -->
<g id="edge2_Node000001_Node000003" class="edge">
<title>Node3&#45;&gt;Node1</title>
<g id="a_edge2_Node000001_Node000003"><a xlink:title=" ">
<path fill="none" stroke="#63b8ff" d="M100.7,-161.42C105.85,-146.4 111.96,-128.57 117.67,-111.93"/>
<polygon fill="none" stroke="#63b8ff" points="97.39,-160.27 97.46,-170.86 104.02,-162.54 97.39,-160.27"/>
</a>
</g>
</g>
<!-- Node4 -->
<g id="Node000004" class="node">
<title>Node4</title>
<g id="a_Node000004"><a xlink:title=" ">
<polygon fill="white" stroke="none" points="151,-224 122,-224 122,-172 151,-172 151,-224"/>
<text text-anchor="start" x="126.75" y="-210.5" font-family="Helvetica,sans-Serif" font-size="10.00">True</text>
<text text-anchor="start" x="135" y="-194.5" font-family="Helvetica,sans-Serif" font-size="10.00"> </text>
<text text-anchor="start" x="135" y="-178.5" font-family="Helvetica,sans-Serif" font-size="10.00"> </text>
<polygon fill="#666666" stroke="#666666" points="122,-206 122,-206 151,-206 151,-206 122,-206"/>
<polygon fill="#666666" stroke="#666666" points="122,-190 122,-190 151,-190 151,-190 122,-190"/>
<polygon fill="none" stroke="#666666" points="122,-172 122,-224 151,-224 151,-172 122,-172"/>
</a>
</g>
</g>
<!-- Node4&#45;&gt;Node1 -->
<g id="edge3_Node000001_Node000004" class="edge">
<title>Node4&#45;&gt;Node1</title>
<g id="a_edge3_Node000001_Node000004"><a xlink:title=" ">
<path fill="none" stroke="#63b8ff" d="M136.5,-160.98C136.5,-146.05 136.5,-128.41 136.5,-111.93"/>
<polygon fill="none" stroke="#63b8ff" points="133,-160.78 136.5,-170.78 140,-160.78 133,-160.78"/>
</a>
</g>
</g>
<!-- Node5 -->
<g id="Node000005" class="node">
<title>Node5</title>
<g id="a_Node000005"><a xlink:title=" ">
<polygon fill="white" stroke="none" points="215.5,-224 169.5,-224 169.5,-172 215.5,-172 215.5,-224"/>
<text text-anchor="start" x="174.5" y="-210.5" font-family="Helvetica,sans-Serif" font-size="10.00">Optional</text>
<text text-anchor="start" x="191" y="-194.5" font-family="Helvetica,sans-Serif" font-size="10.00"> </text>
<text text-anchor="start" x="191" y="-178.5" font-family="Helvetica,sans-Serif" font-size="10.00"> </text>
<polygon fill="#666666" stroke="#666666" points="169.5,-206 169.5,-206 215.5,-206 215.5,-206 169.5,-206"/>
<polygon fill="#666666" stroke="#666666" points="169.5,-190 169.5,-190 215.5,-190 215.5,-190 169.5,-190"/>
<polygon fill="none" stroke="#666666" points="169.5,-172 169.5,-224 215.5,-224 215.5,-172 169.5,-172"/>
</a>
</g>
</g>
<!-- Node5&#45;&gt;Node1 -->
<g id="edge4_Node000001_Node000005" class="edge">
<title>Node5&#45;&gt;Node1</title>
<g id="a_edge4_Node000001_Node000005"><a xlink:title=" ">
<path fill="none" stroke="#63b8ff" d="M182.62,-172.29C177.18,-158.71 170.15,-141.13 163.23,-123.82"/>
<polygon fill="none" stroke="#63b8ff" points="163.26,-123.91 157.32,-119.82 158.81,-112.76 164.75,-116.85 163.26,-123.91"/>
</a>
</g>
<text text-anchor="middle" x="201.39" y="-144.5" font-family="Helvetica,sans-Serif" font-size="10.00" fill="grey"> +id</text>
<text text-anchor="middle" x="201.39" y="-132.5" font-family="Helvetica,sans-Serif" font-size="10.00" fill="grey">+oauth_data</text>
</g>
<!-- Node6 -->
<g id="Node000006" class="node">
<title>Node6</title>
<g id="a_Node000006"><a xlink:title=" ">
<polygon fill="white" stroke="none" points="287,-224 240,-224 240,-172 287,-172 287,-224"/>
<text text-anchor="start" x="244.75" y="-210.5" font-family="Helvetica,sans-Serif" font-size="10.00">datetime</text>
<text text-anchor="start" x="262" y="-194.5" font-family="Helvetica,sans-Serif" font-size="10.00"> </text>
<text text-anchor="start" x="262" y="-178.5" font-family="Helvetica,sans-Serif" font-size="10.00"> </text>
<polygon fill="#666666" stroke="#666666" points="240,-206 240,-206 287,-206 287,-206 240,-206"/>
<polygon fill="#666666" stroke="#666666" points="240,-190 240,-190 287,-190 287,-190 240,-190"/>
<polygon fill="none" stroke="#666666" points="240,-172 240,-224 287,-224 287,-172 240,-172"/>
</a>
</g>
</g>
<!-- Node6&#45;&gt;Node1 -->
<g id="edge5_Node000001_Node000006" class="edge">
<title>Node6&#45;&gt;Node1</title>
<g id="a_edge5_Node000001_Node000006"><a xlink:title=" ">
<path fill="none" stroke="#63b8ff" d="M255.34,-172.13C250.16,-158.75 242.54,-142.49 232.5,-130 228.24,-124.7 223.51,-119.56 218.5,-114.64"/>
<polygon fill="none" stroke="#63b8ff" points="218.68,-114.81 211.56,-113.65 209.89,-106.63 217.01,-107.79 218.68,-114.81"/>
</a>
</g>
<text text-anchor="middle" x="274.76" y="-138.5" font-family="Helvetica,sans-Serif" font-size="10.00" fill="grey"> +created_at</text>
</g>
</g>
</svg>
