<?xml version="1.0" encoding="UTF-8" standalone="no"?>
<!DOCTYPE svg PUBLIC "-//W3C//DTD SVG 1.1//EN"
 "http://www.w3.org/Graphics/SVG/1.1/DTD/svg11.dtd">
<!-- Generated by graphviz version 12.1.0 (20240811.2233)
 -->
<!-- Title: app.action.BaseAction Pages: 1 -->
<svg width="149pt" height="196pt"
 viewBox="0.00 0.00 149.43 196.00" xmlns="http://www.w3.org/2000/svg" xmlns:xlink="http://www.w3.org/1999/xlink">
<g id="graph0" class="graph" transform="scale(1 1) rotate(0) translate(4 192)">
<title>app.action.BaseAction</title>
<!-- Node1 -->
<g id="Node000001" class="node">
<title>Node1</title>
<g id="a_Node000001"><a xlink:title=" ">
<polygon fill="#999999" stroke="none" points="115.5,-52 7.5,-52 7.5,0 115.5,0 115.5,-52"/>
<text text-anchor="start" x="12.38" y="-38.5" font-family="Helvetica,sans-Serif" font-size="10.00">app.action.BaseAction</text>
<text text-anchor="start" x="24" y="-22.5" font-family="Helvetica,sans-Serif" font-size="10.00">+</text>
<text text-anchor="start" x="46.5" y="-22.5" font-family="Helvetica,sans-Serif" font-size="10.00">is_polling</text>
<text text-anchor="start" x="60" y="-6.5" font-family="Helvetica,sans-Serif" font-size="10.00"> </text>
<polygon fill="#666666" stroke="#666666" points="7.5,-34 7.5,-34 115.5,-34 115.5,-34 7.5,-34"/>
<polygon fill="#666666" stroke="#666666" points="7.5,-18 7.5,-18 44.5,-18 44.5,-18 7.5,-18"/>
<polygon fill="#666666" stroke="#666666" points="44.5,-18 44.5,-18 115.5,-18 115.5,-18 44.5,-18"/>
<polygon fill="none" stroke="#666666" points="7.5,0 7.5,-52 115.5,-52 115.5,0 7.5,0"/>
</a>
</g>
</g>
<!-- Node2 -->
<g id="Node000002" class="node">
<title>Node2</title>
<g id="a_Node000002"><a xlink:title=" ">
<polygon fill="white" stroke="none" points="55,-188 0,-188 0,-136 55,-136 55,-188"/>
<text text-anchor="start" x="4.62" y="-174.5" font-family="Helvetica,sans-Serif" font-size="10.00">SQLModel</text>
<text text-anchor="start" x="26" y="-158.5" font-family="Helvetica,sans-Serif" font-size="10.00"> </text>
<text text-anchor="start" x="26" y="-142.5" font-family="Helvetica,sans-Serif" font-size="10.00"> </text>
<polygon fill="#666666" stroke="#666666" points="0,-170 0,-170 55,-170 55,-170 0,-170"/>
<polygon fill="#666666" stroke="#666666" points="0,-154 0,-154 55,-154 55,-154 0,-154"/>
<polygon fill="none" stroke="#666666" points="0,-136 0,-188 55,-188 55,-136 0,-136"/>
</a>
</g>
</g>
<!-- Node2&#45;&gt;Node1 -->
<g id="edge1_Node000001_Node000002" class="edge">
<title>Node2&#45;&gt;Node1</title>
<g id="a_edge1_Node000001_Node000002"><a xlink:title=" ">
<path fill="none" stroke="#63b8ff" d="M36.64,-124.98C42.52,-101.82 50,-72.31 55.22,-51.76"/>
<polygon fill="none" stroke="#63b8ff" points="33.25,-124.09 34.19,-134.64 40.04,-125.81 33.25,-124.09"/>
</a>
</g>
</g>
<!-- Node3 -->
<g id="Node000003" class="node">
<title>Node3</title>
<g id="a_Node000003"><a xlink:title=" ">
<polygon fill="white" stroke="none" points="119.5,-188 73.5,-188 73.5,-136 119.5,-136 119.5,-188"/>
<text text-anchor="start" x="78.5" y="-174.5" font-family="Helvetica,sans-Serif" font-size="10.00">Optional</text>
<text text-anchor="start" x="95" y="-158.5" font-family="Helvetica,sans-Serif" font-size="10.00"> </text>
<text text-anchor="start" x="95" y="-142.5" font-family="Helvetica,sans-Serif" font-size="10.00"> </text>
<polygon fill="#666666" stroke="#666666" points="73.5,-170 73.5,-170 119.5,-170 119.5,-170 73.5,-170"/>
<polygon fill="#666666" stroke="#666666" points="73.5,-154 73.5,-154 119.5,-154 119.5,-154 73.5,-154"/>
<polygon fill="none" stroke="#666666" points="73.5,-136 73.5,-188 119.5,-188 119.5,-136 73.5,-136"/>
</a>
</g>
</g>
<!-- Node3&#45;&gt;Node1 -->
<g id="edge2_Node000001_Node000003" class="edge">
<title>Node3&#45;&gt;Node1</title>
<g id="a_edge2_Node000001_Node000003"><a xlink:title=" ">
<path fill="none" stroke="#63b8ff" d="M90,-136.11C84.72,-115.9 77.19,-87.08 71.2,-64.14"/>
<polygon fill="none" stroke="#63b8ff" points="71.23,-64.24 65.84,-59.45 68.19,-52.63 73.58,-57.42 71.23,-64.24"/>
</a>
</g>
<text text-anchor="middle" x="113.3" y="-108.5" font-family="Helvetica,sans-Serif" font-size="10.00" fill="grey"> +description</text>
<text text-anchor="middle" x="113.3" y="-96.5" font-family="Helvetica,sans-Serif" font-size="10.00" fill="grey">+id</text>
<text text-anchor="middle" x="113.3" y="-84.5" font-family="Helvetica,sans-Serif" font-size="10.00" fill="grey">+parameters</text>
<text text-anchor="middle" x="113.3" y="-72.5" font-family="Helvetica,sans-Serif" font-size="10.00" fill="grey">+service_id</text>
</g>
</g>
</svg>
