<?xml version="1.0" encoding="UTF-8" standalone="no"?>
<!DOCTYPE svg PUBLIC "-//W3C//DTD SVG 1.1//EN"
 "http://www.w3.org/Graphics/SVG/1.1/DTD/svg11.dtd">
<!-- Generated by graphviz version 12.1.0 (20240811.2233)
 -->
<!-- Title: app.user.RegisteringUser Pages: 1 -->
<svg width="130pt" height="249pt"
 viewBox="0.00 0.00 130.00 249.00" xmlns="http://www.w3.org/2000/svg" xmlns:xlink="http://www.w3.org/1999/xlink">
<g id="graph0" class="graph" transform="scale(1 1) rotate(0) translate(4 245)">
<title>app.user.RegisteringUser</title>
<!-- Node1 -->
<g id="Node000001" class="node">
<title>Node1</title>
<g id="a_Node000001"><a xlink:title=" ">
<polygon fill="#999999" stroke="none" points="122,-52 1,-52 1,0 122,0 122,-52"/>
<text text-anchor="start" x="6" y="-38.5" font-family="Helvetica,sans-Serif" font-size="10.00">app.user.RegisteringUser</text>
<text text-anchor="start" x="60" y="-22.5" font-family="Helvetica,sans-Serif" font-size="10.00"> </text>
<text text-anchor="start" x="60" y="-6.5" font-family="Helvetica,sans-Serif" font-size="10.00"> </text>
<polygon fill="#666666" stroke="#666666" points="1,-34 1,-34 122,-34 122,-34 1,-34"/>
<polygon fill="#666666" stroke="#666666" points="1,-18 1,-18 122,-18 122,-18 1,-18"/>
<polygon fill="none" stroke="#666666" points="1,0 1,-52 122,-52 122,0 1,0"/>
</a>
</g>
</g>
<!-- Node2 -->
<g id="Node000002" class="node">
<title>Node2</title>
<g id="a_Node000002"><a xlink:href="classapp_1_1user_1_1BaseUser.html" target="_top" xlink:title=" ">
<polygon fill="white" stroke="none" points="108.5,-141 14.5,-141 14.5,-89 108.5,-89 108.5,-141"/>
<text text-anchor="start" x="19.5" y="-127.5" font-family="Helvetica,sans-Serif" font-size="10.00">app.user.BaseUser</text>
<text text-anchor="start" x="31.5" y="-111.5" font-family="Helvetica,sans-Serif" font-size="10.00">+</text>
<text text-anchor="start" x="54.5" y="-111.5" font-family="Helvetica,sans-Serif" font-size="10.00">email</text>
<text text-anchor="start" x="60" y="-95.5" font-family="Helvetica,sans-Serif" font-size="10.00"> </text>
<polygon fill="#666666" stroke="#666666" points="14.5,-123 14.5,-123 108.5,-123 108.5,-123 14.5,-123"/>
<polygon fill="#666666" stroke="#666666" points="14.5,-107 14.5,-107 52.5,-107 52.5,-107 14.5,-107"/>
<polygon fill="#666666" stroke="#666666" points="52.5,-107 52.5,-107 108.5,-107 108.5,-107 52.5,-107"/>
<polygon fill="none" stroke="#666666" points="14.5,-89 14.5,-141 108.5,-141 108.5,-89 14.5,-89"/>
</a>
</g>
</g>
<!-- Node2&#45;&gt;Node1 -->
<g id="edge1_Node000001_Node000002" class="edge">
<title>Node2&#45;&gt;Node1</title>
<g id="a_edge1_Node000001_Node000002"><a xlink:title=" ">
<path fill="none" stroke="#63b8ff" d="M61.5,-78.05C61.5,-69.21 61.5,-59.94 61.5,-51.76"/>
<polygon fill="none" stroke="#63b8ff" points="58,-77.79 61.5,-87.79 65,-77.79 58,-77.79"/>
</a>
</g>
</g>
<!-- Node3 -->
<g id="Node000003" class="node">
<title>Node3</title>
<g id="a_Node000003"><a xlink:title=" ">
<polygon fill="white" stroke="none" points="55,-241 0,-241 0,-189 55,-189 55,-241"/>
<text text-anchor="start" x="4.62" y="-227.5" font-family="Helvetica,sans-Serif" font-size="10.00">SQLModel</text>
<text text-anchor="start" x="26" y="-211.5" font-family="Helvetica,sans-Serif" font-size="10.00"> </text>
<text text-anchor="start" x="26" y="-195.5" font-family="Helvetica,sans-Serif" font-size="10.00"> </text>
<polygon fill="#666666" stroke="#666666" points="0,-223 0,-223 55,-223 55,-223 0,-223"/>
<polygon fill="#666666" stroke="#666666" points="0,-207 0,-207 55,-207 55,-207 0,-207"/>
<polygon fill="none" stroke="#666666" points="0,-189 0,-241 55,-241 55,-189 0,-189"/>
</a>
</g>
</g>
<!-- Node3&#45;&gt;Node2 -->
<g id="edge2_Node000002_Node000003" class="edge">
<title>Node3&#45;&gt;Node2</title>
<g id="a_edge2_Node000002_Node000003"><a xlink:title=" ">
<path fill="none" stroke="#63b8ff" d="M39.82,-178.49C44.14,-166.04 48.89,-152.34 52.85,-140.94"/>
<polygon fill="none" stroke="#63b8ff" points="36.63,-176.99 36.66,-187.59 43.25,-179.29 36.63,-176.99"/>
</a>
</g>
</g>
<!-- Node4 -->
<g id="Node000004" class="node">
<title>Node4</title>
<g id="a_Node000004"><a xlink:title=" ">
<polygon fill="white" stroke="none" points="119.5,-241 73.5,-241 73.5,-189 119.5,-189 119.5,-241"/>
<text text-anchor="start" x="78.5" y="-227.5" font-family="Helvetica,sans-Serif" font-size="10.00">Optional</text>
<text text-anchor="start" x="95" y="-211.5" font-family="Helvetica,sans-Serif" font-size="10.00"> </text>
<text text-anchor="start" x="95" y="-195.5" font-family="Helvetica,sans-Serif" font-size="10.00"> </text>
<polygon fill="#666666" stroke="#666666" points="73.5,-223 73.5,-223 119.5,-223 119.5,-223 73.5,-223"/>
<polygon fill="#666666" stroke="#666666" points="73.5,-207 73.5,-207 119.5,-207 119.5,-207 73.5,-207"/>
<polygon fill="none" stroke="#666666" points="73.5,-189 73.5,-241 119.5,-241 119.5,-189 73.5,-189"/>
</a>
</g>
</g>
<!-- Node4&#45;&gt;Node2 -->
<g id="edge3_Node000002_Node000004" class="edge">
<title>Node4&#45;&gt;Node2</title>
<g id="a_edge3_Node000002_Node000004"><a xlink:title=" ">
<path fill="none" stroke="#63b8ff" d="M87.58,-189.02C83.67,-178.07 79,-165.01 74.7,-152.97"/>
<polygon fill="none" stroke="#63b8ff" points="74.75,-153.09 68.96,-148.78 70.71,-141.79 76.49,-146.09 74.75,-153.09"/>
</a>
</g>
<text text-anchor="middle" x="89.35" y="-161.5" font-family="Helvetica,sans-Serif" font-size="10.00" fill="grey"> +id</text>
</g>
</g>
</svg>
