<?xml version="1.0" encoding="UTF-8" standalone="no"?>
<!DOCTYPE svg PUBLIC "-//W3C//DTD SVG 1.1//EN"
 "http://www.w3.org/Graphics/SVG/1.1/DTD/svg11.dtd">
<!-- Generated by graphviz version 12.1.0 (20240811.2233)
 -->
<!-- Title: app.schemas.services.ActionRead Pages: 1 -->
<svg width="170pt" height="164pt"
 viewBox="0.00 0.00 170.00 164.00" xmlns="http://www.w3.org/2000/svg" xmlns:xlink="http://www.w3.org/1999/xlink">
<g id="graph0" class="graph" transform="scale(1 1) rotate(0) translate(4 160)">
<title>app.schemas.services.ActionRead</title>
<!-- Node1 -->
<g id="Node000001" class="node">
<title>Node1</title>
<g id="a_Node000001"><a xlink:title=" ">
<polygon fill="#999999" stroke="none" points="162,-68 0,-68 0,0 162,0 162,-68"/>
<text text-anchor="start" x="4.88" y="-54.5" font-family="Helvetica,sans-Serif" font-size="10.00">app.schemas.services.ActionRead</text>
<text text-anchor="start" x="28" y="-38.5" font-family="Helvetica,sans-Serif" font-size="10.00">+</text>
<text text-anchor="start" x="62" y="-38.5" font-family="Helvetica,sans-Serif" font-size="10.00">description</text>
<text text-anchor="start" x="28" y="-22.5" font-family="Helvetica,sans-Serif" font-size="10.00">+</text>
<text text-anchor="start" x="62" y="-22.5" font-family="Helvetica,sans-Serif" font-size="10.00">is_polling</text>
<text text-anchor="start" x="79.5" y="-6.5" font-family="Helvetica,sans-Serif" font-size="10.00"> </text>
<polygon fill="#666666" stroke="#666666" points="0,-50 0,-50 162,-50 162,-50 0,-50"/>
<polygon fill="#666666" stroke="#666666" points="0,-18 0,-18 60,-18 60,-18 0,-18"/>
<polygon fill="#666666" stroke="#666666" points="60,-18 60,-18 162,-18 162,-18 60,-18"/>
<polygon fill="none" stroke="#666666" points="0,0 0,-68 162,-68 162,0 0,0"/>
</a>
</g>
</g>
<!-- Node2 -->
<g id="Node000002" class="node">
<title>Node2</title>
<g id="a_Node000002"><a xlink:title=" ">
<polygon fill="white" stroke="none" points="108.5,-156 53.5,-156 53.5,-104 108.5,-104 108.5,-156"/>
<text text-anchor="start" x="58.12" y="-142.5" font-family="Helvetica,sans-Serif" font-size="10.00">SQLModel</text>
<text text-anchor="start" x="79.5" y="-126.5" font-family="Helvetica,sans-Serif" font-size="10.00"> </text>
<text text-anchor="start" x="79.5" y="-110.5" font-family="Helvetica,sans-Serif" font-size="10.00"> </text>
<polygon fill="#666666" stroke="#666666" points="53.5,-138 53.5,-138 108.5,-138 108.5,-138 53.5,-138"/>
<polygon fill="#666666" stroke="#666666" points="53.5,-122 53.5,-122 108.5,-122 108.5,-122 53.5,-122"/>
<polygon fill="none" stroke="#666666" points="53.5,-104 53.5,-156 108.5,-156 108.5,-104 53.5,-104"/>
</a>
</g>
</g>
<!-- Node2&#45;&gt;Node1 -->
<g id="edge1_Node000001_Node000002" class="edge">
<title>Node2&#45;&gt;Node1</title>
<g id="a_edge1_Node000001_Node000002"><a xlink:title=" ">
<path fill="none" stroke="#63b8ff" d="M81,-92.97C81,-84.65 81,-75.84 81,-67.67"/>
<polygon fill="none" stroke="#63b8ff" points="77.5,-92.79 81,-102.79 84.5,-92.79 77.5,-92.79"/>
</a>
</g>
</g>
</g>
</svg>
