<?xml version="1.0" encoding="UTF-8" standalone="no"?>
<!DOCTYPE svg PUBLIC "-//W3C//DTD SVG 1.1//EN"
 "http://www.w3.org/Graphics/SVG/1.1/DTD/svg11.dtd">
<!-- Generated by graphviz version 12.1.0 (20240811.2233)
 -->
<!-- Title: google.GoogleSendEmailExecutor.execute Pages: 1 -->
<svg width="389pt" height="90pt"
 viewBox="0.00 0.00 388.75 90.00" xmlns="http://www.w3.org/2000/svg" xmlns:xlink="http://www.w3.org/1999/xlink">
<g id="graph0" class="graph" transform="scale(1 1) rotate(0) translate(4 86)">
<title>google.GoogleSendEmailExecutor.execute</title>
<!-- Node1 -->
<g id="Node000001" class="node">
<title>Node1</title>
<g id="a_Node000001"><a xlink:title=" ">
<polygon fill="#999999" stroke="#666666" points="202,-51 0,-51 0,-31 202,-31 202,-51"/>
<text text-anchor="middle" x="101" y="-37.5" font-family="Helvetica,sans-Serif" font-size="10.00">google.GoogleSendEmailExecutor.execute</text>
</a>
</g>
</g>
<!-- Node2 -->
<g id="Node000002" class="node">
<title>Node2</title>
<g id="a_Node000002"><a xlink:href="classgoogle_1_1BaseGoogleExecutor.html#a28433ff826ade01717a5709e776f7589" target="_top" xlink:title=" ">
<polygon fill="white" stroke="#666666" points="380.75,-82 238,-82 238,-50 380.75,-50 380.75,-82"/>
<text text-anchor="start" x="246" y="-68.5" font-family="Helvetica,sans-Serif" font-size="10.00">google.BaseGoogleExecutor.</text>
<text text-anchor="middle" x="309.38" y="-56.5" font-family="Helvetica,sans-Serif" font-size="10.00">_get_google_credentials</text>
</a>
</g>
</g>
<!-- Node1&#45;&gt;Node2 -->
<g id="edge1_Node000001_Node000002" class="edge">
<title>Node1&#45;&gt;Node2</title>
<g id="a_edge1_Node000001_Node000002"><a xlink:title=" ">
<path fill="none" stroke="#63b8ff" d="M188.62,-51.49C201.12,-53.01 213.96,-54.56 226.36,-56.06"/>
<polygon fill="#63b8ff" stroke="#63b8ff" points="225.76,-59.52 236.11,-57.25 226.6,-52.57 225.76,-59.52"/>
</a>
</g>
</g>
<!-- Node3 -->
<g id="Node000003" class="node">
<title>Node3</title>
<g id="a_Node000003"><a xlink:href="classgoogle_1_1BaseGoogleExecutor.html#a44316d4ac8819d5db412831940cadd34" target="_top" xlink:title=" ">
<polygon fill="white" stroke="#666666" points="380.75,-32 238,-32 238,0 380.75,0 380.75,-32"/>
<text text-anchor="start" x="246" y="-18.5" font-family="Helvetica,sans-Serif" font-size="10.00">google.BaseGoogleExecutor.</text>
<text text-anchor="middle" x="309.38" y="-6.5" font-family="Helvetica,sans-Serif" font-size="10.00">_make_google_request</text>
</a>
</g>
</g>
<!-- Node1&#45;&gt;Node3 -->
<g id="edge2_Node000001_Node000003" class="edge">
<title>Node1&#45;&gt;Node3</title>
<g id="a_edge2_Node000001_Node000003"><a xlink:title=" ">
<path fill="none" stroke="#63b8ff" d="M188.62,-30.51C201.12,-28.99 213.96,-27.44 226.36,-25.94"/>
<polygon fill="#63b8ff" stroke="#63b8ff" points="226.6,-29.43 236.11,-24.75 225.76,-22.48 226.6,-29.43"/>
</a>
</g>
</g>
</g>
</svg>
