<?xml version="1.0" encoding="UTF-8" standalone="no"?>
<!DOCTYPE svg PUBLIC "-//W3C//DTD SVG 1.1//EN"
 "http://www.w3.org/Graphics/SVG/1.1/DTD/svg11.dtd">
<!-- Generated by graphviz version 12.1.0 (20240811.2233)
 -->
<!-- Title: app.user.PasswordChange Pages: 1 -->
<svg width="135pt" height="148pt"
 viewBox="0.00 0.00 135.00 148.00" xmlns="http://www.w3.org/2000/svg" xmlns:xlink="http://www.w3.org/1999/xlink">
<g id="graph0" class="graph" transform="scale(1 1) rotate(0) translate(4 144)">
<title>app.user.PasswordChange</title>
<!-- Node1 -->
<g id="Node000001" class="node">
<title>Node1</title>
<g id="a_Node000001"><a xlink:title=" ">
<polygon fill="#999999" stroke="none" points="127,-52 0,-52 0,0 127,0 127,-52"/>
<text text-anchor="start" x="4.62" y="-38.5" font-family="Helvetica,sans-Serif" font-size="10.00">app.user.PasswordChange</text>
<text text-anchor="start" x="62" y="-22.5" font-family="Helvetica,sans-Serif" font-size="10.00"> </text>
<text text-anchor="start" x="62" y="-6.5" font-family="Helvetica,sans-Serif" font-size="10.00"> </text>
<polygon fill="#666666" stroke="#666666" points="0,-34 0,-34 127,-34 127,-34 0,-34"/>
<polygon fill="#666666" stroke="#666666" points="0,-18 0,-18 127,-18 127,-18 0,-18"/>
<polygon fill="none" stroke="#666666" points="0,0 0,-52 127,-52 127,0 0,0"/>
</a>
</g>
</g>
<!-- Node2 -->
<g id="Node000002" class="node">
<title>Node2</title>
<g id="a_Node000002"><a xlink:title=" ">
<polygon fill="white" stroke="none" points="92.5,-140 34.5,-140 34.5,-88 92.5,-88 92.5,-140"/>
<text text-anchor="start" x="39.12" y="-126.5" font-family="Helvetica,sans-Serif" font-size="10.00">BaseModel</text>
<text text-anchor="start" x="62" y="-110.5" font-family="Helvetica,sans-Serif" font-size="10.00"> </text>
<text text-anchor="start" x="62" y="-94.5" font-family="Helvetica,sans-Serif" font-size="10.00"> </text>
<polygon fill="#666666" stroke="#666666" points="34.5,-122 34.5,-122 92.5,-122 92.5,-122 34.5,-122"/>
<polygon fill="#666666" stroke="#666666" points="34.5,-106 34.5,-106 92.5,-106 92.5,-106 34.5,-106"/>
<polygon fill="none" stroke="#666666" points="34.5,-88 34.5,-140 92.5,-140 92.5,-88 34.5,-88"/>
</a>
</g>
</g>
<!-- Node2&#45;&gt;Node1 -->
<g id="edge1_Node000001_Node000002" class="edge">
<title>Node2&#45;&gt;Node1</title>
<g id="a_edge1_Node000001_Node000002"><a xlink:title=" ">
<path fill="none" stroke="#63b8ff" d="M63.5,-76.66C63.5,-68.29 63.5,-59.57 63.5,-51.82"/>
<polygon fill="none" stroke="#63b8ff" points="60,-76.61 63.5,-86.61 67,-76.61 60,-76.61"/>
</a>
</g>
</g>
</g>
</svg>
