<?xml version="1.0" encoding="UTF-8" standalone="no"?>
<!DOCTYPE svg PUBLIC "-//W3C//DTD SVG 1.1//EN"
 "http://www.w3.org/Graphics/SVG/1.1/DTD/svg11.dtd">
<!-- Generated by graphviz version 12.1.0 (20240811.2233)
 -->
<!-- Title: app.oauth_models.ServiceReaction Pages: 1 -->
<svg width="289pt" height="216pt"
 viewBox="0.00 0.00 289.00 216.00" xmlns="http://www.w3.org/2000/svg" xmlns:xlink="http://www.w3.org/1999/xlink">
<g id="graph0" class="graph" transform="scale(1 1) rotate(0) translate(4 212)">
<title>app.oauth_models.ServiceReaction</title>
<!-- Node1 -->
<g id="Node000001" class="node">
<title>Node1</title>
<g id="a_Node000001"><a xlink:title=" ">
<polygon fill="#999999" stroke="none" points="199,-96 74,-96 74,0 199,0 199,-96"/>
<text text-anchor="start" x="78.75" y="-82.5" font-family="Helvetica,sans-Serif" font-size="10.00">app.oauth_models.Service</text>
<text text-anchor="start" x="117" y="-70.5" font-family="Helvetica,sans-Serif" font-size="10.00">Reaction</text>
<text text-anchor="start" x="88" y="-54.5" font-family="Helvetica,sans-Serif" font-size="10.00">+</text>
<text text-anchor="start" x="108" y="-54.5" font-family="Helvetica,sans-Serif" font-size="10.00">service_id</text>
<text text-anchor="start" x="88" y="-38.5" font-family="Helvetica,sans-Serif" font-size="10.00">+</text>
<text text-anchor="start" x="108" y="-38.5" font-family="Helvetica,sans-Serif" font-size="10.00">is_active</text>
<text text-anchor="start" x="89.5" y="-22.5" font-family="Helvetica,sans-Serif" font-size="10.00">&#45;</text>
<text text-anchor="start" x="108" y="-22.5" font-family="Helvetica,sans-Serif" font-size="10.00">__tablename__</text>
<text text-anchor="start" x="135" y="-6.5" font-family="Helvetica,sans-Serif" font-size="10.00"> </text>
<polygon fill="#666666" stroke="#666666" points="74,-66 74,-66 199,-66 199,-66 74,-66"/>
<polygon fill="#666666" stroke="#666666" points="74,-18 74,-18 106,-18 106,-18 74,-18"/>
<polygon fill="#666666" stroke="#666666" points="106,-18 106,-18 199,-18 199,-18 106,-18"/>
<polygon fill="none" stroke="#666666" points="74,0 74,-96 199,-96 199,0 74,0"/>
</a>
</g>
</g>
<!-- Node2 -->
<g id="Node000002" class="node">
<title>Node2</title>
<g id="a_Node000002"><a xlink:title=" ">
<polygon fill="white" stroke="none" points="55,-208 0,-208 0,-156 55,-156 55,-208"/>
<text text-anchor="start" x="4.62" y="-194.5" font-family="Helvetica,sans-Serif" font-size="10.00">SQLModel</text>
<text text-anchor="start" x="26" y="-178.5" font-family="Helvetica,sans-Serif" font-size="10.00"> </text>
<text text-anchor="start" x="26" y="-162.5" font-family="Helvetica,sans-Serif" font-size="10.00"> </text>
<polygon fill="#666666" stroke="#666666" points="0,-190 0,-190 55,-190 55,-190 0,-190"/>
<polygon fill="#666666" stroke="#666666" points="0,-174 0,-174 55,-174 55,-174 0,-174"/>
<polygon fill="none" stroke="#666666" points="0,-156 0,-208 55,-208 55,-156 0,-156"/>
</a>
</g>
</g>
<!-- Node2&#45;&gt;Node1 -->
<g id="edge1_Node000001_Node000002" class="edge">
<title>Node2&#45;&gt;Node1</title>
<g id="a_edge1_Node000001_Node000002"><a xlink:title=" ">
<path fill="none" stroke="#63b8ff" d="M55.26,-147.38C68.17,-131.75 83.74,-112.9 97.78,-95.89"/>
<polygon fill="none" stroke="#63b8ff" points="52.63,-145.07 48.97,-155 58.03,-149.52 52.63,-145.07"/>
</a>
</g>
</g>
<!-- Node3 -->
<g id="Node000003" class="node">
<title>Node3</title>
<g id="a_Node000003"><a xlink:title=" ">
<polygon fill="white" stroke="none" points="104,-208 73,-208 73,-156 104,-156 104,-208"/>
<text text-anchor="start" x="78" y="-194.5" font-family="Helvetica,sans-Serif" font-size="10.00">table</text>
<text text-anchor="start" x="87" y="-178.5" font-family="Helvetica,sans-Serif" font-size="10.00"> </text>
<text text-anchor="start" x="87" y="-162.5" font-family="Helvetica,sans-Serif" font-size="10.00"> </text>
<polygon fill="#666666" stroke="#666666" points="73,-190 73,-190 104,-190 104,-190 73,-190"/>
<polygon fill="#666666" stroke="#666666" points="73,-174 73,-174 104,-174 104,-174 73,-174"/>
<polygon fill="none" stroke="#666666" points="73,-156 73,-208 104,-208 104,-156 73,-156"/>
</a>
</g>
</g>
<!-- Node3&#45;&gt;Node1 -->
<g id="edge2_Node000001_Node000003" class="edge">
<title>Node3&#45;&gt;Node1</title>
<g id="a_edge2_Node000001_Node000003"><a xlink:title=" ">
<path fill="none" stroke="#63b8ff" d="M101.37,-145.61C106.92,-130.34 113.5,-112.26 119.45,-95.89"/>
<polygon fill="none" stroke="#63b8ff" points="98.17,-144.16 98.05,-154.75 104.75,-146.55 98.17,-144.16"/>
</a>
</g>
</g>
<!-- Node4 -->
<g id="Node000004" class="node">
<title>Node4</title>
<g id="a_Node000004"><a xlink:title=" ">
<polygon fill="white" stroke="none" points="151,-208 122,-208 122,-156 151,-156 151,-208"/>
<text text-anchor="start" x="126.75" y="-194.5" font-family="Helvetica,sans-Serif" font-size="10.00">True</text>
<text text-anchor="start" x="135" y="-178.5" font-family="Helvetica,sans-Serif" font-size="10.00"> </text>
<text text-anchor="start" x="135" y="-162.5" font-family="Helvetica,sans-Serif" font-size="10.00"> </text>
<polygon fill="#666666" stroke="#666666" points="122,-190 122,-190 151,-190 151,-190 122,-190"/>
<polygon fill="#666666" stroke="#666666" points="122,-174 122,-174 151,-174 151,-174 122,-174"/>
<polygon fill="none" stroke="#666666" points="122,-156 122,-208 151,-208 151,-156 122,-156"/>
</a>
</g>
</g>
<!-- Node4&#45;&gt;Node1 -->
<g id="edge3_Node000001_Node000004" class="edge">
<title>Node4&#45;&gt;Node1</title>
<g id="a_edge3_Node000001_Node000004"><a xlink:title=" ">
<path fill="none" stroke="#63b8ff" d="M136.5,-144.72C136.5,-129.64 136.5,-111.94 136.5,-95.89"/>
<polygon fill="none" stroke="#63b8ff" points="133,-144.66 136.5,-154.66 140,-144.66 133,-144.66"/>
</a>
</g>
</g>
<!-- Node5 -->
<g id="Node000005" class="node">
<title>Node5</title>
<g id="a_Node000005"><a xlink:title=" ">
<polygon fill="white" stroke="none" points="215.5,-208 169.5,-208 169.5,-156 215.5,-156 215.5,-208"/>
<text text-anchor="start" x="174.5" y="-194.5" font-family="Helvetica,sans-Serif" font-size="10.00">Optional</text>
<text text-anchor="start" x="191" y="-178.5" font-family="Helvetica,sans-Serif" font-size="10.00"> </text>
<text text-anchor="start" x="191" y="-162.5" font-family="Helvetica,sans-Serif" font-size="10.00"> </text>
<polygon fill="#666666" stroke="#666666" points="169.5,-190 169.5,-190 215.5,-190 215.5,-190 169.5,-190"/>
<polygon fill="#666666" stroke="#666666" points="169.5,-174 169.5,-174 215.5,-174 215.5,-174 169.5,-174"/>
<polygon fill="none" stroke="#666666" points="169.5,-156 169.5,-208 215.5,-208 215.5,-156 169.5,-156"/>
</a>
</g>
</g>
<!-- Node5&#45;&gt;Node1 -->
<g id="edge4_Node000001_Node000005" class="edge">
<title>Node5&#45;&gt;Node1</title>
<g id="a_edge4_Node000001_Node000005"><a xlink:title=" ">
<path fill="none" stroke="#63b8ff" d="M181.97,-156.17C176.12,-142.4 168.59,-124.64 161.34,-107.56"/>
<polygon fill="none" stroke="#63b8ff" points="161.43,-107.77 155.41,-103.81 156.75,-96.72 162.77,-100.69 161.43,-107.77"/>
</a>
</g>
<text text-anchor="middle" x="181.04" y="-122.5" font-family="Helvetica,sans-Serif" font-size="10.00" fill="grey"> +id</text>
</g>
<!-- Node6 -->
<g id="Node000006" class="node">
<title>Node6</title>
<g id="a_Node000006"><a xlink:title=" ">
<polygon fill="white" stroke="none" points="281,-208 234,-208 234,-156 281,-156 281,-208"/>
<text text-anchor="start" x="238.75" y="-194.5" font-family="Helvetica,sans-Serif" font-size="10.00">datetime</text>
<text text-anchor="start" x="256" y="-178.5" font-family="Helvetica,sans-Serif" font-size="10.00"> </text>
<text text-anchor="start" x="256" y="-162.5" font-family="Helvetica,sans-Serif" font-size="10.00"> </text>
<polygon fill="#666666" stroke="#666666" points="234,-190 234,-190 281,-190 281,-190 234,-190"/>
<polygon fill="#666666" stroke="#666666" points="234,-174 234,-174 281,-174 281,-174 234,-174"/>
<polygon fill="none" stroke="#666666" points="234,-156 234,-208 281,-208 281,-156 234,-156"/>
</a>
</g>
</g>
<!-- Node6&#45;&gt;Node1 -->
<g id="edge5_Node000001_Node000006" class="edge">
<title>Node6&#45;&gt;Node1</title>
<g id="a_edge5_Node000001_Node000006"><a xlink:title=" ">
<path fill="none" stroke="#63b8ff" d="M234.74,-156.17C221.51,-141.74 204.26,-122.92 187.92,-105.1"/>
<polygon fill="none" stroke="#63b8ff" points="188.2,-105.4 181.2,-103.68 180.1,-96.56 187.1,-98.28 188.2,-105.4"/>
</a>
</g>
<text text-anchor="middle" x="242.28" y="-128.5" font-family="Helvetica,sans-Serif" font-size="10.00" fill="grey"> +created_at</text>
<text text-anchor="middle" x="242.28" y="-116.5" font-family="Helvetica,sans-Serif" font-size="10.00" fill="grey">+updated_at</text>
</g>
</g>
</svg>
