<?xml version="1.0" encoding="UTF-8" standalone="no"?>
<!DOCTYPE svg PUBLIC "-//W3C//DTD SVG 1.1//EN"
 "http://www.w3.org/Graphics/SVG/1.1/DTD/svg11.dtd">
<!-- Generated by graphviz version 12.1.0 (20240811.2233)
 -->
<!-- Title: user.BaseUser Pages: 1 -->
<svg width="145pt" height="184pt"
 viewBox="0.00 0.00 145.16 184.00" xmlns="http://www.w3.org/2000/svg" xmlns:xlink="http://www.w3.org/1999/xlink">
<g id="graph0" class="graph" transform="scale(1 1) rotate(0) translate(4 180)">
<title>user.BaseUser</title>
<!-- Node1 -->
<g id="Node000001" class="node">
<title>Node1</title>
<g id="a_Node000001"><a xlink:title=" ">
<polygon fill="#999999" stroke="none" points="99,-52 24,-52 24,0 99,0 99,-52"/>
<text text-anchor="start" x="28.88" y="-38.5" font-family="Helvetica,sans-Serif" font-size="10.00">user.BaseUser</text>
<text text-anchor="start" x="36.5" y="-22.5" font-family="Helvetica,sans-Serif" font-size="10.00">+</text>
<text text-anchor="start" x="55" y="-22.5" font-family="Helvetica,sans-Serif" font-size="10.00">email</text>
<text text-anchor="start" x="60" y="-6.5" font-family="Helvetica,sans-Serif" font-size="10.00"> </text>
<polygon fill="#666666" stroke="#666666" points="24,-34 24,-34 99,-34 99,-34 24,-34"/>
<polygon fill="#666666" stroke="#666666" points="24,-18 24,-18 53,-18 53,-18 24,-18"/>
<polygon fill="#666666" stroke="#666666" points="53,-18 53,-18 99,-18 99,-18 53,-18"/>
<polygon fill="none" stroke="#666666" points="24,0 24,-52 99,-52 99,0 24,0"/>
</a>
</g>
</g>
<!-- Node2 -->
<g id="Node000002" class="node">
<title>Node2</title>
<g id="a_Node000002"><a xlink:title=" ">
<polygon fill="white" stroke="none" points="55,-176 0,-176 0,-124 55,-124 55,-176"/>
<text text-anchor="start" x="4.62" y="-162.5" font-family="Helvetica,sans-Serif" font-size="10.00">SQLModel</text>
<text text-anchor="start" x="26" y="-146.5" font-family="Helvetica,sans-Serif" font-size="10.00"> </text>
<text text-anchor="start" x="26" y="-130.5" font-family="Helvetica,sans-Serif" font-size="10.00"> </text>
<polygon fill="#666666" stroke="#666666" points="0,-158 0,-158 55,-158 55,-158 0,-158"/>
<polygon fill="#666666" stroke="#666666" points="0,-142 0,-142 55,-142 55,-142 0,-142"/>
<polygon fill="none" stroke="#666666" points="0,-124 0,-176 55,-176 55,-124 0,-124"/>
</a>
</g>
</g>
<!-- Node2&#45;&gt;Node1 -->
<g id="edge1_Node000001_Node000002" class="edge">
<title>Node2&#45;&gt;Node1</title>
<g id="a_edge1_Node000001_Node000002"><a xlink:title=" ">
<path fill="none" stroke="#63b8ff" d="M37.53,-113.01C43,-93.37 49.64,-69.54 54.55,-51.95"/>
<polygon fill="none" stroke="#63b8ff" points="34.18,-111.99 34.87,-122.56 40.92,-113.87 34.18,-111.99"/>
</a>
</g>
</g>
<!-- Node3 -->
<g id="Node000003" class="node">
<title>Node3</title>
<g id="a_Node000003"><a xlink:title=" ">
<polygon fill="white" stroke="none" points="119.5,-176 73.5,-176 73.5,-124 119.5,-124 119.5,-176"/>
<text text-anchor="start" x="78.5" y="-162.5" font-family="Helvetica,sans-Serif" font-size="10.00">Optional</text>
<text text-anchor="start" x="95" y="-146.5" font-family="Helvetica,sans-Serif" font-size="10.00"> </text>
<text text-anchor="start" x="95" y="-130.5" font-family="Helvetica,sans-Serif" font-size="10.00"> </text>
<polygon fill="#666666" stroke="#666666" points="73.5,-158 73.5,-158 119.5,-158 119.5,-158 73.5,-158"/>
<polygon fill="#666666" stroke="#666666" points="73.5,-142 73.5,-142 119.5,-142 119.5,-142 73.5,-142"/>
<polygon fill="none" stroke="#666666" points="73.5,-124 73.5,-176 119.5,-176 119.5,-124 73.5,-124"/>
</a>
</g>
</g>
<!-- Node3&#45;&gt;Node1 -->
<g id="edge2_Node000001_Node000003" class="edge">
<title>Node3&#45;&gt;Node1</title>
<g id="a_edge2_Node000001_Node000003"><a xlink:title=" ">
<path fill="none" stroke="#63b8ff" d="M89.33,-124.02C84.4,-106.83 77.77,-83.7 72.21,-64.33"/>
<polygon fill="none" stroke="#63b8ff" points="72.22,-64.35 66.72,-59.69 68.91,-52.82 74.41,-57.48 72.22,-64.35"/>
</a>
</g>
<text text-anchor="middle" x="110.16" y="-96.5" font-family="Helvetica,sans-Serif" font-size="10.00" fill="grey"> +founder_id</text>
<text text-anchor="middle" x="110.16" y="-84.5" font-family="Helvetica,sans-Serif" font-size="10.00" fill="grey">+id</text>
<text text-anchor="middle" x="110.16" y="-72.5" font-family="Helvetica,sans-Serif" font-size="10.00" fill="grey">+investor_id</text>
</g>
</g>
</svg>
