<?xml version="1.0" encoding="UTF-8" standalone="no"?>
<!DOCTYPE svg PUBLIC "-//W3C//DTD SVG 1.1//EN"
 "http://www.w3.org/Graphics/SVG/1.1/DTD/svg11.dtd">
<!-- Generated by graphviz version 12.1.0 (20240811.2233)
 -->
<!-- Title: app.action.BaseAction Pages: 1 -->
<svg width="116pt" height="300pt"
 viewBox="0.00 0.00 116.00 300.00" xmlns="http://www.w3.org/2000/svg" xmlns:xlink="http://www.w3.org/1999/xlink">
<g id="graph0" class="graph" transform="scale(1 1) rotate(0) translate(4 296)">
<title>app.action.BaseAction</title>
<!-- Node1 -->
<g id="Node000001" class="node">
<title>Node1</title>
<g id="a_Node000001"><a xlink:title=" ">
<polygon fill="#999999" stroke="none" points="108,-204 0,-204 0,-88 108,-88 108,-204"/>
<text text-anchor="start" x="4.88" y="-190.5" font-family="Helvetica,sans-Serif" font-size="10.00">app.action.BaseAction</text>
<text text-anchor="start" x="14.5" y="-174.5" font-family="Helvetica,sans-Serif" font-size="10.00">+</text>
<text text-anchor="start" x="35" y="-174.5" font-family="Helvetica,sans-Serif" font-size="10.00">id</text>
<text text-anchor="start" x="14.5" y="-158.5" font-family="Helvetica,sans-Serif" font-size="10.00">+</text>
<text text-anchor="start" x="35" y="-158.5" font-family="Helvetica,sans-Serif" font-size="10.00">description</text>
<text text-anchor="start" x="14.5" y="-142.5" font-family="Helvetica,sans-Serif" font-size="10.00">+</text>
<text text-anchor="start" x="35" y="-142.5" font-family="Helvetica,sans-Serif" font-size="10.00">is_polling</text>
<text text-anchor="start" x="14.5" y="-126.5" font-family="Helvetica,sans-Serif" font-size="10.00">+</text>
<text text-anchor="start" x="35" y="-126.5" font-family="Helvetica,sans-Serif" font-size="10.00">parameters</text>
<text text-anchor="start" x="14.5" y="-110.5" font-family="Helvetica,sans-Serif" font-size="10.00">+</text>
<text text-anchor="start" x="35" y="-110.5" font-family="Helvetica,sans-Serif" font-size="10.00">service_id</text>
<text text-anchor="start" x="52.5" y="-94.5" font-family="Helvetica,sans-Serif" font-size="10.00"> </text>
<polygon fill="#666666" stroke="#666666" points="0,-186 0,-186 108,-186 108,-186 0,-186"/>
<polygon fill="#666666" stroke="#666666" points="0,-106 0,-106 33,-106 33,-106 0,-106"/>
<polygon fill="#666666" stroke="#666666" points="33,-106 33,-106 108,-106 108,-106 33,-106"/>
<polygon fill="none" stroke="#666666" points="0,-88 0,-204 108,-204 108,-88 0,-88"/>
</a>
</g>
</g>
<!-- Node3 -->
<g id="Node000003" class="node">
<title>Node3</title>
<g id="a_Node000003"><a xlink:href="classapp_1_1action_1_1Action.html" target="_top" xlink:title=" ">
<polygon fill="white" stroke="none" points="96.5,-52 11.5,-52 11.5,0 96.5,0 96.5,-52"/>
<text text-anchor="start" x="16.12" y="-38.5" font-family="Helvetica,sans-Serif" font-size="10.00">app.action.Action</text>
<text text-anchor="start" x="52.5" y="-22.5" font-family="Helvetica,sans-Serif" font-size="10.00"> </text>
<text text-anchor="start" x="52.5" y="-6.5" font-family="Helvetica,sans-Serif" font-size="10.00"> </text>
<polygon fill="#666666" stroke="#666666" points="11.5,-34 11.5,-34 96.5,-34 96.5,-34 11.5,-34"/>
<polygon fill="#666666" stroke="#666666" points="11.5,-18 11.5,-18 96.5,-18 96.5,-18 11.5,-18"/>
<polygon fill="none" stroke="#666666" points="11.5,0 11.5,-52 96.5,-52 96.5,0 11.5,0"/>
</a>
</g>
</g>
<!-- Node1&#45;&gt;Node3 -->
<g id="edge2_Node000001_Node000003" class="edge">
<title>Node1&#45;&gt;Node3</title>
<g id="a_edge2_Node000001_Node000003"><a xlink:title=" ">
<path fill="none" stroke="#63b8ff" d="M54,-76.76C54,-67.91 54,-59.33 54,-51.87"/>
<polygon fill="none" stroke="#63b8ff" points="50.5,-76.56 54,-86.56 57.5,-76.56 50.5,-76.56"/>
</a>
</g>
</g>
<!-- Node2 -->
<g id="Node000002" class="node">
<title>Node2</title>
<g id="a_Node000002"><a xlink:title=" ">
<polygon fill="white" stroke="none" points="81.5,-292 26.5,-292 26.5,-240 81.5,-240 81.5,-292"/>
<text text-anchor="start" x="31.12" y="-278.5" font-family="Helvetica,sans-Serif" font-size="10.00">SQLModel</text>
<text text-anchor="start" x="52.5" y="-262.5" font-family="Helvetica,sans-Serif" font-size="10.00"> </text>
<text text-anchor="start" x="52.5" y="-246.5" font-family="Helvetica,sans-Serif" font-size="10.00"> </text>
<polygon fill="#666666" stroke="#666666" points="26.5,-274 26.5,-274 81.5,-274 81.5,-274 26.5,-274"/>
<polygon fill="#666666" stroke="#666666" points="26.5,-258 26.5,-258 81.5,-258 81.5,-258 26.5,-258"/>
<polygon fill="none" stroke="#666666" points="26.5,-240 26.5,-292 81.5,-292 81.5,-240 26.5,-240"/>
</a>
</g>
</g>
<!-- Node2&#45;&gt;Node1 -->
<g id="edge1_Node000001_Node000002" class="edge">
<title>Node2&#45;&gt;Node1</title>
<g id="a_edge1_Node000001_Node000002"><a xlink:title=" ">
<path fill="none" stroke="#63b8ff" d="M54,-228.82C54,-220.89 54,-212.31 54,-203.79"/>
<polygon fill="none" stroke="#63b8ff" points="50.5,-228.75 54,-238.75 57.5,-228.75 50.5,-228.75"/>
</a>
</g>
</g>
</g>
</svg>
