<?xml version="1.0" encoding="UTF-8" standalone="no"?>
<!DOCTYPE svg PUBLIC "-//W3C//DTD SVG 1.1//EN"
 "http://www.w3.org/Graphics/SVG/1.1/DTD/svg11.dtd">
<!-- Generated by graphviz version 12.1.0 (20240811.2233)
 -->
<!-- Title: app.schemas.services.AreaDetailRead Pages: 1 -->
<svg width="187pt" height="184pt"
 viewBox="0.00 0.00 186.57 184.00" xmlns="http://www.w3.org/2000/svg" xmlns:xlink="http://www.w3.org/1999/xlink">
<g id="graph0" class="graph" transform="scale(1 1) rotate(0) translate(4 180)">
<title>app.schemas.services.AreaDetailRead</title>
<!-- Node1 -->
<g id="Node000001" class="node">
<title>Node1</title>
<g id="a_Node000001"><a xlink:title=" ">
<polygon fill="#999999" stroke="none" points="131,-64 0,-64 0,0 131,0 131,-64"/>
<text text-anchor="start" x="4.75" y="-50.5" font-family="Helvetica,sans-Serif" font-size="10.00">app.schemas.services.Area</text>
<text text-anchor="start" x="41.12" y="-38.5" font-family="Helvetica,sans-Serif" font-size="10.00">DetailRead</text>
<text text-anchor="start" x="64" y="-22.5" font-family="Helvetica,sans-Serif" font-size="10.00"> </text>
<text text-anchor="start" x="64" y="-6.5" font-family="Helvetica,sans-Serif" font-size="10.00"> </text>
<polygon fill="#666666" stroke="#666666" points="0,-34 0,-34 131,-34 131,-34 0,-34"/>
<polygon fill="#666666" stroke="#666666" points="0,-18 0,-18 131,-18 131,-18 0,-18"/>
<polygon fill="none" stroke="#666666" points="0,0 0,-64 131,-64 131,0 0,0"/>
</a>
</g>
</g>
<!-- Node2 -->
<g id="Node000002" class="node">
<title>Node2</title>
<g id="a_Node000002"><a xlink:title=" ">
<polygon fill="white" stroke="none" points="63,-176 8,-176 8,-124 63,-124 63,-176"/>
<text text-anchor="start" x="12.62" y="-162.5" font-family="Helvetica,sans-Serif" font-size="10.00">SQLModel</text>
<text text-anchor="start" x="34" y="-146.5" font-family="Helvetica,sans-Serif" font-size="10.00"> </text>
<text text-anchor="start" x="34" y="-130.5" font-family="Helvetica,sans-Serif" font-size="10.00"> </text>
<polygon fill="#666666" stroke="#666666" points="8,-158 8,-158 63,-158 63,-158 8,-158"/>
<polygon fill="#666666" stroke="#666666" points="8,-142 8,-142 63,-142 63,-142 8,-142"/>
<polygon fill="none" stroke="#666666" points="8,-124 8,-176 63,-176 63,-124 8,-124"/>
</a>
</g>
</g>
<!-- Node2&#45;&gt;Node1 -->
<g id="edge1_Node000001_Node000002" class="edge">
<title>Node2&#45;&gt;Node1</title>
<g id="a_edge1_Node000001_Node000002"><a xlink:title=" ">
<path fill="none" stroke="#63b8ff" d="M44.78,-113.11C48.88,-97.26 53.65,-78.82 57.58,-63.63"/>
<polygon fill="none" stroke="#63b8ff" points="41.43,-112.09 42.31,-122.65 48.21,-113.84 41.43,-112.09"/>
</a>
</g>
</g>
<!-- Node3 -->
<g id="Node000003" class="node">
<title>Node3</title>
<g id="a_Node000003"><a xlink:title=" ">
<polygon fill="white" stroke="none" points="109.5,-176 81.5,-176 81.5,-124 109.5,-124 109.5,-176"/>
<text text-anchor="start" x="86.5" y="-162.5" font-family="Helvetica,sans-Serif" font-size="10.00">Dict</text>
<text text-anchor="start" x="94" y="-146.5" font-family="Helvetica,sans-Serif" font-size="10.00"> </text>
<text text-anchor="start" x="94" y="-130.5" font-family="Helvetica,sans-Serif" font-size="10.00"> </text>
<polygon fill="#666666" stroke="#666666" points="81.5,-158 81.5,-158 109.5,-158 109.5,-158 81.5,-158"/>
<polygon fill="#666666" stroke="#666666" points="81.5,-142 81.5,-142 109.5,-142 109.5,-142 81.5,-142"/>
<polygon fill="none" stroke="#666666" points="81.5,-124 81.5,-176 109.5,-176 109.5,-124 81.5,-124"/>
</a>
</g>
</g>
<!-- Node3&#45;&gt;Node1 -->
<g id="edge2_Node000001_Node000003" class="edge">
<title>Node3&#45;&gt;Node1</title>
<g id="a_edge2_Node000001_Node000003"><a xlink:title=" ">
<path fill="none" stroke="#63b8ff" d="M89.06,-124.12C85.45,-110.14 80.84,-92.31 76.66,-76.14"/>
<polygon fill="none" stroke="#63b8ff" points="76.65,-76.12 71.28,-71.31 73.65,-64.5 79.02,-69.31 76.65,-76.12"/>
</a>
</g>
<text text-anchor="middle" x="131.32" y="-96.5" font-family="Helvetica,sans-Serif" font-size="10.00" fill="grey"> +action_parameters</text>
<text text-anchor="middle" x="131.32" y="-84.5" font-family="Helvetica,sans-Serif" font-size="10.00" fill="grey">+reaction_parameters</text>
</g>
</g>
</svg>
