<?xml version="1.0" encoding="UTF-8" standalone="no"?>
<!DOCTYPE svg PUBLIC "-//W3C//DTD SVG 1.1//EN"
 "http://www.w3.org/Graphics/SVG/1.1/DTD/svg11.dtd">
<!-- Generated by graphviz version 12.1.0 (20240811.2233)
 -->
<!-- Title: app.user.RegisteringUser Pages: 1 -->
<svg width="129pt" height="252pt"
 viewBox="0.00 0.00 129.00 252.00" xmlns="http://www.w3.org/2000/svg" xmlns:xlink="http://www.w3.org/1999/xlink">
<g id="graph0" class="graph" transform="scale(1 1) rotate(0) translate(4 248)">
<title>app.user.RegisteringUser</title>
<!-- Node1 -->
<g id="Node000001" class="node">
<title>Node1</title>
<g id="a_Node000001"><a xlink:title=" ">
<polygon fill="#999999" stroke="none" points="121,-52 0,-52 0,0 121,0 121,-52"/>
<text text-anchor="start" x="5" y="-38.5" font-family="Helvetica,sans-Serif" font-size="10.00">app.user.RegisteringUser</text>
<text text-anchor="start" x="59" y="-22.5" font-family="Helvetica,sans-Serif" font-size="10.00"> </text>
<text text-anchor="start" x="59" y="-6.5" font-family="Helvetica,sans-Serif" font-size="10.00"> </text>
<polygon fill="#666666" stroke="#666666" points="0,-34 0,-34 121,-34 121,-34 0,-34"/>
<polygon fill="#666666" stroke="#666666" points="0,-18 0,-18 121,-18 121,-18 0,-18"/>
<polygon fill="none" stroke="#666666" points="0,0 0,-52 121,-52 121,0 0,0"/>
</a>
</g>
</g>
<!-- Node2 -->
<g id="Node000002" class="node">
<title>Node2</title>
<g id="a_Node000002"><a xlink:href="classapp_1_1user_1_1BaseUser.html" target="_top" xlink:title=" ">
<polygon fill="white" stroke="none" points="107.5,-156 13.5,-156 13.5,-88 107.5,-88 107.5,-156"/>
<text text-anchor="start" x="18.5" y="-142.5" font-family="Helvetica,sans-Serif" font-size="10.00">app.user.BaseUser</text>
<text text-anchor="start" x="30.5" y="-126.5" font-family="Helvetica,sans-Serif" font-size="10.00">+</text>
<text text-anchor="start" x="53.5" y="-126.5" font-family="Helvetica,sans-Serif" font-size="10.00">id</text>
<text text-anchor="start" x="30.5" y="-110.5" font-family="Helvetica,sans-Serif" font-size="10.00">+</text>
<text text-anchor="start" x="53.5" y="-110.5" font-family="Helvetica,sans-Serif" font-size="10.00">email</text>
<text text-anchor="start" x="59" y="-94.5" font-family="Helvetica,sans-Serif" font-size="10.00"> </text>
<polygon fill="#666666" stroke="#666666" points="13.5,-138 13.5,-138 107.5,-138 107.5,-138 13.5,-138"/>
<polygon fill="#666666" stroke="#666666" points="13.5,-106 13.5,-106 51.5,-106 51.5,-106 13.5,-106"/>
<polygon fill="#666666" stroke="#666666" points="51.5,-106 51.5,-106 107.5,-106 107.5,-106 51.5,-106"/>
<polygon fill="none" stroke="#666666" points="13.5,-88 13.5,-156 107.5,-156 107.5,-88 13.5,-88"/>
</a>
</g>
</g>
<!-- Node2&#45;&gt;Node1 -->
<g id="edge1_Node000001_Node000002" class="edge">
<title>Node2&#45;&gt;Node1</title>
<g id="a_edge1_Node000001_Node000002"><a xlink:title=" ">
<path fill="none" stroke="#63b8ff" d="M60.5,-76.62C60.5,-68.05 60.5,-59.37 60.5,-51.71"/>
<polygon fill="none" stroke="#63b8ff" points="57,-76.61 60.5,-86.61 64,-76.61 57,-76.61"/>
</a>
</g>
</g>
<!-- Node3 -->
<g id="Node000003" class="node">
<title>Node3</title>
<g id="a_Node000003"><a xlink:title=" ">
<polygon fill="white" stroke="none" points="88,-244 33,-244 33,-192 88,-192 88,-244"/>
<text text-anchor="start" x="37.62" y="-230.5" font-family="Helvetica,sans-Serif" font-size="10.00">SQLModel</text>
<text text-anchor="start" x="59" y="-214.5" font-family="Helvetica,sans-Serif" font-size="10.00"> </text>
<text text-anchor="start" x="59" y="-198.5" font-family="Helvetica,sans-Serif" font-size="10.00"> </text>
<polygon fill="#666666" stroke="#666666" points="33,-226 33,-226 88,-226 88,-226 33,-226"/>
<polygon fill="#666666" stroke="#666666" points="33,-210 33,-210 88,-210 88,-210 33,-210"/>
<polygon fill="none" stroke="#666666" points="33,-192 33,-244 88,-244 88,-192 33,-192"/>
</a>
</g>
</g>
<!-- Node3&#45;&gt;Node2 -->
<g id="edge2_Node000002_Node000003" class="edge">
<title>Node3&#45;&gt;Node2</title>
<g id="a_edge2_Node000002_Node000003"><a xlink:title=" ">
<path fill="none" stroke="#63b8ff" d="M60.5,-180.97C60.5,-172.65 60.5,-163.84 60.5,-155.67"/>
<polygon fill="none" stroke="#63b8ff" points="57,-180.79 60.5,-190.79 64,-180.79 57,-180.79"/>
</a>
</g>
</g>
</g>
</svg>
