<?xml version="1.0" encoding="UTF-8" standalone="no"?>
<!DOCTYPE svg PUBLIC "-//W3C//DTD SVG 1.1//EN"
 "http://www.w3.org/Graphics/SVG/1.1/DTD/svg11.dtd">
<!-- Generated by graphviz version 12.1.0 (20240811.2233)
 -->
<!-- Title: app.oauth_models.UserServiceSubscription Pages: 1 -->
<svg width="170pt" height="256pt"
 viewBox="0.00 0.00 169.50 256.00" xmlns="http://www.w3.org/2000/svg" xmlns:xlink="http://www.w3.org/1999/xlink">
<g id="graph0" class="graph" transform="scale(1 1) rotate(0) translate(4 252)">
<title>app.oauth_models.UserServiceSubscription</title>
<!-- Node1 -->
<g id="Node000001" class="node">
<title>Node1</title>
<g id="a_Node000001"><a xlink:title=" ">
<polygon fill="#999999" stroke="none" points="161.5,-160 15.5,-160 15.5,0 161.5,0 161.5,-160"/>
<text text-anchor="start" x="20.25" y="-146.5" font-family="Helvetica,sans-Serif" font-size="10.00">app.oauth_models.UserService</text>
<text text-anchor="start" x="61.5" y="-134.5" font-family="Helvetica,sans-Serif" font-size="10.00">Subscription</text>
<text text-anchor="start" x="35" y="-118.5" font-family="Helvetica,sans-Serif" font-size="10.00">+</text>
<text text-anchor="start" x="60.5" y="-118.5" font-family="Helvetica,sans-Serif" font-size="10.00">id</text>
<text text-anchor="start" x="35" y="-102.5" font-family="Helvetica,sans-Serif" font-size="10.00">+</text>
<text text-anchor="start" x="60.5" y="-102.5" font-family="Helvetica,sans-Serif" font-size="10.00">user_id</text>
<text text-anchor="start" x="35" y="-86.5" font-family="Helvetica,sans-Serif" font-size="10.00">+</text>
<text text-anchor="start" x="60.5" y="-86.5" font-family="Helvetica,sans-Serif" font-size="10.00">service_id</text>
<text text-anchor="start" x="35" y="-70.5" font-family="Helvetica,sans-Serif" font-size="10.00">+</text>
<text text-anchor="start" x="60.5" y="-70.5" font-family="Helvetica,sans-Serif" font-size="10.00">is_active</text>
<text text-anchor="start" x="35" y="-54.5" font-family="Helvetica,sans-Serif" font-size="10.00">+</text>
<text text-anchor="start" x="60.5" y="-54.5" font-family="Helvetica,sans-Serif" font-size="10.00">created_at</text>
<text text-anchor="start" x="35" y="-38.5" font-family="Helvetica,sans-Serif" font-size="10.00">+</text>
<text text-anchor="start" x="60.5" y="-38.5" font-family="Helvetica,sans-Serif" font-size="10.00">oauth_data</text>
<text text-anchor="start" x="36.5" y="-22.5" font-family="Helvetica,sans-Serif" font-size="10.00">&#45;</text>
<text text-anchor="start" x="60.5" y="-22.5" font-family="Helvetica,sans-Serif" font-size="10.00">__tablename__</text>
<text text-anchor="start" x="87" y="-6.5" font-family="Helvetica,sans-Serif" font-size="10.00"> </text>
<polygon fill="#666666" stroke="#666666" points="15.5,-130 15.5,-130 161.5,-130 161.5,-130 15.5,-130"/>
<polygon fill="#666666" stroke="#666666" points="15.5,-18 15.5,-18 58.5,-18 58.5,-18 15.5,-18"/>
<polygon fill="#666666" stroke="#666666" points="58.5,-18 58.5,-18 161.5,-18 161.5,-18 58.5,-18"/>
<polygon fill="none" stroke="#666666" points="15.5,0 15.5,-160 161.5,-160 161.5,0 15.5,0"/>
</a>
</g>
</g>
<!-- Node2 -->
<g id="Node000002" class="node">
<title>Node2</title>
<g id="a_Node000002"><a xlink:title=" ">
<polygon fill="white" stroke="none" points="55,-248 0,-248 0,-196 55,-196 55,-248"/>
<text text-anchor="start" x="4.62" y="-234.5" font-family="Helvetica,sans-Serif" font-size="10.00">SQLModel</text>
<text text-anchor="start" x="26" y="-218.5" font-family="Helvetica,sans-Serif" font-size="10.00"> </text>
<text text-anchor="start" x="26" y="-202.5" font-family="Helvetica,sans-Serif" font-size="10.00"> </text>
<polygon fill="#666666" stroke="#666666" points="0,-230 0,-230 55,-230 55,-230 0,-230"/>
<polygon fill="#666666" stroke="#666666" points="0,-214 0,-214 55,-214 55,-214 0,-214"/>
<polygon fill="none" stroke="#666666" points="0,-196 0,-248 55,-248 55,-196 0,-196"/>
</a>
</g>
</g>
<!-- Node2&#45;&gt;Node1 -->
<g id="edge1_Node000001_Node000002" class="edge">
<title>Node2&#45;&gt;Node1</title>
<g id="a_edge1_Node000001_Node000002"><a xlink:title=" ">
<path fill="none" stroke="#63b8ff" d="M42.8,-185.87C46.32,-177.81 50.19,-168.92 54.15,-159.83"/>
<polygon fill="none" stroke="#63b8ff" points="39.66,-184.34 38.87,-194.91 46.07,-187.14 39.66,-184.34"/>
</a>
</g>
</g>
<!-- Node3 -->
<g id="Node000003" class="node">
<title>Node3</title>
<g id="a_Node000003"><a xlink:title=" ">
<polygon fill="white" stroke="none" points="104,-248 73,-248 73,-196 104,-196 104,-248"/>
<text text-anchor="start" x="78" y="-234.5" font-family="Helvetica,sans-Serif" font-size="10.00">table</text>
<text text-anchor="start" x="87" y="-218.5" font-family="Helvetica,sans-Serif" font-size="10.00"> </text>
<text text-anchor="start" x="87" y="-202.5" font-family="Helvetica,sans-Serif" font-size="10.00"> </text>
<polygon fill="#666666" stroke="#666666" points="73,-230 73,-230 104,-230 104,-230 73,-230"/>
<polygon fill="#666666" stroke="#666666" points="73,-214 73,-214 104,-214 104,-214 73,-214"/>
<polygon fill="none" stroke="#666666" points="73,-196 73,-248 104,-248 104,-196 73,-196"/>
</a>
</g>
</g>
<!-- Node3&#45;&gt;Node1 -->
<g id="edge2_Node000001_Node000003" class="edge">
<title>Node3&#45;&gt;Node1</title>
<g id="a_edge2_Node000001_Node000003"><a xlink:title=" ">
<path fill="none" stroke="#63b8ff" d="M88.5,-185.05C88.5,-177.21 88.5,-168.61 88.5,-159.83"/>
<polygon fill="none" stroke="#63b8ff" points="85,-184.78 88.5,-194.78 92,-184.78 85,-184.78"/>
</a>
</g>
</g>
<!-- Node4 -->
<g id="Node000004" class="node">
<title>Node4</title>
<g id="a_Node000004"><a xlink:title=" ">
<polygon fill="white" stroke="none" points="151,-248 122,-248 122,-196 151,-196 151,-248"/>
<text text-anchor="start" x="126.75" y="-234.5" font-family="Helvetica,sans-Serif" font-size="10.00">True</text>
<text text-anchor="start" x="135" y="-218.5" font-family="Helvetica,sans-Serif" font-size="10.00"> </text>
<text text-anchor="start" x="135" y="-202.5" font-family="Helvetica,sans-Serif" font-size="10.00"> </text>
<polygon fill="#666666" stroke="#666666" points="122,-230 122,-230 151,-230 151,-230 122,-230"/>
<polygon fill="#666666" stroke="#666666" points="122,-214 122,-214 151,-214 151,-214 122,-214"/>
<polygon fill="none" stroke="#666666" points="122,-196 122,-248 151,-248 151,-196 122,-196"/>
</a>
</g>
</g>
<!-- Node4&#45;&gt;Node1 -->
<g id="edge3_Node000001_Node000004" class="edge">
<title>Node4&#45;&gt;Node1</title>
<g id="a_edge3_Node000001_Node000004"><a xlink:title=" ">
<path fill="none" stroke="#63b8ff" d="M124.36,-185.6C121.62,-177.61 118.61,-168.82 115.53,-159.83"/>
<polygon fill="none" stroke="#63b8ff" points="120.98,-186.54 127.54,-194.86 127.61,-184.27 120.98,-186.54"/>
</a>
</g>
</g>
</g>
</svg>
