<?xml version="1.0" encoding="UTF-8" standalone="no"?>
<!DOCTYPE svg PUBLIC "-//W3C//DTD SVG 1.1//EN"
 "http://www.w3.org/Graphics/SVG/1.1/DTD/svg11.dtd">
<!-- Generated by graphviz version 12.1.0 (20240811.2233)
 -->
<!-- Title: app.oauth_models.Area Pages: 1 -->
<svg width="159pt" height="340pt"
 viewBox="0.00 0.00 159.00 340.00" xmlns="http://www.w3.org/2000/svg" xmlns:xlink="http://www.w3.org/1999/xlink">
<g id="graph0" class="graph" transform="scale(1 1) rotate(0) translate(4 336)">
<title>app.oauth_models.Area</title>
<!-- Node1 -->
<g id="Node000001" class="node">
<title>Node1</title>
<g id="a_Node000001"><a xlink:title=" ">
<polygon fill="#999999" stroke="none" points="144.5,-244 32.5,-244 32.5,0 144.5,0 144.5,-244"/>
<text text-anchor="start" x="37.12" y="-230.5" font-family="Helvetica,sans-Serif" font-size="10.00">app.oauth_models.Area</text>
<text text-anchor="start" x="39" y="-214.5" font-family="Helvetica,sans-Serif" font-size="10.00">+</text>
<text text-anchor="start" x="51.5" y="-214.5" font-family="Helvetica,sans-Serif" font-size="10.00">id</text>
<text text-anchor="start" x="39" y="-198.5" font-family="Helvetica,sans-Serif" font-size="10.00">+</text>
<text text-anchor="start" x="51.5" y="-198.5" font-family="Helvetica,sans-Serif" font-size="10.00">user_id</text>
<text text-anchor="start" x="39" y="-182.5" font-family="Helvetica,sans-Serif" font-size="10.00">+</text>
<text text-anchor="start" x="51.5" y="-182.5" font-family="Helvetica,sans-Serif" font-size="10.00">name</text>
<text text-anchor="start" x="39" y="-166.5" font-family="Helvetica,sans-Serif" font-size="10.00">+</text>
<text text-anchor="start" x="51.5" y="-166.5" font-family="Helvetica,sans-Serif" font-size="10.00">action_service_id</text>
<text text-anchor="start" x="39" y="-150.5" font-family="Helvetica,sans-Serif" font-size="10.00">+</text>
<text text-anchor="start" x="51.5" y="-150.5" font-family="Helvetica,sans-Serif" font-size="10.00">action_id</text>
<text text-anchor="start" x="39" y="-134.5" font-family="Helvetica,sans-Serif" font-size="10.00">+</text>
<text text-anchor="start" x="51.5" y="-134.5" font-family="Helvetica,sans-Serif" font-size="10.00">reaction_service_id</text>
<text text-anchor="start" x="39" y="-118.5" font-family="Helvetica,sans-Serif" font-size="10.00">+</text>
<text text-anchor="start" x="51.5" y="-118.5" font-family="Helvetica,sans-Serif" font-size="10.00">reaction_id</text>
<text text-anchor="start" x="39" y="-102.5" font-family="Helvetica,sans-Serif" font-size="10.00">+</text>
<text text-anchor="start" x="51.5" y="-102.5" font-family="Helvetica,sans-Serif" font-size="10.00">params_action</text>
<text text-anchor="start" x="39" y="-86.5" font-family="Helvetica,sans-Serif" font-size="10.00">+</text>
<text text-anchor="start" x="51.5" y="-86.5" font-family="Helvetica,sans-Serif" font-size="10.00">params_reaction</text>
<text text-anchor="start" x="39" y="-70.5" font-family="Helvetica,sans-Serif" font-size="10.00">+</text>
<text text-anchor="start" x="51.5" y="-70.5" font-family="Helvetica,sans-Serif" font-size="10.00">is_active</text>
<text text-anchor="start" x="39" y="-54.5" font-family="Helvetica,sans-Serif" font-size="10.00">+</text>
<text text-anchor="start" x="51.5" y="-54.5" font-family="Helvetica,sans-Serif" font-size="10.00">created_at</text>
<text text-anchor="start" x="39" y="-38.5" font-family="Helvetica,sans-Serif" font-size="10.00">+</text>
<text text-anchor="start" x="51.5" y="-38.5" font-family="Helvetica,sans-Serif" font-size="10.00">updated_at</text>
<text text-anchor="start" x="40.5" y="-22.5" font-family="Helvetica,sans-Serif" font-size="10.00">&#45;</text>
<text text-anchor="start" x="51.5" y="-22.5" font-family="Helvetica,sans-Serif" font-size="10.00">__tablename__</text>
<text text-anchor="start" x="87" y="-6.5" font-family="Helvetica,sans-Serif" font-size="10.00"> </text>
<polygon fill="#666666" stroke="#666666" points="32.5,-226 32.5,-226 144.5,-226 144.5,-226 32.5,-226"/>
<polygon fill="#666666" stroke="#666666" points="32.5,-18 32.5,-18 49.5,-18 49.5,-18 32.5,-18"/>
<polygon fill="#666666" stroke="#666666" points="49.5,-18 49.5,-18 144.5,-18 144.5,-18 49.5,-18"/>
<polygon fill="none" stroke="#666666" points="32.5,0 32.5,-244 144.5,-244 144.5,0 32.5,0"/>
</a>
</g>
</g>
<!-- Node2 -->
<g id="Node000002" class="node">
<title>Node2</title>
<g id="a_Node000002"><a xlink:title=" ">
<polygon fill="white" stroke="none" points="55,-332 0,-332 0,-280 55,-280 55,-332"/>
<text text-anchor="start" x="4.62" y="-318.5" font-family="Helvetica,sans-Serif" font-size="10.00">SQLModel</text>
<text text-anchor="start" x="26" y="-302.5" font-family="Helvetica,sans-Serif" font-size="10.00"> </text>
<text text-anchor="start" x="26" y="-286.5" font-family="Helvetica,sans-Serif" font-size="10.00"> </text>
<polygon fill="#666666" stroke="#666666" points="0,-314 0,-314 55,-314 55,-314 0,-314"/>
<polygon fill="#666666" stroke="#666666" points="0,-298 0,-298 55,-298 55,-298 0,-298"/>
<polygon fill="none" stroke="#666666" points="0,-280 0,-332 55,-332 55,-280 0,-280"/>
</a>
</g>
</g>
<!-- Node2&#45;&gt;Node1 -->
<g id="edge1_Node000001_Node000002" class="edge">
<title>Node2&#45;&gt;Node1</title>
<g id="a_edge1_Node000001_Node000002"><a xlink:title=" ">
<path fill="none" stroke="#63b8ff" d="M39.43,-269.39C42.03,-261.65 44.92,-253.03 47.95,-243.98"/>
<polygon fill="none" stroke="#63b8ff" points="36.19,-268.05 36.33,-278.64 42.83,-270.27 36.19,-268.05"/>
</a>
</g>
</g>
<!-- Node3 -->
<g id="Node000003" class="node">
<title>Node3</title>
<g id="a_Node000003"><a xlink:title=" ">
<polygon fill="white" stroke="none" points="104,-332 73,-332 73,-280 104,-280 104,-332"/>
<text text-anchor="start" x="78" y="-318.5" font-family="Helvetica,sans-Serif" font-size="10.00">table</text>
<text text-anchor="start" x="87" y="-302.5" font-family="Helvetica,sans-Serif" font-size="10.00"> </text>
<text text-anchor="start" x="87" y="-286.5" font-family="Helvetica,sans-Serif" font-size="10.00"> </text>
<polygon fill="#666666" stroke="#666666" points="73,-314 73,-314 104,-314 104,-314 73,-314"/>
<polygon fill="#666666" stroke="#666666" points="73,-298 73,-298 104,-298 104,-298 73,-298"/>
<polygon fill="none" stroke="#666666" points="73,-280 73,-332 104,-332 104,-280 73,-280"/>
</a>
</g>
</g>
<!-- Node3&#45;&gt;Node1 -->
<g id="edge2_Node000001_Node000003" class="edge">
<title>Node3&#45;&gt;Node1</title>
<g id="a_edge2_Node000001_Node000003"><a xlink:title=" ">
<path fill="none" stroke="#63b8ff" d="M88.5,-268.58C88.5,-261.04 88.5,-252.72 88.5,-243.98"/>
<polygon fill="none" stroke="#63b8ff" points="85,-268.56 88.5,-278.56 92,-268.56 85,-268.56"/>
</a>
</g>
</g>
<!-- Node4 -->
<g id="Node000004" class="node">
<title>Node4</title>
<g id="a_Node000004"><a xlink:title=" ">
<polygon fill="white" stroke="none" points="151,-332 122,-332 122,-280 151,-280 151,-332"/>
<text text-anchor="start" x="126.75" y="-318.5" font-family="Helvetica,sans-Serif" font-size="10.00">True</text>
<text text-anchor="start" x="135" y="-302.5" font-family="Helvetica,sans-Serif" font-size="10.00"> </text>
<text text-anchor="start" x="135" y="-286.5" font-family="Helvetica,sans-Serif" font-size="10.00"> </text>
<polygon fill="#666666" stroke="#666666" points="122,-314 122,-314 151,-314 151,-314 122,-314"/>
<polygon fill="#666666" stroke="#666666" points="122,-298 122,-298 151,-298 151,-298 122,-298"/>
<polygon fill="none" stroke="#666666" points="122,-280 122,-332 151,-332 151,-280 122,-280"/>
</a>
</g>
</g>
<!-- Node4&#45;&gt;Node1 -->
<g id="edge3_Node000001_Node000004" class="edge">
<title>Node4&#45;&gt;Node1</title>
<g id="a_edge3_Node000001_Node000004"><a xlink:title=" ">
<path fill="none" stroke="#63b8ff" d="M127.04,-269.12C125.01,-261.45 122.77,-252.93 120.41,-243.98"/>
<polygon fill="none" stroke="#63b8ff" points="123.61,-269.83 129.54,-278.61 130.37,-268.05 123.61,-269.83"/>
</a>
</g>
</g>
</g>
</svg>
