<?xml version="1.0" encoding="UTF-8" standalone="no"?>
<!DOCTYPE svg PUBLIC "-//W3C//DTD SVG 1.1//EN"
 "http://www.w3.org/Graphics/SVG/1.1/DTD/svg11.dtd">
<!-- Generated by graphviz version 12.1.0 (20240811.2233)
 -->
<!-- Title: app.schemas.services.AreaCreate Pages: 1 -->
<svg width="139pt" height="208pt"
 viewBox="0.00 0.00 139.00 208.00" xmlns="http://www.w3.org/2000/svg" xmlns:xlink="http://www.w3.org/1999/xlink">
<g id="graph0" class="graph" transform="scale(1 1) rotate(0) translate(4 204)">
<title>app.schemas.services.AreaCreate</title>
<!-- Node1 -->
<g id="Node000001" class="node">
<title>Node1</title>
<g id="a_Node000001"><a xlink:title=" ">
<polygon fill="#999999" stroke="none" points="131,-112 0,-112 0,0 131,0 131,-112"/>
<text text-anchor="start" x="4.75" y="-98.5" font-family="Helvetica,sans-Serif" font-size="10.00">app.schemas.services.Area</text>
<text text-anchor="start" x="50.88" y="-86.5" font-family="Helvetica,sans-Serif" font-size="10.00">Create</text>
<text text-anchor="start" x="10" y="-70.5" font-family="Helvetica,sans-Serif" font-size="10.00">+</text>
<text text-anchor="start" x="26" y="-70.5" font-family="Helvetica,sans-Serif" font-size="10.00">name</text>
<text text-anchor="start" x="10" y="-54.5" font-family="Helvetica,sans-Serif" font-size="10.00">+</text>
<text text-anchor="start" x="26" y="-54.5" font-family="Helvetica,sans-Serif" font-size="10.00">action_parameters</text>
<text text-anchor="start" x="10" y="-38.5" font-family="Helvetica,sans-Serif" font-size="10.00">+</text>
<text text-anchor="start" x="26" y="-38.5" font-family="Helvetica,sans-Serif" font-size="10.00">reaction_parameters</text>
<text text-anchor="start" x="10" y="-22.5" font-family="Helvetica,sans-Serif" font-size="10.00">+</text>
<text text-anchor="start" x="26" y="-22.5" font-family="Helvetica,sans-Serif" font-size="10.00">is_active</text>
<text text-anchor="start" x="64" y="-6.5" font-family="Helvetica,sans-Serif" font-size="10.00"> </text>
<polygon fill="#666666" stroke="#666666" points="0,-82 0,-82 131,-82 131,-82 0,-82"/>
<polygon fill="#666666" stroke="#666666" points="0,-18 0,-18 24,-18 24,-18 0,-18"/>
<polygon fill="#666666" stroke="#666666" points="24,-18 24,-18 131,-18 131,-18 24,-18"/>
<polygon fill="none" stroke="#666666" points="0,0 0,-112 131,-112 131,0 0,0"/>
</a>
</g>
</g>
<!-- Node2 -->
<g id="Node000002" class="node">
<title>Node2</title>
<g id="a_Node000002"><a xlink:title=" ">
<polygon fill="white" stroke="none" points="93,-200 38,-200 38,-148 93,-148 93,-200"/>
<text text-anchor="start" x="42.62" y="-186.5" font-family="Helvetica,sans-Serif" font-size="10.00">SQLModel</text>
<text text-anchor="start" x="64" y="-170.5" font-family="Helvetica,sans-Serif" font-size="10.00"> </text>
<text text-anchor="start" x="64" y="-154.5" font-family="Helvetica,sans-Serif" font-size="10.00"> </text>
<polygon fill="#666666" stroke="#666666" points="38,-182 38,-182 93,-182 93,-182 38,-182"/>
<polygon fill="#666666" stroke="#666666" points="38,-166 38,-166 93,-166 93,-166 38,-166"/>
<polygon fill="none" stroke="#666666" points="38,-148 38,-200 93,-200 93,-148 38,-148"/>
</a>
</g>
</g>
<!-- Node2&#45;&gt;Node1 -->
<g id="edge1_Node000001_Node000002" class="edge">
<title>Node2&#45;&gt;Node1</title>
<g id="a_edge1_Node000001_Node000002"><a xlink:title=" ">
<path fill="none" stroke="#63b8ff" d="M65.5,-136.71C65.5,-128.82 65.5,-120.31 65.5,-111.88"/>
<polygon fill="none" stroke="#63b8ff" points="62,-136.6 65.5,-146.6 69,-136.6 62,-136.6"/>
</a>
</g>
</g>
</g>
</svg>
