<?xml version="1.0" encoding="UTF-8" standalone="no"?>
<!DOCTYPE svg PUBLIC "-//W3C//DTD SVG 1.1//EN"
 "http://www.w3.org/Graphics/SVG/1.1/DTD/svg11.dtd">
<!-- Generated by graphviz version 12.1.0 (20240811.2233)
 -->
<!-- Title: app.schemas.services.ReactionRead Pages: 1 -->
<svg width="181pt" height="172pt"
 viewBox="0.00 0.00 181.00 172.00" xmlns="http://www.w3.org/2000/svg" xmlns:xlink="http://www.w3.org/1999/xlink">
<g id="graph0" class="graph" transform="scale(1 1) rotate(0) translate(4 168)">
<title>app.schemas.services.ReactionRead</title>
<!-- Node1 -->
<g id="Node000001" class="node">
<title>Node1</title>
<g id="a_Node000001"><a xlink:title=" ">
<polygon fill="#999999" stroke="none" points="173,-52 0,-52 0,0 173,0 173,-52"/>
<text text-anchor="start" x="4.75" y="-38.5" font-family="Helvetica,sans-Serif" font-size="10.00">app.schemas.services.ReactionRead</text>
<text text-anchor="start" x="85" y="-22.5" font-family="Helvetica,sans-Serif" font-size="10.00"> </text>
<text text-anchor="start" x="85" y="-6.5" font-family="Helvetica,sans-Serif" font-size="10.00"> </text>
<polygon fill="#666666" stroke="#666666" points="0,-34 0,-34 173,-34 173,-34 0,-34"/>
<polygon fill="#666666" stroke="#666666" points="0,-18 0,-18 173,-18 173,-18 0,-18"/>
<polygon fill="none" stroke="#666666" points="0,0 0,-52 173,-52 173,0 0,0"/>
</a>
</g>
</g>
<!-- Node2 -->
<g id="Node000002" class="node">
<title>Node2</title>
<g id="a_Node000002"><a xlink:title=" ">
<polygon fill="white" stroke="none" points="80,-164 25,-164 25,-112 80,-112 80,-164"/>
<text text-anchor="start" x="29.62" y="-150.5" font-family="Helvetica,sans-Serif" font-size="10.00">SQLModel</text>
<text text-anchor="start" x="51" y="-134.5" font-family="Helvetica,sans-Serif" font-size="10.00"> </text>
<text text-anchor="start" x="51" y="-118.5" font-family="Helvetica,sans-Serif" font-size="10.00"> </text>
<polygon fill="#666666" stroke="#666666" points="25,-146 25,-146 80,-146 80,-146 25,-146"/>
<polygon fill="#666666" stroke="#666666" points="25,-130 25,-130 80,-130 80,-130 25,-130"/>
<polygon fill="none" stroke="#666666" points="25,-112 25,-164 80,-164 80,-112 25,-112"/>
</a>
</g>
</g>
<!-- Node2&#45;&gt;Node1 -->
<g id="edge1_Node000001_Node000002" class="edge">
<title>Node2&#45;&gt;Node1</title>
<g id="a_edge1_Node000001_Node000002"><a xlink:title=" ">
<path fill="none" stroke="#63b8ff" d="M63.52,-101.34C68.52,-85.18 74.3,-66.47 78.82,-51.86"/>
<polygon fill="none" stroke="#63b8ff" points="60.27,-100.01 60.66,-110.59 66.96,-102.07 60.27,-100.01"/>
</a>
</g>
</g>
<!-- Node3 -->
<g id="Node000003" class="node">
<title>Node3</title>
<g id="a_Node000003"><a xlink:title=" ">
<polygon fill="white" stroke="none" points="144.5,-164 98.5,-164 98.5,-112 144.5,-112 144.5,-164"/>
<text text-anchor="start" x="103.5" y="-150.5" font-family="Helvetica,sans-Serif" font-size="10.00">Optional</text>
<text text-anchor="start" x="120" y="-134.5" font-family="Helvetica,sans-Serif" font-size="10.00"> </text>
<text text-anchor="start" x="120" y="-118.5" font-family="Helvetica,sans-Serif" font-size="10.00"> </text>
<polygon fill="#666666" stroke="#666666" points="98.5,-146 98.5,-146 144.5,-146 144.5,-146 98.5,-146"/>
<polygon fill="#666666" stroke="#666666" points="98.5,-130 98.5,-130 144.5,-130 144.5,-130 98.5,-130"/>
<polygon fill="none" stroke="#666666" points="98.5,-112 98.5,-164 144.5,-164 144.5,-112 98.5,-112"/>
</a>
</g>
</g>
<!-- Node3&#45;&gt;Node1 -->
<g id="edge2_Node000001_Node000003" class="edge">
<title>Node3&#45;&gt;Node1</title>
<g id="a_edge2_Node000001_Node000003"><a xlink:title=" ">
<path fill="none" stroke="#63b8ff" d="M113.56,-112.04C109.04,-97.83 103.29,-79.77 98.26,-63.95"/>
<polygon fill="none" stroke="#63b8ff" points="98.32,-64.16 92.69,-59.65 94.68,-52.72 100.31,-57.23 98.32,-64.16"/>
</a>
</g>
<text text-anchor="middle" x="135.26" y="-84.5" font-family="Helvetica,sans-Serif" font-size="10.00" fill="grey"> +description</text>
<text text-anchor="middle" x="135.26" y="-72.5" font-family="Helvetica,sans-Serif" font-size="10.00" fill="grey">+url</text>
</g>
</g>
</svg>
