<?xml version="1.0" encoding="UTF-8" standalone="no"?>
<!DOCTYPE svg PUBLIC "-//W3C//DTD SVG 1.1//EN"
 "http://www.w3.org/Graphics/SVG/1.1/DTD/svg11.dtd">
<!-- Generated by graphviz version 12.1.0 (20240811.2233)
 -->
<!-- Title: app.core.settings.Settings.Config Pages: 1 -->
<svg width="135pt" height="88pt"
 viewBox="0.00 0.00 135.00 88.00" xmlns="http://www.w3.org/2000/svg" xmlns:xlink="http://www.w3.org/1999/xlink">
<g id="graph0" class="graph" transform="scale(1 1) rotate(0) translate(4 84)">
<title>app.core.settings.Settings.Config</title>
<!-- Node1 -->
<g id="Node000001" class="node">
<title>Node1</title>
<g id="a_Node000001"><a xlink:title=" ">
<polygon fill="#999999" stroke="none" points="127,-80 0,-80 0,0 127,0 127,-80"/>
<text text-anchor="start" x="5" y="-66.5" font-family="Helvetica,sans-Serif" font-size="10.00">app.core.settings.Settings.</text>
<text text-anchor="start" x="49.25" y="-54.5" font-family="Helvetica,sans-Serif" font-size="10.00">Config</text>
<text text-anchor="start" x="15" y="-38.5" font-family="Helvetica,sans-Serif" font-size="10.00">+</text>
<text text-anchor="start" x="36" y="-38.5" font-family="Helvetica,sans-Serif" font-size="10.00">env_file</text>
<text text-anchor="start" x="15" y="-22.5" font-family="Helvetica,sans-Serif" font-size="10.00">+</text>
<text text-anchor="start" x="36" y="-22.5" font-family="Helvetica,sans-Serif" font-size="10.00">case_sensitive</text>
<text text-anchor="start" x="62" y="-6.5" font-family="Helvetica,sans-Serif" font-size="10.00"> </text>
<polygon fill="#666666" stroke="#666666" points="0,-50 0,-50 127,-50 127,-50 0,-50"/>
<polygon fill="#666666" stroke="#666666" points="0,-18 0,-18 34,-18 34,-18 0,-18"/>
<polygon fill="#666666" stroke="#666666" points="34,-18 34,-18 127,-18 127,-18 34,-18"/>
<polygon fill="none" stroke="#666666" points="0,0 0,-80 127,-80 127,0 0,0"/>
</a>
</g>
</g>
</g>
</svg>
