<?xml version="1.0" encoding="UTF-8" standalone="no"?>
<!DOCTYPE svg PUBLIC "-//W3C//DTD SVG 1.1//EN"
 "http://www.w3.org/Graphics/SVG/1.1/DTD/svg11.dtd">
<!-- Generated by graphviz version 12.1.0 (20240811.2233)
 -->
<!-- Title: app.schemas.services.AreaRead Pages: 1 -->
<svg width="226pt" height="272pt"
 viewBox="0.00 0.00 226.00 272.00" xmlns="http://www.w3.org/2000/svg" xmlns:xlink="http://www.w3.org/1999/xlink">
<g id="graph0" class="graph" transform="scale(1 1) rotate(0) translate(4 268)">
<title>app.schemas.services.AreaRead</title>
<!-- Node1 -->
<g id="Node000001" class="node">
<title>Node1</title>
<g id="a_Node000001"><a xlink:title=" ">
<polygon fill="#999999" stroke="none" points="213,-52 59,-52 59,0 213,0 213,-52"/>
<text text-anchor="start" x="63.62" y="-38.5" font-family="Helvetica,sans-Serif" font-size="10.00">app.schemas.services.AreaRead</text>
<text text-anchor="start" x="134.5" y="-22.5" font-family="Helvetica,sans-Serif" font-size="10.00"> </text>
<text text-anchor="start" x="134.5" y="-6.5" font-family="Helvetica,sans-Serif" font-size="10.00"> </text>
<polygon fill="#666666" stroke="#666666" points="59,-34 59,-34 213,-34 213,-34 59,-34"/>
<polygon fill="#666666" stroke="#666666" points="59,-18 59,-18 213,-18 213,-18 59,-18"/>
<polygon fill="none" stroke="#666666" points="59,0 59,-52 213,-52 213,0 59,0"/>
</a>
</g>
</g>
<!-- Node2 -->
<g id="Node000002" class="node">
<title>Node2</title>
<g id="a_Node000002"><a xlink:href="classapp_1_1schemas_1_1services_1_1AreaBase.html" target="_top" xlink:title=" ">
<polygon fill="white" stroke="none" points="154,-152 0,-152 0,-100 154,-100 154,-152"/>
<text text-anchor="start" x="5" y="-138.5" font-family="Helvetica,sans-Serif" font-size="10.00">app.schemas.services.AreaBase</text>
<text text-anchor="start" x="28" y="-122.5" font-family="Helvetica,sans-Serif" font-size="10.00">+</text>
<text text-anchor="start" x="62" y="-122.5" font-family="Helvetica,sans-Serif" font-size="10.00">is_active</text>
<text text-anchor="start" x="75.5" y="-106.5" font-family="Helvetica,sans-Serif" font-size="10.00"> </text>
<polygon fill="#666666" stroke="#666666" points="0,-134 0,-134 154,-134 154,-134 0,-134"/>
<polygon fill="#666666" stroke="#666666" points="0,-118 0,-118 60,-118 60,-118 0,-118"/>
<polygon fill="#666666" stroke="#666666" points="60,-118 60,-118 154,-118 154,-118 60,-118"/>
<polygon fill="none" stroke="#666666" points="0,-100 0,-152 154,-152 154,-100 0,-100"/>
</a>
</g>
</g>
<!-- Node2&#45;&gt;Node1 -->
<g id="edge1_Node000001_Node000002" class="edge">
<title>Node2&#45;&gt;Node1</title>
<g id="a_edge1_Node000001_Node000002"><a xlink:title=" ">
<path fill="none" stroke="#63b8ff" d="M97.92,-90.24C105.54,-77.6 113.99,-63.57 120.99,-51.94"/>
<polygon fill="none" stroke="#63b8ff" points="94.98,-88.35 92.82,-98.72 100.98,-91.96 94.98,-88.35"/>
</a>
</g>
</g>
<!-- Node3 -->
<g id="Node000003" class="node">
<title>Node3</title>
<g id="a_Node000003"><a xlink:title=" ">
<polygon fill="white" stroke="none" points="74.5,-264 19.5,-264 19.5,-212 74.5,-212 74.5,-264"/>
<text text-anchor="start" x="24.12" y="-250.5" font-family="Helvetica,sans-Serif" font-size="10.00">SQLModel</text>
<text text-anchor="start" x="45.5" y="-234.5" font-family="Helvetica,sans-Serif" font-size="10.00"> </text>
<text text-anchor="start" x="45.5" y="-218.5" font-family="Helvetica,sans-Serif" font-size="10.00"> </text>
<polygon fill="#666666" stroke="#666666" points="19.5,-246 19.5,-246 74.5,-246 74.5,-246 19.5,-246"/>
<polygon fill="#666666" stroke="#666666" points="19.5,-230 19.5,-230 74.5,-230 74.5,-230 19.5,-230"/>
<polygon fill="none" stroke="#666666" points="19.5,-212 19.5,-264 74.5,-264 74.5,-212 19.5,-212"/>
</a>
</g>
</g>
<!-- Node3&#45;&gt;Node2 -->
<g id="edge2_Node000002_Node000003" class="edge">
<title>Node3&#45;&gt;Node2</title>
<g id="a_edge2_Node000002_Node000003"><a xlink:title=" ">
<path fill="none" stroke="#63b8ff" d="M56.73,-201.34C61.13,-185.18 66.24,-166.47 70.22,-151.86"/>
<polygon fill="none" stroke="#63b8ff" points="53.46,-200.01 54.21,-210.58 60.21,-201.85 53.46,-200.01"/>
</a>
</g>
</g>
<!-- Node4 -->
<g id="Node000004" class="node">
<title>Node4</title>
<g id="a_Node000004"><a xlink:title=" ">
<polygon fill="white" stroke="none" points="121,-264 93,-264 93,-212 121,-212 121,-264"/>
<text text-anchor="start" x="98" y="-250.5" font-family="Helvetica,sans-Serif" font-size="10.00">Dict</text>
<text text-anchor="start" x="105.5" y="-234.5" font-family="Helvetica,sans-Serif" font-size="10.00"> </text>
<text text-anchor="start" x="105.5" y="-218.5" font-family="Helvetica,sans-Serif" font-size="10.00"> </text>
<polygon fill="#666666" stroke="#666666" points="93,-246 93,-246 121,-246 121,-246 93,-246"/>
<polygon fill="#666666" stroke="#666666" points="93,-230 93,-230 121,-230 121,-230 93,-230"/>
<polygon fill="none" stroke="#666666" points="93,-212 93,-264 121,-264 121,-212 93,-212"/>
</a>
</g>
</g>
<!-- Node4&#45;&gt;Node2 -->
<g id="edge3_Node000002_Node000004" class="edge">
<title>Node4&#45;&gt;Node2</title>
<g id="a_edge3_Node000002_Node000004"><a xlink:title=" ">
<path fill="none" stroke="#63b8ff" d="M100.19,-212.04C96.36,-197.98 91.49,-180.13 87.21,-164.42"/>
<polygon fill="none" stroke="#63b8ff" points="87.18,-164.31 81.74,-159.57 84.02,-152.73 89.46,-157.47 87.18,-164.31"/>
</a>
</g>
<text text-anchor="middle" x="133.69" y="-184.5" font-family="Helvetica,sans-Serif" font-size="10.00" fill="grey"> +params_action</text>
<text text-anchor="middle" x="133.69" y="-172.5" font-family="Helvetica,sans-Serif" font-size="10.00" fill="grey">+params_reaction</text>
</g>
<!-- Node5 -->
<g id="Node000005" class="node">
<title>Node5</title>
<g id="a_Node000005"><a xlink:title=" ">
<polygon fill="white" stroke="none" points="218,-152 172,-152 172,-100 218,-100 218,-152"/>
<text text-anchor="start" x="177" y="-138.5" font-family="Helvetica,sans-Serif" font-size="10.00">Optional</text>
<text text-anchor="start" x="193.5" y="-122.5" font-family="Helvetica,sans-Serif" font-size="10.00"> </text>
<text text-anchor="start" x="193.5" y="-106.5" font-family="Helvetica,sans-Serif" font-size="10.00"> </text>
<polygon fill="#666666" stroke="#666666" points="172,-134 172,-134 218,-134 218,-134 172,-134"/>
<polygon fill="#666666" stroke="#666666" points="172,-118 172,-118 218,-118 218,-118 172,-118"/>
<polygon fill="none" stroke="#666666" points="172,-100 172,-152 218,-152 218,-100 172,-100"/>
</a>
</g>
</g>
<!-- Node5&#45;&gt;Node1 -->
<g id="edge4_Node000001_Node000005" class="edge">
<title>Node5&#45;&gt;Node1</title>
<g id="a_edge4_Node000001_Node000005"><a xlink:title=" ">
<path fill="none" stroke="#63b8ff" d="M179.96,-100.02C173.16,-88.73 165.01,-75.18 157.57,-62.84"/>
<polygon fill="none" stroke="#63b8ff" points="157.67,-62.99 151.15,-59.91 151.48,-52.71 158,-55.79 157.67,-62.99"/>
</a>
</g>
<text text-anchor="middle" x="185.53" y="-72.5" font-family="Helvetica,sans-Serif" font-size="10.00" fill="grey"> +name</text>
</g>
</g>
</svg>
