<?xml version="1.0" encoding="UTF-8" standalone="no"?>
<!DOCTYPE svg PUBLIC "-//W3C//DTD SVG 1.1//EN"
 "http://www.w3.org/Graphics/SVG/1.1/DTD/svg11.dtd">
<!-- Generated by graphviz version 12.1.0 (20240811.2233)
 -->
<!-- Title: app.schemas.services.AreaCreate Pages: 1 -->
<svg width="243pt" height="184pt"
 viewBox="0.00 0.00 242.65 184.00" xmlns="http://www.w3.org/2000/svg" xmlns:xlink="http://www.w3.org/1999/xlink">
<g id="graph0" class="graph" transform="scale(1 1) rotate(0) translate(4 180)">
<title>app.schemas.services.AreaCreate</title>
<!-- Node1 -->
<g id="Node000001" class="node">
<title>Node1</title>
<g id="a_Node000001"><a xlink:title=" ">
<polygon fill="#999999" stroke="none" points="162,-64 31,-64 31,0 162,0 162,-64"/>
<text text-anchor="start" x="35.75" y="-50.5" font-family="Helvetica,sans-Serif" font-size="10.00">app.schemas.services.Area</text>
<text text-anchor="start" x="81.88" y="-38.5" font-family="Helvetica,sans-Serif" font-size="10.00">Create</text>
<text text-anchor="start" x="53.5" y="-22.5" font-family="Helvetica,sans-Serif" font-size="10.00">+</text>
<text text-anchor="start" x="82" y="-22.5" font-family="Helvetica,sans-Serif" font-size="10.00">is_active</text>
<text text-anchor="start" x="95" y="-6.5" font-family="Helvetica,sans-Serif" font-size="10.00"> </text>
<polygon fill="#666666" stroke="#666666" points="31,-34 31,-34 162,-34 162,-34 31,-34"/>
<polygon fill="#666666" stroke="#666666" points="31,-18 31,-18 80,-18 80,-18 31,-18"/>
<polygon fill="#666666" stroke="#666666" points="80,-18 80,-18 162,-18 162,-18 80,-18"/>
<polygon fill="none" stroke="#666666" points="31,0 31,-64 162,-64 162,0 31,0"/>
</a>
</g>
</g>
<!-- Node2 -->
<g id="Node000002" class="node">
<title>Node2</title>
<g id="a_Node000002"><a xlink:title=" ">
<polygon fill="white" stroke="none" points="55,-176 0,-176 0,-124 55,-124 55,-176"/>
<text text-anchor="start" x="4.62" y="-162.5" font-family="Helvetica,sans-Serif" font-size="10.00">SQLModel</text>
<text text-anchor="start" x="26" y="-146.5" font-family="Helvetica,sans-Serif" font-size="10.00"> </text>
<text text-anchor="start" x="26" y="-130.5" font-family="Helvetica,sans-Serif" font-size="10.00"> </text>
<polygon fill="#666666" stroke="#666666" points="0,-158 0,-158 55,-158 55,-158 0,-158"/>
<polygon fill="#666666" stroke="#666666" points="0,-142 0,-142 55,-142 55,-142 0,-142"/>
<polygon fill="none" stroke="#666666" points="0,-124 0,-176 55,-176 55,-124 0,-124"/>
</a>
</g>
</g>
<!-- Node2&#45;&gt;Node1 -->
<g id="edge1_Node000001_Node000002" class="edge">
<title>Node2&#45;&gt;Node1</title>
<g id="a_edge1_Node000001_Node000002"><a xlink:title=" ">
<path fill="none" stroke="#63b8ff" d="M48.03,-114.49C57.63,-98.34 68.98,-79.26 78.28,-63.63"/>
<polygon fill="none" stroke="#63b8ff" points="45.18,-112.43 43.08,-122.81 51.2,-116.01 45.18,-112.43"/>
</a>
</g>
</g>
<!-- Node3 -->
<g id="Node000003" class="node">
<title>Node3</title>
<g id="a_Node000003"><a xlink:title=" ">
<polygon fill="white" stroke="none" points="119.5,-176 73.5,-176 73.5,-124 119.5,-124 119.5,-176"/>
<text text-anchor="start" x="78.5" y="-162.5" font-family="Helvetica,sans-Serif" font-size="10.00">Optional</text>
<text text-anchor="start" x="95" y="-146.5" font-family="Helvetica,sans-Serif" font-size="10.00"> </text>
<text text-anchor="start" x="95" y="-130.5" font-family="Helvetica,sans-Serif" font-size="10.00"> </text>
<polygon fill="#666666" stroke="#666666" points="73.5,-158 73.5,-158 119.5,-158 119.5,-158 73.5,-158"/>
<polygon fill="#666666" stroke="#666666" points="73.5,-142 73.5,-142 119.5,-142 119.5,-142 73.5,-142"/>
<polygon fill="none" stroke="#666666" points="73.5,-124 73.5,-176 119.5,-176 119.5,-124 73.5,-124"/>
</a>
</g>
</g>
<!-- Node3&#45;&gt;Node1 -->
<g id="edge2_Node000001_Node000003" class="edge">
<title>Node3&#45;&gt;Node1</title>
<g id="a_edge2_Node000001_Node000003"><a xlink:title=" ">
<path fill="none" stroke="#63b8ff" d="M96.5,-124.12C96.5,-110.28 96.5,-92.67 96.5,-76.62"/>
<polygon fill="none" stroke="#63b8ff" points="96.5,-76.53 92.5,-70.53 96.5,-64.53 100.5,-70.53 96.5,-76.53"/>
</a>
</g>
<text text-anchor="middle" x="113" y="-90.5" font-family="Helvetica,sans-Serif" font-size="10.00" fill="grey"> +name</text>
</g>
<!-- Node4 -->
<g id="Node000004" class="node">
<title>Node4</title>
<g id="a_Node000004"><a xlink:title=" ">
<polygon fill="white" stroke="none" points="166.5,-176 138.5,-176 138.5,-124 166.5,-124 166.5,-176"/>
<text text-anchor="start" x="143.5" y="-162.5" font-family="Helvetica,sans-Serif" font-size="10.00">Dict</text>
<text text-anchor="start" x="151" y="-146.5" font-family="Helvetica,sans-Serif" font-size="10.00"> </text>
<text text-anchor="start" x="151" y="-130.5" font-family="Helvetica,sans-Serif" font-size="10.00"> </text>
<polygon fill="#666666" stroke="#666666" points="138.5,-158 138.5,-158 166.5,-158 166.5,-158 138.5,-158"/>
<polygon fill="#666666" stroke="#666666" points="138.5,-142 138.5,-142 166.5,-142 166.5,-142 138.5,-142"/>
<polygon fill="none" stroke="#666666" points="138.5,-124 138.5,-176 166.5,-176 166.5,-124 138.5,-124"/>
</a>
</g>
</g>
<!-- Node4&#45;&gt;Node1 -->
<g id="edge3_Node000001_Node000004" class="edge">
<title>Node4&#45;&gt;Node1</title>
<g id="a_edge3_Node000001_Node000004"><a xlink:title=" ">
<path fill="none" stroke="#63b8ff" d="M146.2,-124.14C142.47,-111.21 137.16,-95.37 130.5,-82 129.31,-79.61 128.02,-77.21 126.65,-74.81"/>
<polygon fill="none" stroke="#63b8ff" points="126.63,-74.78 120.07,-71.77 120.33,-64.57 126.88,-67.57 126.63,-74.78"/>
</a>
</g>
<text text-anchor="middle" x="187.4" y="-96.5" font-family="Helvetica,sans-Serif" font-size="10.00" fill="grey"> +action_parameters</text>
<text text-anchor="middle" x="187.4" y="-84.5" font-family="Helvetica,sans-Serif" font-size="10.00" fill="grey">+reaction_parameters</text>
</g>
</g>
</svg>
