<?xml version="1.0" encoding="UTF-8" standalone="no"?>
<!DOCTYPE svg PUBLIC "-//W3C//DTD SVG 1.1//EN"
 "http://www.w3.org/Graphics/SVG/1.1/DTD/svg11.dtd">
<!-- Generated by graphviz version 12.1.0 (20240811.2233)
 -->
<!-- Title: app.user.User Pages: 1 -->
<svg width="270pt" height="249pt"
 viewBox="0.00 0.00 269.50 249.00" xmlns="http://www.w3.org/2000/svg" xmlns:xlink="http://www.w3.org/1999/xlink">
<g id="graph0" class="graph" transform="scale(1 1) rotate(0) translate(4 245)">
<title>app.user.User</title>
<!-- Node1 -->
<g id="Node000001" class="node">
<title>Node1</title>
<g id="a_Node000001"><a xlink:title=" ">
<polygon fill="#999999" stroke="none" points="199.5,-52 128.5,-52 128.5,0 199.5,0 199.5,-52"/>
<text text-anchor="start" x="133.25" y="-38.5" font-family="Helvetica,sans-Serif" font-size="10.00">app.user.User</text>
<text text-anchor="start" x="142" y="-22.5" font-family="Helvetica,sans-Serif" font-size="10.00">+</text>
<text text-anchor="start" x="161.5" y="-22.5" font-family="Helvetica,sans-Serif" font-size="10.00">role</text>
<text text-anchor="start" x="162.5" y="-6.5" font-family="Helvetica,sans-Serif" font-size="10.00"> </text>
<polygon fill="#666666" stroke="#666666" points="128.5,-34 128.5,-34 199.5,-34 199.5,-34 128.5,-34"/>
<polygon fill="#666666" stroke="#666666" points="128.5,-18 128.5,-18 159.5,-18 159.5,-18 128.5,-18"/>
<polygon fill="#666666" stroke="#666666" points="159.5,-18 159.5,-18 199.5,-18 199.5,-18 159.5,-18"/>
<polygon fill="none" stroke="#666666" points="128.5,0 128.5,-52 199.5,-52 199.5,0 128.5,0"/>
</a>
</g>
</g>
<!-- Node2 -->
<g id="Node000002" class="node">
<title>Node2</title>
<g id="a_Node000002"><a xlink:href="classapp_1_1user_1_1BaseUser.html" target="_top" xlink:title=" ">
<polygon fill="white" stroke="none" points="94,-141 0,-141 0,-89 94,-89 94,-141"/>
<text text-anchor="start" x="5" y="-127.5" font-family="Helvetica,sans-Serif" font-size="10.00">app.user.BaseUser</text>
<text text-anchor="start" x="17" y="-111.5" font-family="Helvetica,sans-Serif" font-size="10.00">+</text>
<text text-anchor="start" x="40" y="-111.5" font-family="Helvetica,sans-Serif" font-size="10.00">email</text>
<text text-anchor="start" x="45.5" y="-95.5" font-family="Helvetica,sans-Serif" font-size="10.00"> </text>
<polygon fill="#666666" stroke="#666666" points="0,-123 0,-123 94,-123 94,-123 0,-123"/>
<polygon fill="#666666" stroke="#666666" points="0,-107 0,-107 38,-107 38,-107 0,-107"/>
<polygon fill="#666666" stroke="#666666" points="38,-107 38,-107 94,-107 94,-107 38,-107"/>
<polygon fill="none" stroke="#666666" points="0,-89 0,-141 94,-141 94,-89 0,-89"/>
</a>
</g>
</g>
<!-- Node2&#45;&gt;Node1 -->
<g id="edge1_Node000001_Node000002" class="edge">
<title>Node2&#45;&gt;Node1</title>
<g id="a_edge1_Node000001_Node000002"><a xlink:title=" ">
<path fill="none" stroke="#63b8ff" d="M89.61,-82.31C103.07,-72.31 117.74,-61.4 130.47,-51.93"/>
<polygon fill="none" stroke="#63b8ff" points="87.68,-79.39 81.74,-88.17 91.86,-85.01 87.68,-79.39"/>
</a>
</g>
</g>
<!-- Node3 -->
<g id="Node000003" class="node">
<title>Node3</title>
<g id="a_Node000003"><a xlink:title=" ">
<polygon fill="white" stroke="none" points="74.5,-241 19.5,-241 19.5,-189 74.5,-189 74.5,-241"/>
<text text-anchor="start" x="24.12" y="-227.5" font-family="Helvetica,sans-Serif" font-size="10.00">SQLModel</text>
<text text-anchor="start" x="45.5" y="-211.5" font-family="Helvetica,sans-Serif" font-size="10.00"> </text>
<text text-anchor="start" x="45.5" y="-195.5" font-family="Helvetica,sans-Serif" font-size="10.00"> </text>
<polygon fill="#666666" stroke="#666666" points="19.5,-223 19.5,-223 74.5,-223 74.5,-223 19.5,-223"/>
<polygon fill="#666666" stroke="#666666" points="19.5,-207 19.5,-207 74.5,-207 74.5,-207 19.5,-207"/>
<polygon fill="none" stroke="#666666" points="19.5,-189 19.5,-241 74.5,-241 74.5,-189 19.5,-189"/>
</a>
</g>
</g>
<!-- Node3&#45;&gt;Node2 -->
<g id="edge2_Node000002_Node000003" class="edge">
<title>Node3&#45;&gt;Node2</title>
<g id="a_edge2_Node000002_Node000003"><a xlink:title=" ">
<path fill="none" stroke="#63b8ff" d="M47,-177.74C47,-165.49 47,-152.1 47,-140.94"/>
<polygon fill="none" stroke="#63b8ff" points="43.5,-177.5 47,-187.5 50.5,-177.5 43.5,-177.5"/>
</a>
</g>
</g>
<!-- Node4 -->
<g id="Node000004" class="node">
<title>Node4</title>
<g id="a_Node000004"><a xlink:title=" ">
<polygon fill="white" stroke="none" points="146,-241 100,-241 100,-189 146,-189 146,-241"/>
<text text-anchor="start" x="105" y="-227.5" font-family="Helvetica,sans-Serif" font-size="10.00">Optional</text>
<text text-anchor="start" x="121.5" y="-211.5" font-family="Helvetica,sans-Serif" font-size="10.00"> </text>
<text text-anchor="start" x="121.5" y="-195.5" font-family="Helvetica,sans-Serif" font-size="10.00"> </text>
<polygon fill="#666666" stroke="#666666" points="100,-223 100,-223 146,-223 146,-223 100,-223"/>
<polygon fill="#666666" stroke="#666666" points="100,-207 100,-207 146,-207 146,-207 100,-207"/>
<polygon fill="none" stroke="#666666" points="100,-189 100,-241 146,-241 146,-189 100,-189"/>
</a>
</g>
</g>
<!-- Node4&#45;&gt;Node1 -->
<g id="edge6_Node000001_Node000004" class="edge">
<title>Node4&#45;&gt;Node1</title>
<g id="a_edge6_Node000001_Node000004"><a xlink:title=" ">
<path fill="none" stroke="#63b8ff" d="M124.56,-189.23C126.58,-163.77 130.93,-123.13 139.75,-89 141.9,-80.68 144.85,-71.96 147.95,-63.77"/>
<polygon fill="none" stroke="#63b8ff" points="147.91,-63.87 146.42,-56.82 152.36,-52.72 153.85,-59.78 147.91,-63.87"/>
</a>
</g>
<text text-anchor="middle" x="157.38" y="-111.5" font-family="Helvetica,sans-Serif" font-size="10.00" fill="grey"> +image</text>
</g>
<!-- Node4&#45;&gt;Node2 -->
<g id="edge3_Node000002_Node000004" class="edge">
<title>Node4&#45;&gt;Node2</title>
<g id="a_edge3_Node000002_Node000004"><a xlink:title=" ">
<path fill="none" stroke="#63b8ff" d="M103.63,-189.02C94.69,-177.5 83.93,-163.63 74.21,-151.08"/>
<polygon fill="none" stroke="#63b8ff" points="74.25,-151.13 67.41,-148.84 66.89,-141.65 73.73,-143.94 74.25,-151.13"/>
</a>
</g>
<text text-anchor="middle" x="97.8" y="-161.5" font-family="Helvetica,sans-Serif" font-size="10.00" fill="grey"> +id</text>
</g>
<!-- Node5 -->
<g id="Node000005" class="node">
<title>Node5</title>
<g id="a_Node000005"><a xlink:title=" ">
<polygon fill="white" stroke="none" points="214.5,-141 183.5,-141 183.5,-89 214.5,-89 214.5,-141"/>
<text text-anchor="start" x="188.5" y="-127.5" font-family="Helvetica,sans-Serif" font-size="10.00">table</text>
<text text-anchor="start" x="197.5" y="-111.5" font-family="Helvetica,sans-Serif" font-size="10.00"> </text>
<text text-anchor="start" x="197.5" y="-95.5" font-family="Helvetica,sans-Serif" font-size="10.00"> </text>
<polygon fill="#666666" stroke="#666666" points="183.5,-123 183.5,-123 214.5,-123 214.5,-123 183.5,-123"/>
<polygon fill="#666666" stroke="#666666" points="183.5,-107 183.5,-107 214.5,-107 214.5,-107 183.5,-107"/>
<polygon fill="none" stroke="#666666" points="183.5,-89 183.5,-141 214.5,-141 214.5,-89 183.5,-89"/>
</a>
</g>
</g>
<!-- Node5&#45;&gt;Node1 -->
<g id="edge4_Node000001_Node000005" class="edge">
<title>Node5&#45;&gt;Node1</title>
<g id="a_edge4_Node000001_Node000005"><a xlink:title=" ">
<path fill="none" stroke="#63b8ff" d="M184.78,-78.65C181.15,-69.63 177.33,-60.12 173.96,-51.76"/>
<polygon fill="none" stroke="#63b8ff" points="181.52,-79.93 188.5,-87.9 188.01,-77.31 181.52,-79.93"/>
</a>
</g>
</g>
<!-- Node6 -->
<g id="Node000006" class="node">
<title>Node6</title>
<g id="a_Node000006"><a xlink:title=" ">
<polygon fill="white" stroke="none" points="261.5,-141 232.5,-141 232.5,-89 261.5,-89 261.5,-141"/>
<text text-anchor="start" x="237.25" y="-127.5" font-family="Helvetica,sans-Serif" font-size="10.00">True</text>
<text text-anchor="start" x="245.5" y="-111.5" font-family="Helvetica,sans-Serif" font-size="10.00"> </text>
<text text-anchor="start" x="245.5" y="-95.5" font-family="Helvetica,sans-Serif" font-size="10.00"> </text>
<polygon fill="#666666" stroke="#666666" points="232.5,-123 232.5,-123 261.5,-123 261.5,-123 232.5,-123"/>
<polygon fill="#666666" stroke="#666666" points="232.5,-107 232.5,-107 261.5,-107 261.5,-107 232.5,-107"/>
<polygon fill="none" stroke="#666666" points="232.5,-89 232.5,-141 261.5,-141 261.5,-89 232.5,-89"/>
</a>
</g>
</g>
<!-- Node6&#45;&gt;Node1 -->
<g id="edge5_Node000001_Node000006" class="edge">
<title>Node6&#45;&gt;Node1</title>
<g id="a_edge5_Node000001_Node000006"><a xlink:title=" ">
<path fill="none" stroke="#63b8ff" d="M225.07,-90.14C224.71,-89.75 224.35,-89.38 224,-89 212.38,-76.69 199.33,-63.17 188.38,-51.9"/>
<polygon fill="none" stroke="#63b8ff" points="222.3,-92.3 231.67,-97.23 227.42,-87.53 222.3,-92.3"/>
</a>
</g>
</g>
</g>
</svg>
