<?xml version="1.0" encoding="UTF-8" standalone="no"?>
<!DOCTYPE svg PUBLIC "-//W3C//DTD SVG 1.1//EN"
 "http://www.w3.org/Graphics/SVG/1.1/DTD/svg11.dtd">
<!-- Generated by graphviz version 12.1.0 (20240811.2233)
 -->
<!-- Title: app.reaction.BaseReaction Pages: 1 -->
<svg width="135pt" height="300pt"
 viewBox="0.00 0.00 135.00 300.00" xmlns="http://www.w3.org/2000/svg" xmlns:xlink="http://www.w3.org/1999/xlink">
<g id="graph0" class="graph" transform="scale(1 1) rotate(0) translate(4 296)">
<title>app.reaction.BaseReaction</title>
<!-- Node1 -->
<g id="Node000001" class="node">
<title>Node1</title>
<g id="a_Node000001"><a xlink:title=" ">
<polygon fill="#999999" stroke="none" points="127,-204 0,-204 0,-88 127,-88 127,-204"/>
<text text-anchor="start" x="4.62" y="-190.5" font-family="Helvetica,sans-Serif" font-size="10.00">app.reaction.BaseReaction</text>
<text text-anchor="start" x="19" y="-174.5" font-family="Helvetica,sans-Serif" font-size="10.00">+</text>
<text text-anchor="start" x="44" y="-174.5" font-family="Helvetica,sans-Serif" font-size="10.00">id</text>
<text text-anchor="start" x="19" y="-158.5" font-family="Helvetica,sans-Serif" font-size="10.00">+</text>
<text text-anchor="start" x="44" y="-158.5" font-family="Helvetica,sans-Serif" font-size="10.00">description</text>
<text text-anchor="start" x="19" y="-142.5" font-family="Helvetica,sans-Serif" font-size="10.00">+</text>
<text text-anchor="start" x="44" y="-142.5" font-family="Helvetica,sans-Serif" font-size="10.00">url</text>
<text text-anchor="start" x="19" y="-126.5" font-family="Helvetica,sans-Serif" font-size="10.00">+</text>
<text text-anchor="start" x="44" y="-126.5" font-family="Helvetica,sans-Serif" font-size="10.00">parameters</text>
<text text-anchor="start" x="19" y="-110.5" font-family="Helvetica,sans-Serif" font-size="10.00">+</text>
<text text-anchor="start" x="44" y="-110.5" font-family="Helvetica,sans-Serif" font-size="10.00">service_id</text>
<text text-anchor="start" x="62" y="-94.5" font-family="Helvetica,sans-Serif" font-size="10.00"> </text>
<polygon fill="#666666" stroke="#666666" points="0,-186 0,-186 127,-186 127,-186 0,-186"/>
<polygon fill="#666666" stroke="#666666" points="0,-106 0,-106 42,-106 42,-106 0,-106"/>
<polygon fill="#666666" stroke="#666666" points="42,-106 42,-106 127,-106 127,-106 42,-106"/>
<polygon fill="none" stroke="#666666" points="0,-88 0,-204 127,-204 127,-88 0,-88"/>
</a>
</g>
</g>
<!-- Node3 -->
<g id="Node000003" class="node">
<title>Node3</title>
<g id="a_Node000003"><a xlink:href="classapp_1_1reaction_1_1Reaction.html" target="_top" xlink:title=" ">
<polygon fill="white" stroke="none" points="116,-52 11,-52 11,0 116,0 116,-52"/>
<text text-anchor="start" x="15.88" y="-38.5" font-family="Helvetica,sans-Serif" font-size="10.00">app.reaction.Reaction</text>
<text text-anchor="start" x="62" y="-22.5" font-family="Helvetica,sans-Serif" font-size="10.00"> </text>
<text text-anchor="start" x="62" y="-6.5" font-family="Helvetica,sans-Serif" font-size="10.00"> </text>
<polygon fill="#666666" stroke="#666666" points="11,-34 11,-34 116,-34 116,-34 11,-34"/>
<polygon fill="#666666" stroke="#666666" points="11,-18 11,-18 116,-18 116,-18 11,-18"/>
<polygon fill="none" stroke="#666666" points="11,0 11,-52 116,-52 116,0 11,0"/>
</a>
</g>
</g>
<!-- Node1&#45;&gt;Node3 -->
<g id="edge2_Node000001_Node000003" class="edge">
<title>Node1&#45;&gt;Node3</title>
<g id="a_edge2_Node000001_Node000003"><a xlink:title=" ">
<path fill="none" stroke="#63b8ff" d="M63.5,-76.76C63.5,-67.91 63.5,-59.33 63.5,-51.87"/>
<polygon fill="none" stroke="#63b8ff" points="60,-76.56 63.5,-86.56 67,-76.56 60,-76.56"/>
</a>
</g>
</g>
<!-- Node2 -->
<g id="Node000002" class="node">
<title>Node2</title>
<g id="a_Node000002"><a xlink:title=" ">
<polygon fill="white" stroke="none" points="91,-292 36,-292 36,-240 91,-240 91,-292"/>
<text text-anchor="start" x="40.62" y="-278.5" font-family="Helvetica,sans-Serif" font-size="10.00">SQLModel</text>
<text text-anchor="start" x="62" y="-262.5" font-family="Helvetica,sans-Serif" font-size="10.00"> </text>
<text text-anchor="start" x="62" y="-246.5" font-family="Helvetica,sans-Serif" font-size="10.00"> </text>
<polygon fill="#666666" stroke="#666666" points="36,-274 36,-274 91,-274 91,-274 36,-274"/>
<polygon fill="#666666" stroke="#666666" points="36,-258 36,-258 91,-258 91,-258 36,-258"/>
<polygon fill="none" stroke="#666666" points="36,-240 36,-292 91,-292 91,-240 36,-240"/>
</a>
</g>
</g>
<!-- Node2&#45;&gt;Node1 -->
<g id="edge1_Node000001_Node000002" class="edge">
<title>Node2&#45;&gt;Node1</title>
<g id="a_edge1_Node000001_Node000002"><a xlink:title=" ">
<path fill="none" stroke="#63b8ff" d="M63.5,-228.82C63.5,-220.89 63.5,-212.31 63.5,-203.79"/>
<polygon fill="none" stroke="#63b8ff" points="60,-228.75 63.5,-238.75 67,-228.75 60,-228.75"/>
</a>
</g>
</g>
</g>
</svg>
