<?xml version="1.0" encoding="UTF-8" standalone="no"?>
<!DOCTYPE svg PUBLIC "-//W3C//DTD SVG 1.1//EN"
 "http://www.w3.org/Graphics/SVG/1.1/DTD/svg11.dtd">
<!-- Generated by graphviz version 12.1.0 (20240811.2233)
 -->
<!-- Title: app.schemas.services.ServiceBasicRead Pages: 1 -->
<svg width="158pt" height="184pt"
 viewBox="0.00 0.00 157.91 184.00" xmlns="http://www.w3.org/2000/svg" xmlns:xlink="http://www.w3.org/1999/xlink">
<g id="graph0" class="graph" transform="scale(1 1) rotate(0) translate(4 180)">
<title>app.schemas.services.ServiceBasicRead</title>
<!-- Node1 -->
<g id="Node000001" class="node">
<title>Node1</title>
<g id="a_Node000001"><a xlink:title=" ">
<polygon fill="#999999" stroke="none" points="144,-64 0,-64 0,0 144,0 144,-64"/>
<text text-anchor="start" x="4.88" y="-50.5" font-family="Helvetica,sans-Serif" font-size="10.00">app.schemas.services.Service</text>
<text text-anchor="start" x="48" y="-38.5" font-family="Helvetica,sans-Serif" font-size="10.00">BasicRead</text>
<text text-anchor="start" x="70.5" y="-22.5" font-family="Helvetica,sans-Serif" font-size="10.00"> </text>
<text text-anchor="start" x="70.5" y="-6.5" font-family="Helvetica,sans-Serif" font-size="10.00"> </text>
<polygon fill="#666666" stroke="#666666" points="0,-34 0,-34 144,-34 144,-34 0,-34"/>
<polygon fill="#666666" stroke="#666666" points="0,-18 0,-18 144,-18 144,-18 0,-18"/>
<polygon fill="none" stroke="#666666" points="0,0 0,-64 144,-64 144,0 0,0"/>
</a>
</g>
</g>
<!-- Node2 -->
<g id="Node000002" class="node">
<title>Node2</title>
<g id="a_Node000002"><a xlink:title=" ">
<polygon fill="white" stroke="none" points="65.5,-176 10.5,-176 10.5,-124 65.5,-124 65.5,-176"/>
<text text-anchor="start" x="15.12" y="-162.5" font-family="Helvetica,sans-Serif" font-size="10.00">SQLModel</text>
<text text-anchor="start" x="36.5" y="-146.5" font-family="Helvetica,sans-Serif" font-size="10.00"> </text>
<text text-anchor="start" x="36.5" y="-130.5" font-family="Helvetica,sans-Serif" font-size="10.00"> </text>
<polygon fill="#666666" stroke="#666666" points="10.5,-158 10.5,-158 65.5,-158 65.5,-158 10.5,-158"/>
<polygon fill="#666666" stroke="#666666" points="10.5,-142 10.5,-142 65.5,-142 65.5,-142 10.5,-142"/>
<polygon fill="none" stroke="#666666" points="10.5,-124 10.5,-176 65.5,-176 65.5,-124 10.5,-124"/>
</a>
</g>
</g>
<!-- Node2&#45;&gt;Node1 -->
<g id="edge1_Node000001_Node000002" class="edge">
<title>Node2&#45;&gt;Node1</title>
<g id="a_edge1_Node000001_Node000002"><a xlink:title=" ">
<path fill="none" stroke="#63b8ff" d="M48.52,-113.11C53.16,-97.26 58.57,-78.82 63.02,-63.63"/>
<polygon fill="none" stroke="#63b8ff" points="45.17,-112.08 45.72,-122.66 51.89,-114.05 45.17,-112.08"/>
</a>
</g>
</g>
<!-- Node3 -->
<g id="Node000003" class="node">
<title>Node3</title>
<g id="a_Node000003"><a xlink:title=" ">
<polygon fill="white" stroke="none" points="130,-176 84,-176 84,-124 130,-124 130,-176"/>
<text text-anchor="start" x="89" y="-162.5" font-family="Helvetica,sans-Serif" font-size="10.00">Optional</text>
<text text-anchor="start" x="105.5" y="-146.5" font-family="Helvetica,sans-Serif" font-size="10.00"> </text>
<text text-anchor="start" x="105.5" y="-130.5" font-family="Helvetica,sans-Serif" font-size="10.00"> </text>
<polygon fill="#666666" stroke="#666666" points="84,-158 84,-158 130,-158 130,-158 84,-158"/>
<polygon fill="#666666" stroke="#666666" points="84,-142 84,-142 130,-142 130,-142 84,-142"/>
<polygon fill="none" stroke="#666666" points="84,-124 84,-176 130,-176 130,-124 84,-124"/>
</a>
</g>
</g>
<!-- Node3&#45;&gt;Node1 -->
<g id="edge2_Node000001_Node000003" class="edge">
<title>Node3&#45;&gt;Node1</title>
<g id="a_edge2_Node000001_Node000003"><a xlink:title=" ">
<path fill="none" stroke="#63b8ff" d="M99.49,-124.12C95.23,-110 89.79,-91.96 84.87,-75.66"/>
<polygon fill="none" stroke="#63b8ff" points="84.97,-75.98 79.4,-71.39 81.5,-64.49 87.06,-69.08 84.97,-75.98"/>
</a>
</g>
<text text-anchor="middle" x="121.79" y="-96.5" font-family="Helvetica,sans-Serif" font-size="10.00" fill="grey"> +description</text>
<text text-anchor="middle" x="121.79" y="-84.5" font-family="Helvetica,sans-Serif" font-size="10.00" fill="grey">+icon_url</text>
</g>
</g>
</svg>
