<?xml version="1.0" encoding="UTF-8" standalone="no"?>
<!DOCTYPE svg PUBLIC "-//W3C//DTD SVG 1.1//EN"
 "http://www.w3.org/Graphics/SVG/1.1/DTD/svg11.dtd">
<!-- Generated by graphviz version 12.1.0 (20240811.2233)
 -->
<!-- Title: app.schemas.services.ActionRead Pages: 1 -->
<svg width="170pt" height="160pt"
 viewBox="0.00 0.00 170.00 160.00" xmlns="http://www.w3.org/2000/svg" xmlns:xlink="http://www.w3.org/1999/xlink">
<g id="graph0" class="graph" transform="scale(1 1) rotate(0) translate(4 156)">
<title>app.schemas.services.ActionRead</title>
<!-- Node1 -->
<g id="Node000001" class="node">
<title>Node1</title>
<g id="a_Node000001"><a xlink:title=" ">
<polygon fill="#999999" stroke="none" points="162,-52 0,-52 0,0 162,0 162,-52"/>
<text text-anchor="start" x="4.88" y="-38.5" font-family="Helvetica,sans-Serif" font-size="10.00">app.schemas.services.ActionRead</text>
<text text-anchor="start" x="30" y="-22.5" font-family="Helvetica,sans-Serif" font-size="10.00">+</text>
<text text-anchor="start" x="66" y="-22.5" font-family="Helvetica,sans-Serif" font-size="10.00">is_polling</text>
<text text-anchor="start" x="79.5" y="-6.5" font-family="Helvetica,sans-Serif" font-size="10.00"> </text>
<polygon fill="#666666" stroke="#666666" points="0,-34 0,-34 162,-34 162,-34 0,-34"/>
<polygon fill="#666666" stroke="#666666" points="0,-18 0,-18 64,-18 64,-18 0,-18"/>
<polygon fill="#666666" stroke="#666666" points="64,-18 64,-18 162,-18 162,-18 64,-18"/>
<polygon fill="none" stroke="#666666" points="0,0 0,-52 162,-52 162,0 0,0"/>
</a>
</g>
</g>
<!-- Node2 -->
<g id="Node000002" class="node">
<title>Node2</title>
<g id="a_Node000002"><a xlink:title=" ">
<polygon fill="white" stroke="none" points="74.5,-152 19.5,-152 19.5,-100 74.5,-100 74.5,-152"/>
<text text-anchor="start" x="24.12" y="-138.5" font-family="Helvetica,sans-Serif" font-size="10.00">SQLModel</text>
<text text-anchor="start" x="45.5" y="-122.5" font-family="Helvetica,sans-Serif" font-size="10.00"> </text>
<text text-anchor="start" x="45.5" y="-106.5" font-family="Helvetica,sans-Serif" font-size="10.00"> </text>
<polygon fill="#666666" stroke="#666666" points="19.5,-134 19.5,-134 74.5,-134 74.5,-134 19.5,-134"/>
<polygon fill="#666666" stroke="#666666" points="19.5,-118 19.5,-118 74.5,-118 74.5,-118 19.5,-118"/>
<polygon fill="none" stroke="#666666" points="19.5,-100 19.5,-152 74.5,-152 74.5,-100 19.5,-100"/>
</a>
</g>
</g>
<!-- Node2&#45;&gt;Node1 -->
<g id="edge1_Node000001_Node000002" class="edge">
<title>Node2&#45;&gt;Node1</title>
<g id="a_edge1_Node000001_Node000002"><a xlink:title=" ">
<path fill="none" stroke="#63b8ff" d="M59.32,-89.49C63.64,-77.04 68.39,-63.34 72.35,-51.94"/>
<polygon fill="none" stroke="#63b8ff" points="56.13,-87.99 56.16,-98.59 62.75,-90.29 56.13,-87.99"/>
</a>
</g>
</g>
<!-- Node3 -->
<g id="Node000003" class="node">
<title>Node3</title>
<g id="a_Node000003"><a xlink:title=" ">
<polygon fill="white" stroke="none" points="139,-152 93,-152 93,-100 139,-100 139,-152"/>
<text text-anchor="start" x="98" y="-138.5" font-family="Helvetica,sans-Serif" font-size="10.00">Optional</text>
<text text-anchor="start" x="114.5" y="-122.5" font-family="Helvetica,sans-Serif" font-size="10.00"> </text>
<text text-anchor="start" x="114.5" y="-106.5" font-family="Helvetica,sans-Serif" font-size="10.00"> </text>
<polygon fill="#666666" stroke="#666666" points="93,-134 93,-134 139,-134 139,-134 93,-134"/>
<polygon fill="#666666" stroke="#666666" points="93,-118 93,-118 139,-118 139,-118 93,-118"/>
<polygon fill="none" stroke="#666666" points="93,-100 93,-152 139,-152 139,-100 93,-100"/>
</a>
</g>
</g>
<!-- Node3&#45;&gt;Node1 -->
<g id="edge2_Node000001_Node000003" class="edge">
<title>Node3&#45;&gt;Node1</title>
<g id="a_edge2_Node000001_Node000003"><a xlink:title=" ">
<path fill="none" stroke="#63b8ff" d="M107.08,-100.02C103.17,-89.07 98.5,-76.01 94.2,-63.97"/>
<polygon fill="none" stroke="#63b8ff" points="94.25,-64.09 88.46,-59.78 90.21,-52.79 95.99,-57.09 94.25,-64.09"/>
</a>
</g>
<text text-anchor="middle" x="128.72" y="-72.5" font-family="Helvetica,sans-Serif" font-size="10.00" fill="grey"> +description</text>
</g>
</g>
</svg>
