<?xml version="1.0" encoding="UTF-8" standalone="no"?>
<!DOCTYPE svg PUBLIC "-//W3C//DTD SVG 1.1//EN"
 "http://www.w3.org/Graphics/SVG/1.1/DTD/svg11.dtd">
<!-- Generated by graphviz version 12.1.0 (20240811.2233)
 -->
<!-- Title: app.schemas.services.ServiceRead Pages: 1 -->
<svg width="175pt" height="160pt"
 viewBox="0.00 0.00 175.00 160.00" xmlns="http://www.w3.org/2000/svg" xmlns:xlink="http://www.w3.org/1999/xlink">
<g id="graph0" class="graph" transform="scale(1 1) rotate(0) translate(4 156)">
<title>app.schemas.services.ServiceRead</title>
<!-- Node1 -->
<g id="Node000001" class="node">
<title>Node1</title>
<g id="a_Node000001"><a xlink:title=" ">
<polygon fill="#999999" stroke="none" points="167,-52 0,-52 0,0 167,0 167,-52"/>
<text text-anchor="start" x="4.75" y="-38.5" font-family="Helvetica,sans-Serif" font-size="10.00">app.schemas.services.ServiceRead</text>
<text text-anchor="start" x="82" y="-22.5" font-family="Helvetica,sans-Serif" font-size="10.00"> </text>
<text text-anchor="start" x="82" y="-6.5" font-family="Helvetica,sans-Serif" font-size="10.00"> </text>
<polygon fill="#666666" stroke="#666666" points="0,-34 0,-34 167,-34 167,-34 0,-34"/>
<polygon fill="#666666" stroke="#666666" points="0,-18 0,-18 167,-18 167,-18 0,-18"/>
<polygon fill="none" stroke="#666666" points="0,0 0,-52 167,-52 167,0 0,0"/>
</a>
</g>
</g>
<!-- Node2 -->
<g id="Node000002" class="node">
<title>Node2</title>
<g id="a_Node000002"><a xlink:title=" ">
<polygon fill="white" stroke="none" points="77,-152 22,-152 22,-100 77,-100 77,-152"/>
<text text-anchor="start" x="26.62" y="-138.5" font-family="Helvetica,sans-Serif" font-size="10.00">SQLModel</text>
<text text-anchor="start" x="48" y="-122.5" font-family="Helvetica,sans-Serif" font-size="10.00"> </text>
<text text-anchor="start" x="48" y="-106.5" font-family="Helvetica,sans-Serif" font-size="10.00"> </text>
<polygon fill="#666666" stroke="#666666" points="22,-134 22,-134 77,-134 77,-134 22,-134"/>
<polygon fill="#666666" stroke="#666666" points="22,-118 22,-118 77,-118 77,-118 22,-118"/>
<polygon fill="none" stroke="#666666" points="22,-100 22,-152 77,-152 77,-100 22,-100"/>
</a>
</g>
</g>
<!-- Node2&#45;&gt;Node1 -->
<g id="edge1_Node000001_Node000002" class="edge">
<title>Node2&#45;&gt;Node1</title>
<g id="a_edge1_Node000001_Node000002"><a xlink:title=" ">
<path fill="none" stroke="#63b8ff" d="M61.82,-89.49C66.14,-77.04 70.89,-63.34 74.85,-51.94"/>
<polygon fill="none" stroke="#63b8ff" points="58.63,-87.99 58.66,-98.59 65.25,-90.29 58.63,-87.99"/>
</a>
</g>
</g>
<!-- Node3 -->
<g id="Node000003" class="node">
<title>Node3</title>
<g id="a_Node000003"><a xlink:title=" ">
<polygon fill="white" stroke="none" points="141.5,-152 95.5,-152 95.5,-100 141.5,-100 141.5,-152"/>
<text text-anchor="start" x="100.5" y="-138.5" font-family="Helvetica,sans-Serif" font-size="10.00">Optional</text>
<text text-anchor="start" x="117" y="-122.5" font-family="Helvetica,sans-Serif" font-size="10.00"> </text>
<text text-anchor="start" x="117" y="-106.5" font-family="Helvetica,sans-Serif" font-size="10.00"> </text>
<polygon fill="#666666" stroke="#666666" points="95.5,-134 95.5,-134 141.5,-134 141.5,-134 95.5,-134"/>
<polygon fill="#666666" stroke="#666666" points="95.5,-118 95.5,-118 141.5,-118 141.5,-118 95.5,-118"/>
<polygon fill="none" stroke="#666666" points="95.5,-100 95.5,-152 141.5,-152 141.5,-100 95.5,-100"/>
</a>
</g>
</g>
<!-- Node3&#45;&gt;Node1 -->
<g id="edge2_Node000001_Node000003" class="edge">
<title>Node3&#45;&gt;Node1</title>
<g id="a_edge2_Node000001_Node000003"><a xlink:title=" ">
<path fill="none" stroke="#63b8ff" d="M109.58,-100.02C105.67,-89.07 101,-76.01 96.7,-63.97"/>
<polygon fill="none" stroke="#63b8ff" points="96.75,-64.09 90.96,-59.78 92.71,-52.79 98.49,-57.09 96.75,-64.09"/>
</a>
</g>
<text text-anchor="middle" x="124.47" y="-72.5" font-family="Helvetica,sans-Serif" font-size="10.00" fill="grey"> +icon_url</text>
</g>
</g>
</svg>
