<?xml version="1.0" encoding="UTF-8" standalone="no"?>
<!DOCTYPE svg PUBLIC "-//W3C//DTD SVG 1.1//EN"
 "http://www.w3.org/Graphics/SVG/1.1/DTD/svg11.dtd">
<!-- Generated by graphviz version 12.1.0 (20240811.2233)
 -->
<!-- Title: app.schemas.services.ReactionRead Pages: 1 -->
<svg width="181pt" height="164pt"
 viewBox="0.00 0.00 181.00 164.00" xmlns="http://www.w3.org/2000/svg" xmlns:xlink="http://www.w3.org/1999/xlink">
<g id="graph0" class="graph" transform="scale(1 1) rotate(0) translate(4 160)">
<title>app.schemas.services.ReactionRead</title>
<!-- Node1 -->
<g id="Node000001" class="node">
<title>Node1</title>
<g id="a_Node000001"><a xlink:title=" ">
<polygon fill="#999999" stroke="none" points="173,-68 0,-68 0,0 173,0 173,-68"/>
<text text-anchor="start" x="4.75" y="-54.5" font-family="Helvetica,sans-Serif" font-size="10.00">app.schemas.services.ReactionRead</text>
<text text-anchor="start" x="31" y="-38.5" font-family="Helvetica,sans-Serif" font-size="10.00">+</text>
<text text-anchor="start" x="68" y="-38.5" font-family="Helvetica,sans-Serif" font-size="10.00">description</text>
<text text-anchor="start" x="31" y="-22.5" font-family="Helvetica,sans-Serif" font-size="10.00">+</text>
<text text-anchor="start" x="68" y="-22.5" font-family="Helvetica,sans-Serif" font-size="10.00">url</text>
<text text-anchor="start" x="85" y="-6.5" font-family="Helvetica,sans-Serif" font-size="10.00"> </text>
<polygon fill="#666666" stroke="#666666" points="0,-50 0,-50 173,-50 173,-50 0,-50"/>
<polygon fill="#666666" stroke="#666666" points="0,-18 0,-18 66,-18 66,-18 0,-18"/>
<polygon fill="#666666" stroke="#666666" points="66,-18 66,-18 173,-18 173,-18 66,-18"/>
<polygon fill="none" stroke="#666666" points="0,0 0,-68 173,-68 173,0 0,0"/>
</a>
</g>
</g>
<!-- Node2 -->
<g id="Node000002" class="node">
<title>Node2</title>
<g id="a_Node000002"><a xlink:title=" ">
<polygon fill="white" stroke="none" points="114,-156 59,-156 59,-104 114,-104 114,-156"/>
<text text-anchor="start" x="63.62" y="-142.5" font-family="Helvetica,sans-Serif" font-size="10.00">SQLModel</text>
<text text-anchor="start" x="85" y="-126.5" font-family="Helvetica,sans-Serif" font-size="10.00"> </text>
<text text-anchor="start" x="85" y="-110.5" font-family="Helvetica,sans-Serif" font-size="10.00"> </text>
<polygon fill="#666666" stroke="#666666" points="59,-138 59,-138 114,-138 114,-138 59,-138"/>
<polygon fill="#666666" stroke="#666666" points="59,-122 59,-122 114,-122 114,-122 59,-122"/>
<polygon fill="none" stroke="#666666" points="59,-104 59,-156 114,-156 114,-104 59,-104"/>
</a>
</g>
</g>
<!-- Node2&#45;&gt;Node1 -->
<g id="edge1_Node000001_Node000002" class="edge">
<title>Node2&#45;&gt;Node1</title>
<g id="a_edge1_Node000001_Node000002"><a xlink:title=" ">
<path fill="none" stroke="#63b8ff" d="M86.5,-92.97C86.5,-84.65 86.5,-75.84 86.5,-67.67"/>
<polygon fill="none" stroke="#63b8ff" points="83,-92.79 86.5,-102.79 90,-92.79 83,-92.79"/>
</a>
</g>
</g>
</g>
</svg>
