<?xml version="1.0" encoding="UTF-8" standalone="no"?>
<!DOCTYPE svg PUBLIC "-//W3C//DTD SVG 1.1//EN"
 "http://www.w3.org/Graphics/SVG/1.1/DTD/svg11.dtd">
<!-- Generated by graphviz version 12.1.0 (20240811.2233)
 -->
<!-- Title: app.oauth_models.ServiceAccount Pages: 1 -->
<svg width="159pt" height="336pt"
 viewBox="0.00 0.00 159.00 336.00" xmlns="http://www.w3.org/2000/svg" xmlns:xlink="http://www.w3.org/1999/xlink">
<g id="graph0" class="graph" transform="scale(1 1) rotate(0) translate(4 332)">
<title>app.oauth_models.ServiceAccount</title>
<!-- Node1 -->
<g id="Node000001" class="node">
<title>Node1</title>
<g id="a_Node000001"><a xlink:title=" ">
<polygon fill="#999999" stroke="none" points="151,-240 26,-240 26,0 151,0 151,-240"/>
<text text-anchor="start" x="30.75" y="-226.5" font-family="Helvetica,sans-Serif" font-size="10.00">app.oauth_models.Service</text>
<text text-anchor="start" x="70.5" y="-214.5" font-family="Helvetica,sans-Serif" font-size="10.00">Account</text>
<text text-anchor="start" x="36" y="-198.5" font-family="Helvetica,sans-Serif" font-size="10.00">+</text>
<text text-anchor="start" x="52" y="-198.5" font-family="Helvetica,sans-Serif" font-size="10.00">id</text>
<text text-anchor="start" x="36" y="-182.5" font-family="Helvetica,sans-Serif" font-size="10.00">+</text>
<text text-anchor="start" x="52" y="-182.5" font-family="Helvetica,sans-Serif" font-size="10.00">user_id</text>
<text text-anchor="start" x="36" y="-166.5" font-family="Helvetica,sans-Serif" font-size="10.00">+</text>
<text text-anchor="start" x="52" y="-166.5" font-family="Helvetica,sans-Serif" font-size="10.00">service_id</text>
<text text-anchor="start" x="36" y="-150.5" font-family="Helvetica,sans-Serif" font-size="10.00">+</text>
<text text-anchor="start" x="52" y="-150.5" font-family="Helvetica,sans-Serif" font-size="10.00">refresh_token</text>
<text text-anchor="start" x="36" y="-134.5" font-family="Helvetica,sans-Serif" font-size="10.00">+</text>
<text text-anchor="start" x="52" y="-134.5" font-family="Helvetica,sans-Serif" font-size="10.00">token_type</text>
<text text-anchor="start" x="36" y="-118.5" font-family="Helvetica,sans-Serif" font-size="10.00">+</text>
<text text-anchor="start" x="52" y="-118.5" font-family="Helvetica,sans-Serif" font-size="10.00">expires_at</text>
<text text-anchor="start" x="36" y="-102.5" font-family="Helvetica,sans-Serif" font-size="10.00">+</text>
<text text-anchor="start" x="52" y="-102.5" font-family="Helvetica,sans-Serif" font-size="10.00">granted_scopes</text>
<text text-anchor="start" x="36" y="-86.5" font-family="Helvetica,sans-Serif" font-size="10.00">+</text>
<text text-anchor="start" x="52" y="-86.5" font-family="Helvetica,sans-Serif" font-size="10.00">remote_account_id</text>
<text text-anchor="start" x="36" y="-70.5" font-family="Helvetica,sans-Serif" font-size="10.00">+</text>
<text text-anchor="start" x="52" y="-70.5" font-family="Helvetica,sans-Serif" font-size="10.00">remote_email</text>
<text text-anchor="start" x="36" y="-54.5" font-family="Helvetica,sans-Serif" font-size="10.00">+</text>
<text text-anchor="start" x="52" y="-54.5" font-family="Helvetica,sans-Serif" font-size="10.00">remote_name</text>
<text text-anchor="start" x="52" y="-38.5" font-family="Helvetica,sans-Serif" font-size="10.00">and 7 more...</text>
<text text-anchor="start" x="37.5" y="-22.5" font-family="Helvetica,sans-Serif" font-size="10.00">&#45;</text>
<text text-anchor="start" x="52" y="-22.5" font-family="Helvetica,sans-Serif" font-size="10.00">__tablename__</text>
<text text-anchor="start" x="87" y="-6.5" font-family="Helvetica,sans-Serif" font-size="10.00"> </text>
<polygon fill="#666666" stroke="#666666" points="26,-210 26,-210 151,-210 151,-210 26,-210"/>
<polygon fill="#666666" stroke="#666666" points="26,-18 26,-18 50,-18 50,-18 26,-18"/>
<polygon fill="#666666" stroke="#666666" points="50,-18 50,-18 151,-18 151,-18 50,-18"/>
<polygon fill="none" stroke="#666666" points="26,0 26,-240 151,-240 151,0 26,0"/>
</a>
</g>
</g>
<!-- Node2 -->
<g id="Node000002" class="node">
<title>Node2</title>
<g id="a_Node000002"><a xlink:title=" ">
<polygon fill="white" stroke="none" points="55,-328 0,-328 0,-276 55,-276 55,-328"/>
<text text-anchor="start" x="4.62" y="-314.5" font-family="Helvetica,sans-Serif" font-size="10.00">SQLModel</text>
<text text-anchor="start" x="26" y="-298.5" font-family="Helvetica,sans-Serif" font-size="10.00"> </text>
<text text-anchor="start" x="26" y="-282.5" font-family="Helvetica,sans-Serif" font-size="10.00"> </text>
<polygon fill="#666666" stroke="#666666" points="0,-310 0,-310 55,-310 55,-310 0,-310"/>
<polygon fill="#666666" stroke="#666666" points="0,-294 0,-294 55,-294 55,-294 0,-294"/>
<polygon fill="none" stroke="#666666" points="0,-276 0,-328 55,-328 55,-276 0,-276"/>
</a>
</g>
</g>
<!-- Node2&#45;&gt;Node1 -->
<g id="edge1_Node000001_Node000002" class="edge">
<title>Node2&#45;&gt;Node1</title>
<g id="a_edge1_Node000001_Node000002"><a xlink:title=" ">
<path fill="none" stroke="#63b8ff" d="M39.51,-265.57C42.16,-257.74 45.11,-249.03 48.21,-239.88"/>
<polygon fill="none" stroke="#63b8ff" points="36.23,-264.32 36.34,-274.92 42.86,-266.57 36.23,-264.32"/>
</a>
</g>
</g>
<!-- Node3 -->
<g id="Node000003" class="node">
<title>Node3</title>
<g id="a_Node000003"><a xlink:title=" ">
<polygon fill="white" stroke="none" points="104,-328 73,-328 73,-276 104,-276 104,-328"/>
<text text-anchor="start" x="78" y="-314.5" font-family="Helvetica,sans-Serif" font-size="10.00">table</text>
<text text-anchor="start" x="87" y="-298.5" font-family="Helvetica,sans-Serif" font-size="10.00"> </text>
<text text-anchor="start" x="87" y="-282.5" font-family="Helvetica,sans-Serif" font-size="10.00"> </text>
<polygon fill="#666666" stroke="#666666" points="73,-310 73,-310 104,-310 104,-310 73,-310"/>
<polygon fill="#666666" stroke="#666666" points="73,-294 73,-294 104,-294 104,-294 73,-294"/>
<polygon fill="none" stroke="#666666" points="73,-276 73,-328 104,-328 104,-276 73,-276"/>
</a>
</g>
</g>
<!-- Node3&#45;&gt;Node1 -->
<g id="edge2_Node000001_Node000003" class="edge">
<title>Node3&#45;&gt;Node1</title>
<g id="a_edge2_Node000001_Node000003"><a xlink:title=" ">
<path fill="none" stroke="#63b8ff" d="M88.5,-265.02C88.5,-257.34 88.5,-248.82 88.5,-239.88"/>
<polygon fill="none" stroke="#63b8ff" points="85,-264.84 88.5,-274.84 92,-264.84 85,-264.84"/>
</a>
</g>
</g>
<!-- Node4 -->
<g id="Node000004" class="node">
<title>Node4</title>
<g id="a_Node000004"><a xlink:title=" ">
<polygon fill="white" stroke="none" points="151,-328 122,-328 122,-276 151,-276 151,-328"/>
<text text-anchor="start" x="126.75" y="-314.5" font-family="Helvetica,sans-Serif" font-size="10.00">True</text>
<text text-anchor="start" x="135" y="-298.5" font-family="Helvetica,sans-Serif" font-size="10.00"> </text>
<text text-anchor="start" x="135" y="-282.5" font-family="Helvetica,sans-Serif" font-size="10.00"> </text>
<polygon fill="#666666" stroke="#666666" points="122,-310 122,-310 151,-310 151,-310 122,-310"/>
<polygon fill="#666666" stroke="#666666" points="122,-294 122,-294 151,-294 151,-294 122,-294"/>
<polygon fill="none" stroke="#666666" points="122,-276 122,-328 151,-328 151,-276 122,-276"/>
</a>
</g>
</g>
<!-- Node4&#45;&gt;Node1 -->
<g id="edge3_Node000001_Node000004" class="edge">
<title>Node4&#45;&gt;Node1</title>
<g id="a_edge3_Node000001_Node000004"><a xlink:title=" ">
<path fill="none" stroke="#63b8ff" d="M126.98,-265.29C124.91,-257.54 122.61,-248.93 120.2,-239.88"/>
<polygon fill="none" stroke="#63b8ff" points="123.58,-266.13 129.54,-274.89 130.34,-264.32 123.58,-266.13"/>
</a>
</g>
</g>
</g>
</svg>
