<?xml version="1.0" encoding="UTF-8" standalone="no"?>
<!DOCTYPE svg PUBLIC "-//W3C//DTD SVG 1.1//EN"
 "http://www.w3.org/Graphics/SVG/1.1/DTD/svg11.dtd">
<!-- Generated by graphviz version 12.1.0 (20240811.2233)
 -->
<!-- Title: github.GitHubAddCommentExecutor Pages: 1 -->
<svg width="177pt" height="252pt"
 viewBox="0.00 0.00 177.00 252.00" xmlns="http://www.w3.org/2000/svg" xmlns:xlink="http://www.w3.org/1999/xlink">
<g id="graph0" class="graph" transform="scale(1 1) rotate(0) translate(4 248)">
<title>github.GitHubAddCommentExecutor</title>
<!-- Node1 -->
<g id="Node000001" class="node">
<title>Node1</title>
<g id="a_Node000001"><a xlink:title=" ">
<polygon fill="#999999" stroke="none" points="169,-52 0,-52 0,0 169,0 169,-52"/>
<text text-anchor="start" x="5" y="-38.5" font-family="Helvetica,sans-Serif" font-size="10.00">github.GitHubAddCommentExecutor</text>
<text text-anchor="start" x="83" y="-22.5" font-family="Helvetica,sans-Serif" font-size="10.00"> </text>
<text text-anchor="start" x="31.5" y="-6.5" font-family="Helvetica,sans-Serif" font-size="10.00">+</text>
<text text-anchor="start" x="69" y="-6.5" font-family="Helvetica,sans-Serif" font-size="10.00">execute()</text>
<polygon fill="#666666" stroke="#666666" points="0,-34 0,-34 169,-34 169,-34 0,-34"/>
<polygon fill="#666666" stroke="#666666" points="0,-18 0,-18 169,-18 169,-18 0,-18"/>
<polygon fill="none" stroke="#666666" points="0,0 0,-52 169,-52 169,0 0,0"/>
</a>
</g>
</g>
<!-- Node2 -->
<g id="Node000002" class="node">
<title>Node2</title>
<g id="a_Node000002"><a xlink:href="classgithub_1_1BaseGitHubExecutor.html" target="_top" xlink:title=" ">
<polygon fill="white" stroke="none" points="150,-156 19,-156 19,-88 150,-88 150,-156"/>
<text text-anchor="start" x="23.75" y="-142.5" font-family="Helvetica,sans-Serif" font-size="10.00">github.BaseGitHubExecutor</text>
<text text-anchor="start" x="83" y="-126.5" font-family="Helvetica,sans-Serif" font-size="10.00"> </text>
<text text-anchor="start" x="24.38" y="-110.5" font-family="Helvetica,sans-Serif" font-size="10.00">#</text>
<text text-anchor="start" x="35" y="-110.5" font-family="Helvetica,sans-Serif" font-size="10.00">_get_github_credentials()</text>
<text text-anchor="start" x="24.38" y="-94.5" font-family="Helvetica,sans-Serif" font-size="10.00">#</text>
<text text-anchor="start" x="35" y="-94.5" font-family="Helvetica,sans-Serif" font-size="10.00">_make_github_request()</text>
<polygon fill="#666666" stroke="#666666" points="19,-138 19,-138 150,-138 150,-138 19,-138"/>
<polygon fill="#666666" stroke="#666666" points="19,-122 19,-122 150,-122 150,-122 19,-122"/>
<polygon fill="none" stroke="#666666" points="19,-88 19,-156 150,-156 150,-88 19,-88"/>
</a>
</g>
</g>
<!-- Node2&#45;&gt;Node1 -->
<g id="edge1_Node000001_Node000002" class="edge">
<title>Node2&#45;&gt;Node1</title>
<g id="a_edge1_Node000001_Node000002"><a xlink:title=" ">
<path fill="none" stroke="#63b8ff" d="M84.5,-76.62C84.5,-68.05 84.5,-59.37 84.5,-51.71"/>
<polygon fill="none" stroke="#63b8ff" points="81,-76.61 84.5,-86.61 88,-76.61 81,-76.61"/>
</a>
</g>
</g>
<!-- Node3 -->
<g id="Node000003" class="node">
<title>Node3</title>
<g id="a_Node000003"><a xlink:title=" ">
<polygon fill="white" stroke="none" points="120,-244 49,-244 49,-192 120,-192 120,-244"/>
<text text-anchor="start" x="53.75" y="-230.5" font-family="Helvetica,sans-Serif" font-size="10.00">BaseExecutor</text>
<text text-anchor="start" x="83" y="-214.5" font-family="Helvetica,sans-Serif" font-size="10.00"> </text>
<text text-anchor="start" x="83" y="-198.5" font-family="Helvetica,sans-Serif" font-size="10.00"> </text>
<polygon fill="#666666" stroke="#666666" points="49,-226 49,-226 120,-226 120,-226 49,-226"/>
<polygon fill="#666666" stroke="#666666" points="49,-210 49,-210 120,-210 120,-210 49,-210"/>
<polygon fill="none" stroke="#666666" points="49,-192 49,-244 120,-244 120,-192 49,-192"/>
</a>
</g>
</g>
<!-- Node3&#45;&gt;Node2 -->
<g id="edge2_Node000002_Node000003" class="edge">
<title>Node3&#45;&gt;Node2</title>
<g id="a_edge2_Node000002_Node000003"><a xlink:title=" ">
<path fill="none" stroke="#63b8ff" d="M84.5,-180.97C84.5,-172.65 84.5,-163.84 84.5,-155.67"/>
<polygon fill="none" stroke="#63b8ff" points="81,-180.79 84.5,-190.79 88,-180.79 81,-180.79"/>
</a>
</g>
</g>
</g>
</svg>
