<?xml version="1.0" encoding="UTF-8" standalone="no"?>
<!DOCTYPE svg PUBLIC "-//W3C//DTD SVG 1.1//EN"
 "http://www.w3.org/Graphics/SVG/1.1/DTD/svg11.dtd">
<!-- Generated by graphviz version 12.1.0 (20240811.2233)
 -->
<!-- Title: app.schemas.services.AreaBase Pages: 1 -->
<svg width="181pt" height="172pt"
 viewBox="0.00 0.00 180.69 172.00" xmlns="http://www.w3.org/2000/svg" xmlns:xlink="http://www.w3.org/1999/xlink">
<g id="graph0" class="graph" transform="scale(1 1) rotate(0) translate(4 168)">
<title>app.schemas.services.AreaBase</title>
<!-- Node1 -->
<g id="Node000001" class="node">
<title>Node1</title>
<g id="a_Node000001"><a xlink:title=" ">
<polygon fill="#999999" stroke="none" points="154,-52 0,-52 0,0 154,0 154,-52"/>
<text text-anchor="start" x="5" y="-38.5" font-family="Helvetica,sans-Serif" font-size="10.00">app.schemas.services.AreaBase</text>
<text text-anchor="start" x="28" y="-22.5" font-family="Helvetica,sans-Serif" font-size="10.00">+</text>
<text text-anchor="start" x="62" y="-22.5" font-family="Helvetica,sans-Serif" font-size="10.00">is_active</text>
<text text-anchor="start" x="75.5" y="-6.5" font-family="Helvetica,sans-Serif" font-size="10.00"> </text>
<polygon fill="#666666" stroke="#666666" points="0,-34 0,-34 154,-34 154,-34 0,-34"/>
<polygon fill="#666666" stroke="#666666" points="0,-18 0,-18 60,-18 60,-18 0,-18"/>
<polygon fill="#666666" stroke="#666666" points="60,-18 60,-18 154,-18 154,-18 60,-18"/>
<polygon fill="none" stroke="#666666" points="0,0 0,-52 154,-52 154,0 0,0"/>
</a>
</g>
</g>
<!-- Node2 -->
<g id="Node000002" class="node">
<title>Node2</title>
<g id="a_Node000002"><a xlink:title=" ">
<polygon fill="white" stroke="none" points="74.5,-164 19.5,-164 19.5,-112 74.5,-112 74.5,-164"/>
<text text-anchor="start" x="24.12" y="-150.5" font-family="Helvetica,sans-Serif" font-size="10.00">SQLModel</text>
<text text-anchor="start" x="45.5" y="-134.5" font-family="Helvetica,sans-Serif" font-size="10.00"> </text>
<text text-anchor="start" x="45.5" y="-118.5" font-family="Helvetica,sans-Serif" font-size="10.00"> </text>
<polygon fill="#666666" stroke="#666666" points="19.5,-146 19.5,-146 74.5,-146 74.5,-146 19.5,-146"/>
<polygon fill="#666666" stroke="#666666" points="19.5,-130 19.5,-130 74.5,-130 74.5,-130 19.5,-130"/>
<polygon fill="none" stroke="#666666" points="19.5,-112 19.5,-164 74.5,-164 74.5,-112 19.5,-112"/>
</a>
</g>
</g>
<!-- Node2&#45;&gt;Node1 -->
<g id="edge1_Node000001_Node000002" class="edge">
<title>Node2&#45;&gt;Node1</title>
<g id="a_edge1_Node000001_Node000002"><a xlink:title=" ">
<path fill="none" stroke="#63b8ff" d="M56.73,-101.34C61.13,-85.18 66.24,-66.47 70.22,-51.86"/>
<polygon fill="none" stroke="#63b8ff" points="53.46,-100.01 54.21,-110.58 60.21,-101.85 53.46,-100.01"/>
</a>
</g>
</g>
<!-- Node3 -->
<g id="Node000003" class="node">
<title>Node3</title>
<g id="a_Node000003"><a xlink:title=" ">
<polygon fill="white" stroke="none" points="121,-164 93,-164 93,-112 121,-112 121,-164"/>
<text text-anchor="start" x="98" y="-150.5" font-family="Helvetica,sans-Serif" font-size="10.00">Dict</text>
<text text-anchor="start" x="105.5" y="-134.5" font-family="Helvetica,sans-Serif" font-size="10.00"> </text>
<text text-anchor="start" x="105.5" y="-118.5" font-family="Helvetica,sans-Serif" font-size="10.00"> </text>
<polygon fill="#666666" stroke="#666666" points="93,-146 93,-146 121,-146 121,-146 93,-146"/>
<polygon fill="#666666" stroke="#666666" points="93,-130 93,-130 121,-130 121,-130 93,-130"/>
<polygon fill="none" stroke="#666666" points="93,-112 93,-164 121,-164 121,-112 93,-112"/>
</a>
</g>
</g>
<!-- Node3&#45;&gt;Node1 -->
<g id="edge2_Node000001_Node000003" class="edge">
<title>Node3&#45;&gt;Node1</title>
<g id="a_edge2_Node000001_Node000003"><a xlink:title=" ">
<path fill="none" stroke="#63b8ff" d="M100.19,-112.04C96.36,-97.98 91.49,-80.13 87.21,-64.42"/>
<polygon fill="none" stroke="#63b8ff" points="87.18,-64.31 81.74,-59.57 84.02,-52.73 89.46,-57.47 87.18,-64.31"/>
</a>
</g>
<text text-anchor="middle" x="133.69" y="-84.5" font-family="Helvetica,sans-Serif" font-size="10.00" fill="grey"> +params_action</text>
<text text-anchor="middle" x="133.69" y="-72.5" font-family="Helvetica,sans-Serif" font-size="10.00" fill="grey">+params_reaction</text>
</g>
</g>
</svg>
