<?xml version="1.0" encoding="UTF-8" standalone="no"?>
<!DOCTYPE svg PUBLIC "-//W3C//DTD SVG 1.1//EN"
 "http://www.w3.org/Graphics/SVG/1.1/DTD/svg11.dtd">
<!-- Generated by graphviz version 12.1.0 (20240811.2233)
 -->
<!-- Title: app.oauth_models.ServiceReaction Pages: 1 -->
<svg width="159pt" height="240pt"
 viewBox="0.00 0.00 159.00 240.00" xmlns="http://www.w3.org/2000/svg" xmlns:xlink="http://www.w3.org/1999/xlink">
<g id="graph0" class="graph" transform="scale(1 1) rotate(0) translate(4 236)">
<title>app.oauth_models.ServiceReaction</title>
<!-- Node1 -->
<g id="Node000001" class="node">
<title>Node1</title>
<g id="a_Node000001"><a xlink:title=" ">
<polygon fill="#999999" stroke="none" points="151,-144 26,-144 26,0 151,0 151,-144"/>
<text text-anchor="start" x="30.75" y="-130.5" font-family="Helvetica,sans-Serif" font-size="10.00">app.oauth_models.Service</text>
<text text-anchor="start" x="69" y="-118.5" font-family="Helvetica,sans-Serif" font-size="10.00">Reaction</text>
<text text-anchor="start" x="40" y="-102.5" font-family="Helvetica,sans-Serif" font-size="10.00">+</text>
<text text-anchor="start" x="60" y="-102.5" font-family="Helvetica,sans-Serif" font-size="10.00">id</text>
<text text-anchor="start" x="40" y="-86.5" font-family="Helvetica,sans-Serif" font-size="10.00">+</text>
<text text-anchor="start" x="60" y="-86.5" font-family="Helvetica,sans-Serif" font-size="10.00">service_id</text>
<text text-anchor="start" x="40" y="-70.5" font-family="Helvetica,sans-Serif" font-size="10.00">+</text>
<text text-anchor="start" x="60" y="-70.5" font-family="Helvetica,sans-Serif" font-size="10.00">is_active</text>
<text text-anchor="start" x="40" y="-54.5" font-family="Helvetica,sans-Serif" font-size="10.00">+</text>
<text text-anchor="start" x="60" y="-54.5" font-family="Helvetica,sans-Serif" font-size="10.00">created_at</text>
<text text-anchor="start" x="40" y="-38.5" font-family="Helvetica,sans-Serif" font-size="10.00">+</text>
<text text-anchor="start" x="60" y="-38.5" font-family="Helvetica,sans-Serif" font-size="10.00">updated_at</text>
<text text-anchor="start" x="41.5" y="-22.5" font-family="Helvetica,sans-Serif" font-size="10.00">&#45;</text>
<text text-anchor="start" x="60" y="-22.5" font-family="Helvetica,sans-Serif" font-size="10.00">__tablename__</text>
<text text-anchor="start" x="87" y="-6.5" font-family="Helvetica,sans-Serif" font-size="10.00"> </text>
<polygon fill="#666666" stroke="#666666" points="26,-114 26,-114 151,-114 151,-114 26,-114"/>
<polygon fill="#666666" stroke="#666666" points="26,-18 26,-18 58,-18 58,-18 26,-18"/>
<polygon fill="#666666" stroke="#666666" points="58,-18 58,-18 151,-18 151,-18 58,-18"/>
<polygon fill="none" stroke="#666666" points="26,0 26,-144 151,-144 151,0 26,0"/>
</a>
</g>
</g>
<!-- Node2 -->
<g id="Node000002" class="node">
<title>Node2</title>
<g id="a_Node000002"><a xlink:title=" ">
<polygon fill="white" stroke="none" points="55,-232 0,-232 0,-180 55,-180 55,-232"/>
<text text-anchor="start" x="4.62" y="-218.5" font-family="Helvetica,sans-Serif" font-size="10.00">SQLModel</text>
<text text-anchor="start" x="26" y="-202.5" font-family="Helvetica,sans-Serif" font-size="10.00"> </text>
<text text-anchor="start" x="26" y="-186.5" font-family="Helvetica,sans-Serif" font-size="10.00"> </text>
<polygon fill="#666666" stroke="#666666" points="0,-214 0,-214 55,-214 55,-214 0,-214"/>
<polygon fill="#666666" stroke="#666666" points="0,-198 0,-198 55,-198 55,-198 0,-198"/>
<polygon fill="none" stroke="#666666" points="0,-180 0,-232 55,-232 55,-180 0,-180"/>
</a>
</g>
</g>
<!-- Node2&#45;&gt;Node1 -->
<g id="edge1_Node000001_Node000002" class="edge">
<title>Node2&#45;&gt;Node1</title>
<g id="a_edge1_Node000001_Node000002"><a xlink:title=" ">
<path fill="none" stroke="#63b8ff" d="M43.79,-169.76C47.5,-161.72 51.58,-152.9 55.71,-143.96"/>
<polygon fill="none" stroke="#63b8ff" points="40.63,-168.25 39.61,-178.8 46.98,-171.19 40.63,-168.25"/>
</a>
</g>
</g>
<!-- Node3 -->
<g id="Node000003" class="node">
<title>Node3</title>
<g id="a_Node000003"><a xlink:title=" ">
<polygon fill="white" stroke="none" points="104,-232 73,-232 73,-180 104,-180 104,-232"/>
<text text-anchor="start" x="78" y="-218.5" font-family="Helvetica,sans-Serif" font-size="10.00">table</text>
<text text-anchor="start" x="87" y="-202.5" font-family="Helvetica,sans-Serif" font-size="10.00"> </text>
<text text-anchor="start" x="87" y="-186.5" font-family="Helvetica,sans-Serif" font-size="10.00"> </text>
<polygon fill="#666666" stroke="#666666" points="73,-214 73,-214 104,-214 104,-214 73,-214"/>
<polygon fill="#666666" stroke="#666666" points="73,-198 73,-198 104,-198 104,-198 73,-198"/>
<polygon fill="none" stroke="#666666" points="73,-180 73,-232 104,-232 104,-180 73,-180"/>
</a>
</g>
</g>
<!-- Node3&#45;&gt;Node1 -->
<g id="edge2_Node000001_Node000003" class="edge">
<title>Node3&#45;&gt;Node1</title>
<g id="a_edge2_Node000001_Node000003"><a xlink:title=" ">
<path fill="none" stroke="#63b8ff" d="M88.5,-168.66C88.5,-160.92 88.5,-152.49 88.5,-143.96"/>
<polygon fill="none" stroke="#63b8ff" points="85,-168.66 88.5,-178.66 92,-168.66 85,-168.66"/>
</a>
</g>
</g>
<!-- Node4 -->
<g id="Node000004" class="node">
<title>Node4</title>
<g id="a_Node000004"><a xlink:title=" ">
<polygon fill="white" stroke="none" points="151,-232 122,-232 122,-180 151,-180 151,-232"/>
<text text-anchor="start" x="126.75" y="-218.5" font-family="Helvetica,sans-Serif" font-size="10.00">True</text>
<text text-anchor="start" x="135" y="-202.5" font-family="Helvetica,sans-Serif" font-size="10.00"> </text>
<text text-anchor="start" x="135" y="-186.5" font-family="Helvetica,sans-Serif" font-size="10.00"> </text>
<polygon fill="#666666" stroke="#666666" points="122,-214 122,-214 151,-214 151,-214 122,-214"/>
<polygon fill="#666666" stroke="#666666" points="122,-198 122,-198 151,-198 151,-198 122,-198"/>
<polygon fill="none" stroke="#666666" points="122,-180 122,-232 151,-232 151,-180 122,-180"/>
</a>
</g>
</g>
<!-- Node4&#45;&gt;Node1 -->
<g id="edge3_Node000001_Node000004" class="edge">
<title>Node4&#45;&gt;Node1</title>
<g id="a_edge3_Node000001_Node000004"><a xlink:title=" ">
<path fill="none" stroke="#63b8ff" d="M123.59,-169.49C120.69,-161.52 117.52,-152.8 114.3,-143.96"/>
<polygon fill="none" stroke="#63b8ff" points="120.25,-170.55 126.95,-178.75 126.83,-168.16 120.25,-170.55"/>
</a>
</g>
</g>
</g>
</svg>
