<?xml version="1.0" encoding="UTF-8" standalone="no"?>
<!DOCTYPE svg PUBLIC "-//W3C//DTD SVG 1.1//EN"
 "http://www.w3.org/Graphics/SVG/1.1/DTD/svg11.dtd">
<!-- Generated by graphviz version 12.1.0 (20240811.2233)
 -->
<!-- Title: app.schemas.services.AreaRead Pages: 1 -->
<svg width="162pt" height="268pt"
 viewBox="0.00 0.00 162.00 268.00" xmlns="http://www.w3.org/2000/svg" xmlns:xlink="http://www.w3.org/1999/xlink">
<g id="graph0" class="graph" transform="scale(1 1) rotate(0) translate(4 264)">
<title>app.schemas.services.AreaRead</title>
<!-- Node1 -->
<g id="Node000001" class="node">
<title>Node1</title>
<g id="a_Node000001"><a xlink:title=" ">
<polygon fill="#999999" stroke="none" points="154,-52 0,-52 0,0 154,0 154,-52"/>
<text text-anchor="start" x="4.62" y="-38.5" font-family="Helvetica,sans-Serif" font-size="10.00">app.schemas.services.AreaRead</text>
<text text-anchor="start" x="32" y="-22.5" font-family="Helvetica,sans-Serif" font-size="10.00">+</text>
<text text-anchor="start" x="70" y="-22.5" font-family="Helvetica,sans-Serif" font-size="10.00">name</text>
<text text-anchor="start" x="75.5" y="-6.5" font-family="Helvetica,sans-Serif" font-size="10.00"> </text>
<polygon fill="#666666" stroke="#666666" points="0,-34 0,-34 154,-34 154,-34 0,-34"/>
<polygon fill="#666666" stroke="#666666" points="0,-18 0,-18 68,-18 68,-18 0,-18"/>
<polygon fill="#666666" stroke="#666666" points="68,-18 68,-18 154,-18 154,-18 68,-18"/>
<polygon fill="none" stroke="#666666" points="0,0 0,-52 154,-52 154,0 0,0"/>
</a>
</g>
</g>
<!-- Node2 -->
<g id="Node000002" class="node">
<title>Node2</title>
<g id="a_Node000002"><a xlink:href="classapp_1_1schemas_1_1services_1_1AreaBase.html" target="_top" xlink:title=" ">
<polygon fill="white" stroke="none" points="154,-172 0,-172 0,-88 154,-88 154,-172"/>
<text text-anchor="start" x="5" y="-158.5" font-family="Helvetica,sans-Serif" font-size="10.00">app.schemas.services.AreaBase</text>
<text text-anchor="start" x="20" y="-142.5" font-family="Helvetica,sans-Serif" font-size="10.00">+</text>
<text text-anchor="start" x="46" y="-142.5" font-family="Helvetica,sans-Serif" font-size="10.00">params_action</text>
<text text-anchor="start" x="20" y="-126.5" font-family="Helvetica,sans-Serif" font-size="10.00">+</text>
<text text-anchor="start" x="46" y="-126.5" font-family="Helvetica,sans-Serif" font-size="10.00">params_reaction</text>
<text text-anchor="start" x="20" y="-110.5" font-family="Helvetica,sans-Serif" font-size="10.00">+</text>
<text text-anchor="start" x="46" y="-110.5" font-family="Helvetica,sans-Serif" font-size="10.00">is_active</text>
<text text-anchor="start" x="75.5" y="-94.5" font-family="Helvetica,sans-Serif" font-size="10.00"> </text>
<polygon fill="#666666" stroke="#666666" points="0,-154 0,-154 154,-154 154,-154 0,-154"/>
<polygon fill="#666666" stroke="#666666" points="0,-106 0,-106 44,-106 44,-106 0,-106"/>
<polygon fill="#666666" stroke="#666666" points="44,-106 44,-106 154,-106 154,-106 44,-106"/>
<polygon fill="none" stroke="#666666" points="0,-88 0,-172 154,-172 154,-88 0,-88"/>
</a>
</g>
</g>
<!-- Node2&#45;&gt;Node1 -->
<g id="edge1_Node000001_Node000002" class="edge">
<title>Node2&#45;&gt;Node1</title>
<g id="a_edge1_Node000001_Node000002"><a xlink:title=" ">
<path fill="none" stroke="#63b8ff" d="M77,-76.71C77,-68.01 77,-59.35 77,-51.76"/>
<polygon fill="none" stroke="#63b8ff" points="73.5,-76.59 77,-86.59 80.5,-76.59 73.5,-76.59"/>
</a>
</g>
</g>
<!-- Node3 -->
<g id="Node000003" class="node">
<title>Node3</title>
<g id="a_Node000003"><a xlink:title=" ">
<polygon fill="white" stroke="none" points="104.5,-260 49.5,-260 49.5,-208 104.5,-208 104.5,-260"/>
<text text-anchor="start" x="54.12" y="-246.5" font-family="Helvetica,sans-Serif" font-size="10.00">SQLModel</text>
<text text-anchor="start" x="75.5" y="-230.5" font-family="Helvetica,sans-Serif" font-size="10.00"> </text>
<text text-anchor="start" x="75.5" y="-214.5" font-family="Helvetica,sans-Serif" font-size="10.00"> </text>
<polygon fill="#666666" stroke="#666666" points="49.5,-242 49.5,-242 104.5,-242 104.5,-242 49.5,-242"/>
<polygon fill="#666666" stroke="#666666" points="49.5,-226 49.5,-226 104.5,-226 104.5,-226 49.5,-226"/>
<polygon fill="none" stroke="#666666" points="49.5,-208 49.5,-260 104.5,-260 104.5,-208 49.5,-208"/>
</a>
</g>
</g>
<!-- Node3&#45;&gt;Node2 -->
<g id="edge2_Node000002_Node000003" class="edge">
<title>Node3&#45;&gt;Node2</title>
<g id="a_edge2_Node000002_Node000003"><a xlink:title=" ">
<path fill="none" stroke="#63b8ff" d="M77,-196.77C77,-188.75 77,-180.19 77,-171.99"/>
<polygon fill="none" stroke="#63b8ff" points="73.5,-196.53 77,-206.53 80.5,-196.53 73.5,-196.53"/>
</a>
</g>
</g>
</g>
</svg>
