<?xml version="1.0" encoding="UTF-8" standalone="no"?>
<!DOCTYPE svg PUBLIC "-//W3C//DTD SVG 1.1//EN"
 "http://www.w3.org/Graphics/SVG/1.1/DTD/svg11.dtd">
<!-- Generated by graphviz version 12.1.0 (20240811.2233)
 -->
<!-- Title: user.RegisteringUser Pages: 1 -->
<svg width="110pt" height="284pt"
 viewBox="0.00 0.00 110.00 284.00" xmlns="http://www.w3.org/2000/svg" xmlns:xlink="http://www.w3.org/1999/xlink">
<g id="graph0" class="graph" transform="scale(1 1) rotate(0) translate(4 280)">
<title>user.RegisteringUser</title>
<!-- Node1 -->
<g id="Node000001" class="node">
<title>Node1</title>
<g id="a_Node000001"><a xlink:title=" ">
<polygon fill="#999999" stroke="none" points="102,-52 0,-52 0,0 102,0 102,-52"/>
<text text-anchor="start" x="4.88" y="-38.5" font-family="Helvetica,sans-Serif" font-size="10.00">user.RegisteringUser</text>
<text text-anchor="start" x="49.5" y="-22.5" font-family="Helvetica,sans-Serif" font-size="10.00"> </text>
<text text-anchor="start" x="49.5" y="-6.5" font-family="Helvetica,sans-Serif" font-size="10.00"> </text>
<polygon fill="#666666" stroke="#666666" points="0,-34 0,-34 102,-34 102,-34 0,-34"/>
<polygon fill="#666666" stroke="#666666" points="0,-18 0,-18 102,-18 102,-18 0,-18"/>
<polygon fill="none" stroke="#666666" points="0,0 0,-52 102,-52 102,0 0,0"/>
</a>
</g>
</g>
<!-- Node2 -->
<g id="Node000002" class="node">
<title>Node2</title>
<g id="a_Node000002"><a xlink:href="classuser_1_1BaseUser.html" target="_top" xlink:title=" ">
<polygon fill="white" stroke="none" points="88.5,-188 13.5,-188 13.5,-88 88.5,-88 88.5,-188"/>
<text text-anchor="start" x="18.38" y="-174.5" font-family="Helvetica,sans-Serif" font-size="10.00">user.BaseUser</text>
<text text-anchor="start" x="20" y="-158.5" font-family="Helvetica,sans-Serif" font-size="10.00">+</text>
<text text-anchor="start" x="32.5" y="-158.5" font-family="Helvetica,sans-Serif" font-size="10.00">id</text>
<text text-anchor="start" x="20" y="-142.5" font-family="Helvetica,sans-Serif" font-size="10.00">+</text>
<text text-anchor="start" x="32.5" y="-142.5" font-family="Helvetica,sans-Serif" font-size="10.00">email</text>
<text text-anchor="start" x="20" y="-126.5" font-family="Helvetica,sans-Serif" font-size="10.00">+</text>
<text text-anchor="start" x="32.5" y="-126.5" font-family="Helvetica,sans-Serif" font-size="10.00">founder_id</text>
<text text-anchor="start" x="20" y="-110.5" font-family="Helvetica,sans-Serif" font-size="10.00">+</text>
<text text-anchor="start" x="32.5" y="-110.5" font-family="Helvetica,sans-Serif" font-size="10.00">investor_id</text>
<text text-anchor="start" x="49.5" y="-94.5" font-family="Helvetica,sans-Serif" font-size="10.00"> </text>
<polygon fill="#666666" stroke="#666666" points="13.5,-170 13.5,-170 88.5,-170 88.5,-170 13.5,-170"/>
<polygon fill="#666666" stroke="#666666" points="13.5,-106 13.5,-106 30.5,-106 30.5,-106 13.5,-106"/>
<polygon fill="#666666" stroke="#666666" points="30.5,-106 30.5,-106 88.5,-106 88.5,-106 30.5,-106"/>
<polygon fill="none" stroke="#666666" points="13.5,-88 13.5,-188 88.5,-188 88.5,-88 13.5,-88"/>
</a>
</g>
</g>
<!-- Node2&#45;&gt;Node1 -->
<g id="edge1_Node000001_Node000002" class="edge">
<title>Node2&#45;&gt;Node1</title>
<g id="a_edge1_Node000001_Node000002"><a xlink:title=" ">
<path fill="none" stroke="#63b8ff" d="M51,-76.63C51,-67.93 51,-59.4 51,-51.94"/>
<polygon fill="none" stroke="#63b8ff" points="47.5,-76.6 51,-86.6 54.5,-76.6 47.5,-76.6"/>
</a>
</g>
</g>
<!-- Node3 -->
<g id="Node000003" class="node">
<title>Node3</title>
<g id="a_Node000003"><a xlink:title=" ">
<polygon fill="white" stroke="none" points="78.5,-276 23.5,-276 23.5,-224 78.5,-224 78.5,-276"/>
<text text-anchor="start" x="28.12" y="-262.5" font-family="Helvetica,sans-Serif" font-size="10.00">SQLModel</text>
<text text-anchor="start" x="49.5" y="-246.5" font-family="Helvetica,sans-Serif" font-size="10.00"> </text>
<text text-anchor="start" x="49.5" y="-230.5" font-family="Helvetica,sans-Serif" font-size="10.00"> </text>
<polygon fill="#666666" stroke="#666666" points="23.5,-258 23.5,-258 78.5,-258 78.5,-258 23.5,-258"/>
<polygon fill="#666666" stroke="#666666" points="23.5,-242 23.5,-242 78.5,-242 78.5,-242 23.5,-242"/>
<polygon fill="none" stroke="#666666" points="23.5,-224 23.5,-276 78.5,-276 78.5,-224 23.5,-224"/>
</a>
</g>
</g>
<!-- Node3&#45;&gt;Node2 -->
<g id="edge2_Node000002_Node000003" class="edge">
<title>Node3&#45;&gt;Node2</title>
<g id="a_edge2_Node000002_Node000003"><a xlink:title=" ">
<path fill="none" stroke="#63b8ff" d="M51,-212.53C51,-204.58 51,-196.05 51,-187.72"/>
<polygon fill="none" stroke="#63b8ff" points="47.5,-212.53 51,-222.53 54.5,-212.53 47.5,-212.53"/>
</a>
</g>
</g>
</g>
</svg>
