<?xml version="1.0" encoding="UTF-8" standalone="no"?>
<!DOCTYPE svg PUBLIC "-//W3C//DTD SVG 1.1//EN"
 "http://www.w3.org/Graphics/SVG/1.1/DTD/svg11.dtd">
<!-- Generated by graphviz version 12.1.0 (20240811.2233)
 -->
<!-- Title: app.user_action.UserActionCreate Pages: 1 -->
<svg width="150pt" height="172pt"
 viewBox="0.00 0.00 150.35 172.00" xmlns="http://www.w3.org/2000/svg" xmlns:xlink="http://www.w3.org/1999/xlink">
<g id="graph0" class="graph" transform="scale(1 1) rotate(0) translate(4 168)">
<title>app.user_action.UserActionCreate</title>
<!-- Node1 -->
<g id="Node000001" class="node">
<title>Node1</title>
<g id="a_Node000001"><a xlink:title=" ">
<polygon fill="#999999" stroke="none" points="130,-64 0,-64 0,0 130,0 130,-64"/>
<text text-anchor="start" x="4.62" y="-50.5" font-family="Helvetica,sans-Serif" font-size="10.00">app.user_action.UserAction</text>
<text text-anchor="start" x="50.38" y="-38.5" font-family="Helvetica,sans-Serif" font-size="10.00">Create</text>
<text text-anchor="start" x="63.5" y="-22.5" font-family="Helvetica,sans-Serif" font-size="10.00"> </text>
<text text-anchor="start" x="63.5" y="-6.5" font-family="Helvetica,sans-Serif" font-size="10.00"> </text>
<polygon fill="#666666" stroke="#666666" points="0,-34 0,-34 130,-34 130,-34 0,-34"/>
<polygon fill="#666666" stroke="#666666" points="0,-18 0,-18 130,-18 130,-18 0,-18"/>
<polygon fill="none" stroke="#666666" points="0,0 0,-64 130,-64 130,0 0,0"/>
</a>
</g>
</g>
<!-- Node2 -->
<g id="Node000002" class="node">
<title>Node2</title>
<g id="a_Node000002"><a xlink:title=" ">
<polygon fill="white" stroke="none" points="59,-164 1,-164 1,-112 59,-112 59,-164"/>
<text text-anchor="start" x="5.62" y="-150.5" font-family="Helvetica,sans-Serif" font-size="10.00">BaseModel</text>
<text text-anchor="start" x="28.5" y="-134.5" font-family="Helvetica,sans-Serif" font-size="10.00"> </text>
<text text-anchor="start" x="28.5" y="-118.5" font-family="Helvetica,sans-Serif" font-size="10.00"> </text>
<polygon fill="#666666" stroke="#666666" points="1,-146 1,-146 59,-146 59,-146 1,-146"/>
<polygon fill="#666666" stroke="#666666" points="1,-130 1,-130 59,-130 59,-130 1,-130"/>
<polygon fill="none" stroke="#666666" points="1,-112 1,-164 59,-164 59,-112 1,-112"/>
</a>
</g>
</g>
<!-- Node2&#45;&gt;Node1 -->
<g id="edge1_Node000001_Node000002" class="edge">
<title>Node2&#45;&gt;Node1</title>
<g id="a_edge1_Node000001_Node000002"><a xlink:title=" ">
<path fill="none" stroke="#63b8ff" d="M42.01,-101.31C46.13,-89.06 50.71,-75.47 54.68,-63.65"/>
<polygon fill="none" stroke="#63b8ff" points="38.74,-100.06 38.87,-110.65 45.37,-102.29 38.74,-100.06"/>
</a>
</g>
</g>
<!-- Node3 -->
<g id="Node000003" class="node">
<title>Node3</title>
<g id="a_Node000003"><a xlink:title=" ">
<polygon fill="white" stroke="none" points="123,-164 77,-164 77,-112 123,-112 123,-164"/>
<text text-anchor="start" x="82" y="-150.5" font-family="Helvetica,sans-Serif" font-size="10.00">Optional</text>
<text text-anchor="start" x="98.5" y="-134.5" font-family="Helvetica,sans-Serif" font-size="10.00"> </text>
<text text-anchor="start" x="98.5" y="-118.5" font-family="Helvetica,sans-Serif" font-size="10.00"> </text>
<polygon fill="#666666" stroke="#666666" points="77,-146 77,-146 123,-146 123,-146 77,-146"/>
<polygon fill="#666666" stroke="#666666" points="77,-130 77,-130 123,-130 123,-130 77,-130"/>
<polygon fill="none" stroke="#666666" points="77,-112 77,-164 123,-164 123,-112 77,-112"/>
</a>
</g>
</g>
<!-- Node3&#45;&gt;Node1 -->
<g id="edge2_Node000001_Node000003" class="edge">
<title>Node3&#45;&gt;Node1</title>
<g id="a_edge2_Node000001_Node000003"><a xlink:title=" ">
<path fill="none" stroke="#63b8ff" d="M91.62,-112.09C87.95,-101.18 83.53,-88.07 79.37,-75.69"/>
<polygon fill="none" stroke="#63b8ff" points="79.43,-75.88 73.73,-71.47 75.6,-64.51 81.31,-68.92 79.43,-75.88"/>
</a>
</g>
<text text-anchor="middle" x="113.47" y="-84.5" font-family="Helvetica,sans-Serif" font-size="10.00" fill="grey"> +parameters</text>
</g>
</g>
</svg>
