<?xml version="1.0" encoding="UTF-8" standalone="no"?>
<!DOCTYPE svg PUBLIC "-//W3C//DTD SVG 1.1//EN"
 "http://www.w3.org/Graphics/SVG/1.1/DTD/svg11.dtd">
<!-- Generated by graphviz version 12.1.0 (20240811.2233)
 -->
<!-- Title: app.oauth_models.Area Pages: 1 -->
<svg width="391pt" height="268pt"
 viewBox="0.00 0.00 391.22 268.00" xmlns="http://www.w3.org/2000/svg" xmlns:xlink="http://www.w3.org/1999/xlink">
<g id="graph0" class="graph" transform="scale(1 1) rotate(0) translate(4 264)">
<title>app.oauth_models.Area</title>
<!-- Node1 -->
<g id="Node000001" class="node">
<title>Node1</title>
<g id="a_Node000001"><a xlink:title=" ">
<polygon fill="#999999" stroke="none" points="220.5,-148 108.5,-148 108.5,0 220.5,0 220.5,-148"/>
<text text-anchor="start" x="113.12" y="-134.5" font-family="Helvetica,sans-Serif" font-size="10.00">app.oauth_models.Area</text>
<text text-anchor="start" x="115" y="-118.5" font-family="Helvetica,sans-Serif" font-size="10.00">+</text>
<text text-anchor="start" x="127.5" y="-118.5" font-family="Helvetica,sans-Serif" font-size="10.00">user_id</text>
<text text-anchor="start" x="115" y="-102.5" font-family="Helvetica,sans-Serif" font-size="10.00">+</text>
<text text-anchor="start" x="127.5" y="-102.5" font-family="Helvetica,sans-Serif" font-size="10.00">action_service_id</text>
<text text-anchor="start" x="115" y="-86.5" font-family="Helvetica,sans-Serif" font-size="10.00">+</text>
<text text-anchor="start" x="127.5" y="-86.5" font-family="Helvetica,sans-Serif" font-size="10.00">action_id</text>
<text text-anchor="start" x="115" y="-70.5" font-family="Helvetica,sans-Serif" font-size="10.00">+</text>
<text text-anchor="start" x="127.5" y="-70.5" font-family="Helvetica,sans-Serif" font-size="10.00">reaction_service_id</text>
<text text-anchor="start" x="115" y="-54.5" font-family="Helvetica,sans-Serif" font-size="10.00">+</text>
<text text-anchor="start" x="127.5" y="-54.5" font-family="Helvetica,sans-Serif" font-size="10.00">reaction_id</text>
<text text-anchor="start" x="115" y="-38.5" font-family="Helvetica,sans-Serif" font-size="10.00">+</text>
<text text-anchor="start" x="127.5" y="-38.5" font-family="Helvetica,sans-Serif" font-size="10.00">is_active</text>
<text text-anchor="start" x="116.5" y="-22.5" font-family="Helvetica,sans-Serif" font-size="10.00">&#45;</text>
<text text-anchor="start" x="127.5" y="-22.5" font-family="Helvetica,sans-Serif" font-size="10.00">__tablename__</text>
<text text-anchor="start" x="163" y="-6.5" font-family="Helvetica,sans-Serif" font-size="10.00"> </text>
<polygon fill="#666666" stroke="#666666" points="108.5,-130 108.5,-130 220.5,-130 220.5,-130 108.5,-130"/>
<polygon fill="#666666" stroke="#666666" points="108.5,-18 108.5,-18 125.5,-18 125.5,-18 108.5,-18"/>
<polygon fill="#666666" stroke="#666666" points="125.5,-18 125.5,-18 220.5,-18 220.5,-18 125.5,-18"/>
<polygon fill="none" stroke="#666666" points="108.5,0 108.5,-148 220.5,-148 220.5,0 108.5,0"/>
</a>
</g>
</g>
<!-- Node2 -->
<g id="Node000002" class="node">
<title>Node2</title>
<g id="a_Node000002"><a xlink:title=" ">
<polygon fill="white" stroke="none" points="55,-260 0,-260 0,-208 55,-208 55,-260"/>
<text text-anchor="start" x="4.62" y="-246.5" font-family="Helvetica,sans-Serif" font-size="10.00">SQLModel</text>
<text text-anchor="start" x="26" y="-230.5" font-family="Helvetica,sans-Serif" font-size="10.00"> </text>
<text text-anchor="start" x="26" y="-214.5" font-family="Helvetica,sans-Serif" font-size="10.00"> </text>
<polygon fill="#666666" stroke="#666666" points="0,-242 0,-242 55,-242 55,-242 0,-242"/>
<polygon fill="#666666" stroke="#666666" points="0,-226 0,-226 55,-226 55,-226 0,-226"/>
<polygon fill="none" stroke="#666666" points="0,-208 0,-260 55,-260 55,-208 0,-208"/>
</a>
</g>
</g>
<!-- Node2&#45;&gt;Node1 -->
<g id="edge1_Node000001_Node000002" class="edge">
<title>Node2&#45;&gt;Node1</title>
<g id="a_edge1_Node000001_Node000002"><a xlink:title=" ">
<path fill="none" stroke="#63b8ff" d="M56.04,-200.08C71.29,-182.5 90.59,-160.24 108.68,-139.38"/>
<polygon fill="none" stroke="#63b8ff" points="53.8,-197.32 49.9,-207.17 59.09,-201.91 53.8,-197.32"/>
</a>
</g>
</g>
<!-- Node3 -->
<g id="Node000003" class="node">
<title>Node3</title>
<g id="a_Node000003"><a xlink:title=" ">
<polygon fill="white" stroke="none" points="104,-260 73,-260 73,-208 104,-208 104,-260"/>
<text text-anchor="start" x="78" y="-246.5" font-family="Helvetica,sans-Serif" font-size="10.00">table</text>
<text text-anchor="start" x="87" y="-230.5" font-family="Helvetica,sans-Serif" font-size="10.00"> </text>
<text text-anchor="start" x="87" y="-214.5" font-family="Helvetica,sans-Serif" font-size="10.00"> </text>
<polygon fill="#666666" stroke="#666666" points="73,-242 73,-242 104,-242 104,-242 73,-242"/>
<polygon fill="#666666" stroke="#666666" points="73,-226 73,-226 104,-226 104,-226 73,-226"/>
<polygon fill="none" stroke="#666666" points="73,-208 73,-260 104,-260 104,-208 73,-208"/>
</a>
</g>
</g>
<!-- Node3&#45;&gt;Node1 -->
<g id="edge2_Node000001_Node000003" class="edge">
<title>Node3&#45;&gt;Node1</title>
<g id="a_edge2_Node000001_Node000003"><a xlink:title=" ">
<path fill="none" stroke="#63b8ff" d="M105.28,-198.12C112.4,-183.3 120.99,-165.45 129.39,-147.99"/>
<polygon fill="none" stroke="#63b8ff" points="102.21,-196.42 101.03,-206.95 108.52,-199.45 102.21,-196.42"/>
</a>
</g>
</g>
<!-- Node4 -->
<g id="Node000004" class="node">
<title>Node4</title>
<g id="a_Node000004"><a xlink:title=" ">
<polygon fill="white" stroke="none" points="151,-260 122,-260 122,-208 151,-208 151,-260"/>
<text text-anchor="start" x="126.75" y="-246.5" font-family="Helvetica,sans-Serif" font-size="10.00">True</text>
<text text-anchor="start" x="135" y="-230.5" font-family="Helvetica,sans-Serif" font-size="10.00"> </text>
<text text-anchor="start" x="135" y="-214.5" font-family="Helvetica,sans-Serif" font-size="10.00"> </text>
<polygon fill="#666666" stroke="#666666" points="122,-242 122,-242 151,-242 151,-242 122,-242"/>
<polygon fill="#666666" stroke="#666666" points="122,-226 122,-226 151,-226 151,-226 122,-226"/>
<polygon fill="none" stroke="#666666" points="122,-208 122,-260 151,-260 151,-208 122,-208"/>
</a>
</g>
</g>
<!-- Node4&#45;&gt;Node1 -->
<g id="edge3_Node000001_Node000004" class="edge">
<title>Node4&#45;&gt;Node1</title>
<g id="a_edge3_Node000001_Node000004"><a xlink:title=" ">
<path fill="none" stroke="#63b8ff" d="M142.84,-197.25C145.43,-182.61 148.53,-165.11 151.57,-147.99"/>
<polygon fill="none" stroke="#63b8ff" points="139.44,-196.36 141.14,-206.82 146.33,-197.59 139.44,-196.36"/>
</a>
</g>
</g>
<!-- Node5 -->
<g id="Node000005" class="node">
<title>Node5</title>
<g id="a_Node000005"><a xlink:title=" ">
<polygon fill="white" stroke="none" points="215.5,-260 169.5,-260 169.5,-208 215.5,-208 215.5,-260"/>
<text text-anchor="start" x="174.5" y="-246.5" font-family="Helvetica,sans-Serif" font-size="10.00">Optional</text>
<text text-anchor="start" x="191" y="-230.5" font-family="Helvetica,sans-Serif" font-size="10.00"> </text>
<text text-anchor="start" x="191" y="-214.5" font-family="Helvetica,sans-Serif" font-size="10.00"> </text>
<polygon fill="#666666" stroke="#666666" points="169.5,-242 169.5,-242 215.5,-242 215.5,-242 169.5,-242"/>
<polygon fill="#666666" stroke="#666666" points="169.5,-226 169.5,-226 215.5,-226 215.5,-226 169.5,-226"/>
<polygon fill="none" stroke="#666666" points="169.5,-208 169.5,-260 215.5,-260 215.5,-208 169.5,-208"/>
</a>
</g>
</g>
<!-- Node5&#45;&gt;Node1 -->
<g id="edge4_Node000001_Node000005" class="edge">
<title>Node5&#45;&gt;Node1</title>
<g id="a_edge4_Node000001_Node000005"><a xlink:title=" ">
<path fill="none" stroke="#63b8ff" d="M188.12,-208.31C185.8,-195.18 182.78,-178.17 179.69,-160.72"/>
<polygon fill="none" stroke="#63b8ff" points="179.69,-160.69 174.7,-155.48 177.59,-148.88 182.58,-154.09 179.69,-160.69"/>
</a>
</g>
<text text-anchor="middle" x="199.23" y="-180.5" font-family="Helvetica,sans-Serif" font-size="10.00" fill="grey"> +id</text>
<text text-anchor="middle" x="199.23" y="-168.5" font-family="Helvetica,sans-Serif" font-size="10.00" fill="grey">+name</text>
</g>
<!-- Node6 -->
<g id="Node000006" class="node">
<title>Node6</title>
<g id="a_Node000006"><a xlink:title=" ">
<polygon fill="white" stroke="none" points="261.5,-260 233.5,-260 233.5,-208 261.5,-208 261.5,-260"/>
<text text-anchor="start" x="238.5" y="-246.5" font-family="Helvetica,sans-Serif" font-size="10.00">Dict</text>
<text text-anchor="start" x="246" y="-230.5" font-family="Helvetica,sans-Serif" font-size="10.00"> </text>
<text text-anchor="start" x="246" y="-214.5" font-family="Helvetica,sans-Serif" font-size="10.00"> </text>
<polygon fill="#666666" stroke="#666666" points="233.5,-242 233.5,-242 261.5,-242 261.5,-242 233.5,-242"/>
<polygon fill="#666666" stroke="#666666" points="233.5,-226 233.5,-226 261.5,-226 261.5,-226 233.5,-226"/>
<polygon fill="none" stroke="#666666" points="233.5,-208 233.5,-260 261.5,-260 261.5,-208 233.5,-208"/>
</a>
</g>
</g>
<!-- Node6&#45;&gt;Node1 -->
<g id="edge5_Node000001_Node000006" class="edge">
<title>Node6&#45;&gt;Node1</title>
<g id="a_edge5_Node000001_Node000006"><a xlink:title=" ">
<path fill="none" stroke="#63b8ff" d="M237.63,-208.15C232.33,-195.37 225.47,-179.66 218.5,-166 217.36,-163.76 216.18,-161.5 214.98,-159.23"/>
<polygon fill="none" stroke="#63b8ff" points="214.94,-159.15 208.56,-155.78 209.22,-148.6 215.6,-151.97 214.94,-159.15"/>
</a>
</g>
<text text-anchor="middle" x="268.66" y="-180.5" font-family="Helvetica,sans-Serif" font-size="10.00" fill="grey"> +params_action</text>
<text text-anchor="middle" x="268.66" y="-168.5" font-family="Helvetica,sans-Serif" font-size="10.00" fill="grey">+params_reaction</text>
</g>
<!-- Node7 -->
<g id="Node000007" class="node">
<title>Node7</title>
<g id="a_Node000007"><a xlink:title=" ">
<polygon fill="white" stroke="none" points="371,-260 324,-260 324,-208 371,-208 371,-260"/>
<text text-anchor="start" x="328.75" y="-246.5" font-family="Helvetica,sans-Serif" font-size="10.00">datetime</text>
<text text-anchor="start" x="346" y="-230.5" font-family="Helvetica,sans-Serif" font-size="10.00"> </text>
<text text-anchor="start" x="346" y="-214.5" font-family="Helvetica,sans-Serif" font-size="10.00"> </text>
<polygon fill="#666666" stroke="#666666" points="324,-242 324,-242 371,-242 371,-242 324,-242"/>
<polygon fill="#666666" stroke="#666666" points="324,-226 324,-226 371,-226 371,-226 324,-226"/>
<polygon fill="none" stroke="#666666" points="324,-208 324,-260 371,-260 371,-208 324,-208"/>
</a>
</g>
</g>
<!-- Node7&#45;&gt;Node1 -->
<g id="edge6_Node000001_Node000007" class="edge">
<title>Node7&#45;&gt;Node1</title>
<g id="a_edge6_Node000001_Node000007"><a xlink:title=" ">
<path fill="none" stroke="#63b8ff" d="M337.9,-208.09C331.8,-194.54 322.9,-178.12 311.5,-166 289.01,-142.09 258.9,-122 231.79,-106.83"/>
<polygon fill="none" stroke="#63b8ff" points="231.73,-106.79 224.54,-107.44 221.18,-101.06 228.36,-100.41 231.73,-106.79"/>
</a>
</g>
<text text-anchor="middle" x="355.85" y="-180.5" font-family="Helvetica,sans-Serif" font-size="10.00" fill="grey"> +created_at</text>
<text text-anchor="middle" x="355.85" y="-168.5" font-family="Helvetica,sans-Serif" font-size="10.00" fill="grey">+updated_at</text>
</g>
</g>
</svg>
