<?xml version="1.0" encoding="UTF-8" standalone="no"?>
<!DOCTYPE svg PUBLIC "-//W3C//DTD SVG 1.1//EN"
 "http://www.w3.org/Graphics/SVG/1.1/DTD/svg11.dtd">
<!-- Generated by graphviz version 12.1.0 (20240811.2233)
 -->
<!-- Title: user.Token Pages: 1 -->
<svg width="66pt" height="148pt"
 viewBox="0.00 0.00 66.00 148.00" xmlns="http://www.w3.org/2000/svg" xmlns:xlink="http://www.w3.org/1999/xlink">
<g id="graph0" class="graph" transform="scale(1 1) rotate(0) translate(4 144)">
<title>user.Token</title>
<!-- Node1 -->
<g id="Node000001" class="node">
<title>Node1</title>
<g id="a_Node000001"><a xlink:title=" ">
<polygon fill="#999999" stroke="none" points="58,-52 0,-52 0,0 58,0 58,-52"/>
<text text-anchor="start" x="5" y="-38.5" font-family="Helvetica,sans-Serif" font-size="10.00">user.Token</text>
<text text-anchor="start" x="27.5" y="-22.5" font-family="Helvetica,sans-Serif" font-size="10.00"> </text>
<text text-anchor="start" x="27.5" y="-6.5" font-family="Helvetica,sans-Serif" font-size="10.00"> </text>
<polygon fill="#666666" stroke="#666666" points="0,-34 0,-34 58,-34 58,-34 0,-34"/>
<polygon fill="#666666" stroke="#666666" points="0,-18 0,-18 58,-18 58,-18 0,-18"/>
<polygon fill="none" stroke="#666666" points="0,0 0,-52 58,-52 58,0 0,0"/>
</a>
</g>
</g>
<!-- Node2 -->
<g id="Node000002" class="node">
<title>Node2</title>
<g id="a_Node000002"><a xlink:title=" ">
<polygon fill="white" stroke="none" points="58,-140 0,-140 0,-88 58,-88 58,-140"/>
<text text-anchor="start" x="4.62" y="-126.5" font-family="Helvetica,sans-Serif" font-size="10.00">BaseModel</text>
<text text-anchor="start" x="27.5" y="-110.5" font-family="Helvetica,sans-Serif" font-size="10.00"> </text>
<text text-anchor="start" x="27.5" y="-94.5" font-family="Helvetica,sans-Serif" font-size="10.00"> </text>
<polygon fill="#666666" stroke="#666666" points="0,-122 0,-122 58,-122 58,-122 0,-122"/>
<polygon fill="#666666" stroke="#666666" points="0,-106 0,-106 58,-106 58,-106 0,-106"/>
<polygon fill="none" stroke="#666666" points="0,-88 0,-140 58,-140 58,-88 0,-88"/>
</a>
</g>
</g>
<!-- Node2&#45;&gt;Node1 -->
<g id="edge1_Node000001_Node000002" class="edge">
<title>Node2&#45;&gt;Node1</title>
<g id="a_edge1_Node000001_Node000002"><a xlink:title=" ">
<path fill="none" stroke="#63b8ff" d="M29,-76.66C29,-68.29 29,-59.57 29,-51.82"/>
<polygon fill="none" stroke="#63b8ff" points="25.5,-76.61 29,-86.61 32.5,-76.61 25.5,-76.61"/>
</a>
</g>
</g>
</g>
</svg>
