<?xml version="1.0" encoding="UTF-8" standalone="no"?>
<!DOCTYPE svg PUBLIC "-//W3C//DTD SVG 1.1//EN"
 "http://www.w3.org/Graphics/SVG/1.1/DTD/svg11.dtd">
<!-- Generated by graphviz version 12.1.0 (20240811.2233)
 -->
<!-- Title: app.reaction.Reaction Pages: 1 -->
<svg width="231pt" height="300pt"
 viewBox="0.00 0.00 231.00 300.00" xmlns="http://www.w3.org/2000/svg" xmlns:xlink="http://www.w3.org/1999/xlink">
<g id="graph0" class="graph" transform="scale(1 1) rotate(0) translate(4 296)">
<title>app.reaction.Reaction</title>
<!-- Node1 -->
<g id="Node000001" class="node">
<title>Node1</title>
<g id="a_Node000001"><a xlink:title=" ">
<polygon fill="#999999" stroke="none" points="213,-52 108,-52 108,0 213,0 213,-52"/>
<text text-anchor="start" x="112.88" y="-38.5" font-family="Helvetica,sans-Serif" font-size="10.00">app.reaction.Reaction</text>
<text text-anchor="start" x="159" y="-22.5" font-family="Helvetica,sans-Serif" font-size="10.00"> </text>
<text text-anchor="start" x="159" y="-6.5" font-family="Helvetica,sans-Serif" font-size="10.00"> </text>
<polygon fill="#666666" stroke="#666666" points="108,-34 108,-34 213,-34 213,-34 108,-34"/>
<polygon fill="#666666" stroke="#666666" points="108,-18 108,-18 213,-18 213,-18 108,-18"/>
<polygon fill="none" stroke="#666666" points="108,0 108,-52 213,-52 213,0 108,0"/>
</a>
</g>
</g>
<!-- Node2 -->
<g id="Node000002" class="node">
<title>Node2</title>
<g id="a_Node000002"><a xlink:href="classapp_1_1reaction_1_1BaseReaction.html" target="_top" xlink:title=" ">
<polygon fill="white" stroke="none" points="127,-204 0,-204 0,-88 127,-88 127,-204"/>
<text text-anchor="start" x="4.62" y="-190.5" font-family="Helvetica,sans-Serif" font-size="10.00">app.reaction.BaseReaction</text>
<text text-anchor="start" x="19" y="-174.5" font-family="Helvetica,sans-Serif" font-size="10.00">+</text>
<text text-anchor="start" x="44" y="-174.5" font-family="Helvetica,sans-Serif" font-size="10.00">id</text>
<text text-anchor="start" x="19" y="-158.5" font-family="Helvetica,sans-Serif" font-size="10.00">+</text>
<text text-anchor="start" x="44" y="-158.5" font-family="Helvetica,sans-Serif" font-size="10.00">description</text>
<text text-anchor="start" x="19" y="-142.5" font-family="Helvetica,sans-Serif" font-size="10.00">+</text>
<text text-anchor="start" x="44" y="-142.5" font-family="Helvetica,sans-Serif" font-size="10.00">url</text>
<text text-anchor="start" x="19" y="-126.5" font-family="Helvetica,sans-Serif" font-size="10.00">+</text>
<text text-anchor="start" x="44" y="-126.5" font-family="Helvetica,sans-Serif" font-size="10.00">parameters</text>
<text text-anchor="start" x="19" y="-110.5" font-family="Helvetica,sans-Serif" font-size="10.00">+</text>
<text text-anchor="start" x="44" y="-110.5" font-family="Helvetica,sans-Serif" font-size="10.00">service_id</text>
<text text-anchor="start" x="62" y="-94.5" font-family="Helvetica,sans-Serif" font-size="10.00"> </text>
<polygon fill="#666666" stroke="#666666" points="0,-186 0,-186 127,-186 127,-186 0,-186"/>
<polygon fill="#666666" stroke="#666666" points="0,-106 0,-106 42,-106 42,-106 0,-106"/>
<polygon fill="#666666" stroke="#666666" points="42,-106 42,-106 127,-106 127,-106 42,-106"/>
<polygon fill="none" stroke="#666666" points="0,-88 0,-204 127,-204 127,-88 0,-88"/>
</a>
</g>
</g>
<!-- Node2&#45;&gt;Node1 -->
<g id="edge1_Node000001_Node000002" class="edge">
<title>Node2&#45;&gt;Node1</title>
<g id="a_edge1_Node000001_Node000002"><a xlink:title=" ">
<path fill="none" stroke="#63b8ff" d="M117.4,-79.43C125.45,-69.63 133.31,-60.08 140.05,-51.87"/>
<polygon fill="none" stroke="#63b8ff" points="114.9,-76.96 111.26,-86.9 120.31,-81.4 114.9,-76.96"/>
</a>
</g>
</g>
<!-- Node3 -->
<g id="Node000003" class="node">
<title>Node3</title>
<g id="a_Node000003"><a xlink:title=" ">
<polygon fill="white" stroke="none" points="91,-292 36,-292 36,-240 91,-240 91,-292"/>
<text text-anchor="start" x="40.62" y="-278.5" font-family="Helvetica,sans-Serif" font-size="10.00">SQLModel</text>
<text text-anchor="start" x="62" y="-262.5" font-family="Helvetica,sans-Serif" font-size="10.00"> </text>
<text text-anchor="start" x="62" y="-246.5" font-family="Helvetica,sans-Serif" font-size="10.00"> </text>
<polygon fill="#666666" stroke="#666666" points="36,-274 36,-274 91,-274 91,-274 36,-274"/>
<polygon fill="#666666" stroke="#666666" points="36,-258 36,-258 91,-258 91,-258 36,-258"/>
<polygon fill="none" stroke="#666666" points="36,-240 36,-292 91,-292 91,-240 36,-240"/>
</a>
</g>
</g>
<!-- Node3&#45;&gt;Node2 -->
<g id="edge2_Node000002_Node000003" class="edge">
<title>Node3&#45;&gt;Node2</title>
<g id="a_edge2_Node000002_Node000003"><a xlink:title=" ">
<path fill="none" stroke="#63b8ff" d="M63.5,-228.82C63.5,-220.89 63.5,-212.31 63.5,-203.79"/>
<polygon fill="none" stroke="#63b8ff" points="60,-228.75 63.5,-238.75 67,-228.75 60,-228.75"/>
</a>
</g>
</g>
<!-- Node4 -->
<g id="Node000004" class="node">
<title>Node4</title>
<g id="a_Node000004"><a xlink:title=" ">
<polygon fill="white" stroke="none" points="176,-172 145,-172 145,-120 176,-120 176,-172"/>
<text text-anchor="start" x="150" y="-158.5" font-family="Helvetica,sans-Serif" font-size="10.00">table</text>
<text text-anchor="start" x="159" y="-142.5" font-family="Helvetica,sans-Serif" font-size="10.00"> </text>
<text text-anchor="start" x="159" y="-126.5" font-family="Helvetica,sans-Serif" font-size="10.00"> </text>
<polygon fill="#666666" stroke="#666666" points="145,-154 145,-154 176,-154 176,-154 145,-154"/>
<polygon fill="#666666" stroke="#666666" points="145,-138 145,-138 176,-138 176,-138 145,-138"/>
<polygon fill="none" stroke="#666666" points="145,-120 145,-172 176,-172 176,-120 145,-120"/>
</a>
</g>
</g>
<!-- Node4&#45;&gt;Node1 -->
<g id="edge3_Node000001_Node000004" class="edge">
<title>Node4&#45;&gt;Node1</title>
<g id="a_edge3_Node000001_Node000004"><a xlink:title=" ">
<path fill="none" stroke="#63b8ff" d="M160.5,-108.98C160.5,-90.43 160.5,-68.3 160.5,-51.7"/>
<polygon fill="none" stroke="#63b8ff" points="157,-108.75 160.5,-118.75 164,-108.75 157,-108.75"/>
</a>
</g>
</g>
<!-- Node5 -->
<g id="Node000005" class="node">
<title>Node5</title>
<g id="a_Node000005"><a xlink:title=" ">
<polygon fill="white" stroke="none" points="223,-172 194,-172 194,-120 223,-120 223,-172"/>
<text text-anchor="start" x="198.75" y="-158.5" font-family="Helvetica,sans-Serif" font-size="10.00">True</text>
<text text-anchor="start" x="207" y="-142.5" font-family="Helvetica,sans-Serif" font-size="10.00"> </text>
<text text-anchor="start" x="207" y="-126.5" font-family="Helvetica,sans-Serif" font-size="10.00"> </text>
<polygon fill="#666666" stroke="#666666" points="194,-154 194,-154 223,-154 223,-154 194,-154"/>
<polygon fill="#666666" stroke="#666666" points="194,-138 194,-138 223,-138 223,-138 194,-138"/>
<polygon fill="none" stroke="#666666" points="194,-120 194,-172 223,-172 223,-120 194,-120"/>
</a>
</g>
</g>
<!-- Node5&#45;&gt;Node1 -->
<g id="edge4_Node000001_Node000005" class="edge">
<title>Node5&#45;&gt;Node1</title>
<g id="a_edge4_Node000001_Node000005"><a xlink:title=" ">
<path fill="none" stroke="#63b8ff" d="M194.22,-109.53C191.34,-102.4 188.33,-94.96 185.5,-88 180.67,-76.13 175.28,-62.97 170.75,-51.92"/>
<polygon fill="none" stroke="#63b8ff" points="190.9,-110.65 197.89,-118.61 197.39,-108.03 190.9,-110.65"/>
</a>
</g>
</g>
</g>
</svg>
