<?xml version="1.0" encoding="UTF-8" standalone="no"?>
<!DOCTYPE svg PUBLIC "-//W3C//DTD SVG 1.1//EN"
 "http://www.w3.org/Graphics/SVG/1.1/DTD/svg11.dtd">
<!-- Generated by graphviz version 12.1.0 (20240811.2233)
 -->
<!-- Title: app.user.BaseUser Pages: 1 -->
<svg width="218pt" height="268pt"
 viewBox="0.00 0.00 218.00 268.00" xmlns="http://www.w3.org/2000/svg" xmlns:xlink="http://www.w3.org/1999/xlink">
<g id="graph0" class="graph" transform="scale(1 1) rotate(0) translate(4 264)">
<title>app.user.BaseUser</title>
<!-- Node1 -->
<g id="Node000001" class="node">
<title>Node1</title>
<g id="a_Node000001"><a xlink:title=" ">
<polygon fill="#999999" stroke="none" points="164.5,-172 70.5,-172 70.5,-104 164.5,-104 164.5,-172"/>
<text text-anchor="start" x="75.5" y="-158.5" font-family="Helvetica,sans-Serif" font-size="10.00">app.user.BaseUser</text>
<text text-anchor="start" x="87.5" y="-142.5" font-family="Helvetica,sans-Serif" font-size="10.00">+</text>
<text text-anchor="start" x="110.5" y="-142.5" font-family="Helvetica,sans-Serif" font-size="10.00">id</text>
<text text-anchor="start" x="87.5" y="-126.5" font-family="Helvetica,sans-Serif" font-size="10.00">+</text>
<text text-anchor="start" x="110.5" y="-126.5" font-family="Helvetica,sans-Serif" font-size="10.00">email</text>
<text text-anchor="start" x="116" y="-110.5" font-family="Helvetica,sans-Serif" font-size="10.00"> </text>
<polygon fill="#666666" stroke="#666666" points="70.5,-154 70.5,-154 164.5,-154 164.5,-154 70.5,-154"/>
<polygon fill="#666666" stroke="#666666" points="70.5,-122 70.5,-122 108.5,-122 108.5,-122 70.5,-122"/>
<polygon fill="#666666" stroke="#666666" points="108.5,-122 108.5,-122 164.5,-122 164.5,-122 108.5,-122"/>
<polygon fill="none" stroke="#666666" points="70.5,-104 70.5,-172 164.5,-172 164.5,-104 70.5,-104"/>
</a>
</g>
</g>
<!-- Node3 -->
<g id="Node000003" class="node">
<title>Node3</title>
<g id="a_Node000003"><a xlink:href="classapp_1_1user_1_1RegisteringUser.html" target="_top" xlink:title=" ">
<polygon fill="white" stroke="none" points="121,-60 0,-60 0,-8 121,-8 121,-60"/>
<text text-anchor="start" x="5" y="-46.5" font-family="Helvetica,sans-Serif" font-size="10.00">app.user.RegisteringUser</text>
<text text-anchor="start" x="59" y="-30.5" font-family="Helvetica,sans-Serif" font-size="10.00"> </text>
<text text-anchor="start" x="59" y="-14.5" font-family="Helvetica,sans-Serif" font-size="10.00"> </text>
<polygon fill="#666666" stroke="#666666" points="0,-42 0,-42 121,-42 121,-42 0,-42"/>
<polygon fill="#666666" stroke="#666666" points="0,-26 0,-26 121,-26 121,-26 0,-26"/>
<polygon fill="none" stroke="#666666" points="0,-8 0,-60 121,-60 121,-8 0,-8"/>
</a>
</g>
</g>
<!-- Node1&#45;&gt;Node3 -->
<g id="edge2_Node000001_Node000003" class="edge">
<title>Node1&#45;&gt;Node3</title>
<g id="a_edge2_Node000001_Node000003"><a xlink:title=" ">
<path fill="none" stroke="#63b8ff" d="M93.71,-94.42C87.09,-82.58 80.13,-70.12 74.29,-59.68"/>
<polygon fill="none" stroke="#63b8ff" points="90.48,-95.82 98.41,-102.84 96.59,-92.41 90.48,-95.82"/>
</a>
</g>
</g>
<!-- Node4 -->
<g id="Node000004" class="node">
<title>Node4</title>
<g id="a_Node000004"><a xlink:href="classapp_1_1user_1_1User.html" target="_top" xlink:title=" ">
<polygon fill="white" stroke="none" points="210,-68 139,-68 139,0 210,0 210,-68"/>
<text text-anchor="start" x="143.75" y="-54.5" font-family="Helvetica,sans-Serif" font-size="10.00">app.user.User</text>
<text text-anchor="start" x="149.5" y="-38.5" font-family="Helvetica,sans-Serif" font-size="10.00">+</text>
<text text-anchor="start" x="166" y="-38.5" font-family="Helvetica,sans-Serif" font-size="10.00">image</text>
<text text-anchor="start" x="149.5" y="-22.5" font-family="Helvetica,sans-Serif" font-size="10.00">+</text>
<text text-anchor="start" x="166" y="-22.5" font-family="Helvetica,sans-Serif" font-size="10.00">role</text>
<text text-anchor="start" x="173" y="-6.5" font-family="Helvetica,sans-Serif" font-size="10.00"> </text>
<polygon fill="#666666" stroke="#666666" points="139,-50 139,-50 210,-50 210,-50 139,-50"/>
<polygon fill="#666666" stroke="#666666" points="139,-18 139,-18 164,-18 164,-18 139,-18"/>
<polygon fill="#666666" stroke="#666666" points="164,-18 164,-18 210,-18 210,-18 164,-18"/>
<polygon fill="none" stroke="#666666" points="139,0 139,-68 210,-68 210,0 139,0"/>
</a>
</g>
</g>
<!-- Node1&#45;&gt;Node4 -->
<g id="edge3_Node000001_Node000004" class="edge">
<title>Node1&#45;&gt;Node4</title>
<g id="a_edge3_Node000001_Node000004"><a xlink:title=" ">
<path fill="none" stroke="#63b8ff" d="M141.34,-94.34C146.3,-85.46 151.46,-76.23 156.19,-67.77"/>
<polygon fill="none" stroke="#63b8ff" points="138.41,-92.41 136.59,-102.84 144.52,-95.82 138.41,-92.41"/>
</a>
</g>
</g>
<!-- Node2 -->
<g id="Node000002" class="node">
<title>Node2</title>
<g id="a_Node000002"><a xlink:title=" ">
<polygon fill="white" stroke="none" points="145,-260 90,-260 90,-208 145,-208 145,-260"/>
<text text-anchor="start" x="94.62" y="-246.5" font-family="Helvetica,sans-Serif" font-size="10.00">SQLModel</text>
<text text-anchor="start" x="116" y="-230.5" font-family="Helvetica,sans-Serif" font-size="10.00"> </text>
<text text-anchor="start" x="116" y="-214.5" font-family="Helvetica,sans-Serif" font-size="10.00"> </text>
<polygon fill="#666666" stroke="#666666" points="90,-242 90,-242 145,-242 145,-242 90,-242"/>
<polygon fill="#666666" stroke="#666666" points="90,-226 90,-226 145,-226 145,-226 90,-226"/>
<polygon fill="none" stroke="#666666" points="90,-208 90,-260 145,-260 145,-208 90,-208"/>
</a>
</g>
</g>
<!-- Node2&#45;&gt;Node1 -->
<g id="edge1_Node000001_Node000002" class="edge">
<title>Node2&#45;&gt;Node1</title>
<g id="a_edge1_Node000001_Node000002"><a xlink:title=" ">
<path fill="none" stroke="#63b8ff" d="M117.5,-196.97C117.5,-188.65 117.5,-179.84 117.5,-171.67"/>
<polygon fill="none" stroke="#63b8ff" points="114,-196.79 117.5,-206.79 121,-196.79 114,-196.79"/>
</a>
</g>
</g>
</g>
</svg>
