<?xml version="1.0" encoding="UTF-8" standalone="no"?>
<!DOCTYPE svg PUBLIC "-//W3C//DTD SVG 1.1//EN"
 "http://www.w3.org/Graphics/SVG/1.1/DTD/svg11.dtd">
<!-- Generated by graphviz version 12.1.0 (20240811.2233)
 -->
<!-- Title: app.reaction.BaseReaction Pages: 1 -->
<svg width="152pt" height="208pt"
 viewBox="0.00 0.00 152.41 208.00" xmlns="http://www.w3.org/2000/svg" xmlns:xlink="http://www.w3.org/1999/xlink">
<g id="graph0" class="graph" transform="scale(1 1) rotate(0) translate(4 204)">
<title>app.reaction.BaseReaction</title>
<!-- Node1 -->
<g id="Node000001" class="node">
<title>Node1</title>
<g id="a_Node000001"><a xlink:title=" ">
<polygon fill="#999999" stroke="none" points="127,-52 0,-52 0,0 127,0 127,-52"/>
<text text-anchor="start" x="4.62" y="-38.5" font-family="Helvetica,sans-Serif" font-size="10.00">app.reaction.BaseReaction</text>
<text text-anchor="start" x="62" y="-22.5" font-family="Helvetica,sans-Serif" font-size="10.00"> </text>
<text text-anchor="start" x="62" y="-6.5" font-family="Helvetica,sans-Serif" font-size="10.00"> </text>
<polygon fill="#666666" stroke="#666666" points="0,-34 0,-34 127,-34 127,-34 0,-34"/>
<polygon fill="#666666" stroke="#666666" points="0,-18 0,-18 127,-18 127,-18 0,-18"/>
<polygon fill="none" stroke="#666666" points="0,0 0,-52 127,-52 127,0 0,0"/>
</a>
</g>
</g>
<!-- Node2 -->
<g id="Node000002" class="node">
<title>Node2</title>
<g id="a_Node000002"><a xlink:title=" ">
<polygon fill="white" stroke="none" points="57,-200 2,-200 2,-148 57,-148 57,-200"/>
<text text-anchor="start" x="6.62" y="-186.5" font-family="Helvetica,sans-Serif" font-size="10.00">SQLModel</text>
<text text-anchor="start" x="28" y="-170.5" font-family="Helvetica,sans-Serif" font-size="10.00"> </text>
<text text-anchor="start" x="28" y="-154.5" font-family="Helvetica,sans-Serif" font-size="10.00"> </text>
<polygon fill="#666666" stroke="#666666" points="2,-182 2,-182 57,-182 57,-182 2,-182"/>
<polygon fill="#666666" stroke="#666666" points="2,-166 2,-166 57,-166 57,-166 2,-166"/>
<polygon fill="none" stroke="#666666" points="2,-148 2,-200 57,-200 57,-148 2,-148"/>
</a>
</g>
</g>
<!-- Node2&#45;&gt;Node1 -->
<g id="edge1_Node000001_Node000002" class="edge">
<title>Node2&#45;&gt;Node1</title>
<g id="a_edge1_Node000001_Node000002"><a xlink:title=" ">
<path fill="none" stroke="#63b8ff" d="M37.85,-137.13C44.02,-110.66 52.25,-75.32 57.7,-51.89"/>
<polygon fill="none" stroke="#63b8ff" points="34.47,-136.23 35.61,-146.76 41.29,-137.81 34.47,-136.23"/>
</a>
</g>
</g>
<!-- Node3 -->
<g id="Node000003" class="node">
<title>Node3</title>
<g id="a_Node000003"><a xlink:title=" ">
<polygon fill="white" stroke="none" points="121.5,-200 75.5,-200 75.5,-148 121.5,-148 121.5,-200"/>
<text text-anchor="start" x="80.5" y="-186.5" font-family="Helvetica,sans-Serif" font-size="10.00">Optional</text>
<text text-anchor="start" x="97" y="-170.5" font-family="Helvetica,sans-Serif" font-size="10.00"> </text>
<text text-anchor="start" x="97" y="-154.5" font-family="Helvetica,sans-Serif" font-size="10.00"> </text>
<polygon fill="#666666" stroke="#666666" points="75.5,-182 75.5,-182 121.5,-182 121.5,-182 75.5,-182"/>
<polygon fill="#666666" stroke="#666666" points="75.5,-166 75.5,-166 121.5,-166 121.5,-166 75.5,-166"/>
<polygon fill="none" stroke="#666666" points="75.5,-148 75.5,-200 121.5,-200 121.5,-148 75.5,-148"/>
</a>
</g>
</g>
<!-- Node3&#45;&gt;Node1 -->
<g id="edge2_Node000001_Node000003" class="edge">
<title>Node3&#45;&gt;Node1</title>
<g id="a_edge2_Node000001_Node000003"><a xlink:title=" ">
<path fill="none" stroke="#63b8ff" d="M92.56,-148.23C87.06,-125.27 78.79,-90.77 72.48,-64.44"/>
<polygon fill="none" stroke="#63b8ff" points="72.47,-64.43 67.19,-59.53 69.68,-52.76 74.97,-57.67 72.47,-64.43"/>
</a>
</g>
<text text-anchor="middle" x="116.28" y="-120.5" font-family="Helvetica,sans-Serif" font-size="10.00" fill="grey"> +description</text>
<text text-anchor="middle" x="116.28" y="-108.5" font-family="Helvetica,sans-Serif" font-size="10.00" fill="grey">+id</text>
<text text-anchor="middle" x="116.28" y="-96.5" font-family="Helvetica,sans-Serif" font-size="10.00" fill="grey">+parameters</text>
<text text-anchor="middle" x="116.28" y="-84.5" font-family="Helvetica,sans-Serif" font-size="10.00" fill="grey">+service_id</text>
<text text-anchor="middle" x="116.28" y="-72.5" font-family="Helvetica,sans-Serif" font-size="10.00" fill="grey">+url</text>
</g>
</g>
</svg>
