<?xml version="1.0" encoding="UTF-8" standalone="no"?>
<!DOCTYPE svg PUBLIC "-//W3C//DTD SVG 1.1//EN"
 "http://www.w3.org/Graphics/SVG/1.1/DTD/svg11.dtd">
<!-- Generated by graphviz version 12.1.0 (20240811.2233)
 -->
<!-- Title: app.schemas.services.AreaActionDetail Pages: 1 -->
<svg width="139pt" height="160pt"
 viewBox="0.00 0.00 139.00 160.00" xmlns="http://www.w3.org/2000/svg" xmlns:xlink="http://www.w3.org/1999/xlink">
<g id="graph0" class="graph" transform="scale(1 1) rotate(0) translate(4 156)">
<title>app.schemas.services.AreaActionDetail</title>
<!-- Node1 -->
<g id="Node000001" class="node">
<title>Node1</title>
<g id="a_Node000001"><a xlink:title=" ">
<polygon fill="#999999" stroke="none" points="131,-64 0,-64 0,0 131,0 131,-64"/>
<text text-anchor="start" x="4.75" y="-50.5" font-family="Helvetica,sans-Serif" font-size="10.00">app.schemas.services.Area</text>
<text text-anchor="start" x="38.88" y="-38.5" font-family="Helvetica,sans-Serif" font-size="10.00">ActionDetail</text>
<text text-anchor="start" x="64" y="-22.5" font-family="Helvetica,sans-Serif" font-size="10.00"> </text>
<text text-anchor="start" x="64" y="-6.5" font-family="Helvetica,sans-Serif" font-size="10.00"> </text>
<polygon fill="#666666" stroke="#666666" points="0,-34 0,-34 131,-34 131,-34 0,-34"/>
<polygon fill="#666666" stroke="#666666" points="0,-18 0,-18 131,-18 131,-18 0,-18"/>
<polygon fill="none" stroke="#666666" points="0,0 0,-64 131,-64 131,0 0,0"/>
</a>
</g>
</g>
<!-- Node2 -->
<g id="Node000002" class="node">
<title>Node2</title>
<g id="a_Node000002"><a xlink:title=" ">
<polygon fill="white" stroke="none" points="93,-152 38,-152 38,-100 93,-100 93,-152"/>
<text text-anchor="start" x="42.62" y="-138.5" font-family="Helvetica,sans-Serif" font-size="10.00">SQLModel</text>
<text text-anchor="start" x="64" y="-122.5" font-family="Helvetica,sans-Serif" font-size="10.00"> </text>
<text text-anchor="start" x="64" y="-106.5" font-family="Helvetica,sans-Serif" font-size="10.00"> </text>
<polygon fill="#666666" stroke="#666666" points="38,-134 38,-134 93,-134 93,-134 38,-134"/>
<polygon fill="#666666" stroke="#666666" points="38,-118 38,-118 93,-118 93,-118 38,-118"/>
<polygon fill="none" stroke="#666666" points="38,-100 38,-152 93,-152 93,-100 38,-100"/>
</a>
</g>
</g>
<!-- Node2&#45;&gt;Node1 -->
<g id="edge1_Node000001_Node000002" class="edge">
<title>Node2&#45;&gt;Node1</title>
<g id="a_edge1_Node000001_Node000002"><a xlink:title=" ">
<path fill="none" stroke="#63b8ff" d="M65.5,-89.06C65.5,-80.78 65.5,-72.04 65.5,-63.98"/>
<polygon fill="none" stroke="#63b8ff" points="62,-88.83 65.5,-98.83 69,-88.83 62,-88.83"/>
</a>
</g>
</g>
</g>
</svg>
