<?xml version="1.0" encoding="UTF-8" standalone="no"?>
<!DOCTYPE svg PUBLIC "-//W3C//DTD SVG 1.1//EN"
 "http://www.w3.org/Graphics/SVG/1.1/DTD/svg11.dtd">
<!-- Generated by graphviz version 12.1.0 (20240811.2233)
 -->
<!-- Title: app.user_action.UserAction Pages: 1 -->
<svg width="236pt" height="208pt"
 viewBox="0.00 0.00 235.58 208.00" xmlns="http://www.w3.org/2000/svg" xmlns:xlink="http://www.w3.org/1999/xlink">
<g id="graph0" class="graph" transform="scale(1 1) rotate(0) translate(4 204)">
<title>app.user_action.UserAction</title>
<!-- Node1 -->
<g id="Node000001" class="node">
<title>Node1</title>
<g id="a_Node000001"><a xlink:title=" ">
<polygon fill="#999999" stroke="none" points="177.5,-52 47.5,-52 47.5,0 177.5,0 177.5,-52"/>
<text text-anchor="start" x="52.12" y="-38.5" font-family="Helvetica,sans-Serif" font-size="10.00">app.user_action.UserAction</text>
<text text-anchor="start" x="111" y="-22.5" font-family="Helvetica,sans-Serif" font-size="10.00"> </text>
<text text-anchor="start" x="111" y="-6.5" font-family="Helvetica,sans-Serif" font-size="10.00"> </text>
<polygon fill="#666666" stroke="#666666" points="47.5,-34 47.5,-34 177.5,-34 177.5,-34 47.5,-34"/>
<polygon fill="#666666" stroke="#666666" points="47.5,-18 47.5,-18 177.5,-18 177.5,-18 47.5,-18"/>
<polygon fill="none" stroke="#666666" points="47.5,0 47.5,-52 177.5,-52 177.5,0 47.5,0"/>
</a>
</g>
</g>
<!-- Node2 -->
<g id="Node000002" class="node">
<title>Node2</title>
<g id="a_Node000002"><a xlink:title=" ">
<polygon fill="white" stroke="none" points="55,-200 0,-200 0,-148 55,-148 55,-200"/>
<text text-anchor="start" x="4.62" y="-186.5" font-family="Helvetica,sans-Serif" font-size="10.00">SQLModel</text>
<text text-anchor="start" x="26" y="-170.5" font-family="Helvetica,sans-Serif" font-size="10.00"> </text>
<text text-anchor="start" x="26" y="-154.5" font-family="Helvetica,sans-Serif" font-size="10.00"> </text>
<polygon fill="#666666" stroke="#666666" points="0,-182 0,-182 55,-182 55,-182 0,-182"/>
<polygon fill="#666666" stroke="#666666" points="0,-166 0,-166 55,-166 55,-166 0,-166"/>
<polygon fill="none" stroke="#666666" points="0,-148 0,-200 55,-200 55,-148 0,-148"/>
</a>
</g>
</g>
<!-- Node2&#45;&gt;Node1 -->
<g id="edge1_Node000001_Node000002" class="edge">
<title>Node2&#45;&gt;Node1</title>
<g id="a_edge1_Node000001_Node000002"><a xlink:title=" ">
<path fill="none" stroke="#63b8ff" d="M47.56,-138.55C63.05,-111.94 84.13,-75.74 98.01,-51.89"/>
<polygon fill="none" stroke="#63b8ff" points="44.69,-136.52 42.68,-146.93 50.74,-140.04 44.69,-136.52"/>
</a>
</g>
</g>
<!-- Node3 -->
<g id="Node000003" class="node">
<title>Node3</title>
<g id="a_Node000003"><a xlink:title=" ">
<polygon fill="white" stroke="none" points="104,-200 73,-200 73,-148 104,-148 104,-200"/>
<text text-anchor="start" x="78" y="-186.5" font-family="Helvetica,sans-Serif" font-size="10.00">table</text>
<text text-anchor="start" x="87" y="-170.5" font-family="Helvetica,sans-Serif" font-size="10.00"> </text>
<text text-anchor="start" x="87" y="-154.5" font-family="Helvetica,sans-Serif" font-size="10.00"> </text>
<polygon fill="#666666" stroke="#666666" points="73,-182 73,-182 104,-182 104,-182 73,-182"/>
<polygon fill="#666666" stroke="#666666" points="73,-166 73,-166 104,-166 104,-166 73,-166"/>
<polygon fill="none" stroke="#666666" points="73,-148 73,-200 104,-200 104,-148 73,-148"/>
</a>
</g>
</g>
<!-- Node3&#45;&gt;Node1 -->
<g id="edge2_Node000001_Node000003" class="edge">
<title>Node3&#45;&gt;Node1</title>
<g id="a_edge2_Node000001_Node000003"><a xlink:title=" ">
<path fill="none" stroke="#63b8ff" d="M94.4,-137.13C98.75,-110.66 104.56,-75.32 108.41,-51.89"/>
<polygon fill="none" stroke="#63b8ff" points="90.99,-136.3 92.82,-146.74 97.89,-137.44 90.99,-136.3"/>
</a>
</g>
</g>
<!-- Node4 -->
<g id="Node000004" class="node">
<title>Node4</title>
<g id="a_Node000004"><a xlink:title=" ">
<polygon fill="white" stroke="none" points="151,-200 122,-200 122,-148 151,-148 151,-200"/>
<text text-anchor="start" x="126.75" y="-186.5" font-family="Helvetica,sans-Serif" font-size="10.00">True</text>
<text text-anchor="start" x="135" y="-170.5" font-family="Helvetica,sans-Serif" font-size="10.00"> </text>
<text text-anchor="start" x="135" y="-154.5" font-family="Helvetica,sans-Serif" font-size="10.00"> </text>
<polygon fill="#666666" stroke="#666666" points="122,-182 122,-182 151,-182 151,-182 122,-182"/>
<polygon fill="#666666" stroke="#666666" points="122,-166 122,-166 151,-166 151,-166 122,-166"/>
<polygon fill="none" stroke="#666666" points="122,-148 122,-200 151,-200 151,-148 122,-148"/>
</a>
</g>
</g>
<!-- Node4&#45;&gt;Node1 -->
<g id="edge3_Node000001_Node000004" class="edge">
<title>Node4&#45;&gt;Node1</title>
<g id="a_edge3_Node000001_Node000004"><a xlink:title=" ">
<path fill="none" stroke="#63b8ff" d="M130.6,-137.13C126.25,-110.66 120.44,-75.32 116.59,-51.89"/>
<polygon fill="none" stroke="#63b8ff" points="127.11,-137.44 132.18,-146.74 134.01,-136.3 127.11,-137.44"/>
</a>
</g>
</g>
<!-- Node5 -->
<g id="Node000005" class="node">
<title>Node5</title>
<g id="a_Node000005"><a xlink:title=" ">
<polygon fill="white" stroke="none" points="215.5,-200 169.5,-200 169.5,-148 215.5,-148 215.5,-200"/>
<text text-anchor="start" x="174.5" y="-186.5" font-family="Helvetica,sans-Serif" font-size="10.00">Optional</text>
<text text-anchor="start" x="191" y="-170.5" font-family="Helvetica,sans-Serif" font-size="10.00"> </text>
<text text-anchor="start" x="191" y="-154.5" font-family="Helvetica,sans-Serif" font-size="10.00"> </text>
<polygon fill="#666666" stroke="#666666" points="169.5,-182 169.5,-182 215.5,-182 215.5,-182 169.5,-182"/>
<polygon fill="#666666" stroke="#666666" points="169.5,-166 169.5,-166 215.5,-166 215.5,-166 169.5,-166"/>
<polygon fill="none" stroke="#666666" points="169.5,-148 169.5,-200 215.5,-200 215.5,-148 169.5,-148"/>
</a>
</g>
</g>
<!-- Node5&#45;&gt;Node1 -->
<g id="edge4_Node000001_Node000005" class="edge">
<title>Node5&#45;&gt;Node1</title>
<g id="a_edge4_Node000001_Node000005"><a xlink:title=" ">
<path fill="none" stroke="#63b8ff" d="M180.04,-148.22C169.36,-127.21 153.37,-96.38 138.5,-70 137.19,-67.68 135.83,-65.31 134.44,-62.93"/>
<polygon fill="none" stroke="#63b8ff" points="134.46,-62.96 127.96,-59.84 128.34,-52.64 134.84,-55.76 134.46,-62.96"/>
</a>
</g>
<text text-anchor="middle" x="198.71" y="-120.5" font-family="Helvetica,sans-Serif" font-size="10.00" fill="grey"> +hook_url</text>
<text text-anchor="middle" x="198.71" y="-108.5" font-family="Helvetica,sans-Serif" font-size="10.00" fill="grey">+id</text>
<text text-anchor="start" x="169.83" y="-96.5" font-family="Helvetica,sans-Serif" font-size="10.00" fill="grey">+linked_base</text>
<text text-anchor="middle" x="198.71" y="-84.5" font-family="Helvetica,sans-Serif" font-size="10.00" fill="grey">_action</text>
<text text-anchor="middle" x="198.71" y="-72.5" font-family="Helvetica,sans-Serif" font-size="10.00" fill="grey">+parameters</text>
</g>
</g>
</svg>
