<?xml version="1.0" encoding="UTF-8" standalone="no"?>
<!DOCTYPE svg PUBLIC "-//W3C//DTD SVG 1.1//EN"
 "http://www.w3.org/Graphics/SVG/1.1/DTD/svg11.dtd">
<!-- Generated by graphviz version 12.1.0 (20240811.2233)
 -->
<!-- Title: app.schemas.services.ServiceBasicRead Pages: 1 -->
<svg width="152pt" height="176pt"
 viewBox="0.00 0.00 152.00 176.00" xmlns="http://www.w3.org/2000/svg" xmlns:xlink="http://www.w3.org/1999/xlink">
<g id="graph0" class="graph" transform="scale(1 1) rotate(0) translate(4 172)">
<title>app.schemas.services.ServiceBasicRead</title>
<!-- Node1 -->
<g id="Node000001" class="node">
<title>Node1</title>
<g id="a_Node000001"><a xlink:title=" ">
<polygon fill="#999999" stroke="none" points="144,-80 0,-80 0,0 144,0 144,-80"/>
<text text-anchor="start" x="4.88" y="-66.5" font-family="Helvetica,sans-Serif" font-size="10.00">app.schemas.services.Service</text>
<text text-anchor="start" x="48" y="-54.5" font-family="Helvetica,sans-Serif" font-size="10.00">BasicRead</text>
<text text-anchor="start" x="23.5" y="-38.5" font-family="Helvetica,sans-Serif" font-size="10.00">+</text>
<text text-anchor="start" x="53" y="-38.5" font-family="Helvetica,sans-Serif" font-size="10.00">description</text>
<text text-anchor="start" x="23.5" y="-22.5" font-family="Helvetica,sans-Serif" font-size="10.00">+</text>
<text text-anchor="start" x="53" y="-22.5" font-family="Helvetica,sans-Serif" font-size="10.00">icon_url</text>
<text text-anchor="start" x="70.5" y="-6.5" font-family="Helvetica,sans-Serif" font-size="10.00"> </text>
<polygon fill="#666666" stroke="#666666" points="0,-50 0,-50 144,-50 144,-50 0,-50"/>
<polygon fill="#666666" stroke="#666666" points="0,-18 0,-18 51,-18 51,-18 0,-18"/>
<polygon fill="#666666" stroke="#666666" points="51,-18 51,-18 144,-18 144,-18 51,-18"/>
<polygon fill="none" stroke="#666666" points="0,0 0,-80 144,-80 144,0 0,0"/>
</a>
</g>
</g>
<!-- Node2 -->
<g id="Node000002" class="node">
<title>Node2</title>
<g id="a_Node000002"><a xlink:title=" ">
<polygon fill="white" stroke="none" points="99.5,-168 44.5,-168 44.5,-116 99.5,-116 99.5,-168"/>
<text text-anchor="start" x="49.12" y="-154.5" font-family="Helvetica,sans-Serif" font-size="10.00">SQLModel</text>
<text text-anchor="start" x="70.5" y="-138.5" font-family="Helvetica,sans-Serif" font-size="10.00"> </text>
<text text-anchor="start" x="70.5" y="-122.5" font-family="Helvetica,sans-Serif" font-size="10.00"> </text>
<polygon fill="#666666" stroke="#666666" points="44.5,-150 44.5,-150 99.5,-150 99.5,-150 44.5,-150"/>
<polygon fill="#666666" stroke="#666666" points="44.5,-134 44.5,-134 99.5,-134 99.5,-134 44.5,-134"/>
<polygon fill="none" stroke="#666666" points="44.5,-116 44.5,-168 99.5,-168 99.5,-116 44.5,-116"/>
</a>
</g>
</g>
<!-- Node2&#45;&gt;Node1 -->
<g id="edge1_Node000001_Node000002" class="edge">
<title>Node2&#45;&gt;Node1</title>
<g id="a_edge1_Node000001_Node000002"><a xlink:title=" ">
<path fill="none" stroke="#63b8ff" d="M72,-104.61C72,-96.5 72,-87.86 72,-79.65"/>
<polygon fill="none" stroke="#63b8ff" points="68.5,-104.51 72,-114.51 75.5,-104.51 68.5,-104.51"/>
</a>
</g>
</g>
</g>
</svg>
