<?xml version="1.0" encoding="UTF-8" standalone="no"?>
<!DOCTYPE svg PUBLIC "-//W3C//DTD SVG 1.1//EN"
 "http://www.w3.org/Graphics/SVG/1.1/DTD/svg11.dtd">
<!-- Generated by graphviz version 12.1.0 (20240811.2233)
 -->
<!-- Title: app.user.User Pages: 1 -->
<svg width="199pt" height="268pt"
 viewBox="0.00 0.00 198.50 268.00" xmlns="http://www.w3.org/2000/svg" xmlns:xlink="http://www.w3.org/1999/xlink">
<g id="graph0" class="graph" transform="scale(1 1) rotate(0) translate(4 264)">
<title>app.user.User</title>
<!-- Node1 -->
<g id="Node000001" class="node">
<title>Node1</title>
<g id="a_Node000001"><a xlink:title=" ">
<polygon fill="#999999" stroke="none" points="163.5,-68 92.5,-68 92.5,0 163.5,0 163.5,-68"/>
<text text-anchor="start" x="97.25" y="-54.5" font-family="Helvetica,sans-Serif" font-size="10.00">app.user.User</text>
<text text-anchor="start" x="103" y="-38.5" font-family="Helvetica,sans-Serif" font-size="10.00">+</text>
<text text-anchor="start" x="119.5" y="-38.5" font-family="Helvetica,sans-Serif" font-size="10.00">image</text>
<text text-anchor="start" x="103" y="-22.5" font-family="Helvetica,sans-Serif" font-size="10.00">+</text>
<text text-anchor="start" x="119.5" y="-22.5" font-family="Helvetica,sans-Serif" font-size="10.00">role</text>
<text text-anchor="start" x="126.5" y="-6.5" font-family="Helvetica,sans-Serif" font-size="10.00"> </text>
<polygon fill="#666666" stroke="#666666" points="92.5,-50 92.5,-50 163.5,-50 163.5,-50 92.5,-50"/>
<polygon fill="#666666" stroke="#666666" points="92.5,-18 92.5,-18 117.5,-18 117.5,-18 92.5,-18"/>
<polygon fill="#666666" stroke="#666666" points="117.5,-18 117.5,-18 163.5,-18 163.5,-18 117.5,-18"/>
<polygon fill="none" stroke="#666666" points="92.5,0 92.5,-68 163.5,-68 163.5,0 92.5,0"/>
</a>
</g>
</g>
<!-- Node2 -->
<g id="Node000002" class="node">
<title>Node2</title>
<g id="a_Node000002"><a xlink:href="classapp_1_1user_1_1BaseUser.html" target="_top" xlink:title=" ">
<polygon fill="white" stroke="none" points="94,-172 0,-172 0,-104 94,-104 94,-172"/>
<text text-anchor="start" x="5" y="-158.5" font-family="Helvetica,sans-Serif" font-size="10.00">app.user.BaseUser</text>
<text text-anchor="start" x="17" y="-142.5" font-family="Helvetica,sans-Serif" font-size="10.00">+</text>
<text text-anchor="start" x="40" y="-142.5" font-family="Helvetica,sans-Serif" font-size="10.00">id</text>
<text text-anchor="start" x="17" y="-126.5" font-family="Helvetica,sans-Serif" font-size="10.00">+</text>
<text text-anchor="start" x="40" y="-126.5" font-family="Helvetica,sans-Serif" font-size="10.00">email</text>
<text text-anchor="start" x="45.5" y="-110.5" font-family="Helvetica,sans-Serif" font-size="10.00"> </text>
<polygon fill="#666666" stroke="#666666" points="0,-154 0,-154 94,-154 94,-154 0,-154"/>
<polygon fill="#666666" stroke="#666666" points="0,-122 0,-122 38,-122 38,-122 0,-122"/>
<polygon fill="#666666" stroke="#666666" points="38,-122 38,-122 94,-122 94,-122 38,-122"/>
<polygon fill="none" stroke="#666666" points="0,-104 0,-172 94,-172 94,-104 0,-104"/>
</a>
</g>
</g>
<!-- Node2&#45;&gt;Node1 -->
<g id="edge1_Node000001_Node000002" class="edge">
<title>Node2&#45;&gt;Node1</title>
<g id="a_edge1_Node000001_Node000002"><a xlink:title=" ">
<path fill="none" stroke="#63b8ff" d="M80.19,-95.2C87.45,-86.06 95.04,-76.51 101.97,-67.77"/>
<polygon fill="none" stroke="#63b8ff" points="77.49,-92.97 74.02,-102.98 82.98,-97.33 77.49,-92.97"/>
</a>
</g>
</g>
<!-- Node3 -->
<g id="Node000003" class="node">
<title>Node3</title>
<g id="a_Node000003"><a xlink:title=" ">
<polygon fill="white" stroke="none" points="74.5,-260 19.5,-260 19.5,-208 74.5,-208 74.5,-260"/>
<text text-anchor="start" x="24.12" y="-246.5" font-family="Helvetica,sans-Serif" font-size="10.00">SQLModel</text>
<text text-anchor="start" x="45.5" y="-230.5" font-family="Helvetica,sans-Serif" font-size="10.00"> </text>
<text text-anchor="start" x="45.5" y="-214.5" font-family="Helvetica,sans-Serif" font-size="10.00"> </text>
<polygon fill="#666666" stroke="#666666" points="19.5,-242 19.5,-242 74.5,-242 74.5,-242 19.5,-242"/>
<polygon fill="#666666" stroke="#666666" points="19.5,-226 19.5,-226 74.5,-226 74.5,-226 19.5,-226"/>
<polygon fill="none" stroke="#666666" points="19.5,-208 19.5,-260 74.5,-260 74.5,-208 19.5,-208"/>
</a>
</g>
</g>
<!-- Node3&#45;&gt;Node2 -->
<g id="edge2_Node000002_Node000003" class="edge">
<title>Node3&#45;&gt;Node2</title>
<g id="a_edge2_Node000002_Node000003"><a xlink:title=" ">
<path fill="none" stroke="#63b8ff" d="M47,-196.97C47,-188.65 47,-179.84 47,-171.67"/>
<polygon fill="none" stroke="#63b8ff" points="43.5,-196.79 47,-206.79 50.5,-196.79 43.5,-196.79"/>
</a>
</g>
</g>
<!-- Node4 -->
<g id="Node000004" class="node">
<title>Node4</title>
<g id="a_Node000004"><a xlink:title=" ">
<polygon fill="white" stroke="none" points="143.5,-164 112.5,-164 112.5,-112 143.5,-112 143.5,-164"/>
<text text-anchor="start" x="117.5" y="-150.5" font-family="Helvetica,sans-Serif" font-size="10.00">table</text>
<text text-anchor="start" x="126.5" y="-134.5" font-family="Helvetica,sans-Serif" font-size="10.00"> </text>
<text text-anchor="start" x="126.5" y="-118.5" font-family="Helvetica,sans-Serif" font-size="10.00"> </text>
<polygon fill="#666666" stroke="#666666" points="112.5,-146 112.5,-146 143.5,-146 143.5,-146 112.5,-146"/>
<polygon fill="#666666" stroke="#666666" points="112.5,-130 112.5,-130 143.5,-130 143.5,-130 112.5,-130"/>
<polygon fill="none" stroke="#666666" points="112.5,-112 112.5,-164 143.5,-164 143.5,-112 112.5,-112"/>
</a>
</g>
</g>
<!-- Node4&#45;&gt;Node1 -->
<g id="edge3_Node000001_Node000004" class="edge">
<title>Node4&#45;&gt;Node1</title>
<g id="a_edge3_Node000001_Node000004"><a xlink:title=" ">
<path fill="none" stroke="#63b8ff" d="M128,-100.84C128,-90.07 128,-78.33 128,-67.79"/>
<polygon fill="none" stroke="#63b8ff" points="124.5,-100.53 128,-110.53 131.5,-100.53 124.5,-100.53"/>
</a>
</g>
</g>
<!-- Node5 -->
<g id="Node000005" class="node">
<title>Node5</title>
<g id="a_Node000005"><a xlink:title=" ">
<polygon fill="white" stroke="none" points="190.5,-164 161.5,-164 161.5,-112 190.5,-112 190.5,-164"/>
<text text-anchor="start" x="166.25" y="-150.5" font-family="Helvetica,sans-Serif" font-size="10.00">True</text>
<text text-anchor="start" x="174.5" y="-134.5" font-family="Helvetica,sans-Serif" font-size="10.00"> </text>
<text text-anchor="start" x="174.5" y="-118.5" font-family="Helvetica,sans-Serif" font-size="10.00"> </text>
<polygon fill="#666666" stroke="#666666" points="161.5,-146 161.5,-146 190.5,-146 190.5,-146 161.5,-146"/>
<polygon fill="#666666" stroke="#666666" points="161.5,-130 161.5,-130 190.5,-130 190.5,-130 161.5,-130"/>
<polygon fill="none" stroke="#666666" points="161.5,-112 161.5,-164 190.5,-164 190.5,-112 161.5,-112"/>
</a>
</g>
</g>
<!-- Node5&#45;&gt;Node1 -->
<g id="edge4_Node000001_Node000005" class="edge">
<title>Node5&#45;&gt;Node1</title>
<g id="a_edge4_Node000001_Node000005"><a xlink:title=" ">
<path fill="none" stroke="#63b8ff" d="M159.47,-101.87C154.27,-90.82 148.55,-78.67 143.43,-67.79"/>
<polygon fill="none" stroke="#63b8ff" points="156.19,-103.12 163.61,-110.68 162.52,-100.14 156.19,-103.12"/>
</a>
</g>
</g>
</g>
</svg>
