<?xml version="1.0" encoding="UTF-8" standalone="no"?>
<!DOCTYPE svg PUBLIC "-//W3C//DTD SVG 1.1//EN"
 "http://www.w3.org/Graphics/SVG/1.1/DTD/svg11.dtd">
<!-- Generated by graphviz version 12.1.0 (20240811.2233)
 -->
<!-- Title: app.oauth_models.Service Pages: 1 -->
<svg width="159pt" height="356pt"
 viewBox="0.00 0.00 159.00 356.00" xmlns="http://www.w3.org/2000/svg" xmlns:xlink="http://www.w3.org/1999/xlink">
<g id="graph0" class="graph" transform="scale(1 1) rotate(0) translate(4 352)">
<title>app.oauth_models.Service</title>
<!-- Node1 -->
<g id="Node000001" class="node">
<title>Node1</title>
<g id="a_Node000001"><a xlink:title=" ">
<polygon fill="#999999" stroke="none" points="151,-260 26,-260 26,0 151,0 151,-260"/>
<text text-anchor="start" x="30.75" y="-246.5" font-family="Helvetica,sans-Serif" font-size="10.00">app.oauth_models.Service</text>
<text text-anchor="start" x="39" y="-230.5" font-family="Helvetica,sans-Serif" font-size="10.00">+</text>
<text text-anchor="start" x="58" y="-230.5" font-family="Helvetica,sans-Serif" font-size="10.00">id</text>
<text text-anchor="start" x="39" y="-214.5" font-family="Helvetica,sans-Serif" font-size="10.00">+</text>
<text text-anchor="start" x="58" y="-214.5" font-family="Helvetica,sans-Serif" font-size="10.00">name</text>
<text text-anchor="start" x="39" y="-198.5" font-family="Helvetica,sans-Serif" font-size="10.00">+</text>
<text text-anchor="start" x="58" y="-198.5" font-family="Helvetica,sans-Serif" font-size="10.00">description</text>
<text text-anchor="start" x="39" y="-182.5" font-family="Helvetica,sans-Serif" font-size="10.00">+</text>
<text text-anchor="start" x="58" y="-182.5" font-family="Helvetica,sans-Serif" font-size="10.00">oauth_provider</text>
<text text-anchor="start" x="39" y="-166.5" font-family="Helvetica,sans-Serif" font-size="10.00">+</text>
<text text-anchor="start" x="58" y="-166.5" font-family="Helvetica,sans-Serif" font-size="10.00">required_scopes</text>
<text text-anchor="start" x="39" y="-150.5" font-family="Helvetica,sans-Serif" font-size="10.00">+</text>
<text text-anchor="start" x="58" y="-150.5" font-family="Helvetica,sans-Serif" font-size="10.00">requires_oauth</text>
<text text-anchor="start" x="39" y="-134.5" font-family="Helvetica,sans-Serif" font-size="10.00">+</text>
<text text-anchor="start" x="58" y="-134.5" font-family="Helvetica,sans-Serif" font-size="10.00">icon</text>
<text text-anchor="start" x="39" y="-118.5" font-family="Helvetica,sans-Serif" font-size="10.00">+</text>
<text text-anchor="start" x="58" y="-118.5" font-family="Helvetica,sans-Serif" font-size="10.00">icon_url</text>
<text text-anchor="start" x="39" y="-102.5" font-family="Helvetica,sans-Serif" font-size="10.00">+</text>
<text text-anchor="start" x="58" y="-102.5" font-family="Helvetica,sans-Serif" font-size="10.00">color</text>
<text text-anchor="start" x="39" y="-86.5" font-family="Helvetica,sans-Serif" font-size="10.00">+</text>
<text text-anchor="start" x="58" y="-86.5" font-family="Helvetica,sans-Serif" font-size="10.00">category</text>
<text text-anchor="start" x="39" y="-70.5" font-family="Helvetica,sans-Serif" font-size="10.00">+</text>
<text text-anchor="start" x="58" y="-70.5" font-family="Helvetica,sans-Serif" font-size="10.00">is_active</text>
<text text-anchor="start" x="39" y="-54.5" font-family="Helvetica,sans-Serif" font-size="10.00">+</text>
<text text-anchor="start" x="58" y="-54.5" font-family="Helvetica,sans-Serif" font-size="10.00">created_at</text>
<text text-anchor="start" x="39" y="-38.5" font-family="Helvetica,sans-Serif" font-size="10.00">+</text>
<text text-anchor="start" x="58" y="-38.5" font-family="Helvetica,sans-Serif" font-size="10.00">updated_at</text>
<text text-anchor="start" x="40.5" y="-22.5" font-family="Helvetica,sans-Serif" font-size="10.00">&#45;</text>
<text text-anchor="start" x="58" y="-22.5" font-family="Helvetica,sans-Serif" font-size="10.00">__tablename__</text>
<text text-anchor="start" x="87" y="-6.5" font-family="Helvetica,sans-Serif" font-size="10.00"> </text>
<polygon fill="#666666" stroke="#666666" points="26,-242 26,-242 151,-242 151,-242 26,-242"/>
<polygon fill="#666666" stroke="#666666" points="26,-18 26,-18 56,-18 56,-18 26,-18"/>
<polygon fill="#666666" stroke="#666666" points="56,-18 56,-18 151,-18 151,-18 56,-18"/>
<polygon fill="none" stroke="#666666" points="26,0 26,-260 151,-260 151,0 26,0"/>
</a>
</g>
</g>
<!-- Node2 -->
<g id="Node000002" class="node">
<title>Node2</title>
<g id="a_Node000002"><a xlink:title=" ">
<polygon fill="white" stroke="none" points="55,-348 0,-348 0,-296 55,-296 55,-348"/>
<text text-anchor="start" x="4.62" y="-334.5" font-family="Helvetica,sans-Serif" font-size="10.00">SQLModel</text>
<text text-anchor="start" x="26" y="-318.5" font-family="Helvetica,sans-Serif" font-size="10.00"> </text>
<text text-anchor="start" x="26" y="-302.5" font-family="Helvetica,sans-Serif" font-size="10.00"> </text>
<polygon fill="#666666" stroke="#666666" points="0,-330 0,-330 55,-330 55,-330 0,-330"/>
<polygon fill="#666666" stroke="#666666" points="0,-314 0,-314 55,-314 55,-314 0,-314"/>
<polygon fill="none" stroke="#666666" points="0,-296 0,-348 55,-348 55,-296 0,-296"/>
</a>
</g>
</g>
<!-- Node2&#45;&gt;Node1 -->
<g id="edge1_Node000001_Node000002" class="edge">
<title>Node2&#45;&gt;Node1</title>
<g id="a_edge1_Node000001_Node000002"><a xlink:title=" ">
<path fill="none" stroke="#63b8ff" d="M38.92,-285.43C41.42,-277.63 44.21,-268.94 47.16,-259.78"/>
<polygon fill="none" stroke="#63b8ff" points="35.66,-284.13 35.94,-294.72 42.33,-286.27 35.66,-284.13"/>
</a>
</g>
</g>
<!-- Node3 -->
<g id="Node000003" class="node">
<title>Node3</title>
<g id="a_Node000003"><a xlink:title=" ">
<polygon fill="white" stroke="none" points="104,-348 73,-348 73,-296 104,-296 104,-348"/>
<text text-anchor="start" x="78" y="-334.5" font-family="Helvetica,sans-Serif" font-size="10.00">table</text>
<text text-anchor="start" x="87" y="-318.5" font-family="Helvetica,sans-Serif" font-size="10.00"> </text>
<text text-anchor="start" x="87" y="-302.5" font-family="Helvetica,sans-Serif" font-size="10.00"> </text>
<polygon fill="#666666" stroke="#666666" points="73,-330 73,-330 104,-330 104,-330 73,-330"/>
<polygon fill="#666666" stroke="#666666" points="73,-314 73,-314 104,-314 104,-314 73,-314"/>
<polygon fill="none" stroke="#666666" points="73,-296 73,-348 104,-348 104,-296 73,-296"/>
</a>
</g>
</g>
<!-- Node3&#45;&gt;Node1 -->
<g id="edge2_Node000001_Node000003" class="edge">
<title>Node3&#45;&gt;Node1</title>
<g id="a_edge2_Node000001_Node000003"><a xlink:title=" ">
<path fill="none" stroke="#63b8ff" d="M88.5,-284.88C88.5,-277.23 88.5,-268.73 88.5,-259.78"/>
<polygon fill="none" stroke="#63b8ff" points="85,-284.65 88.5,-294.65 92,-284.65 85,-284.65"/>
</a>
</g>
</g>
<!-- Node4 -->
<g id="Node000004" class="node">
<title>Node4</title>
<g id="a_Node000004"><a xlink:title=" ">
<polygon fill="white" stroke="none" points="151,-348 122,-348 122,-296 151,-296 151,-348"/>
<text text-anchor="start" x="126.75" y="-334.5" font-family="Helvetica,sans-Serif" font-size="10.00">True</text>
<text text-anchor="start" x="135" y="-318.5" font-family="Helvetica,sans-Serif" font-size="10.00"> </text>
<text text-anchor="start" x="135" y="-302.5" font-family="Helvetica,sans-Serif" font-size="10.00"> </text>
<polygon fill="#666666" stroke="#666666" points="122,-330 122,-330 151,-330 151,-330 122,-330"/>
<polygon fill="#666666" stroke="#666666" points="122,-314 122,-314 151,-314 151,-314 122,-314"/>
<polygon fill="none" stroke="#666666" points="122,-296 122,-348 151,-348 151,-296 122,-296"/>
</a>
</g>
</g>
<!-- Node4&#45;&gt;Node1 -->
<g id="edge3_Node000001_Node000004" class="edge">
<title>Node4&#45;&gt;Node1</title>
<g id="a_edge3_Node000001_Node000004"><a xlink:title=" ">
<path fill="none" stroke="#63b8ff" d="M127.44,-285.15C125.49,-277.43 123.32,-268.84 121.03,-259.78"/>
<polygon fill="none" stroke="#63b8ff" points="124.01,-285.86 129.85,-294.69 130.8,-284.14 124.01,-285.86"/>
</a>
</g>
</g>
</g>
</svg>
