<?xml version="1.0" encoding="UTF-8" standalone="no"?>
<!DOCTYPE svg PUBLIC "-//W3C//DTD SVG 1.1//EN"
 "http://www.w3.org/Graphics/SVG/1.1/DTD/svg11.dtd">
<!-- Generated by graphviz version 12.1.0 (20240811.2233)
 -->
<!-- Title: app.oauth_models.OAuthConnection Pages: 1 -->
<svg width="342pt" height="296pt"
 viewBox="0.00 0.00 342.23 296.00" xmlns="http://www.w3.org/2000/svg" xmlns:xlink="http://www.w3.org/1999/xlink">
<g id="graph0" class="graph" transform="scale(1 1) rotate(0) translate(4 292)">
<title>app.oauth_models.OAuthConnection</title>
<!-- Node1 -->
<g id="Node000001" class="node">
<title>Node1</title>
<g id="a_Node000001"><a xlink:title=" ">
<polygon fill="#999999" stroke="none" points="221,-116 52,-116 52,0 221,0 221,-116"/>
<text text-anchor="start" x="56.62" y="-102.5" font-family="Helvetica,sans-Serif" font-size="10.00">app.oauth_models.OAuthConnection</text>
<text text-anchor="start" x="76" y="-86.5" font-family="Helvetica,sans-Serif" font-size="10.00">+</text>
<text text-anchor="start" x="106" y="-86.5" font-family="Helvetica,sans-Serif" font-size="10.00">user_id</text>
<text text-anchor="start" x="76" y="-70.5" font-family="Helvetica,sans-Serif" font-size="10.00">+</text>
<text text-anchor="start" x="106" y="-70.5" font-family="Helvetica,sans-Serif" font-size="10.00">provider</text>
<text text-anchor="start" x="76" y="-54.5" font-family="Helvetica,sans-Serif" font-size="10.00">+</text>
<text text-anchor="start" x="106" y="-54.5" font-family="Helvetica,sans-Serif" font-size="10.00">provider_user_id</text>
<text text-anchor="start" x="76" y="-38.5" font-family="Helvetica,sans-Serif" font-size="10.00">+</text>
<text text-anchor="start" x="106" y="-38.5" font-family="Helvetica,sans-Serif" font-size="10.00">token_type</text>
<text text-anchor="start" x="77.5" y="-22.5" font-family="Helvetica,sans-Serif" font-size="10.00">&#45;</text>
<text text-anchor="start" x="106" y="-22.5" font-family="Helvetica,sans-Serif" font-size="10.00">__tablename__</text>
<text text-anchor="start" x="135" y="-6.5" font-family="Helvetica,sans-Serif" font-size="10.00"> </text>
<polygon fill="#666666" stroke="#666666" points="52,-98 52,-98 221,-98 221,-98 52,-98"/>
<polygon fill="#666666" stroke="#666666" points="52,-18 52,-18 104,-18 104,-18 52,-18"/>
<polygon fill="#666666" stroke="#666666" points="104,-18 104,-18 221,-18 221,-18 104,-18"/>
<polygon fill="none" stroke="#666666" points="52,0 52,-116 221,-116 221,0 52,0"/>
</a>
</g>
</g>
<!-- Node2 -->
<g id="Node000002" class="node">
<title>Node2</title>
<g id="a_Node000002"><a xlink:title=" ">
<polygon fill="white" stroke="none" points="55,-288 0,-288 0,-236 55,-236 55,-288"/>
<text text-anchor="start" x="4.62" y="-274.5" font-family="Helvetica,sans-Serif" font-size="10.00">SQLModel</text>
<text text-anchor="start" x="26" y="-258.5" font-family="Helvetica,sans-Serif" font-size="10.00"> </text>
<text text-anchor="start" x="26" y="-242.5" font-family="Helvetica,sans-Serif" font-size="10.00"> </text>
<polygon fill="#666666" stroke="#666666" points="0,-270 0,-270 55,-270 55,-270 0,-270"/>
<polygon fill="#666666" stroke="#666666" points="0,-254 0,-254 55,-254 55,-254 0,-254"/>
<polygon fill="none" stroke="#666666" points="0,-236 0,-288 55,-288 55,-236 0,-236"/>
</a>
</g>
</g>
<!-- Node2&#45;&gt;Node1 -->
<g id="edge1_Node000001_Node000002" class="edge">
<title>Node2&#45;&gt;Node1</title>
<g id="a_edge1_Node000001_Node000002"><a xlink:title=" ">
<path fill="none" stroke="#63b8ff" d="M45.61,-226.11C58.96,-200.52 77.65,-164.99 94.5,-134 97.71,-128.1 101.09,-121.96 104.47,-115.84"/>
<polygon fill="none" stroke="#63b8ff" points="42.63,-224.25 41.11,-234.74 48.84,-227.49 42.63,-224.25"/>
</a>
</g>
</g>
<!-- Node3 -->
<g id="Node000003" class="node">
<title>Node3</title>
<g id="a_Node000003"><a xlink:title=" ">
<polygon fill="white" stroke="none" points="104,-288 73,-288 73,-236 104,-236 104,-288"/>
<text text-anchor="start" x="78" y="-274.5" font-family="Helvetica,sans-Serif" font-size="10.00">table</text>
<text text-anchor="start" x="87" y="-258.5" font-family="Helvetica,sans-Serif" font-size="10.00"> </text>
<text text-anchor="start" x="87" y="-242.5" font-family="Helvetica,sans-Serif" font-size="10.00"> </text>
<polygon fill="#666666" stroke="#666666" points="73,-270 73,-270 104,-270 104,-270 73,-270"/>
<polygon fill="#666666" stroke="#666666" points="73,-254 73,-254 104,-254 104,-254 73,-254"/>
<polygon fill="none" stroke="#666666" points="73,-236 73,-288 104,-288 104,-236 73,-236"/>
</a>
</g>
</g>
<!-- Node3&#45;&gt;Node1 -->
<g id="edge2_Node000001_Node000003" class="edge">
<title>Node3&#45;&gt;Node1</title>
<g id="a_edge2_Node000001_Node000003"><a xlink:title=" ">
<path fill="none" stroke="#63b8ff" d="M96.98,-225.33C104.18,-195.01 114.66,-150.92 123.01,-115.76"/>
<polygon fill="none" stroke="#63b8ff" points="93.64,-224.22 94.74,-234.76 100.45,-225.84 93.64,-224.22"/>
</a>
</g>
</g>
<!-- Node4 -->
<g id="Node000004" class="node">
<title>Node4</title>
<g id="a_Node000004"><a xlink:title=" ">
<polygon fill="white" stroke="none" points="151,-288 122,-288 122,-236 151,-236 151,-288"/>
<text text-anchor="start" x="126.75" y="-274.5" font-family="Helvetica,sans-Serif" font-size="10.00">True</text>
<text text-anchor="start" x="135" y="-258.5" font-family="Helvetica,sans-Serif" font-size="10.00"> </text>
<text text-anchor="start" x="135" y="-242.5" font-family="Helvetica,sans-Serif" font-size="10.00"> </text>
<polygon fill="#666666" stroke="#666666" points="122,-270 122,-270 151,-270 151,-270 122,-270"/>
<polygon fill="#666666" stroke="#666666" points="122,-254 122,-254 151,-254 151,-254 122,-254"/>
<polygon fill="none" stroke="#666666" points="122,-236 122,-288 151,-288 151,-236 122,-236"/>
</a>
</g>
</g>
<!-- Node4&#45;&gt;Node1 -->
<g id="edge3_Node000001_Node000004" class="edge">
<title>Node4&#45;&gt;Node1</title>
<g id="a_edge3_Node000001_Node000004"><a xlink:title=" ">
<path fill="none" stroke="#63b8ff" d="M136.5,-224.93C136.5,-194.62 136.5,-150.77 136.5,-115.76"/>
<polygon fill="none" stroke="#63b8ff" points="133,-224.72 136.5,-234.72 140,-224.72 133,-224.72"/>
</a>
</g>
</g>
<!-- Node5 -->
<g id="Node000005" class="node">
<title>Node5</title>
<g id="a_Node000005"><a xlink:title=" ">
<polygon fill="white" stroke="none" points="215.5,-288 169.5,-288 169.5,-236 215.5,-236 215.5,-288"/>
<text text-anchor="start" x="174.5" y="-274.5" font-family="Helvetica,sans-Serif" font-size="10.00">Optional</text>
<text text-anchor="start" x="191" y="-258.5" font-family="Helvetica,sans-Serif" font-size="10.00"> </text>
<text text-anchor="start" x="191" y="-242.5" font-family="Helvetica,sans-Serif" font-size="10.00"> </text>
<polygon fill="#666666" stroke="#666666" points="169.5,-270 169.5,-270 215.5,-270 215.5,-270 169.5,-270"/>
<polygon fill="#666666" stroke="#666666" points="169.5,-254 169.5,-254 215.5,-254 215.5,-254 169.5,-254"/>
<polygon fill="none" stroke="#666666" points="169.5,-236 169.5,-288 215.5,-288 215.5,-236 169.5,-236"/>
</a>
</g>
</g>
<!-- Node5&#45;&gt;Node1 -->
<g id="edge4_Node000001_Node000005" class="edge">
<title>Node5&#45;&gt;Node1</title>
<g id="a_edge4_Node000001_Node000005"><a xlink:title=" ">
<path fill="none" stroke="#63b8ff" d="M185.63,-236.23C178.21,-209.44 166.04,-165.56 155.67,-128.16"/>
<polygon fill="none" stroke="#63b8ff" points="155.68,-128.19 150.22,-123.47 152.47,-116.62 157.93,-121.34 155.68,-128.19"/>
</a>
</g>
<text text-anchor="middle" x="217.9" y="-208.5" font-family="Helvetica,sans-Serif" font-size="10.00" fill="grey"> +expires_at</text>
<text text-anchor="middle" x="217.9" y="-196.5" font-family="Helvetica,sans-Serif" font-size="10.00" fill="grey">+id</text>
<text text-anchor="middle" x="217.9" y="-184.5" font-family="Helvetica,sans-Serif" font-size="10.00" fill="grey">+provider_email</text>
<text text-anchor="middle" x="217.9" y="-172.5" font-family="Helvetica,sans-Serif" font-size="10.00" fill="grey">+provider_name</text>
<text text-anchor="middle" x="217.9" y="-160.5" font-family="Helvetica,sans-Serif" font-size="10.00" fill="grey">+provider_picture</text>
<text text-anchor="middle" x="217.9" y="-148.5" font-family="Helvetica,sans-Serif" font-size="10.00" fill="grey">+refresh_token</text>
<text text-anchor="middle" x="217.9" y="-136.5" font-family="Helvetica,sans-Serif" font-size="10.00" fill="grey">+scope</text>
</g>
<!-- Node6 -->
<g id="Node000006" class="node">
<title>Node6</title>
<g id="a_Node000006"><a xlink:title=" ">
<polygon fill="white" stroke="none" points="302,-288 255,-288 255,-236 302,-236 302,-288"/>
<text text-anchor="start" x="259.75" y="-274.5" font-family="Helvetica,sans-Serif" font-size="10.00">datetime</text>
<text text-anchor="start" x="277" y="-258.5" font-family="Helvetica,sans-Serif" font-size="10.00"> </text>
<text text-anchor="start" x="277" y="-242.5" font-family="Helvetica,sans-Serif" font-size="10.00"> </text>
<polygon fill="#666666" stroke="#666666" points="255,-270 255,-270 302,-270 302,-270 255,-270"/>
<polygon fill="#666666" stroke="#666666" points="255,-254 255,-254 302,-254 302,-254 255,-254"/>
<polygon fill="none" stroke="#666666" points="255,-236 255,-288 302,-288 302,-236 255,-236"/>
</a>
</g>
</g>
<!-- Node6&#45;&gt;Node1 -->
<g id="edge5_Node000001_Node000006" class="edge">
<title>Node6&#45;&gt;Node1</title>
<g id="a_edge5_Node000001_Node000006"><a xlink:title=" ">
<path fill="none" stroke="#63b8ff" d="M279.94,-236.38C280.32,-209.08 277.22,-164.83 256.5,-134 249.56,-123.68 240.67,-114.51 230.88,-106.43"/>
<polygon fill="none" stroke="#63b8ff" points="231.06,-106.57 223.87,-106.1 221.54,-99.27 228.73,-99.75 231.06,-106.57"/>
</a>
</g>
<text text-anchor="middle" x="306.86" y="-178.5" font-family="Helvetica,sans-Serif" font-size="10.00" fill="grey"> +created_at</text>
<text text-anchor="middle" x="306.86" y="-166.5" font-family="Helvetica,sans-Serif" font-size="10.00" fill="grey">+updated_at</text>
</g>
</g>
</svg>
