<?xml version="1.0" encoding="UTF-8" standalone="no"?>
<!DOCTYPE svg PUBLIC "-//W3C//DTD SVG 1.1//EN"
 "http://www.w3.org/Graphics/SVG/1.1/DTD/svg11.dtd">
<!-- Generated by graphviz version 12.1.0 (20240811.2233)
 -->
<!-- Title: app.oauth_models.Service Pages: 1 -->
<svg width="346pt" height="292pt"
 viewBox="0.00 0.00 345.90 292.00" xmlns="http://www.w3.org/2000/svg" xmlns:xlink="http://www.w3.org/1999/xlink">
<g id="graph0" class="graph" transform="scale(1 1) rotate(0) translate(4 288)">
<title>app.oauth_models.Service</title>
<!-- Node1 -->
<g id="Node000001" class="node">
<title>Node1</title>
<g id="a_Node000001"><a xlink:title=" ">
<polygon fill="#999999" stroke="none" points="199,-100 74,-100 74,0 199,0 199,-100"/>
<text text-anchor="start" x="78.75" y="-86.5" font-family="Helvetica,sans-Serif" font-size="10.00">app.oauth_models.Service</text>
<text text-anchor="start" x="88" y="-70.5" font-family="Helvetica,sans-Serif" font-size="10.00">+</text>
<text text-anchor="start" x="108" y="-70.5" font-family="Helvetica,sans-Serif" font-size="10.00">name</text>
<text text-anchor="start" x="88" y="-54.5" font-family="Helvetica,sans-Serif" font-size="10.00">+</text>
<text text-anchor="start" x="108" y="-54.5" font-family="Helvetica,sans-Serif" font-size="10.00">requires_oauth</text>
<text text-anchor="start" x="88" y="-38.5" font-family="Helvetica,sans-Serif" font-size="10.00">+</text>
<text text-anchor="start" x="108" y="-38.5" font-family="Helvetica,sans-Serif" font-size="10.00">is_active</text>
<text text-anchor="start" x="89.5" y="-22.5" font-family="Helvetica,sans-Serif" font-size="10.00">&#45;</text>
<text text-anchor="start" x="108" y="-22.5" font-family="Helvetica,sans-Serif" font-size="10.00">__tablename__</text>
<text text-anchor="start" x="135" y="-6.5" font-family="Helvetica,sans-Serif" font-size="10.00"> </text>
<polygon fill="#666666" stroke="#666666" points="74,-82 74,-82 199,-82 199,-82 74,-82"/>
<polygon fill="#666666" stroke="#666666" points="74,-18 74,-18 106,-18 106,-18 74,-18"/>
<polygon fill="#666666" stroke="#666666" points="106,-18 106,-18 199,-18 199,-18 106,-18"/>
<polygon fill="none" stroke="#666666" points="74,0 74,-100 199,-100 199,0 74,0"/>
</a>
</g>
</g>
<!-- Node2 -->
<g id="Node000002" class="node">
<title>Node2</title>
<g id="a_Node000002"><a xlink:title=" ">
<polygon fill="white" stroke="none" points="55,-284 0,-284 0,-232 55,-232 55,-284"/>
<text text-anchor="start" x="4.62" y="-270.5" font-family="Helvetica,sans-Serif" font-size="10.00">SQLModel</text>
<text text-anchor="start" x="26" y="-254.5" font-family="Helvetica,sans-Serif" font-size="10.00"> </text>
<text text-anchor="start" x="26" y="-238.5" font-family="Helvetica,sans-Serif" font-size="10.00"> </text>
<polygon fill="#666666" stroke="#666666" points="0,-266 0,-266 55,-266 55,-266 0,-266"/>
<polygon fill="#666666" stroke="#666666" points="0,-250 0,-250 55,-250 55,-250 0,-250"/>
<polygon fill="none" stroke="#666666" points="0,-232 0,-284 55,-284 55,-232 0,-232"/>
</a>
</g>
</g>
<!-- Node2&#45;&gt;Node1 -->
<g id="edge1_Node000001_Node000002" class="edge">
<title>Node2&#45;&gt;Node1</title>
<g id="a_edge1_Node000001_Node000002"><a xlink:title=" ">
<path fill="none" stroke="#63b8ff" d="M43.07,-221.98C56.03,-193.54 75.38,-152.62 94.5,-118 97.82,-111.99 101.44,-105.77 105.13,-99.66"/>
<polygon fill="none" stroke="#63b8ff" points="39.99,-220.3 39.06,-230.85 46.37,-223.18 39.99,-220.3"/>
</a>
</g>
</g>
<!-- Node3 -->
<g id="Node000003" class="node">
<title>Node3</title>
<g id="a_Node000003"><a xlink:title=" ">
<polygon fill="white" stroke="none" points="104,-284 73,-284 73,-232 104,-232 104,-284"/>
<text text-anchor="start" x="78" y="-270.5" font-family="Helvetica,sans-Serif" font-size="10.00">table</text>
<text text-anchor="start" x="87" y="-254.5" font-family="Helvetica,sans-Serif" font-size="10.00"> </text>
<text text-anchor="start" x="87" y="-238.5" font-family="Helvetica,sans-Serif" font-size="10.00"> </text>
<polygon fill="#666666" stroke="#666666" points="73,-266 73,-266 104,-266 104,-266 73,-266"/>
<polygon fill="#666666" stroke="#666666" points="73,-250 73,-250 104,-250 104,-250 73,-250"/>
<polygon fill="none" stroke="#666666" points="73,-232 73,-284 104,-284 104,-232 73,-232"/>
</a>
</g>
</g>
<!-- Node3&#45;&gt;Node1 -->
<g id="edge2_Node000001_Node000003" class="edge">
<title>Node3&#45;&gt;Node1</title>
<g id="a_edge2_Node000001_Node000003"><a xlink:title=" ">
<path fill="none" stroke="#63b8ff" d="M96.88,-221.03C104.7,-187.45 116.44,-137.09 125.11,-99.88"/>
<polygon fill="none" stroke="#63b8ff" points="93.49,-220.14 94.63,-230.68 100.31,-221.73 93.49,-220.14"/>
</a>
</g>
</g>
<!-- Node4 -->
<g id="Node000004" class="node">
<title>Node4</title>
<g id="a_Node000004"><a xlink:title=" ">
<polygon fill="white" stroke="none" points="151,-284 122,-284 122,-232 151,-232 151,-284"/>
<text text-anchor="start" x="126.75" y="-270.5" font-family="Helvetica,sans-Serif" font-size="10.00">True</text>
<text text-anchor="start" x="135" y="-254.5" font-family="Helvetica,sans-Serif" font-size="10.00"> </text>
<text text-anchor="start" x="135" y="-238.5" font-family="Helvetica,sans-Serif" font-size="10.00"> </text>
<polygon fill="#666666" stroke="#666666" points="122,-266 122,-266 151,-266 151,-266 122,-266"/>
<polygon fill="#666666" stroke="#666666" points="122,-250 122,-250 151,-250 151,-250 122,-250"/>
<polygon fill="none" stroke="#666666" points="122,-232 122,-284 151,-284 151,-232 122,-232"/>
</a>
</g>
</g>
<!-- Node4&#45;&gt;Node1 -->
<g id="edge3_Node000001_Node000004" class="edge">
<title>Node4&#45;&gt;Node1</title>
<g id="a_edge3_Node000001_Node000004"><a xlink:title=" ">
<path fill="none" stroke="#63b8ff" d="M136.5,-221.03C136.5,-187.45 136.5,-137.09 136.5,-99.88"/>
<polygon fill="none" stroke="#63b8ff" points="133,-220.64 136.5,-230.64 140,-220.64 133,-220.64"/>
</a>
</g>
</g>
<!-- Node5 -->
<g id="Node000005" class="node">
<title>Node5</title>
<g id="a_Node000005"><a xlink:title=" ">
<polygon fill="white" stroke="none" points="215.5,-284 169.5,-284 169.5,-232 215.5,-232 215.5,-284"/>
<text text-anchor="start" x="174.5" y="-270.5" font-family="Helvetica,sans-Serif" font-size="10.00">Optional</text>
<text text-anchor="start" x="191" y="-254.5" font-family="Helvetica,sans-Serif" font-size="10.00"> </text>
<text text-anchor="start" x="191" y="-238.5" font-family="Helvetica,sans-Serif" font-size="10.00"> </text>
<polygon fill="#666666" stroke="#666666" points="169.5,-266 169.5,-266 215.5,-266 215.5,-266 169.5,-266"/>
<polygon fill="#666666" stroke="#666666" points="169.5,-250 169.5,-250 215.5,-250 215.5,-250 169.5,-250"/>
<polygon fill="none" stroke="#666666" points="169.5,-232 169.5,-284 215.5,-284 215.5,-232 169.5,-232"/>
</a>
</g>
</g>
<!-- Node5&#45;&gt;Node1 -->
<g id="edge4_Node000001_Node000005" class="edge">
<title>Node5&#45;&gt;Node1</title>
<g id="a_edge4_Node000001_Node000005"><a xlink:title=" ">
<path fill="none" stroke="#63b8ff" d="M185.75,-232.15C177.72,-202.64 164.05,-152.35 153.15,-112.24"/>
<polygon fill="none" stroke="#63b8ff" points="153.17,-112.33 147.74,-107.59 150.03,-100.75 155.46,-105.49 153.17,-112.33"/>
</a>
</g>
<text text-anchor="middle" x="219.03" y="-204.5" font-family="Helvetica,sans-Serif" font-size="10.00" fill="grey"> +category</text>
<text text-anchor="middle" x="219.03" y="-192.5" font-family="Helvetica,sans-Serif" font-size="10.00" fill="grey">+color</text>
<text text-anchor="middle" x="219.03" y="-180.5" font-family="Helvetica,sans-Serif" font-size="10.00" fill="grey">+description</text>
<text text-anchor="middle" x="219.03" y="-168.5" font-family="Helvetica,sans-Serif" font-size="10.00" fill="grey">+icon</text>
<text text-anchor="middle" x="219.03" y="-156.5" font-family="Helvetica,sans-Serif" font-size="10.00" fill="grey">+icon_url</text>
<text text-anchor="middle" x="219.03" y="-144.5" font-family="Helvetica,sans-Serif" font-size="10.00" fill="grey">+id</text>
<text text-anchor="middle" x="219.03" y="-132.5" font-family="Helvetica,sans-Serif" font-size="10.00" fill="grey">+oauth_provider</text>
<text text-anchor="middle" x="219.03" y="-120.5" font-family="Helvetica,sans-Serif" font-size="10.00" fill="grey">+required_scopes</text>
</g>
<!-- Node6 -->
<g id="Node000006" class="node">
<title>Node6</title>
<g id="a_Node000006"><a xlink:title=" ">
<polygon fill="white" stroke="none" points="304,-284 257,-284 257,-232 304,-232 304,-284"/>
<text text-anchor="start" x="261.75" y="-270.5" font-family="Helvetica,sans-Serif" font-size="10.00">datetime</text>
<text text-anchor="start" x="279" y="-254.5" font-family="Helvetica,sans-Serif" font-size="10.00"> </text>
<text text-anchor="start" x="279" y="-238.5" font-family="Helvetica,sans-Serif" font-size="10.00"> </text>
<polygon fill="#666666" stroke="#666666" points="257,-266 257,-266 304,-266 304,-266 257,-266"/>
<polygon fill="#666666" stroke="#666666" points="257,-250 257,-250 304,-250 304,-250 257,-250"/>
<polygon fill="none" stroke="#666666" points="257,-232 257,-284 304,-284 304,-232 257,-232"/>
</a>
</g>
</g>
<!-- Node6&#45;&gt;Node1 -->
<g id="edge5_Node000001_Node000006" class="edge">
<title>Node6&#45;&gt;Node1</title>
<g id="a_edge5_Node000001_Node000006"><a xlink:title=" ">
<path fill="none" stroke="#63b8ff" d="M282.79,-232.25C284.26,-202.42 282.46,-152.08 258.5,-118 246.47,-100.89 228.64,-87.7 210.29,-77.72"/>
<polygon fill="none" stroke="#63b8ff" points="210.36,-77.75 203.2,-78.61 199.65,-72.33 206.82,-71.47 210.36,-77.75"/>
</a>
</g>
<text text-anchor="middle" x="310.52" y="-168.5" font-family="Helvetica,sans-Serif" font-size="10.00" fill="grey"> +created_at</text>
<text text-anchor="middle" x="310.52" y="-156.5" font-family="Helvetica,sans-Serif" font-size="10.00" fill="grey">+updated_at</text>
</g>
</g>
</svg>
