<?xml version="1.0" encoding="UTF-8" standalone="no"?>
<!DOCTYPE svg PUBLIC "-//W3C//DTD SVG 1.1//EN"
 "http://www.w3.org/Graphics/SVG/1.1/DTD/svg11.dtd">
<!-- Generated by graphviz version 12.1.0 (20240811.2233)
 -->
<!-- Title: app.oauth_models.OAuthState Pages: 1 -->
<svg width="309pt" height="188pt"
 viewBox="0.00 0.00 308.87 188.00" xmlns="http://www.w3.org/2000/svg" xmlns:xlink="http://www.w3.org/1999/xlink">
<g id="graph0" class="graph" transform="scale(1 1) rotate(0) translate(4 184)">
<title>app.oauth_models.OAuthState</title>
<!-- Node1 -->
<g id="Node000001" class="node">
<title>Node1</title>
<g id="a_Node000001"><a xlink:title=" ">
<polygon fill="#999999" stroke="none" points="208,-68 65,-68 65,0 208,0 208,-68"/>
<text text-anchor="start" x="69.75" y="-54.5" font-family="Helvetica,sans-Serif" font-size="10.00">app.oauth_models.OAuthState</text>
<text text-anchor="start" x="83.5" y="-38.5" font-family="Helvetica,sans-Serif" font-size="10.00">+</text>
<text text-anchor="start" x="108" y="-38.5" font-family="Helvetica,sans-Serif" font-size="10.00">state</text>
<text text-anchor="start" x="85" y="-22.5" font-family="Helvetica,sans-Serif" font-size="10.00">&#45;</text>
<text text-anchor="start" x="108" y="-22.5" font-family="Helvetica,sans-Serif" font-size="10.00">__tablename__</text>
<text text-anchor="start" x="135" y="-6.5" font-family="Helvetica,sans-Serif" font-size="10.00"> </text>
<polygon fill="#666666" stroke="#666666" points="65,-50 65,-50 208,-50 208,-50 65,-50"/>
<polygon fill="#666666" stroke="#666666" points="65,-18 65,-18 106,-18 106,-18 65,-18"/>
<polygon fill="#666666" stroke="#666666" points="106,-18 106,-18 208,-18 208,-18 106,-18"/>
<polygon fill="none" stroke="#666666" points="65,0 65,-68 208,-68 208,0 65,0"/>
</a>
</g>
</g>
<!-- Node2 -->
<g id="Node000002" class="node">
<title>Node2</title>
<g id="a_Node000002"><a xlink:title=" ">
<polygon fill="white" stroke="none" points="55,-180 0,-180 0,-128 55,-128 55,-180"/>
<text text-anchor="start" x="4.62" y="-166.5" font-family="Helvetica,sans-Serif" font-size="10.00">SQLModel</text>
<text text-anchor="start" x="26" y="-150.5" font-family="Helvetica,sans-Serif" font-size="10.00"> </text>
<text text-anchor="start" x="26" y="-134.5" font-family="Helvetica,sans-Serif" font-size="10.00"> </text>
<polygon fill="#666666" stroke="#666666" points="0,-162 0,-162 55,-162 55,-162 0,-162"/>
<polygon fill="#666666" stroke="#666666" points="0,-146 0,-146 55,-146 55,-146 0,-146"/>
<polygon fill="none" stroke="#666666" points="0,-128 0,-180 55,-180 55,-128 0,-128"/>
</a>
</g>
</g>
<!-- Node2&#45;&gt;Node1 -->
<g id="edge1_Node000001_Node000002" class="edge">
<title>Node2&#45;&gt;Node1</title>
<g id="a_edge1_Node000001_Node000002"><a xlink:title=" ">
<path fill="none" stroke="#63b8ff" d="M57.92,-120.06C73.01,-103.74 91.17,-84.07 106.23,-67.77"/>
<polygon fill="none" stroke="#63b8ff" points="55.59,-117.43 51.38,-127.15 60.73,-122.18 55.59,-117.43"/>
</a>
</g>
</g>
<!-- Node3 -->
<g id="Node000003" class="node">
<title>Node3</title>
<g id="a_Node000003"><a xlink:title=" ">
<polygon fill="white" stroke="none" points="104,-180 73,-180 73,-128 104,-128 104,-180"/>
<text text-anchor="start" x="78" y="-166.5" font-family="Helvetica,sans-Serif" font-size="10.00">table</text>
<text text-anchor="start" x="87" y="-150.5" font-family="Helvetica,sans-Serif" font-size="10.00"> </text>
<text text-anchor="start" x="87" y="-134.5" font-family="Helvetica,sans-Serif" font-size="10.00"> </text>
<polygon fill="#666666" stroke="#666666" points="73,-162 73,-162 104,-162 104,-162 73,-162"/>
<polygon fill="#666666" stroke="#666666" points="73,-146 73,-146 104,-146 104,-146 73,-146"/>
<polygon fill="none" stroke="#666666" points="73,-128 73,-180 104,-180 104,-128 73,-128"/>
</a>
</g>
</g>
<!-- Node3&#45;&gt;Node1 -->
<g id="edge2_Node000001_Node000003" class="edge">
<title>Node3&#45;&gt;Node1</title>
<g id="a_edge2_Node000001_Node000003"><a xlink:title=" ">
<path fill="none" stroke="#63b8ff" d="M102.82,-117.8C109.27,-101.94 116.84,-83.33 123.17,-67.77"/>
<polygon fill="none" stroke="#63b8ff" points="99.66,-116.28 99.13,-126.86 106.14,-118.92 99.66,-116.28"/>
</a>
</g>
</g>
<!-- Node4 -->
<g id="Node000004" class="node">
<title>Node4</title>
<g id="a_Node000004"><a xlink:title=" ">
<polygon fill="white" stroke="none" points="151,-180 122,-180 122,-128 151,-128 151,-180"/>
<text text-anchor="start" x="126.75" y="-166.5" font-family="Helvetica,sans-Serif" font-size="10.00">True</text>
<text text-anchor="start" x="135" y="-150.5" font-family="Helvetica,sans-Serif" font-size="10.00"> </text>
<text text-anchor="start" x="135" y="-134.5" font-family="Helvetica,sans-Serif" font-size="10.00"> </text>
<polygon fill="#666666" stroke="#666666" points="122,-162 122,-162 151,-162 151,-162 122,-162"/>
<polygon fill="#666666" stroke="#666666" points="122,-146 122,-146 151,-146 151,-146 122,-146"/>
<polygon fill="none" stroke="#666666" points="122,-128 122,-180 151,-180 151,-128 122,-128"/>
</a>
</g>
</g>
<!-- Node4&#45;&gt;Node1 -->
<g id="edge3_Node000001_Node000004" class="edge">
<title>Node4&#45;&gt;Node1</title>
<g id="a_edge3_Node000001_Node000004"><a xlink:title=" ">
<path fill="none" stroke="#63b8ff" d="M136.5,-116.88C136.5,-101.22 136.5,-83.03 136.5,-67.77"/>
<polygon fill="none" stroke="#63b8ff" points="133,-116.75 136.5,-126.75 140,-116.75 133,-116.75"/>
</a>
</g>
</g>
<!-- Node5 -->
<g id="Node000005" class="node">
<title>Node5</title>
<g id="a_Node000005"><a xlink:title=" ">
<polygon fill="white" stroke="none" points="215.5,-180 169.5,-180 169.5,-128 215.5,-128 215.5,-180"/>
<text text-anchor="start" x="174.5" y="-166.5" font-family="Helvetica,sans-Serif" font-size="10.00">Optional</text>
<text text-anchor="start" x="191" y="-150.5" font-family="Helvetica,sans-Serif" font-size="10.00"> </text>
<text text-anchor="start" x="191" y="-134.5" font-family="Helvetica,sans-Serif" font-size="10.00"> </text>
<polygon fill="#666666" stroke="#666666" points="169.5,-162 169.5,-162 215.5,-162 215.5,-162 169.5,-162"/>
<polygon fill="#666666" stroke="#666666" points="169.5,-146 169.5,-146 215.5,-146 215.5,-146 169.5,-146"/>
<polygon fill="none" stroke="#666666" points="169.5,-128 169.5,-180 215.5,-180 215.5,-128 169.5,-128"/>
</a>
</g>
</g>
<!-- Node5&#45;&gt;Node1 -->
<g id="edge4_Node000001_Node000005" class="edge">
<title>Node5&#45;&gt;Node1</title>
<g id="a_edge4_Node000001_Node000005"><a xlink:title=" ">
<path fill="none" stroke="#63b8ff" d="M180.76,-128.26C174.05,-114.12 165.43,-95.97 157.59,-79.44"/>
<polygon fill="none" stroke="#63b8ff" points="157.58,-79.42 151.4,-75.72 152.44,-68.58 158.62,-72.29 157.58,-79.42"/>
</a>
</g>
<text text-anchor="middle" x="198.16" y="-100.5" font-family="Helvetica,sans-Serif" font-size="10.00" fill="grey"> +id</text>
<text text-anchor="middle" x="198.16" y="-88.5" font-family="Helvetica,sans-Serif" font-size="10.00" fill="grey">+redirect_uri</text>
</g>
<!-- Node6 -->
<g id="Node000006" class="node">
<title>Node6</title>
<g id="a_Node000006"><a xlink:title=" ">
<polygon fill="white" stroke="none" points="287,-180 240,-180 240,-128 287,-128 287,-180"/>
<text text-anchor="start" x="244.75" y="-166.5" font-family="Helvetica,sans-Serif" font-size="10.00">datetime</text>
<text text-anchor="start" x="262" y="-150.5" font-family="Helvetica,sans-Serif" font-size="10.00"> </text>
<text text-anchor="start" x="262" y="-134.5" font-family="Helvetica,sans-Serif" font-size="10.00"> </text>
<polygon fill="#666666" stroke="#666666" points="240,-162 240,-162 287,-162 287,-162 240,-162"/>
<polygon fill="#666666" stroke="#666666" points="240,-146 240,-146 287,-146 287,-146 240,-146"/>
<polygon fill="none" stroke="#666666" points="240,-128 240,-180 287,-180 287,-128 240,-128"/>
</a>
</g>
</g>
<!-- Node6&#45;&gt;Node1 -->
<g id="edge5_Node000001_Node000006" class="edge">
<title>Node6&#45;&gt;Node1</title>
<g id="a_edge5_Node000001_Node000006"><a xlink:title=" ">
<path fill="none" stroke="#63b8ff" d="M255.08,-128.17C249.48,-114.48 241.02,-97.9 229.5,-86 225.82,-82.21 221.81,-78.62 217.57,-75.25"/>
<polygon fill="none" stroke="#63b8ff" points="217.74,-75.37 210.54,-75.06 208.06,-68.29 215.26,-68.6 217.74,-75.37"/>
</a>
</g>
<text text-anchor="middle" x="273.5" y="-94.5" font-family="Helvetica,sans-Serif" font-size="10.00" fill="grey"> +created_at</text>
</g>
</g>
</svg>
