<?xml version="1.0" encoding="UTF-8" standalone="no"?>
<!DOCTYPE svg PUBLIC "-//W3C//DTD SVG 1.1//EN"
 "http://www.w3.org/Graphics/SVG/1.1/DTD/svg11.dtd">
<!-- Generated by graphviz version 12.1.0 (20240811.2233)
 -->
<!-- Title: Graphical Class Hierarchy Pages: 1 -->
<svg width="497pt" height="1345pt"
 viewBox="0.00 0.00 497.00 1345.02" xmlns="http://www.w3.org/2000/svg" xmlns:xlink="http://www.w3.org/1999/xlink">
<g id="graph0" class="graph" transform="scale(1 1) rotate(0) translate(4 1341.02)">
<title>Graphical Class Hierarchy</title>
<!-- Node0 -->
<g id="Node000000" class="node">
<title>Node0</title>
<g id="a_Node000000"><a xlink:title=" ">
<polygon fill="#e0e0e0" stroke="#999999" points="49.38,-1052 12.38,-1052 12.38,-1032 49.38,-1032 49.38,-1052"/>
<text text-anchor="middle" x="30.88" y="-1038.5" font-family="Helvetica,sans-Serif" font-size="10.00">table</text>
</a>
</g>
</g>
<!-- Node1 -->
<g id="Node000001" class="node">
<title>Node1</title>
<g id="a_Node000001"><a xlink:href="classapp_1_1action_1_1Action.html" target="_top" xlink:title=" ">
<polygon fill="white" stroke="#666666" points="454.5,-1014 362.75,-1014 362.75,-994 454.5,-994 454.5,-1014"/>
<text text-anchor="middle" x="408.62" y="-1000.5" font-family="Helvetica,sans-Serif" font-size="10.00">app.action.Action</text>
</a>
</g>
</g>
<!-- Node0&#45;&gt;Node1 -->
<g id="edge8_Node000000_Node000001" class="edge">
<title>Node0&#45;&gt;Node1</title>
<g id="a_edge8_Node000000_Node000001"><a xlink:title=" ">
<path fill="none" stroke="#63b8ff" d="M34.8,-1063.5C42.34,-1115.33 64.21,-1244.78 97.75,-1270 166.84,-1321.95 222.96,-1321.68 292.25,-1270 337.23,-1236.46 306.66,-1200.79 328.25,-1149 350.34,-1096.02 386.36,-1037.32 401.06,-1014.17"/>
<polygon fill="#63b8ff" stroke="#63b8ff" points="38.3,-1063.27 33.44,-1053.86 31.37,-1064.25 38.3,-1063.27"/>
</a>
</g>
</g>
<!-- Node3 -->
<g id="Node000003" class="node">
<title>Node3</title>
<g id="a_Node000003"><a xlink:href="classapp_1_1oauth__models_1_1Area.html" target="_top" xlink:title=" ">
<polygon fill="white" stroke="#666666" points="254.38,-976 135.62,-976 135.62,-956 254.38,-956 254.38,-976"/>
<text text-anchor="middle" x="195" y="-962.5" font-family="Helvetica,sans-Serif" font-size="10.00">app.oauth_models.Area</text>
</a>
</g>
</g>
<!-- Node0&#45;&gt;Node3 -->
<g id="edge9_Node000000_Node000003" class="edge">
<title>Node0&#45;&gt;Node3</title>
<g id="a_edge9_Node000000_Node000003"><a xlink:title=" ">
<path fill="none" stroke="#63b8ff" d="M60.22,-1028.71C91.98,-1013.82 142.81,-989.99 171.82,-976.4"/>
<polygon fill="#63b8ff" stroke="#63b8ff" points="58.78,-1025.52 51.22,-1032.93 61.76,-1031.86 58.78,-1025.52"/>
</a>
</g>
</g>
<!-- Node6 -->
<g id="Node000006" class="node">
<title>Node6</title>
<g id="a_Node000006"><a xlink:href="classapp_1_1oauth__models_1_1OAuthConnection.html" target="_top" xlink:title=" ">
<polygon fill="white" stroke="#666666" points="282.88,-938 107.12,-938 107.12,-918 282.88,-918 282.88,-938"/>
<text text-anchor="middle" x="195" y="-924.5" font-family="Helvetica,sans-Serif" font-size="10.00">app.oauth_models.OAuthConnection</text>
</a>
</g>
</g>
<!-- Node0&#45;&gt;Node6 -->
<g id="edge10_Node000000_Node000006" class="edge">
<title>Node0&#45;&gt;Node6</title>
<g id="a_edge10_Node000000_Node000006"><a xlink:title=" ">
<path fill="none" stroke="#63b8ff" d="M43.49,-1021.67C58.15,-996.71 83.2,-956.53 97.75,-947 103.02,-943.55 108.78,-940.7 114.78,-938.35"/>
<polygon fill="#63b8ff" stroke="#63b8ff" points="40.48,-1019.88 38.49,-1030.29 46.54,-1023.39 40.48,-1019.88"/>
</a>
</g>
</g>
<!-- Node7 -->
<g id="Node000007" class="node">
<title>Node7</title>
<g id="a_Node000007"><a xlink:href="classapp_1_1oauth__models_1_1OAuthState.html" target="_top" xlink:title=" ">
<polygon fill="white" stroke="#666666" points="269.75,-900 120.25,-900 120.25,-880 269.75,-880 269.75,-900"/>
<text text-anchor="middle" x="195" y="-886.5" font-family="Helvetica,sans-Serif" font-size="10.00">app.oauth_models.OAuthState</text>
</a>
</g>
</g>
<!-- Node0&#45;&gt;Node7 -->
<g id="edge11_Node000000_Node000007" class="edge">
<title>Node0&#45;&gt;Node7</title>
<g id="a_edge11_Node000000_Node000007"><a xlink:title=" ">
<path fill="none" stroke="#63b8ff" d="M42.9,-1021.45C48.63,-1010.65 55.68,-997.17 61.75,-985 78.43,-951.55 68.26,-931.96 97.75,-909 104.33,-903.87 111.92,-900.01 119.89,-897.12"/>
<polygon fill="#63b8ff" stroke="#63b8ff" points="39.84,-1019.75 38.22,-1030.22 46.02,-1023.05 39.84,-1019.75"/>
</a>
</g>
</g>
<!-- Node8 -->
<g id="Node000008" class="node">
<title>Node8</title>
<g id="a_Node000008"><a xlink:href="classapp_1_1oauth__models_1_1Service.html" target="_top" xlink:title=" ">
<polygon fill="white" stroke="#666666" points="260.75,-862 129.25,-862 129.25,-842 260.75,-842 260.75,-862"/>
<text text-anchor="middle" x="195" y="-848.5" font-family="Helvetica,sans-Serif" font-size="10.00">app.oauth_models.Service</text>
</a>
</g>
</g>
<!-- Node0&#45;&gt;Node8 -->
<g id="edge12_Node000000_Node000008" class="edge">
<title>Node0&#45;&gt;Node8</title>
<g id="a_edge12_Node000000_Node000008"><a xlink:title=" ">
<path fill="none" stroke="#63b8ff" d="M43.6,-1021.77C49.52,-1011.06 56.53,-997.56 61.75,-985 82.16,-935.94 58.15,-906.43 97.75,-871 106.51,-863.16 117.54,-858.17 128.98,-855.06"/>
<polygon fill="#63b8ff" stroke="#63b8ff" points="40.57,-1020.02 38.69,-1030.44 46.66,-1023.46 40.57,-1020.02"/>
</a>
</g>
</g>
<!-- Node9 -->
<g id="Node000009" class="node">
<title>Node9</title>
<g id="a_Node000009"><a xlink:href="classapp_1_1oauth__models_1_1ServiceAccount.html" target="_top" xlink:title=" ">
<polygon fill="white" stroke="#666666" points="260.75,-824 129.25,-824 129.25,-792 260.75,-792 260.75,-824"/>
<text text-anchor="start" x="137.25" y="-810.5" font-family="Helvetica,sans-Serif" font-size="10.00">app.oauth_models.Service</text>
<text text-anchor="middle" x="195" y="-798.5" font-family="Helvetica,sans-Serif" font-size="10.00">Account</text>
</a>
</g>
</g>
<!-- Node0&#45;&gt;Node9 -->
<g id="edge13_Node000000_Node000009" class="edge">
<title>Node0&#45;&gt;Node9</title>
<g id="a_edge13_Node000000_Node000009"><a xlink:title=" ">
<path fill="none" stroke="#63b8ff" d="M43.98,-1021.92C50,-1011.25 56.99,-997.74 61.75,-985 86.05,-919.97 49.19,-882.62 97.75,-833 106.2,-824.36 117.23,-818.58 128.79,-814.74"/>
<polygon fill="#63b8ff" stroke="#63b8ff" points="40.96,-1020.15 38.95,-1030.55 47.01,-1023.67 40.96,-1020.15"/>
</a>
</g>
</g>
<!-- Node10 -->
<g id="Node000010" class="node">
<title>Node10</title>
<g id="a_Node000010"><a xlink:href="classapp_1_1oauth__models_1_1ServiceAction.html" target="_top" xlink:title=" ">
<polygon fill="white" stroke="#666666" points="260.75,-774 129.25,-774 129.25,-742 260.75,-742 260.75,-774"/>
<text text-anchor="start" x="137.25" y="-760.5" font-family="Helvetica,sans-Serif" font-size="10.00">app.oauth_models.Service</text>
<text text-anchor="middle" x="195" y="-748.5" font-family="Helvetica,sans-Serif" font-size="10.00">Action</text>
</a>
</g>
</g>
<!-- Node0&#45;&gt;Node10 -->
<g id="edge14_Node000000_Node000010" class="edge">
<title>Node0&#45;&gt;Node10</title>
<g id="a_edge14_Node000000_Node000010"><a xlink:title=" ">
<path fill="none" stroke="#63b8ff" d="M44.5,-1021.63C50.55,-1011.05 57.4,-997.71 61.75,-985 91.26,-898.72 35.82,-849.94 97.75,-783 106.07,-774 117.18,-768.07 128.9,-764.2"/>
<polygon fill="#63b8ff" stroke="#63b8ff" points="41.5,-1019.83 39.4,-1030.21 47.52,-1023.4 41.5,-1019.83"/>
</a>
</g>
</g>
<!-- Node11 -->
<g id="Node000011" class="node">
<title>Node11</title>
<g id="a_Node000011"><a xlink:href="classapp_1_1oauth__models_1_1ServiceReaction.html" target="_top" xlink:title=" ">
<polygon fill="white" stroke="#666666" points="260.75,-1228 129.25,-1228 129.25,-1196 260.75,-1196 260.75,-1228"/>
<text text-anchor="start" x="137.25" y="-1214.5" font-family="Helvetica,sans-Serif" font-size="10.00">app.oauth_models.Service</text>
<text text-anchor="middle" x="195" y="-1202.5" font-family="Helvetica,sans-Serif" font-size="10.00">Reaction</text>
</a>
</g>
</g>
<!-- Node0&#45;&gt;Node11 -->
<g id="edge15_Node000000_Node000011" class="edge">
<title>Node0&#45;&gt;Node11</title>
<g id="a_edge15_Node000000_Node000011"><a xlink:title=" ">
<path fill="none" stroke="#63b8ff" d="M36.18,-1063.2C43.5,-1093.82 61.25,-1150.21 97.75,-1182 106.72,-1189.82 117.72,-1195.6 129.04,-1199.87"/>
<polygon fill="#63b8ff" stroke="#63b8ff" points="39.64,-1062.63 34.06,-1053.63 32.81,-1064.15 39.64,-1062.63"/>
</a>
</g>
</g>
<!-- Node12 -->
<g id="Node000012" class="node">
<title>Node12</title>
<g id="a_Node000012"><a xlink:href="classapp_1_1oauth__models_1_1UserServiceSubscription.html" target="_top" xlink:title=" ">
<polygon fill="white" stroke="#666666" points="271.25,-1140 118.75,-1140 118.75,-1108 271.25,-1108 271.25,-1140"/>
<text text-anchor="start" x="126.75" y="-1126.5" font-family="Helvetica,sans-Serif" font-size="10.00">app.oauth_models.UserService</text>
<text text-anchor="middle" x="195" y="-1114.5" font-family="Helvetica,sans-Serif" font-size="10.00">Subscription</text>
</a>
</g>
</g>
<!-- Node0&#45;&gt;Node12 -->
<g id="edge16_Node000000_Node000012" class="edge">
<title>Node0&#45;&gt;Node12</title>
<g id="a_edge16_Node000000_Node000012"><a xlink:title=" ">
<path fill="none" stroke="#63b8ff" d="M48.72,-1060.51C61.13,-1073.09 79.04,-1089.17 97.75,-1099 104.25,-1102.41 111.24,-1105.38 118.38,-1107.96"/>
<polygon fill="#63b8ff" stroke="#63b8ff" points="51.54,-1058.39 42.1,-1053.57 46.47,-1063.22 51.54,-1058.39"/>
</a>
</g>
</g>
<!-- Node14 -->
<g id="Node000014" class="node">
<title>Node14</title>
<g id="a_Node000014"><a xlink:href="classapp_1_1reaction_1_1Reaction.html" target="_top" xlink:title=" ">
<polygon fill="white" stroke="#666666" points="464.25,-1178 353,-1178 353,-1158 464.25,-1158 464.25,-1178"/>
<text text-anchor="middle" x="408.62" y="-1164.5" font-family="Helvetica,sans-Serif" font-size="10.00">app.reaction.Reaction</text>
</a>
</g>
</g>
<!-- Node0&#45;&gt;Node14 -->
<g id="edge17_Node000000_Node000014" class="edge">
<title>Node0&#45;&gt;Node14</title>
<g id="a_edge17_Node000000_Node000014"><a xlink:title=" ">
<path fill="none" stroke="#63b8ff" d="M33.97,-1063.49C40.01,-1120.5 59.53,-1273.23 97.75,-1303 165.95,-1356.12 213.74,-1339.18 292.25,-1303 349.93,-1276.42 389.49,-1205.2 402.74,-1178.4"/>
<polygon fill="#63b8ff" stroke="#63b8ff" points="37.48,-1063.4 32.98,-1053.8 30.51,-1064.11 37.48,-1063.4"/>
</a>
</g>
</g>
<!-- Node31 -->
<g id="Node000031" class="node">
<title>Node31</title>
<g id="a_Node000031"><a xlink:href="classapp_1_1user_1_1User.html" target="_top" xlink:title=" ">
<polygon fill="white" stroke="#666666" points="447.38,-686 369.88,-686 369.88,-666 447.38,-666 447.38,-686"/>
<text text-anchor="middle" x="408.62" y="-672.5" font-family="Helvetica,sans-Serif" font-size="10.00">app.user.User</text>
</a>
</g>
</g>
<!-- Node0&#45;&gt;Node31 -->
<g id="edge18_Node000000_Node000031" class="edge">
<title>Node0&#45;&gt;Node31</title>
<g id="a_edge18_Node000000_Node000031"><a xlink:title=" ">
<path fill="none" stroke="#63b8ff" d="M31.69,-1063.7C32.65,-1105.5 41.45,-1196.59 97.75,-1237 132.86,-1262.2 259.6,-1265.32 292.25,-1237 334.98,-1199.94 317.2,-1040.48 328.25,-985 351.9,-866.31 393,-725.12 404.54,-686.31"/>
<polygon fill="#63b8ff" stroke="#63b8ff" points="35.19,-1063.91 31.61,-1053.94 28.19,-1063.96 35.19,-1063.91"/>
</a>
</g>
</g>
<!-- Node32 -->
<g id="Node000032" class="node">
<title>Node32</title>
<g id="a_Node000032"><a xlink:href="classapp_1_1user__action_1_1UserAction.html" target="_top" xlink:title=" ">
<polygon fill="white" stroke="#666666" points="263.38,-1090 126.62,-1090 126.62,-1070 263.38,-1070 263.38,-1090"/>
<text text-anchor="middle" x="195" y="-1076.5" font-family="Helvetica,sans-Serif" font-size="10.00">app.user_action.UserAction</text>
</a>
</g>
</g>
<!-- Node0&#45;&gt;Node32 -->
<g id="edge19_Node000000_Node000032" class="edge">
<title>Node0&#45;&gt;Node32</title>
<g id="a_edge19_Node000000_Node000032"><a xlink:title=" ">
<path fill="none" stroke="#63b8ff" d="M60.43,-1050.82C71.96,-1054.22 85.43,-1058.01 97.75,-1061 110.25,-1064.03 123.75,-1066.93 136.57,-1069.5"/>
<polygon fill="#63b8ff" stroke="#63b8ff" points="61.69,-1047.54 51.11,-1048.01 59.68,-1054.24 61.69,-1047.54"/>
</a>
</g>
</g>
<!-- Node33 -->
<g id="Node000033" class="node">
<title>Node33</title>
<g id="a_Node000033"><a xlink:href="classapp_1_1user__reaction_1_1UserReaction.html" target="_top" xlink:title=" ">
<polygon fill="white" stroke="#666666" points="273.12,-1052 116.88,-1052 116.88,-1032 273.12,-1032 273.12,-1052"/>
<text text-anchor="middle" x="195" y="-1038.5" font-family="Helvetica,sans-Serif" font-size="10.00">app.user_reaction.UserReaction</text>
</a>
</g>
</g>
<!-- Node0&#45;&gt;Node33 -->
<g id="edge20_Node000000_Node000033" class="edge">
<title>Node0&#45;&gt;Node33</title>
<g id="a_edge20_Node000000_Node000033"><a xlink:title=" ">
<path fill="none" stroke="#63b8ff" d="M61.34,-1042C76.96,-1042 96.95,-1042 116.64,-1042"/>
<polygon fill="#63b8ff" stroke="#63b8ff" points="61.36,-1038.5 51.36,-1042 61.36,-1045.5 61.36,-1038.5"/>
</a>
</g>
</g>
<!-- Node2 -->
<g id="Node000002" class="node">
<title>Node2</title>
<g id="a_Node000002"><a xlink:title=" ">
<polygon fill="#e0e0e0" stroke="#999999" points="48.62,-976 13.12,-976 13.12,-956 48.62,-956 48.62,-976"/>
<text text-anchor="middle" x="30.88" y="-962.5" font-family="Helvetica,sans-Serif" font-size="10.00">True</text>
</a>
</g>
</g>
<!-- Node2&#45;&gt;Node1 -->
<g id="edge21_Node000002_Node000001" class="edge">
<title>Node2&#45;&gt;Node1</title>
<g id="a_edge21_Node000002_Node000001"><a xlink:title=" ">
<path fill="none" stroke="#63b8ff" d="M59.77,-975.51C71.38,-979.09 85.08,-982.81 97.75,-985 190.83,-1001.08 301.69,-1004.05 362.36,-1004.32"/>
<polygon fill="#63b8ff" stroke="#63b8ff" points="61,-972.24 50.41,-972.52 58.87,-978.9 61,-972.24"/>
</a>
</g>
</g>
<!-- Node2&#45;&gt;Node3 -->
<g id="edge22_Node000002_Node000003" class="edge">
<title>Node2&#45;&gt;Node3</title>
<g id="a_edge22_Node000002_Node000003"><a xlink:title=" ">
<path fill="none" stroke="#63b8ff" d="M60.37,-966C81.04,-966 109.74,-966 135.24,-966"/>
<polygon fill="#63b8ff" stroke="#63b8ff" points="60.43,-962.5 50.43,-966 60.43,-969.5 60.43,-962.5"/>
</a>
</g>
</g>
<!-- Node2&#45;&gt;Node6 -->
<g id="edge23_Node000002_Node000006" class="edge">
<title>Node2&#45;&gt;Node6</title>
<g id="a_edge23_Node000002_Node000006"><a xlink:title=" ">
<path fill="none" stroke="#63b8ff" d="M59.94,-957.33C71.58,-953.88 85.26,-950.03 97.75,-947 110.25,-943.97 123.75,-941.07 136.57,-938.5"/>
<polygon fill="#63b8ff" stroke="#63b8ff" points="59.12,-953.92 50.55,-960.15 61.14,-960.62 59.12,-953.92"/>
</a>
</g>
</g>
<!-- Node2&#45;&gt;Node7 -->
<g id="edge24_Node000002_Node000007" class="edge">
<title>Node2&#45;&gt;Node7</title>
<g id="a_edge24_Node000002_Node000007"><a xlink:title=" ">
<path fill="none" stroke="#63b8ff" d="M48.11,-947.59C60.45,-934.78 78.54,-918.38 97.75,-909 104.79,-905.56 112.41,-902.75 120.17,-900.44"/>
<polygon fill="#63b8ff" stroke="#63b8ff" points="45.8,-944.93 41.57,-954.65 50.94,-949.69 45.8,-944.93"/>
</a>
</g>
</g>
<!-- Node2&#45;&gt;Node8 -->
<g id="edge25_Node000002_Node000008" class="edge">
<title>Node2&#45;&gt;Node8</title>
<g id="a_edge25_Node000002_Node000008"><a xlink:title=" ">
<path fill="none" stroke="#63b8ff" d="M40.39,-945.48C50.64,-923.45 70.01,-889.16 97.75,-871 107.08,-864.89 117.94,-860.66 128.93,-857.75"/>
<polygon fill="#63b8ff" stroke="#63b8ff" points="37.31,-943.79 36.47,-954.35 43.71,-946.61 37.31,-943.79"/>
</a>
</g>
</g>
<!-- Node2&#45;&gt;Node9 -->
<g id="edge26_Node000002_Node000009" class="edge">
<title>Node2&#45;&gt;Node9</title>
<g id="a_edge26_Node000002_Node000009"><a xlink:title=" ">
<path fill="none" stroke="#63b8ff" d="M36.63,-944.35C44.29,-914.71 62.23,-861.87 97.75,-833 106.73,-825.7 117.6,-820.51 128.75,-816.83"/>
<polygon fill="#63b8ff" stroke="#63b8ff" points="33.24,-943.49 34.31,-954.03 40.05,-945.12 33.24,-943.49"/>
</a>
</g>
</g>
<!-- Node2&#45;&gt;Node10 -->
<g id="edge27_Node000002_Node000010" class="edge">
<title>Node2&#45;&gt;Node10</title>
<g id="a_edge27_Node000002_Node000010"><a xlink:title=" ">
<path fill="none" stroke="#63b8ff" d="M33.28,-944.69C36.96,-906.5 50.24,-826.35 97.75,-783 106.55,-774.97 117.6,-769.45 129.04,-765.68"/>
<polygon fill="#63b8ff" stroke="#63b8ff" points="29.81,-944.16 32.48,-954.41 36.78,-944.73 29.81,-944.16"/>
</a>
</g>
</g>
<!-- Node2&#45;&gt;Node11 -->
<g id="edge28_Node000002_Node000011" class="edge">
<title>Node2&#45;&gt;Node11</title>
<g id="a_edge28_Node000002_Node000011"><a xlink:title=" ">
<path fill="none" stroke="#63b8ff" d="M44.03,-986.06C50.07,-996.73 57.05,-1010.24 61.75,-1023 86.78,-1090.99 48.59,-1128.77 97.75,-1182 106.18,-1191.13 117.34,-1197.5 129.06,-1201.95"/>
<polygon fill="#63b8ff" stroke="#63b8ff" points="47.06,-984.3 38.99,-977.44 41.02,-987.84 47.06,-984.3"/>
</a>
</g>
</g>
<!-- Node2&#45;&gt;Node12 -->
<g id="edge29_Node000002_Node000012" class="edge">
<title>Node2&#45;&gt;Node12</title>
<g id="a_edge29_Node000002_Node000012"><a xlink:title=" ">
<path fill="none" stroke="#63b8ff" d="M42.9,-986.55C48.63,-997.35 55.68,-1010.83 61.75,-1023 78.43,-1056.45 68.95,-1075.17 97.75,-1099 103.87,-1104.06 110.9,-1108.11 118.31,-1111.35"/>
<polygon fill="#63b8ff" stroke="#63b8ff" points="46.02,-984.95 38.22,-977.78 39.84,-988.25 46.02,-984.95"/>
</a>
</g>
</g>
<!-- Node2&#45;&gt;Node14 -->
<g id="edge30_Node000002_Node000014" class="edge">
<title>Node2&#45;&gt;Node14</title>
<g id="a_edge30_Node000002_Node000014"><a xlink:title=" ">
<path fill="none" stroke="#63b8ff" d="M43.74,-986.17C49.7,-996.87 56.7,-1010.37 61.75,-1023 83.38,-1077.07 52.35,-1112.52 97.75,-1149 135.67,-1179.47 274.17,-1176.42 352.56,-1171.97"/>
<polygon fill="#63b8ff" stroke="#63b8ff" points="46.79,-984.46 38.79,-977.52 40.72,-987.93 46.79,-984.46"/>
</a>
</g>
</g>
<!-- Node2&#45;&gt;Node31 -->
<g id="edge31_Node000002_Node000031" class="edge">
<title>Node2&#45;&gt;Node31</title>
<g id="a_edge31_Node000002_Node000031"><a xlink:title=" ">
<path fill="none" stroke="#63b8ff" d="M33.86,-944.59C39.74,-886.36 59.09,-727.35 97.75,-695 137.95,-661.36 295.94,-667.87 369.53,-672.94"/>
<polygon fill="#63b8ff" stroke="#63b8ff" points="30.41,-943.89 32.93,-954.18 37.38,-944.56 30.41,-943.89"/>
</a>
</g>
</g>
<!-- Node2&#45;&gt;Node32 -->
<g id="edge32_Node000002_Node000032" class="edge">
<title>Node2&#45;&gt;Node32</title>
<g id="a_edge32_Node000002_Node000032"><a xlink:title=" ">
<path fill="none" stroke="#63b8ff" d="M43.49,-986.33C58.15,-1011.29 83.2,-1051.47 97.75,-1061 106.3,-1066.6 116.13,-1070.62 126.17,-1073.49"/>
<polygon fill="#63b8ff" stroke="#63b8ff" points="46.54,-984.61 38.49,-977.71 40.48,-988.12 46.54,-984.61"/>
</a>
</g>
</g>
<!-- Node2&#45;&gt;Node33 -->
<g id="edge33_Node000002_Node000033" class="edge">
<title>Node2&#45;&gt;Node33</title>
<g id="a_edge33_Node000002_Node000033"><a xlink:title=" ">
<path fill="none" stroke="#63b8ff" d="M50.23,-984.01C62.69,-995.31 80.07,-1009.32 97.75,-1018 109.34,-1023.69 122.41,-1028.11 135.08,-1031.51"/>
<polygon fill="#63b8ff" stroke="#63b8ff" points="52.88,-981.7 43.19,-977.42 48.09,-986.81 52.88,-981.7"/>
</a>
</g>
</g>
<!-- Node4 -->
<g id="Node000004" class="node">
<title>Node4</title>
<g id="a_Node000004"><a xlink:title=" ">
<polygon fill="#e0e0e0" stroke="#999999" points="61.75,-588 0,-588 0,-568 61.75,-568 61.75,-588"/>
<text text-anchor="middle" x="30.88" y="-574.5" font-family="Helvetica,sans-Serif" font-size="10.00">SQLModel</text>
</a>
</g>
</g>
<!-- Node4&#45;&gt;Node3 -->
<g id="edge36_Node000004_Node000003" class="edge">
<title>Node4&#45;&gt;Node3</title>
<g id="a_edge36_Node000004_Node000003"><a xlink:title=" ">
<path fill="none" stroke="#63b8ff" d="M32.65,-599.88C35.63,-671.5 48.82,-897.17 97.75,-947 107.71,-957.15 121.42,-962.7 135.36,-965.57"/>
<polygon fill="#63b8ff" stroke="#63b8ff" points="36.14,-599.75 32.26,-589.89 29.15,-600.02 36.14,-599.75"/>
</a>
</g>
</g>
<!-- Node4&#45;&gt;Node6 -->
<g id="edge37_Node000004_Node000006" class="edge">
<title>Node4&#45;&gt;Node6</title>
<g id="a_edge37_Node000004_Node000006"><a xlink:title=" ">
<path fill="none" stroke="#63b8ff" d="M33.13,-599.76C37.41,-666.28 53.73,-865.05 97.75,-909 101.12,-912.37 104.91,-915.23 108.98,-917.65"/>
<polygon fill="#63b8ff" stroke="#63b8ff" points="36.62,-599.58 32.52,-589.82 29.64,-600.01 36.62,-599.58"/>
</a>
</g>
</g>
<!-- Node4&#45;&gt;Node7 -->
<g id="edge38_Node000004_Node000007" class="edge">
<title>Node4&#45;&gt;Node7</title>
<g id="a_edge38_Node000004_Node000007"><a xlink:title=" ">
<path fill="none" stroke="#63b8ff" d="M33.73,-599.64C39.4,-660.78 58.61,-832.88 97.75,-871 104.09,-877.18 111.83,-881.63 120.14,-884.81"/>
<polygon fill="#63b8ff" stroke="#63b8ff" points="37.23,-599.52 32.85,-589.87 30.26,-600.14 37.23,-599.52"/>
</a>
</g>
</g>
<!-- Node4&#45;&gt;Node8 -->
<g id="edge39_Node000004_Node000008" class="edge">
<title>Node4&#45;&gt;Node8</title>
<g id="a_edge39_Node000004_Node000008"><a xlink:title=" ">
<path fill="none" stroke="#63b8ff" d="M34.52,-599.72C41.72,-655.32 63.51,-800.68 97.75,-833 106.42,-841.18 117.55,-846.31 129.14,-849.44"/>
<polygon fill="#63b8ff" stroke="#63b8ff" points="38.01,-599.44 33.29,-589.96 31.06,-600.32 38.01,-599.44"/>
</a>
</g>
</g>
<!-- Node4&#45;&gt;Node9 -->
<g id="edge40_Node000004_Node000009" class="edge">
<title>Node4&#45;&gt;Node9</title>
<g id="a_edge40_Node000004_Node000009"><a xlink:title=" ">
<path fill="none" stroke="#63b8ff" d="M32.33,-599.8C34.44,-641.6 45.16,-733.32 97.75,-783 106.41,-791.18 117.39,-796.77 128.82,-800.57"/>
<polygon fill="#63b8ff" stroke="#63b8ff" points="35.83,-599.69 31.97,-589.82 28.84,-599.94 35.83,-599.69"/>
</a>
</g>
</g>
<!-- Node4&#45;&gt;Node10 -->
<g id="edge41_Node000004_Node000010" class="edge">
<title>Node4&#45;&gt;Node10</title>
<g id="a_edge41_Node000004_Node000010"><a xlink:title=" ">
<path fill="none" stroke="#63b8ff" d="M34.87,-599.31C40.72,-632.86 56.91,-697.79 97.75,-733 106.64,-740.67 117.6,-746.02 128.9,-749.76"/>
<polygon fill="#63b8ff" stroke="#63b8ff" points="38.35,-598.94 33.33,-589.61 31.44,-600.03 38.35,-598.94"/>
</a>
</g>
</g>
<!-- Node4&#45;&gt;Node11 -->
<g id="edge42_Node000004_Node000011" class="edge">
<title>Node4&#45;&gt;Node11</title>
<g id="a_edge42_Node000004_Node000011"><a xlink:title=" ">
<path fill="none" stroke="#63b8ff" d="M33.29,-599.74C39.87,-698.42 68.34,-1101.36 97.75,-1149 110.65,-1169.9 133.38,-1185.26 153.51,-1195.58"/>
<polygon fill="#63b8ff" stroke="#63b8ff" points="36.79,-599.61 32.64,-589.86 29.81,-600.07 36.79,-599.61"/>
</a>
</g>
</g>
<!-- Node4&#45;&gt;Node12 -->
<g id="edge43_Node000004_Node000012" class="edge">
<title>Node4&#45;&gt;Node12</title>
<g id="a_edge43_Node000004_Node000012"><a xlink:title=" ">
<path fill="none" stroke="#63b8ff" d="M33.2,-599.82C39.11,-693.79 64.19,-1060.83 97.75,-1099 103.45,-1105.48 110.59,-1110.39 118.4,-1114.08"/>
<polygon fill="#63b8ff" stroke="#63b8ff" points="36.7,-599.72 32.59,-589.95 29.72,-600.15 36.7,-599.72"/>
</a>
</g>
</g>
<!-- Node4&#45;&gt;Node32 -->
<g id="edge63_Node000004_Node000032" class="edge">
<title>Node4&#45;&gt;Node32</title>
<g id="a_edge63_Node000004_Node000032"><a xlink:title=" ">
<path fill="none" stroke="#63b8ff" d="M33.34,-599.39C39.64,-688.46 65.53,-1026.8 97.75,-1061 105.46,-1069.18 115.59,-1074.41 126.38,-1077.66"/>
<polygon fill="#63b8ff" stroke="#63b8ff" points="36.85,-599.37 32.66,-589.64 29.86,-599.86 36.85,-599.37"/>
</a>
</g>
</g>
<!-- Node4&#45;&gt;Node33 -->
<g id="edge64_Node000004_Node000033" class="edge">
<title>Node4&#45;&gt;Node33</title>
<g id="a_edge64_Node000004_Node000033"><a xlink:title=" ">
<path fill="none" stroke="#63b8ff" d="M32.98,-599.53C37.17,-674.2 54.11,-920.98 97.75,-985 113.17,-1007.63 140.8,-1022.62 162.52,-1031.52"/>
<polygon fill="#63b8ff" stroke="#63b8ff" points="36.49,-599.68 32.46,-589.88 29.5,-600.05 36.49,-599.68"/>
</a>
</g>
</g>
<!-- Node5 -->
<g id="Node000005" class="node">
<title>Node5</title>
<g id="a_Node000005"><a xlink:href="classapp_1_1action_1_1BaseAction.html" target="_top" xlink:title=" ">
<polygon fill="white" stroke="#666666" points="252.12,-648 137.88,-648 137.88,-628 252.12,-628 252.12,-648"/>
<text text-anchor="middle" x="195" y="-634.5" font-family="Helvetica,sans-Serif" font-size="10.00">app.action.BaseAction</text>
</a>
</g>
</g>
<!-- Node4&#45;&gt;Node5 -->
<g id="edge34_Node000004_Node000005" class="edge">
<title>Node4&#45;&gt;Node5</title>
<g id="a_edge34_Node000004_Node000005"><a xlink:title=" ">
<path fill="none" stroke="#63b8ff" d="M54.6,-595.01C66.82,-603.39 82.48,-612.97 97.75,-619 110.27,-623.94 124.22,-627.64 137.54,-630.39"/>
<polygon fill="#63b8ff" stroke="#63b8ff" points="56.64,-592.17 46.46,-589.23 52.59,-597.87 56.64,-592.17"/>
</a>
</g>
</g>
<!-- Node13 -->
<g id="Node000013" class="node">
<title>Node13</title>
<g id="a_Node000013"><a xlink:href="classapp_1_1reaction_1_1BaseReaction.html" target="_top" xlink:title=" ">
<polygon fill="white" stroke="#666666" points="261.88,-724 128.12,-724 128.12,-704 261.88,-704 261.88,-724"/>
<text text-anchor="middle" x="195" y="-710.5" font-family="Helvetica,sans-Serif" font-size="10.00">app.reaction.BaseReaction</text>
</a>
</g>
</g>
<!-- Node4&#45;&gt;Node13 -->
<g id="edge44_Node000004_Node000013" class="edge">
<title>Node4&#45;&gt;Node13</title>
<g id="a_edge44_Node000004_Node000013"><a xlink:title=" ">
<path fill="none" stroke="#63b8ff" d="M45.19,-597.48C57.48,-614.54 76.95,-639.29 97.75,-657 120.82,-676.64 151.51,-693.51 171.97,-703.69"/>
<polygon fill="#63b8ff" stroke="#63b8ff" points="48.31,-595.84 39.69,-589.68 42.59,-599.87 48.31,-595.84"/>
</a>
</g>
</g>
<!-- Node15 -->
<g id="Node000015" class="node">
<title>Node15</title>
<g id="a_Node000015"><a xlink:href="classapp_1_1schemas_1_1services_1_1ActionRead.html" target="_top" xlink:title=" ">
<polygon fill="white" stroke="#666666" points="279.12,-610 110.88,-610 110.88,-590 279.12,-590 279.12,-610"/>
<text text-anchor="middle" x="195" y="-596.5" font-family="Helvetica,sans-Serif" font-size="10.00">app.schemas.services.ActionRead</text>
</a>
</g>
</g>
<!-- Node4&#45;&gt;Node15 -->
<g id="edge46_Node000004_Node000015" class="edge">
<title>Node4&#45;&gt;Node15</title>
<g id="a_edge46_Node000004_Node000015"><a xlink:title=" ">
<path fill="none" stroke="#63b8ff" d="M73.17,-583.6C86.51,-585.41 101.75,-587.48 116.82,-589.53"/>
<polygon fill="#63b8ff" stroke="#63b8ff" points="73.87,-580.17 63.49,-582.29 72.93,-587.1 73.87,-580.17"/>
</a>
</g>
</g>
<!-- Node16 -->
<g id="Node000016" class="node">
<title>Node16</title>
<g id="a_Node000016"><a xlink:href="classapp_1_1schemas_1_1services_1_1AreaActionDetail.html" target="_top" xlink:title=" ">
<polygon fill="white" stroke="#666666" points="263.75,-572 126.25,-572 126.25,-540 263.75,-540 263.75,-572"/>
<text text-anchor="start" x="134.25" y="-558.5" font-family="Helvetica,sans-Serif" font-size="10.00">app.schemas.services.Area</text>
<text text-anchor="middle" x="195" y="-546.5" font-family="Helvetica,sans-Serif" font-size="10.00">ActionDetail</text>
</a>
</g>
</g>
<!-- Node4&#45;&gt;Node16 -->
<g id="edge47_Node000004_Node000016" class="edge">
<title>Node4&#45;&gt;Node16</title>
<g id="a_edge47_Node000004_Node000016"><a xlink:title=" ">
<path fill="none" stroke="#63b8ff" d="M73.16,-572.4C89.24,-570.22 108.09,-567.66 126.07,-565.22"/>
<polygon fill="#63b8ff" stroke="#63b8ff" points="72.93,-568.9 63.49,-573.71 73.87,-575.83 72.93,-568.9"/>
</a>
</g>
</g>
<!-- Node17 -->
<g id="Node000017" class="node">
<title>Node17</title>
<g id="a_Node000017"><a xlink:href="classapp_1_1schemas_1_1services_1_1AreaBase.html" target="_top" xlink:title=" ">
<polygon fill="white" stroke="#666666" points="275,-20 115,-20 115,0 275,0 275,-20"/>
<text text-anchor="middle" x="195" y="-6.5" font-family="Helvetica,sans-Serif" font-size="10.00">app.schemas.services.AreaBase</text>
</a>
</g>
</g>
<!-- Node4&#45;&gt;Node17 -->
<g id="edge48_Node000004_Node000017" class="edge">
<title>Node4&#45;&gt;Node17</title>
<g id="a_edge48_Node000004_Node000017"><a xlink:title=" ">
<path fill="none" stroke="#63b8ff" d="M32.98,-556.51C38.14,-459.86 61.17,-68.45 97.75,-29 102.61,-23.75 108.47,-19.72 114.87,-16.64"/>
<polygon fill="#63b8ff" stroke="#63b8ff" points="29.49,-556.23 32.46,-566.4 36.48,-556.59 29.49,-556.23"/>
</a>
</g>
</g>
<!-- Node19 -->
<g id="Node000019" class="node">
<title>Node19</title>
<g id="a_Node000019"><a xlink:href="classapp_1_1schemas_1_1services_1_1AreaCreate.html" target="_top" xlink:title=" ">
<polygon fill="white" stroke="#666666" points="263.75,-446 126.25,-446 126.25,-414 263.75,-414 263.75,-446"/>
<text text-anchor="start" x="134.25" y="-432.5" font-family="Helvetica,sans-Serif" font-size="10.00">app.schemas.services.Area</text>
<text text-anchor="middle" x="195" y="-420.5" font-family="Helvetica,sans-Serif" font-size="10.00">Create</text>
</a>
</g>
</g>
<!-- Node4&#45;&gt;Node19 -->
<g id="edge50_Node000004_Node000019" class="edge">
<title>Node4&#45;&gt;Node19</title>
<g id="a_edge50_Node000004_Node000019"><a xlink:title=" ">
<path fill="none" stroke="#63b8ff" d="M37.47,-556.77C45.86,-529.11 64.42,-481.23 97.75,-455 106.03,-448.49 115.82,-443.66 125.95,-440.08"/>
<polygon fill="#63b8ff" stroke="#63b8ff" points="34.18,-555.54 34.81,-566.12 40.91,-557.46 34.18,-555.54"/>
</a>
</g>
</g>
<!-- Node20 -->
<g id="Node000020" class="node">
<title>Node20</title>
<g id="a_Node000020"><a xlink:href="classapp_1_1schemas_1_1services_1_1AreaDetailRead.html" target="_top" xlink:title=" ">
<polygon fill="white" stroke="#666666" points="263.75,-396 126.25,-396 126.25,-364 263.75,-364 263.75,-396"/>
<text text-anchor="start" x="134.25" y="-382.5" font-family="Helvetica,sans-Serif" font-size="10.00">app.schemas.services.Area</text>
<text text-anchor="middle" x="195" y="-370.5" font-family="Helvetica,sans-Serif" font-size="10.00">DetailRead</text>
</a>
</g>
</g>
<!-- Node4&#45;&gt;Node20 -->
<g id="edge51_Node000004_Node000020" class="edge">
<title>Node4&#45;&gt;Node20</title>
<g id="a_edge51_Node000004_Node000020"><a xlink:title=" ">
<path fill="none" stroke="#63b8ff" d="M33.83,-556.31C38.34,-519.6 52.78,-445.29 97.75,-405 105.85,-397.74 115.79,-392.54 126.18,-388.83"/>
<polygon fill="#63b8ff" stroke="#63b8ff" points="30.37,-555.79 32.78,-566.11 37.33,-556.54 30.37,-555.79"/>
</a>
</g>
</g>
<!-- Node21 -->
<g id="Node000021" class="node">
<title>Node21</title>
<g id="a_Node000021"><a xlink:href="classapp_1_1schemas_1_1services_1_1AreaReactionDetail.html" target="_top" xlink:title=" ">
<polygon fill="white" stroke="#666666" points="263.75,-346 126.25,-346 126.25,-314 263.75,-314 263.75,-346"/>
<text text-anchor="start" x="134.25" y="-332.5" font-family="Helvetica,sans-Serif" font-size="10.00">app.schemas.services.Area</text>
<text text-anchor="middle" x="195" y="-320.5" font-family="Helvetica,sans-Serif" font-size="10.00">ReactionDetail</text>
</a>
</g>
</g>
<!-- Node4&#45;&gt;Node21 -->
<g id="edge52_Node000004_Node000021" class="edge">
<title>Node4&#45;&gt;Node21</title>
<g id="a_edge52_Node000004_Node000021"><a xlink:title=" ">
<path fill="none" stroke="#63b8ff" d="M31.66,-556.15C32.47,-511.65 40.84,-410.05 97.75,-355 105.69,-347.32 115.68,-341.91 126.19,-338.13"/>
<polygon fill="#63b8ff" stroke="#63b8ff" points="28.16,-556.03 31.61,-566.05 35.16,-556.07 28.16,-556.03"/>
</a>
</g>
</g>
<!-- Node22 -->
<g id="Node000022" class="node">
<title>Node22</title>
<g id="a_Node000022"><a xlink:href="classapp_1_1schemas_1_1services_1_1ReactionRead.html" target="_top" xlink:title=" ">
<polygon fill="white" stroke="#666666" points="284.75,-296 105.25,-296 105.25,-276 284.75,-276 284.75,-296"/>
<text text-anchor="middle" x="195" y="-282.5" font-family="Helvetica,sans-Serif" font-size="10.00">app.schemas.services.ReactionRead</text>
</a>
</g>
</g>
<!-- Node4&#45;&gt;Node22 -->
<g id="edge53_Node000004_Node000022" class="edge">
<title>Node4&#45;&gt;Node22</title>
<g id="a_edge53_Node000004_Node000022"><a xlink:title=" ">
<path fill="none" stroke="#63b8ff" d="M34.11,-556.33C40.58,-498.06 61.19,-340.06 97.75,-305 101.32,-301.58 105.31,-298.69 109.58,-296.26"/>
<polygon fill="#63b8ff" stroke="#63b8ff" points="30.64,-555.92 33.05,-566.24 37.6,-556.67 30.64,-555.92"/>
</a>
</g>
</g>
<!-- Node23 -->
<g id="Node000023" class="node">
<title>Node23</title>
<g id="a_Node000023"><a xlink:href="classapp_1_1schemas_1_1services_1_1ServiceActionRead.html" target="_top" xlink:title=" ">
<polygon fill="white" stroke="#666666" points="270.12,-258 119.88,-258 119.88,-226 270.12,-226 270.12,-258"/>
<text text-anchor="start" x="127.88" y="-244.5" font-family="Helvetica,sans-Serif" font-size="10.00">app.schemas.services.Service</text>
<text text-anchor="middle" x="195" y="-232.5" font-family="Helvetica,sans-Serif" font-size="10.00">ActionRead</text>
</a>
</g>
</g>
<!-- Node4&#45;&gt;Node23 -->
<g id="edge54_Node000004_Node000023" class="edge">
<title>Node4&#45;&gt;Node23</title>
<g id="a_edge54_Node000004_Node000023"><a xlink:title=" ">
<path fill="none" stroke="#63b8ff" d="M33.54,-556.42C38.86,-493.01 57.53,-309.09 97.75,-267 103.83,-260.63 111.31,-255.81 119.39,-252.17"/>
<polygon fill="#63b8ff" stroke="#63b8ff" points="30.06,-555.97 32.75,-566.22 37.04,-556.53 30.06,-555.97"/>
</a>
</g>
</g>
<!-- Node24 -->
<g id="Node000024" class="node">
<title>Node24</title>
<g id="a_Node000024"><a xlink:href="classapp_1_1schemas_1_1services_1_1ServiceBasicRead.html" target="_top" xlink:title=" ">
<polygon fill="white" stroke="#666666" points="270.12,-208 119.88,-208 119.88,-176 270.12,-176 270.12,-208"/>
<text text-anchor="start" x="127.88" y="-194.5" font-family="Helvetica,sans-Serif" font-size="10.00">app.schemas.services.Service</text>
<text text-anchor="middle" x="195" y="-182.5" font-family="Helvetica,sans-Serif" font-size="10.00">BasicRead</text>
</a>
</g>
</g>
<!-- Node4&#45;&gt;Node24 -->
<g id="edge55_Node000004_Node000024" class="edge">
<title>Node4&#45;&gt;Node24</title>
<g id="a_edge55_Node000004_Node000024"><a xlink:title=" ">
<path fill="none" stroke="#63b8ff" d="M32.86,-556.24C36.47,-486 51.32,-266.98 97.75,-217 103.86,-210.42 111.46,-205.49 119.69,-201.79"/>
<polygon fill="#63b8ff" stroke="#63b8ff" points="29.37,-555.88 32.38,-566.04 36.36,-556.22 29.37,-555.88"/>
</a>
</g>
</g>
<!-- Node25 -->
<g id="Node000025" class="node">
<title>Node25</title>
<g id="a_Node000025"><a xlink:href="classapp_1_1schemas_1_1services_1_1ServiceCapabilitiesRead.html" target="_top" xlink:title=" ">
<polygon fill="white" stroke="#666666" points="270.12,-158 119.88,-158 119.88,-126 270.12,-126 270.12,-158"/>
<text text-anchor="start" x="127.88" y="-144.5" font-family="Helvetica,sans-Serif" font-size="10.00">app.schemas.services.Service</text>
<text text-anchor="middle" x="195" y="-132.5" font-family="Helvetica,sans-Serif" font-size="10.00">CapabilitiesRead</text>
</a>
</g>
</g>
<!-- Node4&#45;&gt;Node25 -->
<g id="edge56_Node000004_Node000025" class="edge">
<title>Node4&#45;&gt;Node25</title>
<g id="a_edge56_Node000004_Node000025"><a xlink:title=" ">
<path fill="none" stroke="#63b8ff" d="M32.33,-556.28C34.35,-479.87 45.02,-225 97.75,-167 103.79,-160.36 111.35,-155.38 119.55,-151.67"/>
<polygon fill="#63b8ff" stroke="#63b8ff" points="28.83,-556.08 32.09,-566.16 35.83,-556.25 28.83,-556.08"/>
</a>
</g>
</g>
<!-- Node26 -->
<g id="Node000026" class="node">
<title>Node26</title>
<g id="a_Node000026"><a xlink:href="classapp_1_1schemas_1_1services_1_1ServiceReactionRead.html" target="_top" xlink:title=" ">
<polygon fill="white" stroke="#666666" points="270.12,-108 119.88,-108 119.88,-76 270.12,-76 270.12,-108"/>
<text text-anchor="start" x="127.88" y="-94.5" font-family="Helvetica,sans-Serif" font-size="10.00">app.schemas.services.Service</text>
<text text-anchor="middle" x="195" y="-82.5" font-family="Helvetica,sans-Serif" font-size="10.00">ReactionRead</text>
</a>
</g>
</g>
<!-- Node4&#45;&gt;Node26 -->
<g id="edge57_Node000004_Node000026" class="edge">
<title>Node4&#45;&gt;Node26</title>
<g id="a_edge57_Node000004_Node000026"><a xlink:title=" ">
<path fill="none" stroke="#63b8ff" d="M31.91,-556.33C32.47,-474.17 38.69,-183.09 97.75,-117 103.73,-110.31 111.26,-105.3 119.45,-101.57"/>
<polygon fill="#63b8ff" stroke="#63b8ff" points="28.41,-556.13 31.86,-566.15 35.41,-556.16 28.41,-556.13"/>
</a>
</g>
</g>
<!-- Node27 -->
<g id="Node000027" class="node">
<title>Node27</title>
<g id="a_Node000027"><a xlink:href="classapp_1_1schemas_1_1services_1_1ServiceRead.html" target="_top" xlink:title=" ">
<polygon fill="white" stroke="#666666" points="281.75,-58 108.25,-58 108.25,-38 281.75,-38 281.75,-58"/>
<text text-anchor="middle" x="195" y="-44.5" font-family="Helvetica,sans-Serif" font-size="10.00">app.schemas.services.ServiceRead</text>
</a>
</g>
</g>
<!-- Node4&#45;&gt;Node27 -->
<g id="edge58_Node000004_Node000027" class="edge">
<title>Node4&#45;&gt;Node27</title>
<g id="a_edge58_Node000004_Node000027"><a xlink:title=" ">
<path fill="none" stroke="#63b8ff" d="M31.45,-556.45C30.19,-468.68 30.11,-139.31 97.75,-67 100.89,-63.64 104.44,-60.78 108.28,-58.35"/>
<polygon fill="#63b8ff" stroke="#63b8ff" points="27.95,-556.34 31.62,-566.28 34.95,-556.22 27.95,-556.34"/>
</a>
</g>
</g>
<!-- Node28 -->
<g id="Node000028" class="node">
<title>Node28</title>
<g id="a_Node000028"><a xlink:href="classapp_1_1schemas_1_1services_1_1SubscriptionRead.html" target="_top" xlink:title=" ">
<polygon fill="white" stroke="#666666" points="292.25,-522 97.75,-522 97.75,-502 292.25,-502 292.25,-522"/>
<text text-anchor="middle" x="195" y="-508.5" font-family="Helvetica,sans-Serif" font-size="10.00">app.schemas.services.SubscriptionRead</text>
</a>
</g>
</g>
<!-- Node4&#45;&gt;Node28 -->
<g id="edge59_Node000004_Node000028" class="edge">
<title>Node4&#45;&gt;Node28</title>
<g id="a_edge59_Node000004_Node000028"><a xlink:title=" ">
<path fill="none" stroke="#63b8ff" d="M51.66,-560.47C64.08,-550.37 80.89,-538.27 97.75,-531 105.65,-527.59 114.18,-524.79 122.78,-522.49"/>
<polygon fill="#63b8ff" stroke="#63b8ff" points="49.64,-557.59 44.24,-566.71 54.15,-562.95 49.64,-557.59"/>
</a>
</g>
</g>
<!-- Node29 -->
<g id="Node000029" class="node">
<title>Node29</title>
<g id="a_Node000029"><a xlink:href="classapp_1_1user_1_1BaseUser.html" target="_top" xlink:title=" ">
<polygon fill="white" stroke="#666666" points="245,-484 145,-484 145,-464 245,-464 245,-484"/>
<text text-anchor="middle" x="195" y="-470.5" font-family="Helvetica,sans-Serif" font-size="10.00">app.user.BaseUser</text>
</a>
</g>
</g>
<!-- Node4&#45;&gt;Node29 -->
<g id="edge60_Node000004_Node000029" class="edge">
<title>Node4&#45;&gt;Node29</title>
<g id="a_edge60_Node000004_Node000029"><a xlink:title=" ">
<path fill="none" stroke="#63b8ff" d="M42.08,-557.57C53.06,-537.82 72.4,-508.65 97.75,-493 111.66,-484.41 128.68,-479.59 144.51,-476.92"/>
<polygon fill="#63b8ff" stroke="#63b8ff" points="39.02,-555.87 37.44,-566.34 45.21,-559.14 39.02,-555.87"/>
</a>
</g>
</g>
<!-- Node5&#45;&gt;Node1 -->
<g id="edge35_Node000005_Node000001" class="edge">
<title>Node5&#45;&gt;Node1</title>
<g id="a_edge35_Node000005_Node000001"><a xlink:title=" ">
<path fill="none" stroke="#63b8ff" d="M234.17,-653.16C253.82,-662.64 276.83,-676.57 292.25,-695 373.46,-792.06 400.44,-951.82 406.3,-993.69"/>
<polygon fill="#63b8ff" stroke="#63b8ff" points="235.89,-650.1 225.34,-649.11 232.97,-656.46 235.89,-650.1"/>
</a>
</g>
</g>
<!-- Node13&#45;&gt;Node14 -->
<g id="edge45_Node000013_Node000014" class="edge">
<title>Node13&#45;&gt;Node14</title>
<g id="a_edge45_Node000013_Node000014"><a xlink:title=" ">
<path fill="none" stroke="#63b8ff" d="M272.85,-719.62C280.13,-722.81 286.81,-727.15 292.25,-733 336.5,-780.53 308.3,-961.2 328.25,-1023 345.79,-1077.35 384.02,-1134.82 400.18,-1157.72"/>
<polygon fill="#63b8ff" stroke="#63b8ff" points="274.24,-716.4 263.65,-716.34 271.89,-722.99 274.24,-716.4"/>
</a>
</g>
</g>
<!-- Node18 -->
<g id="Node000018" class="node">
<title>Node18</title>
<g id="a_Node000018"><a xlink:href="classapp_1_1schemas_1_1services_1_1AreaRead.html" target="_top" xlink:title=" ">
<polygon fill="white" stroke="#666666" points="489,-20 328.25,-20 328.25,0 489,0 489,-20"/>
<text text-anchor="middle" x="408.62" y="-6.5" font-family="Helvetica,sans-Serif" font-size="10.00">app.schemas.services.AreaRead</text>
</a>
</g>
</g>
<!-- Node17&#45;&gt;Node18 -->
<g id="edge49_Node000017_Node000018" class="edge">
<title>Node17&#45;&gt;Node18</title>
<g id="a_edge49_Node000017_Node000018"><a xlink:title=" ">
<path fill="none" stroke="#63b8ff" d="M286.76,-10C300.4,-10 314.39,-10 327.78,-10"/>
<polygon fill="#63b8ff" stroke="#63b8ff" points="286.92,-6.5 276.92,-10 286.92,-13.5 286.92,-6.5"/>
</a>
</g>
</g>
<!-- Node29&#45;&gt;Node31 -->
<g id="edge62_Node000029_Node000031" class="edge">
<title>Node29&#45;&gt;Node31</title>
<g id="a_edge62_Node000029_Node000031"><a xlink:title=" ">
<path fill="none" stroke="#63b8ff" d="M256.11,-478.13C268.83,-481.05 281.61,-485.69 292.25,-493 357.89,-538.06 393.94,-633.99 404.39,-665.63"/>
<polygon fill="#63b8ff" stroke="#63b8ff" points="256.98,-474.73 246.49,-476.27 255.65,-481.6 256.98,-474.73"/>
</a>
</g>
</g>
<!-- Node30 -->
<g id="Node000030" class="node">
<title>Node30</title>
<g id="a_Node000030"><a xlink:href="classapp_1_1user_1_1RegisteringUser.html" target="_top" xlink:title=" ">
<polygon fill="white" stroke="#666666" points="472.12,-484 345.12,-484 345.12,-464 472.12,-464 472.12,-484"/>
<text text-anchor="middle" x="408.62" y="-470.5" font-family="Helvetica,sans-Serif" font-size="10.00">app.user.RegisteringUser</text>
</a>
</g>
</g>
<!-- Node29&#45;&gt;Node30 -->
<g id="edge61_Node000029_Node000030" class="edge">
<title>Node29&#45;&gt;Node30</title>
<g id="a_edge61_Node000029_Node000030"><a xlink:title=" ">
<path fill="none" stroke="#63b8ff" d="M256.84,-474C284.45,-474 317.06,-474 344.89,-474"/>
<polygon fill="#63b8ff" stroke="#63b8ff" points="256.86,-470.5 246.86,-474 256.86,-477.5 256.86,-470.5"/>
</a>
</g>
</g>
</g>
</svg>
