<?xml version="1.0" encoding="UTF-8" standalone="no"?>
<!DOCTYPE svg PUBLIC "-//W3C//DTD SVG 1.1//EN"
 "http://www.w3.org/Graphics/SVG/1.1/DTD/svg11.dtd">
<!-- Generated by graphviz version 12.1.0 (20240811.2233)
 -->
<!-- Title: Graphical Class Hierarchy Pages: 1 -->
<svg width="265pt" height="204pt"
 viewBox="0.00 0.00 265.00 204.00" xmlns="http://www.w3.org/2000/svg" xmlns:xlink="http://www.w3.org/1999/xlink">
<g id="graph0" class="graph" transform="scale(1 1) rotate(0) translate(4 200)">
<title>Graphical Class Hierarchy</title>
<!-- Node0 -->
<g id="Node000000" class="node">
<title>Node0</title>
<g id="a_Node000000"><a xlink:title=" ">
<polygon fill="#e0e0e0" stroke="#999999" points="64.75,-120 0,-120 0,-100 64.75,-100 64.75,-120"/>
<text text-anchor="middle" x="32.38" y="-106.5" font-family="Helvetica,sans-Serif" font-size="10.00">BaseModel</text>
</a>
</g>
</g>
<!-- Node1 -->
<g id="Node000001" class="node">
<title>Node1</title>
<g id="a_Node000001"><a xlink:href="classapp_1_1user_1_1EmailCheck.html" target="_top" xlink:title=" ">
<polygon fill="white" stroke="#666666" points="233.75,-196 124,-196 124,-176 233.75,-176 233.75,-196"/>
<text text-anchor="middle" x="178.88" y="-182.5" font-family="Helvetica,sans-Serif" font-size="10.00">app.user.EmailCheck</text>
</a>
</g>
</g>
<!-- Node0&#45;&gt;Node1 -->
<g id="edge1_Node000000_Node000001" class="edge">
<title>Node0&#45;&gt;Node1</title>
<g id="a_edge1_Node000000_Node000001"><a xlink:title=" ">
<path fill="none" stroke="#63b8ff" d="M50.2,-128.13C62.92,-140.8 81.46,-157.15 100.75,-167 107.87,-170.64 115.73,-173.6 123.62,-176.01"/>
<polygon fill="#63b8ff" stroke="#63b8ff" points="52.91,-125.89 43.43,-121.15 47.88,-130.77 52.91,-125.89"/>
</a>
</g>
</g>
<!-- Node2 -->
<g id="Node000002" class="node">
<title>Node2</title>
<g id="a_Node000002"><a xlink:href="classapp_1_1user_1_1PasswordChange.html" target="_top" xlink:title=" ">
<polygon fill="white" stroke="#666666" points="245.75,-158 112,-158 112,-138 245.75,-138 245.75,-158"/>
<text text-anchor="middle" x="178.88" y="-144.5" font-family="Helvetica,sans-Serif" font-size="10.00">app.user.PasswordChange</text>
</a>
</g>
</g>
<!-- Node0&#45;&gt;Node2 -->
<g id="edge2_Node000000_Node000002" class="edge">
<title>Node0&#45;&gt;Node2</title>
<g id="a_edge2_Node000000_Node000002"><a xlink:title=" ">
<path fill="none" stroke="#63b8ff" d="M76.06,-122.27C84.24,-124.56 92.75,-126.89 100.75,-129 111.55,-131.85 123.24,-134.8 134.17,-137.5"/>
<polygon fill="#63b8ff" stroke="#63b8ff" points="77.22,-118.96 66.65,-119.62 75.32,-125.7 77.22,-118.96"/>
</a>
</g>
</g>
<!-- Node3 -->
<g id="Node000003" class="node">
<title>Node3</title>
<g id="a_Node000003"><a xlink:href="classapp_1_1user_1_1Token.html" target="_top" xlink:title=" ">
<polygon fill="white" stroke="#666666" points="220.25,-120 137.5,-120 137.5,-100 220.25,-100 220.25,-120"/>
<text text-anchor="middle" x="178.88" y="-106.5" font-family="Helvetica,sans-Serif" font-size="10.00">app.user.Token</text>
</a>
</g>
</g>
<!-- Node0&#45;&gt;Node3 -->
<g id="edge3_Node000000_Node000003" class="edge">
<title>Node0&#45;&gt;Node3</title>
<g id="a_edge3_Node000000_Node000003"><a xlink:title=" ">
<path fill="none" stroke="#63b8ff" d="M76.56,-110C95.76,-110 118.26,-110 137.16,-110"/>
<polygon fill="#63b8ff" stroke="#63b8ff" points="76.6,-106.5 66.6,-110 76.6,-113.5 76.6,-106.5"/>
</a>
</g>
</g>
<!-- Node4 -->
<g id="Node000004" class="node">
<title>Node4</title>
<g id="a_Node000004"><a xlink:href="classapp_1_1user__action_1_1UserActionCreate.html" target="_top" xlink:title=" ">
<polygon fill="white" stroke="#666666" points="247.25,-82 110.5,-82 110.5,-50 247.25,-50 247.25,-82"/>
<text text-anchor="start" x="118.5" y="-68.5" font-family="Helvetica,sans-Serif" font-size="10.00">app.user_action.UserAction</text>
<text text-anchor="middle" x="178.88" y="-56.5" font-family="Helvetica,sans-Serif" font-size="10.00">Create</text>
</a>
</g>
</g>
<!-- Node0&#45;&gt;Node4 -->
<g id="edge4_Node000000_Node000004" class="edge">
<title>Node0&#45;&gt;Node4</title>
<g id="a_edge4_Node000000_Node000004"><a xlink:title=" ">
<path fill="none" stroke="#63b8ff" d="M76.07,-97C91.03,-92.44 108.03,-87.27 123.79,-82.47"/>
<polygon fill="#63b8ff" stroke="#63b8ff" points="75.08,-93.64 66.53,-99.9 77.12,-100.34 75.08,-93.64"/>
</a>
</g>
</g>
<!-- Node5 -->
<g id="Node000005" class="node">
<title>Node5</title>
<g id="a_Node000005"><a xlink:href="classapp_1_1user__reaction_1_1UserReactionCreate.html" target="_top" xlink:title=" ">
<polygon fill="white" stroke="#666666" points="257,-32 100.75,-32 100.75,0 257,0 257,-32"/>
<text text-anchor="start" x="108.75" y="-18.5" font-family="Helvetica,sans-Serif" font-size="10.00">app.user_reaction.UserReaction</text>
<text text-anchor="middle" x="178.88" y="-6.5" font-family="Helvetica,sans-Serif" font-size="10.00">Create</text>
</a>
</g>
</g>
<!-- Node0&#45;&gt;Node5 -->
<g id="edge5_Node000000_Node000005" class="edge">
<title>Node0&#45;&gt;Node5</title>
<g id="a_edge5_Node000000_Node000005"><a xlink:title=" ">
<path fill="none" stroke="#63b8ff" d="M47.72,-90.83C60.19,-75.39 79.54,-54.16 100.75,-41 105.89,-37.81 111.48,-34.98 117.23,-32.49"/>
<polygon fill="#63b8ff" stroke="#63b8ff" points="45.22,-88.34 41.82,-98.38 50.74,-92.65 45.22,-88.34"/>
</a>
</g>
</g>
</g>
</svg>
