<?xml version="1.0" encoding="UTF-8" standalone="no"?>
<!DOCTYPE svg PUBLIC "-//W3C//DTD SVG 1.1//EN"
 "http://www.w3.org/Graphics/SVG/1.1/DTD/svg11.dtd">
<!-- Generated by graphviz version 12.1.0 (20240811.2233)
 -->
<!-- Title: Graphical Class Hierarchy Pages: 1 -->
<svg width="224pt" height="104pt"
 viewBox="0.00 0.00 223.75 104.00" xmlns="http://www.w3.org/2000/svg" xmlns:xlink="http://www.w3.org/1999/xlink">
<g id="graph0" class="graph" transform="scale(1 1) rotate(0) translate(4 100)">
<title>Graphical Class Hierarchy</title>
<!-- Node0 -->
<g id="Node000000" class="node">
<title>Node0</title>
<g id="a_Node000000"><a xlink:title=" ">
<polygon fill="#e0e0e0" stroke="#999999" points="64.75,-58 0,-58 0,-38 64.75,-38 64.75,-58"/>
<text text-anchor="middle" x="32.38" y="-44.5" font-family="Helvetica,sans-Serif" font-size="10.00">BaseModel</text>
</a>
</g>
</g>
<!-- Node1 -->
<g id="Node000001" class="node">
<title>Node1</title>
<g id="a_Node000001"><a xlink:href="classuser_1_1EmailCheck.html" target="_top" xlink:title=" ">
<polygon fill="white" stroke="#666666" points="203.75,-96 112.75,-96 112.75,-76 203.75,-76 203.75,-96"/>
<text text-anchor="middle" x="158.25" y="-82.5" font-family="Helvetica,sans-Serif" font-size="10.00">user.EmailCheck</text>
</a>
</g>
</g>
<!-- Node0&#45;&gt;Node1 -->
<g id="edge1_Node000000_Node000001" class="edge">
<title>Node0&#45;&gt;Node1</title>
<g id="a_edge1_Node000000_Node000001"><a xlink:title=" ">
<path fill="none" stroke="#63b8ff" d="M75.81,-61.02C91.25,-65.75 108.49,-71.04 123.12,-75.53"/>
<polygon fill="#63b8ff" stroke="#63b8ff" points="76.99,-57.72 66.4,-58.13 74.94,-64.41 76.99,-57.72"/>
</a>
</g>
</g>
<!-- Node2 -->
<g id="Node000002" class="node">
<title>Node2</title>
<g id="a_Node000002"><a xlink:href="classuser_1_1PasswordChange.html" target="_top" xlink:title=" ">
<polygon fill="white" stroke="#666666" points="215.75,-58 100.75,-58 100.75,-38 215.75,-38 215.75,-58"/>
<text text-anchor="middle" x="158.25" y="-44.5" font-family="Helvetica,sans-Serif" font-size="10.00">user.PasswordChange</text>
</a>
</g>
</g>
<!-- Node0&#45;&gt;Node2 -->
<g id="edge2_Node000000_Node000002" class="edge">
<title>Node0&#45;&gt;Node2</title>
<g id="a_edge2_Node000000_Node000002"><a xlink:title=" ">
<path fill="none" stroke="#63b8ff" d="M76.43,-48C84.26,-48 92.54,-48 100.69,-48"/>
<polygon fill="#63b8ff" stroke="#63b8ff" points="76.47,-44.5 66.47,-48 76.47,-51.5 76.47,-44.5"/>
</a>
</g>
</g>
<!-- Node3 -->
<g id="Node000003" class="node">
<title>Node3</title>
<g id="a_Node000003"><a xlink:href="classuser_1_1Token.html" target="_top" xlink:title=" ">
<polygon fill="white" stroke="#666666" points="190.25,-20 126.25,-20 126.25,0 190.25,0 190.25,-20"/>
<text text-anchor="middle" x="158.25" y="-6.5" font-family="Helvetica,sans-Serif" font-size="10.00">user.Token</text>
</a>
</g>
</g>
<!-- Node0&#45;&gt;Node3 -->
<g id="edge3_Node000000_Node000003" class="edge">
<title>Node0&#45;&gt;Node3</title>
<g id="a_edge3_Node000000_Node000003"><a xlink:title=" ">
<path fill="none" stroke="#63b8ff" d="M75.5,-35.08C92.1,-29.99 110.82,-24.24 126.16,-19.54"/>
<polygon fill="#63b8ff" stroke="#63b8ff" points="74.94,-31.59 66.4,-37.87 76.99,-38.28 74.94,-31.59"/>
</a>
</g>
</g>
</g>
</svg>
