<?xml version="1.0" encoding="UTF-8" standalone="no"?>
<!DOCTYPE svg PUBLIC "-//W3C//DTD SVG 1.1//EN"
 "http://www.w3.org/Graphics/SVG/1.1/DTD/svg11.dtd">
<!-- Generated by graphviz version 12.1.0 (20240811.2233)
 -->
<!-- Title: Graphical Class Hierarchy Pages: 1 -->
<svg width="331pt" height="104pt"
 viewBox="0.00 0.00 331.25 104.00" xmlns="http://www.w3.org/2000/svg" xmlns:xlink="http://www.w3.org/1999/xlink">
<g id="graph0" class="graph" transform="scale(1 1) rotate(0) translate(4 100)">
<title>Graphical Class Hierarchy</title>
<!-- Node0 -->
<g id="Node000000" class="node">
<title>Node0</title>
<g id="a_Node000000"><a xlink:title=" ">
<polygon fill="#e0e0e0" stroke="#999999" points="156.88,-96 119.88,-96 119.88,-76 156.88,-76 156.88,-96"/>
<text text-anchor="middle" x="138.38" y="-82.5" font-family="Helvetica,sans-Serif" font-size="10.00">table</text>
</a>
</g>
</g>
<!-- Node1 -->
<g id="Node000001" class="node">
<title>Node1</title>
<g id="a_Node000001"><a xlink:href="classuser_1_1User.html" target="_top" xlink:title=" ">
<polygon fill="white" stroke="#666666" points="298.5,-58 239.75,-58 239.75,-38 298.5,-38 298.5,-58"/>
<text text-anchor="middle" x="269.12" y="-44.5" font-family="Helvetica,sans-Serif" font-size="10.00">user.User</text>
</a>
</g>
</g>
<!-- Node0&#45;&gt;Node1 -->
<g id="edge5_Node000000_Node000001" class="edge">
<title>Node0&#45;&gt;Node1</title>
<g id="a_edge5_Node000000_Node000001"><a xlink:title=" ">
<path fill="none" stroke="#63b8ff" d="M168.22,-77.49C189.48,-71.21 218.28,-62.71 239.49,-56.45"/>
<polygon fill="#63b8ff" stroke="#63b8ff" points="167.33,-74.1 158.73,-80.29 169.31,-80.81 167.33,-74.1"/>
</a>
</g>
</g>
<!-- Node2 -->
<g id="Node000002" class="node">
<title>Node2</title>
<g id="a_Node000002"><a xlink:title=" ">
<polygon fill="#e0e0e0" stroke="#999999" points="156.12,-58 120.62,-58 120.62,-38 156.12,-38 156.12,-58"/>
<text text-anchor="middle" x="138.38" y="-44.5" font-family="Helvetica,sans-Serif" font-size="10.00">True</text>
</a>
</g>
</g>
<!-- Node2&#45;&gt;Node1 -->
<g id="edge6_Node000002_Node000001" class="edge">
<title>Node2&#45;&gt;Node1</title>
<g id="a_edge6_Node000002_Node000001"><a xlink:title=" ">
<path fill="none" stroke="#63b8ff" d="M167.73,-48C189.07,-48 218.21,-48 239.6,-48"/>
<polygon fill="#63b8ff" stroke="#63b8ff" points="167.99,-44.5 157.99,-48 167.99,-51.5 167.99,-44.5"/>
</a>
</g>
</g>
<!-- Node5 -->
<g id="Node000005" class="node">
<title>Node5</title>
<g id="a_Node000005"><a xlink:title=" ">
<polygon fill="#e0e0e0" stroke="#999999" points="61.75,-20 0,-20 0,0 61.75,0 61.75,-20"/>
<text text-anchor="middle" x="30.88" y="-6.5" font-family="Helvetica,sans-Serif" font-size="10.00">SQLModel</text>
</a>
</g>
</g>
<!-- Node3 -->
<g id="Node000003" class="node">
<title>Node3</title>
<g id="a_Node000003"><a xlink:href="classuser_1_1BaseUser.html" target="_top" xlink:title=" ">
<polygon fill="white" stroke="#666666" points="179,-20 97.75,-20 97.75,0 179,0 179,-20"/>
<text text-anchor="middle" x="138.38" y="-6.5" font-family="Helvetica,sans-Serif" font-size="10.00">user.BaseUser</text>
</a>
</g>
</g>
<!-- Node5&#45;&gt;Node3 -->
<g id="edge7_Node000005_Node000003" class="edge">
<title>Node5&#45;&gt;Node3</title>
<g id="a_edge7_Node000005_Node000003"><a xlink:title=" ">
<path fill="none" stroke="#63b8ff" d="M73.6,-10C81.4,-10 89.55,-10 97.3,-10"/>
<polygon fill="#63b8ff" stroke="#63b8ff" points="73.62,-6.5 63.62,-10 73.62,-13.5 73.62,-6.5"/>
</a>
</g>
</g>
<!-- Node3&#45;&gt;Node1 -->
<g id="edge9_Node000003_Node000001" class="edge">
<title>Node3&#45;&gt;Node1</title>
<g id="a_edge9_Node000003_Node000001"><a xlink:title=" ">
<path fill="none" stroke="#63b8ff" d="M185.79,-23.7C203.79,-29.01 223.84,-34.93 239.64,-39.59"/>
<polygon fill="#63b8ff" stroke="#63b8ff" points="186.93,-20.39 176.35,-20.91 184.95,-27.1 186.93,-20.39"/>
</a>
</g>
</g>
<!-- Node4 -->
<g id="Node000004" class="node">
<title>Node4</title>
<g id="a_Node000004"><a xlink:href="classuser_1_1RegisteringUser.html" target="_top" xlink:title=" ">
<polygon fill="white" stroke="#666666" points="323.25,-20 215,-20 215,0 323.25,0 323.25,-20"/>
<text text-anchor="middle" x="269.12" y="-6.5" font-family="Helvetica,sans-Serif" font-size="10.00">user.RegisteringUser</text>
</a>
</g>
</g>
<!-- Node3&#45;&gt;Node4 -->
<g id="edge8_Node000003_Node000004" class="edge">
<title>Node3&#45;&gt;Node4</title>
<g id="a_edge8_Node000003_Node000004"><a xlink:title=" ">
<path fill="none" stroke="#63b8ff" d="M190.77,-10C198.69,-10 206.9,-10 214.86,-10"/>
<polygon fill="#63b8ff" stroke="#63b8ff" points="190.92,-6.5 180.92,-10 190.92,-13.5 190.92,-6.5"/>
</a>
</g>
</g>
</g>
</svg>
