<?xml version="1.0" encoding="UTF-8" standalone="no"?>
<!DOCTYPE svg PUBLIC "-//W3C//DTD SVG 1.1//EN"
 "http://www.w3.org/Graphics/SVG/1.1/DTD/svg11.dtd">
<!-- Generated by graphviz version 12.1.0 (20240811.2233)
 -->
<!-- Title: Graphical Class Hierarchy Pages: 1 -->
<svg width="480pt" height="468pt"
 viewBox="0.00 0.00 479.75 468.00" xmlns="http://www.w3.org/2000/svg" xmlns:xlink="http://www.w3.org/1999/xlink">
<g id="graph0" class="graph" transform="scale(1 1) rotate(0) translate(4 464)">
<title>Graphical Class Hierarchy</title>
<!-- Node0 -->
<g id="Node000000" class="node">
<title>Node0</title>
<g id="a_Node000000"><a xlink:title=" ">
<polygon fill="#e0e0e0" stroke="#999999" points="77.5,-244 0,-244 0,-224 77.5,-224 77.5,-244"/>
<text text-anchor="middle" x="38.75" y="-230.5" font-family="Helvetica,sans-Serif" font-size="10.00">BaseExecutor</text>
</a>
</g>
</g>
<!-- Node1 -->
<g id="Node000001" class="node">
<title>Node1</title>
<g id="a_Node000001"><a xlink:href="classdiscord_1_1DiscordSendWebhookMessageExecutor.html" target="_top" xlink:title=" ">
<polygon fill="white" stroke="#666666" points="260.75,-416 113.5,-416 113.5,-384 260.75,-384 260.75,-416"/>
<text text-anchor="start" x="121.5" y="-402.5" font-family="Helvetica,sans-Serif" font-size="10.00">discord.DiscordSendWebhook</text>
<text text-anchor="middle" x="187.12" y="-390.5" font-family="Helvetica,sans-Serif" font-size="10.00">MessageExecutor</text>
</a>
</g>
</g>
<!-- Node0&#45;&gt;Node1 -->
<g id="edge24_Node000000_Node000001" class="edge">
<title>Node0&#45;&gt;Node1</title>
<g id="a_edge24_Node000000_Node000001"><a xlink:title=" ">
<path fill="none" stroke="#63b8ff" d="M45.27,-254.83C54.42,-285.43 75.59,-342.4 113.5,-375 117.34,-378.3 121.64,-381.18 126.18,-383.68"/>
<polygon fill="#63b8ff" stroke="#63b8ff" points="48.76,-254.29 42.66,-245.62 42.02,-256.19 48.76,-254.29"/>
</a>
</g>
</g>
<!-- Node2 -->
<g id="Node000002" class="node">
<title>Node2</title>
<g id="a_Node000002"><a xlink:href="classgithub_1_1BaseGitHubExecutor.html" target="_top" xlink:title=" ">
<polygon fill="white" stroke="#666666" points="255.88,-366 118.38,-366 118.38,-346 255.88,-346 255.88,-366"/>
<text text-anchor="middle" x="187.12" y="-352.5" font-family="Helvetica,sans-Serif" font-size="10.00">github.BaseGitHubExecutor</text>
</a>
</g>
</g>
<!-- Node0&#45;&gt;Node2 -->
<g id="edge25_Node000000_Node000002" class="edge">
<title>Node0&#45;&gt;Node2</title>
<g id="a_edge25_Node000000_Node000002"><a xlink:title=" ">
<path fill="none" stroke="#63b8ff" d="M60.96,-251.68C91.95,-277.51 148.64,-324.76 173.68,-345.62"/>
<polygon fill="#63b8ff" stroke="#63b8ff" points="63.32,-249.08 53.39,-245.37 58.83,-254.46 63.32,-249.08"/>
</a>
</g>
</g>
<!-- Node6 -->
<g id="Node000006" class="node">
<title>Node6</title>
<g id="a_Node000006"><a xlink:href="classgoogle_1_1BaseGoogleExecutor.html" target="_top" xlink:title=" ">
<polygon fill="white" stroke="#666666" points="257,-266 117.25,-266 117.25,-246 257,-246 257,-266"/>
<text text-anchor="middle" x="187.12" y="-252.5" font-family="Helvetica,sans-Serif" font-size="10.00">google.BaseGoogleExecutor</text>
</a>
</g>
</g>
<!-- Node0&#45;&gt;Node6 -->
<g id="edge29_Node000000_Node000006" class="edge">
<title>Node0&#45;&gt;Node6</title>
<g id="a_edge29_Node000000_Node000006"><a xlink:title=" ">
<path fill="none" stroke="#63b8ff" d="M89.15,-241.42C98.03,-242.76 107.43,-244.17 116.76,-245.57"/>
<polygon fill="#63b8ff" stroke="#63b8ff" points="89.73,-237.97 79.32,-239.95 88.69,-244.9 89.73,-237.97"/>
</a>
</g>
</g>
<!-- Node11 -->
<g id="Node000011" class="node">
<title>Node11</title>
<g id="a_Node000011"><a xlink:href="classspotify_1_1SpotifyAddTrackToPlaylistExecutor.html" target="_top" xlink:title=" ">
<polygon fill="white" stroke="#666666" points="252.5,-228 121.75,-228 121.75,-196 252.5,-196 252.5,-228"/>
<text text-anchor="start" x="129.75" y="-214.5" font-family="Helvetica,sans-Serif" font-size="10.00">spotify.SpotifyAddTrackTo</text>
<text text-anchor="middle" x="187.12" y="-202.5" font-family="Helvetica,sans-Serif" font-size="10.00">PlaylistExecutor</text>
</a>
</g>
</g>
<!-- Node0&#45;&gt;Node11 -->
<g id="edge34_Node000000_Node000011" class="edge">
<title>Node0&#45;&gt;Node11</title>
<g id="a_edge34_Node000000_Node000011"><a xlink:title=" ">
<path fill="none" stroke="#63b8ff" d="M89.14,-226.58C99.47,-225.02 110.51,-223.36 121.31,-221.74"/>
<polygon fill="#63b8ff" stroke="#63b8ff" points="88.69,-223.1 79.32,-228.05 89.73,-230.03 88.69,-223.1"/>
</a>
</g>
</g>
<!-- Node12 -->
<g id="Node000012" class="node">
<title>Node12</title>
<g id="a_Node000012"><a xlink:href="classspotify_1_1SpotifyCreatePlaylistExecutor.html" target="_top" xlink:title=" ">
<polygon fill="white" stroke="#666666" points="257,-178 117.25,-178 117.25,-146 257,-146 257,-178"/>
<text text-anchor="start" x="125.25" y="-164.5" font-family="Helvetica,sans-Serif" font-size="10.00">spotify.SpotifyCreatePlaylist</text>
<text text-anchor="middle" x="187.12" y="-152.5" font-family="Helvetica,sans-Serif" font-size="10.00">Executor</text>
</a>
</g>
</g>
<!-- Node0&#45;&gt;Node12 -->
<g id="edge35_Node000000_Node000012" class="edge">
<title>Node0&#45;&gt;Node12</title>
<g id="a_edge35_Node000000_Node000012"><a xlink:title=" ">
<path fill="none" stroke="#63b8ff" d="M63.25,-217C77.34,-207.33 95.89,-195.49 113.5,-187 119.87,-183.93 126.71,-181.06 133.56,-178.44"/>
<polygon fill="#63b8ff" stroke="#63b8ff" points="61.28,-214.11 55.09,-222.71 65.29,-219.84 61.28,-214.11"/>
</a>
</g>
</g>
<!-- Node13 -->
<g id="Node000013" class="node">
<title>Node13</title>
<g id="a_Node000013"><a xlink:href="classtrello_1_1BaseTrelloExecutor.html" target="_top" xlink:title=" ">
<polygon fill="white" stroke="#666666" points="249.88,-108 124.38,-108 124.38,-88 249.88,-88 249.88,-108"/>
<text text-anchor="middle" x="187.12" y="-94.5" font-family="Helvetica,sans-Serif" font-size="10.00">trello.BaseTrelloExecutor</text>
</a>
</g>
</g>
<!-- Node0&#45;&gt;Node13 -->
<g id="edge36_Node000000_Node000013" class="edge">
<title>Node0&#45;&gt;Node13</title>
<g id="a_edge36_Node000000_Node000013"><a xlink:title=" ">
<path fill="none" stroke="#63b8ff" d="M51.38,-213.96C64.41,-192.8 87.2,-159.46 113.5,-137 127.54,-125.01 145.87,-115.2 160.6,-108.42"/>
<polygon fill="#63b8ff" stroke="#63b8ff" points="48.4,-212.11 46.26,-222.49 54.4,-215.71 48.4,-212.11"/>
</a>
</g>
</g>
<!-- Node3 -->
<g id="Node000003" class="node">
<title>Node3</title>
<g id="a_Node000003"><a xlink:href="classgithub_1_1GitHubAddCommentExecutor.html" target="_top" xlink:title=" ">
<polygon fill="white" stroke="#666666" points="471.75,-460 296.75,-460 296.75,-440 471.75,-440 471.75,-460"/>
<text text-anchor="middle" x="384.25" y="-446.5" font-family="Helvetica,sans-Serif" font-size="10.00">github.GitHubAddCommentExecutor</text>
</a>
</g>
</g>
<!-- Node2&#45;&gt;Node3 -->
<g id="edge26_Node000002_Node000003" class="edge">
<title>Node2&#45;&gt;Node3</title>
<g id="a_edge26_Node000002_Node000003"><a xlink:title=" ">
<path fill="none" stroke="#63b8ff" d="M255.19,-371.38C257.11,-372.5 258.97,-373.71 260.75,-375 284.7,-392.38 272.46,-414.1 296.75,-431 301.67,-434.42 307.1,-437.25 312.77,-439.57"/>
<polygon fill="#63b8ff" stroke="#63b8ff" points="257.01,-368.38 246.49,-367.1 253.91,-374.66 257.01,-368.38"/>
</a>
</g>
</g>
<!-- Node4 -->
<g id="Node000004" class="node">
<title>Node4</title>
<g id="a_Node000004"><a xlink:href="classgithub_1_1GitHubCreateBranchExecutor.html" target="_top" xlink:title=" ">
<polygon fill="white" stroke="#666666" points="452.25,-422 316.25,-422 316.25,-390 452.25,-390 452.25,-422"/>
<text text-anchor="start" x="324.25" y="-408.5" font-family="Helvetica,sans-Serif" font-size="10.00">github.GitHubCreateBranch</text>
<text text-anchor="middle" x="384.25" y="-396.5" font-family="Helvetica,sans-Serif" font-size="10.00">Executor</text>
</a>
</g>
</g>
<!-- Node2&#45;&gt;Node4 -->
<g id="edge27_Node000002_Node000004" class="edge">
<title>Node2&#45;&gt;Node4</title>
<g id="a_edge27_Node000002_Node000004"><a xlink:title=" ">
<path fill="none" stroke="#63b8ff" d="M240.14,-369.33C264.35,-375.53 293.4,-382.98 318.97,-389.53"/>
<polygon fill="#63b8ff" stroke="#63b8ff" points="241.05,-365.95 230.5,-366.86 239.31,-372.73 241.05,-365.95"/>
</a>
</g>
</g>
<!-- Node5 -->
<g id="Node000005" class="node">
<title>Node5</title>
<g id="a_Node000005"><a xlink:href="classgithub_1_1GitHubCreateIssueExecutor.html" target="_top" xlink:title=" ">
<polygon fill="white" stroke="#666666" points="448.88,-372 319.62,-372 319.62,-340 448.88,-340 448.88,-372"/>
<text text-anchor="start" x="327.62" y="-358.5" font-family="Helvetica,sans-Serif" font-size="10.00">github.GitHubCreateIssue</text>
<text text-anchor="middle" x="384.25" y="-346.5" font-family="Helvetica,sans-Serif" font-size="10.00">Executor</text>
</a>
</g>
</g>
<!-- Node2&#45;&gt;Node5 -->
<g id="edge28_Node000002_Node000005" class="edge">
<title>Node2&#45;&gt;Node5</title>
<g id="a_edge28_Node000002_Node000005"><a xlink:title=" ">
<path fill="none" stroke="#63b8ff" d="M267.55,-356C284.77,-356 302.77,-356 319.3,-356"/>
<polygon fill="#63b8ff" stroke="#63b8ff" points="267.88,-352.5 257.88,-356 267.88,-359.5 267.88,-352.5"/>
</a>
</g>
</g>
<!-- Node7 -->
<g id="Node000007" class="node">
<title>Node7</title>
<g id="a_Node000007"><a xlink:href="classgoogle_1_1GoogleCreateEventExecutor.html" target="_top" xlink:title=" ">
<polygon fill="white" stroke="#666666" points="450.75,-322 317.75,-322 317.75,-290 450.75,-290 450.75,-322"/>
<text text-anchor="start" x="325.75" y="-308.5" font-family="Helvetica,sans-Serif" font-size="10.00">google.GoogleCreateEvent</text>
<text text-anchor="middle" x="384.25" y="-296.5" font-family="Helvetica,sans-Serif" font-size="10.00">Executor</text>
</a>
</g>
</g>
<!-- Node6&#45;&gt;Node7 -->
<g id="edge30_Node000006_Node000007" class="edge">
<title>Node6&#45;&gt;Node7</title>
<g id="a_edge30_Node000006_Node000007"><a xlink:title=" ">
<path fill="none" stroke="#63b8ff" d="M240.14,-269.33C264.35,-275.53 293.4,-282.98 318.97,-289.53"/>
<polygon fill="#63b8ff" stroke="#63b8ff" points="241.05,-265.95 230.5,-266.86 239.31,-272.73 241.05,-265.95"/>
</a>
</g>
</g>
<!-- Node8 -->
<g id="Node000008" class="node">
<title>Node8</title>
<g id="a_Node000008"><a xlink:href="classgoogle_1_1GoogleCreateFolderExecutor.html" target="_top" xlink:title=" ">
<polygon fill="white" stroke="#666666" points="451.5,-272 317,-272 317,-240 451.5,-240 451.5,-272"/>
<text text-anchor="start" x="325" y="-258.5" font-family="Helvetica,sans-Serif" font-size="10.00">google.GoogleCreateFolder</text>
<text text-anchor="middle" x="384.25" y="-246.5" font-family="Helvetica,sans-Serif" font-size="10.00">Executor</text>
</a>
</g>
</g>
<!-- Node6&#45;&gt;Node8 -->
<g id="edge31_Node000006_Node000008" class="edge">
<title>Node6&#45;&gt;Node8</title>
<g id="a_edge31_Node000006_Node000008"><a xlink:title=" ">
<path fill="none" stroke="#63b8ff" d="M268.92,-256C284.84,-256 301.37,-256 316.75,-256"/>
<polygon fill="#63b8ff" stroke="#63b8ff" points="268.98,-252.5 258.98,-256 268.98,-259.5 268.98,-252.5"/>
</a>
</g>
</g>
<!-- Node9 -->
<g id="Node000009" class="node">
<title>Node9</title>
<g id="a_Node000009"><a xlink:href="classgoogle_1_1GoogleSendEmailExecutor.html" target="_top" xlink:title=" ">
<polygon fill="white" stroke="#666666" points="466.5,-222 302,-222 302,-202 466.5,-202 466.5,-222"/>
<text text-anchor="middle" x="384.25" y="-208.5" font-family="Helvetica,sans-Serif" font-size="10.00">google.GoogleSendEmailExecutor</text>
</a>
</g>
</g>
<!-- Node6&#45;&gt;Node9 -->
<g id="edge32_Node000006_Node000009" class="edge">
<title>Node6&#45;&gt;Node9</title>
<g id="a_edge32_Node000006_Node000009"><a xlink:title=" ">
<path fill="none" stroke="#63b8ff" d="M243.89,-243.05C260.85,-239.14 279.56,-234.87 296.75,-231 309.2,-228.2 322.67,-225.22 335.19,-222.47"/>
<polygon fill="#63b8ff" stroke="#63b8ff" points="243.46,-239.56 234.5,-245.22 245.03,-246.38 243.46,-239.56"/>
</a>
</g>
</g>
<!-- Node10 -->
<g id="Node000010" class="node">
<title>Node10</title>
<g id="a_Node000010"><a xlink:href="classgoogle_1_1GoogleUpdateCellExecutor.html" target="_top" xlink:title=" ">
<polygon fill="white" stroke="#666666" points="467.25,-184 301.25,-184 301.25,-164 467.25,-164 467.25,-184"/>
<text text-anchor="middle" x="384.25" y="-170.5" font-family="Helvetica,sans-Serif" font-size="10.00">google.GoogleUpdateCellExecutor</text>
</a>
</g>
</g>
<!-- Node6&#45;&gt;Node10 -->
<g id="edge33_Node000006_Node000010" class="edge">
<title>Node6&#45;&gt;Node10</title>
<g id="a_edge33_Node000006_Node000010"><a xlink:title=" ">
<path fill="none" stroke="#63b8ff" d="M253.66,-241.04C256.11,-239.8 258.48,-238.45 260.75,-237 282.02,-223.36 275.22,-206.22 296.75,-193 302.38,-189.54 308.57,-186.71 314.95,-184.39"/>
<polygon fill="#63b8ff" stroke="#63b8ff" points="252.4,-237.77 244.63,-244.98 255.2,-244.19 252.4,-237.77"/>
</a>
</g>
</g>
<!-- Node14 -->
<g id="Node000014" class="node">
<title>Node14</title>
<g id="a_Node000014"><a xlink:href="classtrello_1_1TrelloAddCommentExecutor.html" target="_top" xlink:title=" ">
<polygon fill="white" stroke="#666666" points="465.75,-146 302.75,-146 302.75,-126 465.75,-126 465.75,-146"/>
<text text-anchor="middle" x="384.25" y="-132.5" font-family="Helvetica,sans-Serif" font-size="10.00">trello.TrelloAddCommentExecutor</text>
</a>
</g>
</g>
<!-- Node13&#45;&gt;Node14 -->
<g id="edge37_Node000013_Node000014" class="edge">
<title>Node13&#45;&gt;Node14</title>
<g id="a_edge37_Node000013_Node000014"><a xlink:title=" ">
<path fill="none" stroke="#63b8ff" d="M253.11,-110.66C277.94,-115.49 305.94,-120.94 329.59,-125.55"/>
<polygon fill="#63b8ff" stroke="#63b8ff" points="253.93,-107.25 243.45,-108.77 252.59,-114.12 253.93,-107.25"/>
</a>
</g>
</g>
<!-- Node15 -->
<g id="Node000015" class="node">
<title>Node15</title>
<g id="a_Node000015"><a xlink:href="classtrello_1_1TrelloCreateCardExecutor.html" target="_top" xlink:title=" ">
<polygon fill="white" stroke="#666666" points="460.88,-108 307.62,-108 307.62,-88 460.88,-88 460.88,-108"/>
<text text-anchor="middle" x="384.25" y="-94.5" font-family="Helvetica,sans-Serif" font-size="10.00">trello.TrelloCreateCardExecutor</text>
</a>
</g>
</g>
<!-- Node13&#45;&gt;Node15 -->
<g id="edge38_Node000013_Node000015" class="edge">
<title>Node13&#45;&gt;Node15</title>
<g id="a_edge38_Node000013_Node000015"><a xlink:title=" ">
<path fill="none" stroke="#63b8ff" d="M261.43,-98C276.44,-98 292.27,-98 307.37,-98"/>
<polygon fill="#63b8ff" stroke="#63b8ff" points="261.65,-94.5 251.65,-98 261.65,-101.5 261.65,-94.5"/>
</a>
</g>
</g>
<!-- Node16 -->
<g id="Node000016" class="node">
<title>Node16</title>
<g id="a_Node000016"><a xlink:href="classtrello_1_1TrelloMoveCardExecutor.html" target="_top" xlink:title=" ">
<polygon fill="white" stroke="#666666" points="458.25,-70 310.25,-70 310.25,-50 458.25,-50 458.25,-70"/>
<text text-anchor="middle" x="384.25" y="-56.5" font-family="Helvetica,sans-Serif" font-size="10.00">trello.TrelloMoveCardExecutor</text>
</a>
</g>
</g>
<!-- Node13&#45;&gt;Node16 -->
<g id="edge39_Node000013_Node000016" class="edge">
<title>Node13&#45;&gt;Node16</title>
<g id="a_edge39_Node000013_Node000016"><a xlink:title=" ">
<path fill="none" stroke="#63b8ff" d="M253.11,-85.34C277.94,-80.51 305.94,-75.06 329.59,-70.45"/>
<polygon fill="#63b8ff" stroke="#63b8ff" points="252.59,-81.88 243.45,-87.23 253.93,-88.75 252.59,-81.88"/>
</a>
</g>
</g>
<!-- Node17 -->
<g id="Node000017" class="node">
<title>Node17</title>
<g id="a_Node000017"><a xlink:href="classtrello_1_1TrelloUpdateBoardTitleExecutor.html" target="_top" xlink:title=" ">
<polygon fill="white" stroke="#666666" points="444.75,-32 323.75,-32 323.75,0 444.75,0 444.75,-32"/>
<text text-anchor="start" x="331.75" y="-18.5" font-family="Helvetica,sans-Serif" font-size="10.00">trello.TrelloUpdateBoard</text>
<text text-anchor="middle" x="384.25" y="-6.5" font-family="Helvetica,sans-Serif" font-size="10.00">TitleExecutor</text>
</a>
</g>
</g>
<!-- Node13&#45;&gt;Node17 -->
<g id="edge40_Node000013_Node000017" class="edge">
<title>Node13&#45;&gt;Node17</title>
<g id="a_edge40_Node000013_Node000017"><a xlink:title=" ">
<path fill="none" stroke="#63b8ff" d="M215.04,-81.92C236.59,-69.53 267.88,-52.61 296.75,-41 305.31,-37.56 314.51,-34.38 323.62,-31.52"/>
<polygon fill="#63b8ff" stroke="#63b8ff" points="213.48,-78.78 206.6,-86.83 217,-84.83 213.48,-78.78"/>
</a>
</g>
</g>
</g>
</svg>
