<?xml version="1.0" encoding="UTF-8" standalone="no"?>
<!DOCTYPE svg PUBLIC "-//W3C//DTD SVG 1.1//EN"
 "http://www.w3.org/Graphics/SVG/1.1/DTD/svg11.dtd">
<!-- Generated by graphviz version 12.1.0 (20240811.2233)
 -->
<!-- Title: app.area_engine.interpolate_single_value Pages: 1 -->
<svg width="499pt" height="40pt"
 viewBox="0.00 0.00 499.25 40.00" xmlns="http://www.w3.org/2000/svg" xmlns:xlink="http://www.w3.org/1999/xlink">
<g id="graph0" class="graph" transform="scale(1 1) rotate(0) translate(4 36)">
<title>app.area_engine.interpolate_single_value</title>
<!-- Node1 -->
<g id="Node000001" class="node">
<title>Node1</title>
<g id="a_Node000001"><a xlink:title=" ">
<polygon fill="#999999" stroke="#666666" points="491.25,-32 356,-32 356,0 491.25,0 491.25,-32"/>
<text text-anchor="start" x="364" y="-18.5" font-family="Helvetica,sans-Serif" font-size="10.00">app.area_engine.interpolate</text>
<text text-anchor="middle" x="423.62" y="-6.5" font-family="Helvetica,sans-Serif" font-size="10.00">_single_value</text>
</a>
</g>
</g>
<!-- Node2 -->
<g id="Node000002" class="node">
<title>Node2</title>
<g id="a_Node000002"><a xlink:href="namespaceapp_1_1area__engine.html#a5aa9be97ce9a830bf00bade2e77f5d51" target="_top" xlink:title=" ">
<polygon fill="white" stroke="#666666" points="320,-32 184.75,-32 184.75,0 320,0 320,-32"/>
<text text-anchor="start" x="192.75" y="-18.5" font-family="Helvetica,sans-Serif" font-size="10.00">app.area_engine.interpolate</text>
<text text-anchor="middle" x="252.38" y="-6.5" font-family="Helvetica,sans-Serif" font-size="10.00">_parameters</text>
</a>
</g>
</g>
<!-- Node1&#45;&gt;Node2 -->
<g id="edge1_Node000001_Node000002" class="edge">
<title>Node1&#45;&gt;Node2</title>
<g id="a_edge1_Node000001_Node000002"><a xlink:title=" ">
<path fill="none" stroke="#63b8ff" d="M344.43,-16C336.38,-16 328.25,-16 320.34,-16"/>
<polygon fill="#63b8ff" stroke="#63b8ff" points="344.22,-19.5 354.22,-16 344.22,-12.5 344.22,-19.5"/>
</a>
</g>
</g>
<!-- Node3 -->
<g id="Node000003" class="node">
<title>Node3</title>
<g id="a_Node000003"><a xlink:href="namespaceapp_1_1area__engine.html#ab28d3f75a9d7a8b20d0a5e219a16b7fe" target="_top" xlink:title=" ">
<polygon fill="white" stroke="#666666" points="148.75,-26 0,-26 0,-6 148.75,-6 148.75,-26"/>
<text text-anchor="middle" x="74.38" y="-12.5" font-family="Helvetica,sans-Serif" font-size="10.00">app.area_engine.execute_area</text>
</a>
</g>
</g>
<!-- Node2&#45;&gt;Node3 -->
<g id="edge2_Node000002_Node000003" class="edge">
<title>Node2&#45;&gt;Node3</title>
<g id="a_edge2_Node000002_Node000003"><a xlink:title=" ">
<path fill="none" stroke="#63b8ff" d="M173.1,-16C165.08,-16 156.95,-16 148.98,-16"/>
<polygon fill="#63b8ff" stroke="#63b8ff" points="172.82,-19.5 182.82,-16 172.82,-12.5 172.82,-19.5"/>
</a>
</g>
</g>
</g>
</svg>
