<?xml version="1.0" encoding="UTF-8" standalone="no"?>
<!DOCTYPE svg PUBLIC "-//W3C//DTD SVG 1.1//EN"
 "http://www.w3.org/Graphics/SVG/1.1/DTD/svg11.dtd">
<!-- Generated by graphviz version 12.1.0 (20240811.2233)
 -->
<!-- Title: app.db.scan_yaml_files Pages: 1 -->
<svg width="436pt" height="78pt"
 viewBox="0.00 0.00 435.50 78.00" xmlns="http://www.w3.org/2000/svg" xmlns:xlink="http://www.w3.org/1999/xlink">
<g id="graph0" class="graph" transform="scale(1 1) rotate(0) translate(4 74)">
<title>app.db.scan_yaml_files</title>
<!-- Node1 -->
<g id="Node000001" class="node">
<title>Node1</title>
<g id="a_Node000001"><a xlink:title=" ">
<polygon fill="#999999" stroke="#666666" points="427.5,-42 308.75,-42 308.75,-22 427.5,-22 427.5,-42"/>
<text text-anchor="middle" x="368.12" y="-28.5" font-family="Helvetica,sans-Serif" font-size="10.00">app.db.scan_yaml_files</text>
</a>
</g>
</g>
<!-- Node2 -->
<g id="Node000002" class="node">
<title>Node2</title>
<g id="a_Node000002"><a xlink:href="namespaceapp_1_1db.html#ab12542aa44f427b1a984f07830f87f3f" target="_top" xlink:title=" ">
<polygon fill="white" stroke="#666666" points="270.12,-70 161.12,-70 161.12,-38 270.12,-38 270.12,-70"/>
<text text-anchor="start" x="169.12" y="-56.5" font-family="Helvetica,sans-Serif" font-size="10.00">app.db.insert_actions</text>
<text text-anchor="middle" x="215.62" y="-44.5" font-family="Helvetica,sans-Serif" font-size="10.00">_and_reactions</text>
</a>
</g>
</g>
<!-- Node1&#45;&gt;Node2 -->
<g id="edge1_Node000001_Node000002" class="edge">
<title>Node1&#45;&gt;Node2</title>
<g id="a_edge1_Node000001_Node000002"><a xlink:title=" ">
<path fill="none" stroke="#63b8ff" d="M297.2,-42.22C288.2,-43.54 279.1,-44.87 270.41,-46.14"/>
<polygon fill="#63b8ff" stroke="#63b8ff" points="297.62,-45.7 307.01,-40.79 296.61,-38.77 297.62,-45.7"/>
</a>
</g>
</g>
<!-- Node4 -->
<g id="Node000004" class="node">
<title>Node4</title>
<g id="a_Node000004"><a xlink:href="namespaceapp_1_1db.html#ade2912944889dca3157bec33dd13352f" target="_top" xlink:title=" ">
<polygon fill="white" stroke="#666666" points="272.75,-20 158.5,-20 158.5,0 272.75,0 272.75,-20"/>
<text text-anchor="middle" x="215.62" y="-6.5" font-family="Helvetica,sans-Serif" font-size="10.00">app.db.insert_services</text>
</a>
</g>
</g>
<!-- Node1&#45;&gt;Node4 -->
<g id="edge3_Node000001_Node000004" class="edge">
<title>Node1&#45;&gt;Node4</title>
<g id="a_edge3_Node000001_Node000004"><a xlink:title=" ">
<path fill="none" stroke="#63b8ff" d="M297.39,-21.81C289.17,-20.6 280.86,-19.39 272.86,-18.22"/>
<polygon fill="#63b8ff" stroke="#63b8ff" points="296.61,-25.23 307.01,-23.21 297.62,-18.3 296.61,-25.23"/>
</a>
</g>
</g>
<!-- Node3 -->
<g id="Node000003" class="node">
<title>Node3</title>
<g id="a_Node000003"><a xlink:href="namespaceapp_1_1db.html#ac8810a496f6c3ecc6275f5c0f02c64e7" target="_top" xlink:title=" ">
<polygon fill="white" stroke="#666666" points="122.5,-42 0,-42 0,-22 122.5,-22 122.5,-42"/>
<text text-anchor="middle" x="61.25" y="-28.5" font-family="Helvetica,sans-Serif" font-size="10.00">app.db.create_db_tables</text>
</a>
</g>
</g>
<!-- Node2&#45;&gt;Node3 -->
<g id="edge2_Node000002_Node000003" class="edge">
<title>Node2&#45;&gt;Node3</title>
<g id="a_edge2_Node000002_Node000003"><a xlink:title=" ">
<path fill="none" stroke="#63b8ff" d="M149.72,-44.63C140.78,-43.34 131.62,-42.02 122.76,-40.74"/>
<polygon fill="#63b8ff" stroke="#63b8ff" points="149.01,-48.06 159.41,-46.03 150.01,-41.13 149.01,-48.06"/>
</a>
</g>
</g>
<!-- Node4&#45;&gt;Node3 -->
<g id="edge4_Node000004_Node000003" class="edge">
<title>Node4&#45;&gt;Node3</title>
<g id="a_edge4_Node000004_Node000003"><a xlink:title=" ">
<path fill="none" stroke="#63b8ff" d="M147.08,-19.75C139.04,-20.91 130.87,-22.09 122.93,-23.24"/>
<polygon fill="#63b8ff" stroke="#63b8ff" points="147.42,-23.24 156.82,-18.35 146.42,-16.31 147.42,-23.24"/>
</a>
</g>
</g>
</g>
</svg>
