<?xml version="1.0" encoding="UTF-8" standalone="no"?>
<!DOCTYPE svg PUBLIC "-//W3C//DTD SVG 1.1//EN"
 "http://www.w3.org/Graphics/SVG/1.1/DTD/svg11.dtd">
<!-- Generated by graphviz version 12.1.0 (20240811.2233)
 -->
<!-- Title: app.db.insert_actions_and_reactions Pages: 1 -->
<svg width="272pt" height="66pt"
 viewBox="0.00 0.00 271.75 66.00" xmlns="http://www.w3.org/2000/svg" xmlns:xlink="http://www.w3.org/1999/xlink">
<g id="graph0" class="graph" transform="scale(1 1) rotate(0) translate(4 62)">
<title>app.db.insert_actions_and_reactions</title>
<!-- Node1 -->
<g id="Node000001" class="node">
<title>Node1</title>
<g id="a_Node000001"><a xlink:title=" ">
<polygon fill="#999999" stroke="#666666" points="109,-45 0,-45 0,-13 109,-13 109,-45"/>
<text text-anchor="start" x="8" y="-31.5" font-family="Helvetica,sans-Serif" font-size="10.00">app.db.insert_actions</text>
<text text-anchor="middle" x="54.5" y="-19.5" font-family="Helvetica,sans-Serif" font-size="10.00">_and_reactions</text>
</a>
</g>
</g>
<!-- Node2 -->
<g id="Node000002" class="node">
<title>Node2</title>
<g id="a_Node000002"><a xlink:href="namespaceapp_1_1db.html#a38000937adf31bedee700ba19a1187da" target="_top" xlink:title=" ">
<polygon fill="white" stroke="#666666" points="259.62,-58 149.12,-58 149.12,-38 259.62,-38 259.62,-58"/>
<text text-anchor="middle" x="204.38" y="-44.5" font-family="Helvetica,sans-Serif" font-size="10.00">app.db.load_yaml_file</text>
</a>
</g>
</g>
<!-- Node1&#45;&gt;Node2 -->
<g id="edge1_Node000001_Node000002" class="edge">
<title>Node1&#45;&gt;Node2</title>
<g id="a_edge1_Node000001_Node000002"><a xlink:title=" ">
<path fill="none" stroke="#63b8ff" d="M109.3,-35.91C118.46,-37.09 128.07,-38.32 137.5,-39.54"/>
<polygon fill="#63b8ff" stroke="#63b8ff" points="137,-43 147.37,-40.8 137.89,-36.06 137,-43"/>
</a>
</g>
</g>
<!-- Node3 -->
<g id="Node000003" class="node">
<title>Node3</title>
<g id="a_Node000003"><a xlink:href="namespaceapp_1_1db.html#a29df0aa0d3c747d0fd865cc2fc0ea7ab" target="_top" xlink:title=" ">
<polygon fill="white" stroke="#666666" points="263.75,-20 145,-20 145,0 263.75,0 263.75,-20"/>
<text text-anchor="middle" x="204.38" y="-6.5" font-family="Helvetica,sans-Serif" font-size="10.00">app.db.scan_yaml_files</text>
</a>
</g>
</g>
<!-- Node1&#45;&gt;Node3 -->
<g id="edge2_Node000001_Node000003" class="edge">
<title>Node1&#45;&gt;Node3</title>
<g id="a_edge2_Node000001_Node000003"><a xlink:title=" ">
<path fill="none" stroke="#63b8ff" d="M109.3,-22.09C117.11,-21.08 125.23,-20.04 133.3,-19"/>
<polygon fill="#63b8ff" stroke="#63b8ff" points="133.64,-22.49 143.12,-17.74 132.75,-15.55 133.64,-22.49"/>
</a>
</g>
</g>
</g>
</svg>
