<?xml version="1.0" encoding="UTF-8" standalone="no"?>
<!DOCTYPE svg PUBLIC "-//W3C//DTD SVG 1.1//EN"
 "http://www.w3.org/Graphics/SVG/1.1/DTD/svg11.dtd">
<!-- Generated by graphviz version 12.1.0 (20240811.2233)
 -->
<!-- Title: app.core.oauth_config._expand_env_vars Pages: 1 -->
<svg width="465pt" height="40pt"
 viewBox="0.00 0.00 464.75 40.00" xmlns="http://www.w3.org/2000/svg" xmlns:xlink="http://www.w3.org/1999/xlink">
<g id="graph0" class="graph" transform="scale(1 1) rotate(0) translate(4 36)">
<title>app.core.oauth_config._expand_env_vars</title>
<!-- Node1 -->
<g id="Node000001" class="node">
<title>Node1</title>
<g id="a_Node000001"><a xlink:title=" ">
<polygon fill="#999999" stroke="#666666" points="456.75,-32 341.75,-32 341.75,0 456.75,0 456.75,-32"/>
<text text-anchor="start" x="349.75" y="-18.5" font-family="Helvetica,sans-Serif" font-size="10.00">app.core.oauth_config.</text>
<text text-anchor="middle" x="399.25" y="-6.5" font-family="Helvetica,sans-Serif" font-size="10.00">_expand_env_vars</text>
</a>
</g>
</g>
<!-- Node2 -->
<g id="Node000002" class="node">
<title>Node2</title>
<g id="a_Node000002"><a xlink:href="namespaceapp_1_1core_1_1oauth__config.html#a9869871670e7e02f214b36c3ed13a481" target="_top" xlink:title=" ">
<polygon fill="white" stroke="#666666" points="305.75,-32 190.75,-32 190.75,0 305.75,0 305.75,-32"/>
<text text-anchor="start" x="198.75" y="-18.5" font-family="Helvetica,sans-Serif" font-size="10.00">app.core.oauth_config.</text>
<text text-anchor="middle" x="248.25" y="-6.5" font-family="Helvetica,sans-Serif" font-size="10.00">_load_providers_file</text>
</a>
</g>
</g>
<!-- Node1&#45;&gt;Node2 -->
<g id="edge1_Node000001_Node000002" class="edge">
<title>Node1&#45;&gt;Node2</title>
<g id="a_edge1_Node000001_Node000002"><a xlink:title=" ">
<path fill="none" stroke="#63b8ff" d="M330.12,-16C322,-16 313.78,-16 305.85,-16"/>
<polygon fill="#63b8ff" stroke="#63b8ff" points="329.98,-19.5 339.98,-16 329.98,-12.5 329.98,-19.5"/>
</a>
</g>
</g>
<!-- Node3 -->
<g id="Node000003" class="node">
<title>Node3</title>
<g id="a_Node000003"><a xlink:href="namespaceapp_1_1core_1_1oauth__config.html#a84c4e9ba7a9991d376867b89d2206401" target="_top" xlink:title=" ">
<polygon fill="white" stroke="#666666" points="154.75,-32 0,-32 0,0 154.75,0 154.75,-32"/>
<text text-anchor="start" x="8" y="-18.5" font-family="Helvetica,sans-Serif" font-size="10.00">app.core.oauth_config.providers</text>
<text text-anchor="middle" x="77.38" y="-6.5" font-family="Helvetica,sans-Serif" font-size="10.00">_registry</text>
</a>
</g>
</g>
<!-- Node2&#45;&gt;Node3 -->
<g id="edge2_Node000002_Node000003" class="edge">
<title>Node2&#45;&gt;Node3</title>
<g id="a_edge2_Node000002_Node000003"><a xlink:title=" ">
<path fill="none" stroke="#63b8ff" d="M179.11,-16C171.19,-16 163.06,-16 155.03,-16"/>
<polygon fill="#63b8ff" stroke="#63b8ff" points="179.03,-19.5 189.03,-16 179.03,-12.5 179.03,-19.5"/>
</a>
</g>
</g>
</g>
</svg>
