<?xml version="1.0" encoding="UTF-8" standalone="no"?>
<!DOCTYPE svg PUBLIC "-//W3C//DTD SVG 1.1//EN"
 "http://www.w3.org/Graphics/SVG/1.1/DTD/svg11.dtd">
<!-- Generated by graphviz version 12.1.0 (20240811.2233)
 -->
<!-- Title: app.routers.services.serialize_subscription Pages: 1 -->
<svg width="337pt" height="90pt"
 viewBox="0.00 0.00 337.00 90.00" xmlns="http://www.w3.org/2000/svg" xmlns:xlink="http://www.w3.org/1999/xlink">
<g id="graph0" class="graph" transform="scale(1 1) rotate(0) translate(4 86)">
<title>app.routers.services.serialize_subscription</title>
<!-- Node1 -->
<g id="Node000001" class="node">
<title>Node1</title>
<g id="a_Node000001"><a xlink:title=" ">
<polygon fill="#999999" stroke="#666666" points="329,-57 185.5,-57 185.5,-25 329,-25 329,-57"/>
<text text-anchor="start" x="193.5" y="-43.5" font-family="Helvetica,sans-Serif" font-size="10.00">app.routers.services.serialize</text>
<text text-anchor="middle" x="257.25" y="-31.5" font-family="Helvetica,sans-Serif" font-size="10.00">_subscription</text>
</a>
</g>
</g>
<!-- Node2 -->
<g id="Node000002" class="node">
<title>Node2</title>
<g id="a_Node000002"><a xlink:href="namespaceapp_1_1routers_1_1services.html#aca94c6c1ff57633df984f06e7f93b0d5" target="_top" xlink:title=" ">
<polygon fill="white" stroke="#666666" points="135.25,-82 14.25,-82 14.25,-50 135.25,-50 135.25,-82"/>
<text text-anchor="start" x="22.25" y="-68.5" font-family="Helvetica,sans-Serif" font-size="10.00">app.routers.services.get</text>
<text text-anchor="middle" x="74.75" y="-56.5" font-family="Helvetica,sans-Serif" font-size="10.00">_my_services</text>
</a>
</g>
</g>
<!-- Node1&#45;&gt;Node2 -->
<g id="edge1_Node000001_Node000002" class="edge">
<title>Node1&#45;&gt;Node2</title>
<g id="a_edge1_Node000001_Node000002"><a xlink:title=" ">
<path fill="none" stroke="#63b8ff" d="M173.93,-52.4C161.05,-54.19 147.94,-56 135.69,-57.7"/>
<polygon fill="#63b8ff" stroke="#63b8ff" points="174.25,-55.89 183.67,-51.05 173.29,-48.96 174.25,-55.89"/>
</a>
</g>
</g>
<!-- Node3 -->
<g id="Node000003" class="node">
<title>Node3</title>
<g id="a_Node000003"><a xlink:href="namespaceapp_1_1routers_1_1services.html#aa7d90314dbce28c0b7771ff83b85654f" target="_top" xlink:title=" ">
<polygon fill="white" stroke="#666666" points="149.5,-32 0,-32 0,0 149.5,0 149.5,-32"/>
<text text-anchor="start" x="8" y="-18.5" font-family="Helvetica,sans-Serif" font-size="10.00">app.routers.services.subscribe</text>
<text text-anchor="middle" x="74.75" y="-6.5" font-family="Helvetica,sans-Serif" font-size="10.00">_service</text>
</a>
</g>
</g>
<!-- Node1&#45;&gt;Node3 -->
<g id="edge2_Node000001_Node000003" class="edge">
<title>Node1&#45;&gt;Node3</title>
<g id="a_edge2_Node000001_Node000003"><a xlink:title=" ">
<path fill="none" stroke="#63b8ff" d="M173.87,-29.59C165.82,-28.48 157.69,-27.35 149.73,-26.25"/>
<polygon fill="#63b8ff" stroke="#63b8ff" points="173.29,-33.04 183.67,-30.95 174.25,-26.11 173.29,-33.04"/>
</a>
</g>
</g>
</g>
</svg>
