<?xml version="1.0" encoding="UTF-8" standalone="no"?>
<!DOCTYPE svg PUBLIC "-//W3C//DTD SVG 1.1//EN"
 "http://www.w3.org/Graphics/SVG/1.1/DTD/svg11.dtd">
<!-- Generated by graphviz version 12.1.0 (20240811.2233)
 -->
<!-- Title: test_utils._build_request Pages: 1 -->
<svg width="306pt" height="176pt"
 viewBox="0.00 0.00 306.25 176.00" xmlns="http://www.w3.org/2000/svg" xmlns:xlink="http://www.w3.org/1999/xlink">
<g id="graph0" class="graph" transform="scale(1 1) rotate(0) translate(4 172)">
<title>test_utils._build_request</title>
<!-- Node1 -->
<g id="Node000001" class="node">
<title>Node1</title>
<g id="a_Node000001"><a xlink:title=" ">
<polygon fill="#999999" stroke="#666666" points="298.25,-94 176.5,-94 176.5,-74 298.25,-74 298.25,-94"/>
<text text-anchor="middle" x="237.38" y="-80.5" font-family="Helvetica,sans-Serif" font-size="10.00">test_utils._build_request</text>
</a>
</g>
</g>
<!-- Node2 -->
<g id="Node000002" class="node">
<title>Node2</title>
<g id="a_Node000002"><a xlink:href="namespacetest__utils.html#a5353cbda2f31e06e8b26c82b81ee99f2" target="_top" xlink:title=" ">
<polygon fill="white" stroke="#666666" points="123.62,-168 16.88,-168 16.88,-124 123.62,-124 123.62,-168"/>
<text text-anchor="start" x="24.88" y="-154.5" font-family="Helvetica,sans-Serif" font-size="10.00">test_utils.test_get</text>
<text text-anchor="start" x="24.88" y="-142.5" font-family="Helvetica,sans-Serif" font-size="10.00">_client_ip_falls_back</text>
<text text-anchor="middle" x="70.25" y="-130.5" font-family="Helvetica,sans-Serif" font-size="10.00">_to_unknown</text>
</a>
</g>
</g>
<!-- Node1&#45;&gt;Node2 -->
<g id="edge1_Node000001_Node000002" class="edge">
<title>Node1&#45;&gt;Node2</title>
<g id="a_edge1_Node000001_Node000002"><a xlink:title=" ">
<path fill="none" stroke="#63b8ff" d="M198.14,-98.36C176.12,-106.62 148.13,-117.13 124.04,-126.18"/>
<polygon fill="#63b8ff" stroke="#63b8ff" points="199.19,-101.7 207.32,-94.91 196.73,-95.15 199.19,-101.7"/>
</a>
</g>
</g>
<!-- Node3 -->
<g id="Node000003" class="node">
<title>Node3</title>
<g id="a_Node000003"><a xlink:href="namespacetest__utils.html#a5c34fbcb918f87214ea9685115227fa6" target="_top" xlink:title=" ">
<polygon fill="white" stroke="#666666" points="140.5,-106 0,-106 0,-62 140.5,-62 140.5,-106"/>
<text text-anchor="start" x="8" y="-92.5" font-family="Helvetica,sans-Serif" font-size="10.00">test_utils.test_get</text>
<text text-anchor="start" x="8" y="-80.5" font-family="Helvetica,sans-Serif" font-size="10.00">_client_ip_prefers_forwarded</text>
<text text-anchor="middle" x="70.25" y="-68.5" font-family="Helvetica,sans-Serif" font-size="10.00">_header</text>
</a>
</g>
</g>
<!-- Node1&#45;&gt;Node3 -->
<g id="edge2_Node000001_Node000003" class="edge">
<title>Node1&#45;&gt;Node3</title>
<g id="a_edge2_Node000001_Node000003"><a xlink:title=" ">
<path fill="none" stroke="#63b8ff" d="M165.06,-84C157.01,-84 148.83,-84 140.81,-84"/>
<polygon fill="#63b8ff" stroke="#63b8ff" points="164.78,-87.5 174.78,-84 164.78,-80.5 164.78,-87.5"/>
</a>
</g>
</g>
<!-- Node4 -->
<g id="Node000004" class="node">
<title>Node4</title>
<g id="a_Node000004"><a xlink:href="namespacetest__utils.html#ad956e45f254f0d0405f34c2ce3a025dd" target="_top" xlink:title=" ">
<polygon fill="white" stroke="#666666" points="129.62,-44 10.88,-44 10.88,0 129.62,0 129.62,-44"/>
<text text-anchor="start" x="18.88" y="-30.5" font-family="Helvetica,sans-Serif" font-size="10.00">test_utils.test_get</text>
<text text-anchor="start" x="18.88" y="-18.5" font-family="Helvetica,sans-Serif" font-size="10.00">_client_ip_uses_client</text>
<text text-anchor="middle" x="70.25" y="-6.5" font-family="Helvetica,sans-Serif" font-size="10.00">_host_when_no_header</text>
</a>
</g>
</g>
<!-- Node1&#45;&gt;Node4 -->
<g id="edge3_Node000001_Node000004" class="edge">
<title>Node1&#45;&gt;Node4</title>
<g id="a_edge3_Node000001_Node000004"><a xlink:title=" ">
<path fill="none" stroke="#63b8ff" d="M198.05,-69.61C177.79,-62 152.49,-52.5 129.83,-44"/>
<polygon fill="#63b8ff" stroke="#63b8ff" points="196.73,-72.85 207.32,-73.09 199.19,-66.3 196.73,-72.85"/>
</a>
</g>
</g>
</g>
</svg>
