<?xml version="1.0" encoding="UTF-8" standalone="no"?>
<!DOCTYPE svg PUBLIC "-//W3C//DTD SVG 1.1//EN"
 "http://www.w3.org/Graphics/SVG/1.1/DTD/svg11.dtd">
<!-- Generated by graphviz version 12.1.0 (20240811.2233)
 -->
<!-- Title: app.db.create_db_tables Pages: 1 -->
<svg width="436pt" height="78pt"
 viewBox="0.00 0.00 435.50 78.00" xmlns="http://www.w3.org/2000/svg" xmlns:xlink="http://www.w3.org/1999/xlink">
<g id="graph0" class="graph" transform="scale(1 1) rotate(0) translate(4 74)">
<title>app.db.create_db_tables</title>
<!-- Node1 -->
<g id="Node000001" class="node">
<title>Node1</title>
<g id="a_Node000001"><a xlink:title=" ">
<polygon fill="#999999" stroke="#666666" points="122.5,-42 0,-42 0,-22 122.5,-22 122.5,-42"/>
<text text-anchor="middle" x="61.25" y="-28.5" font-family="Helvetica,sans-Serif" font-size="10.00">app.db.create_db_tables</text>
</a>
</g>
</g>
<!-- Node2 -->
<g id="Node000002" class="node">
<title>Node2</title>
<g id="a_Node000002"><a xlink:href="namespaceapp_1_1db.html#ab12542aa44f427b1a984f07830f87f3f" target="_top" xlink:title=" ">
<polygon fill="white" stroke="#666666" points="270.12,-70 161.12,-70 161.12,-38 270.12,-38 270.12,-70"/>
<text text-anchor="start" x="169.12" y="-56.5" font-family="Helvetica,sans-Serif" font-size="10.00">app.db.insert_actions</text>
<text text-anchor="middle" x="215.62" y="-44.5" font-family="Helvetica,sans-Serif" font-size="10.00">_and_reactions</text>
</a>
</g>
</g>
<!-- Node1&#45;&gt;Node2 -->
<g id="edge1_Node000001_Node000002" class="edge">
<title>Node1&#45;&gt;Node2</title>
<g id="a_edge1_Node000001_Node000002"><a xlink:title=" ">
<path fill="none" stroke="#63b8ff" d="M122.91,-40.76C131.78,-42.04 140.94,-43.36 149.89,-44.65"/>
<polygon fill="#63b8ff" stroke="#63b8ff" points="149.18,-48.09 159.57,-46.05 150.18,-41.16 149.18,-48.09"/>
</a>
</g>
</g>
<!-- Node5 -->
<g id="Node000005" class="node">
<title>Node5</title>
<g id="a_Node000005"><a xlink:href="namespaceapp_1_1db.html#ade2912944889dca3157bec33dd13352f" target="_top" xlink:title=" ">
<polygon fill="white" stroke="#666666" points="272.75,-20 158.5,-20 158.5,0 272.75,0 272.75,-20"/>
<text text-anchor="middle" x="215.62" y="-6.5" font-family="Helvetica,sans-Serif" font-size="10.00">app.db.insert_services</text>
</a>
</g>
</g>
<!-- Node1&#45;&gt;Node5 -->
<g id="edge4_Node000001_Node000005" class="edge">
<title>Node1&#45;&gt;Node5</title>
<g id="a_edge4_Node000001_Node000005"><a xlink:title=" ">
<path fill="none" stroke="#63b8ff" d="M122.91,-23.24C130.81,-22.1 138.94,-20.93 146.94,-19.77"/>
<polygon fill="#63b8ff" stroke="#63b8ff" points="147.24,-23.27 156.64,-18.37 146.24,-16.34 147.24,-23.27"/>
</a>
</g>
</g>
<!-- Node3 -->
<g id="Node000003" class="node">
<title>Node3</title>
<g id="a_Node000003"><a xlink:href="namespaceapp_1_1db.html#a38000937adf31bedee700ba19a1187da" target="_top" xlink:title=" ">
<polygon fill="white" stroke="#666666" points="423.38,-62 312.88,-62 312.88,-42 423.38,-42 423.38,-62"/>
<text text-anchor="middle" x="368.12" y="-48.5" font-family="Helvetica,sans-Serif" font-size="10.00">app.db.load_yaml_file</text>
</a>
</g>
</g>
<!-- Node2&#45;&gt;Node3 -->
<g id="edge2_Node000002_Node000003" class="edge">
<title>Node2&#45;&gt;Node3</title>
<g id="a_edge2_Node000002_Node000003"><a xlink:title=" ">
<path fill="none" stroke="#63b8ff" d="M270.53,-53.28C280.46,-53.15 290.93,-53.01 301.16,-52.88"/>
<polygon fill="#63b8ff" stroke="#63b8ff" points="301.11,-56.38 311.07,-52.74 301.02,-49.38 301.11,-56.38"/>
</a>
</g>
</g>
<!-- Node4 -->
<g id="Node000004" class="node">
<title>Node4</title>
<g id="a_Node000004"><a xlink:href="namespaceapp_1_1db.html#a29df0aa0d3c747d0fd865cc2fc0ea7ab" target="_top" xlink:title=" ">
<polygon fill="white" stroke="#666666" points="427.5,-23 308.75,-23 308.75,-3 427.5,-3 427.5,-23"/>
<text text-anchor="middle" x="368.12" y="-9.5" font-family="Helvetica,sans-Serif" font-size="10.00">app.db.scan_yaml_files</text>
</a>
</g>
</g>
<!-- Node2&#45;&gt;Node4 -->
<g id="edge3_Node000002_Node000004" class="edge">
<title>Node2&#45;&gt;Node4</title>
<g id="a_edge3_Node000002_Node000004"><a xlink:title=" ">
<path fill="none" stroke="#63b8ff" d="M270.53,-39.31C286.01,-35.1 302.8,-30.52 317.97,-26.39"/>
<polygon fill="#63b8ff" stroke="#63b8ff" points="318.5,-29.87 327.23,-23.87 316.66,-23.12 318.5,-29.87"/>
</a>
</g>
</g>
<!-- Node5&#45;&gt;Node3 -->
<g id="edge5_Node000005_Node000003" class="edge">
<title>Node5&#45;&gt;Node3</title>
<g id="a_edge5_Node000005_Node000003"><a xlink:title=" ">
<path fill="none" stroke="#63b8ff" d="M254.21,-20.49C273.77,-25.95 297.9,-32.68 318.83,-38.52"/>
<polygon fill="#63b8ff" stroke="#63b8ff" points="317.72,-41.85 328.3,-41.16 319.61,-35.1 317.72,-41.85"/>
</a>
</g>
</g>
<!-- Node5&#45;&gt;Node4 -->
<g id="edge6_Node000005_Node000004" class="edge">
<title>Node5&#45;&gt;Node4</title>
<g id="a_edge6_Node000005_Node000004"><a xlink:title=" ">
<path fill="none" stroke="#63b8ff" d="M273.09,-11.13C280.92,-11.28 289.03,-11.44 297.06,-11.6"/>
<polygon fill="#63b8ff" stroke="#63b8ff" points="296.75,-15.1 306.82,-11.8 296.89,-8.1 296.75,-15.1"/>
</a>
</g>
</g>
</g>
</svg>
