<?xml version="1.0" encoding="UTF-8" standalone="no"?>
<!DOCTYPE svg PUBLIC "-//W3C//DTD SVG 1.1//EN"
 "http://www.w3.org/Graphics/SVG/1.1/DTD/svg11.dtd">
<!-- Generated by graphviz version 12.1.0 (20240811.2233)
 -->
<!-- Title: app.routers.areas.create_area Pages: 1 -->
<svg width="314pt" height="190pt"
 viewBox="0.00 0.00 313.75 190.00" xmlns="http://www.w3.org/2000/svg" xmlns:xlink="http://www.w3.org/1999/xlink">
<g id="graph0" class="graph" transform="scale(1 1) rotate(0) translate(4 186)">
<title>app.routers.areas.create_area</title>
<!-- Node1 -->
<g id="Node000001" class="node">
<title>Node1</title>
<g id="a_Node000001"><a xlink:title=" ">
<polygon fill="#999999" stroke="#666666" points="145.75,-101 0,-101 0,-81 145.75,-81 145.75,-101"/>
<text text-anchor="middle" x="72.88" y="-87.5" font-family="Helvetica,sans-Serif" font-size="10.00">app.routers.areas.create_area</text>
</a>
</g>
</g>
<!-- Node2 -->
<g id="Node000002" class="node">
<title>Node2</title>
<g id="a_Node000002"><a xlink:href="namespaceapp_1_1routers_1_1areas.html#a3a999ae695ab5ed15191fe332b9e9716" target="_top" xlink:title=" ">
<polygon fill="white" stroke="#666666" points="305.75,-182 181.75,-182 181.75,-150 305.75,-150 305.75,-182"/>
<text text-anchor="start" x="189.75" y="-168.5" font-family="Helvetica,sans-Serif" font-size="10.00">app.routers.areas.require</text>
<text text-anchor="middle" x="243.75" y="-156.5" font-family="Helvetica,sans-Serif" font-size="10.00">_action</text>
</a>
</g>
</g>
<!-- Node1&#45;&gt;Node2 -->
<g id="edge1_Node000001_Node000002" class="edge">
<title>Node1&#45;&gt;Node2</title>
<g id="a_edge1_Node000001_Node000002"><a xlink:title=" ">
<path fill="none" stroke="#63b8ff" d="M95.64,-101.44C117.34,-111.76 151.67,-127.87 181.75,-141 184.9,-142.37 188.15,-143.77 191.43,-145.16"/>
<polygon fill="#63b8ff" stroke="#63b8ff" points="189.98,-148.35 200.56,-148.99 192.69,-141.9 189.98,-148.35"/>
</a>
</g>
</g>
<!-- Node3 -->
<g id="Node000003" class="node">
<title>Node3</title>
<g id="a_Node000003"><a xlink:href="namespaceapp_1_1routers_1_1areas.html#a0aef764b937b1b3d85de2e7af36adba9" target="_top" xlink:title=" ">
<polygon fill="white" stroke="#666666" points="305.75,-132 181.75,-132 181.75,-100 305.75,-100 305.75,-132"/>
<text text-anchor="start" x="189.75" y="-118.5" font-family="Helvetica,sans-Serif" font-size="10.00">app.routers.areas.require</text>
<text text-anchor="middle" x="243.75" y="-106.5" font-family="Helvetica,sans-Serif" font-size="10.00">_reaction</text>
</a>
</g>
</g>
<!-- Node1&#45;&gt;Node3 -->
<g id="edge2_Node000001_Node000003" class="edge">
<title>Node1&#45;&gt;Node3</title>
<g id="a_edge2_Node000001_Node000003"><a xlink:title=" ">
<path fill="none" stroke="#63b8ff" d="M144.51,-101.46C153.06,-102.72 161.8,-104.02 170.37,-105.29"/>
<polygon fill="#63b8ff" stroke="#63b8ff" points="169.61,-108.71 180.02,-106.71 170.64,-101.79 169.61,-108.71"/>
</a>
</g>
</g>
<!-- Node4 -->
<g id="Node000004" class="node">
<title>Node4</title>
<g id="a_Node000004"><a xlink:href="namespaceapp_1_1routers_1_1areas.html#a9512e2066676b72acbf26b32c79f819f" target="_top" xlink:title=" ">
<polygon fill="white" stroke="#666666" points="305.75,-82 181.75,-82 181.75,-50 305.75,-50 305.75,-82"/>
<text text-anchor="start" x="189.75" y="-68.5" font-family="Helvetica,sans-Serif" font-size="10.00">app.routers.areas.require</text>
<text text-anchor="middle" x="243.75" y="-56.5" font-family="Helvetica,sans-Serif" font-size="10.00">_service</text>
</a>
</g>
</g>
<!-- Node1&#45;&gt;Node4 -->
<g id="edge3_Node000001_Node000004" class="edge">
<title>Node1&#45;&gt;Node4</title>
<g id="a_edge3_Node000001_Node000004"><a xlink:title=" ">
<path fill="none" stroke="#63b8ff" d="M144.51,-80.54C153.06,-79.28 161.8,-77.98 170.37,-76.71"/>
<polygon fill="#63b8ff" stroke="#63b8ff" points="170.64,-80.21 180.02,-75.29 169.61,-73.29 170.64,-80.21"/>
</a>
</g>
</g>
<!-- Node5 -->
<g id="Node000005" class="node">
<title>Node5</title>
<g id="a_Node000005"><a xlink:href="namespaceapp_1_1routers_1_1areas.html#af9386e0db0f8d08c64904b2253ccf913" target="_top" xlink:title=" ">
<polygon fill="white" stroke="#666666" points="305.75,-32 181.75,-32 181.75,0 305.75,0 305.75,-32"/>
<text text-anchor="start" x="189.75" y="-18.5" font-family="Helvetica,sans-Serif" font-size="10.00">app.routers.areas.require</text>
<text text-anchor="middle" x="243.75" y="-6.5" font-family="Helvetica,sans-Serif" font-size="10.00">_subscription</text>
</a>
</g>
</g>
<!-- Node1&#45;&gt;Node5 -->
<g id="edge4_Node000001_Node000005" class="edge">
<title>Node1&#45;&gt;Node5</title>
<g id="a_edge4_Node000001_Node000005"><a xlink:title=" ">
<path fill="none" stroke="#63b8ff" d="M95.64,-80.56C117.34,-70.24 151.67,-54.13 181.75,-41 184.9,-39.63 188.15,-38.23 191.43,-36.84"/>
<polygon fill="#63b8ff" stroke="#63b8ff" points="192.69,-40.1 200.56,-33.01 189.98,-33.65 192.69,-40.1"/>
</a>
</g>
</g>
</g>
</svg>
