<?xml version="1.0" encoding="UTF-8" standalone="no"?>
<!DOCTYPE svg PUBLIC "-//W3C//DTD SVG 1.1//EN"
 "http://www.w3.org/Graphics/SVG/1.1/DTD/svg11.dtd">
<!-- Generated by graphviz version 12.1.0 (20240811.2233)
 -->
<!-- Title: app.routers.areas.require_area Pages: 1 -->
<svg width="337pt" height="66pt"
 viewBox="0.00 0.00 337.00 66.00" xmlns="http://www.w3.org/2000/svg" xmlns:xlink="http://www.w3.org/1999/xlink">
<g id="graph0" class="graph" transform="scale(1 1) rotate(0) translate(4 62)">
<title>app.routers.areas.require_area</title>
<!-- Node1 -->
<g id="Node000001" class="node">
<title>Node1</title>
<g id="a_Node000001"><a xlink:title=" ">
<polygon fill="#999999" stroke="#666666" points="329,-39 181,-39 181,-19 329,-19 329,-39"/>
<text text-anchor="middle" x="255" y="-25.5" font-family="Helvetica,sans-Serif" font-size="10.00">app.routers.areas.require_area</text>
</a>
</g>
</g>
<!-- Node2 -->
<g id="Node000002" class="node">
<title>Node2</title>
<g id="a_Node000002"><a xlink:href="namespaceapp_1_1routers_1_1areas.html#a4a6f99c95c2c334c6ffd23ab58785732" target="_top" xlink:title=" ">
<polygon fill="white" stroke="#666666" points="145,-58 0,-58 0,-38 145,-38 145,-58"/>
<text text-anchor="middle" x="72.5" y="-44.5" font-family="Helvetica,sans-Serif" font-size="10.00">app.routers.areas.delete_area</text>
</a>
</g>
</g>
<!-- Node1&#45;&gt;Node2 -->
<g id="edge1_Node000001_Node000002" class="edge">
<title>Node1&#45;&gt;Node2</title>
<g id="a_edge1_Node000001_Node000002"><a xlink:title=" ">
<path fill="none" stroke="#63b8ff" d="M169.33,-37.91C161.32,-38.76 153.26,-39.6 145.39,-40.43"/>
<polygon fill="#63b8ff" stroke="#63b8ff" points="169.5,-41.41 179.08,-36.89 168.77,-34.45 169.5,-41.41"/>
</a>
</g>
</g>
<!-- Node3 -->
<g id="Node000003" class="node">
<title>Node3</title>
<g id="a_Node000003"><a xlink:href="namespaceapp_1_1routers_1_1areas.html#a062a90cb0ced5f8b45fdd3f91bf79fdc" target="_top" xlink:title=" ">
<polygon fill="white" stroke="#666666" points="145,-20 0,-20 0,0 145,0 145,-20"/>
<text text-anchor="middle" x="72.5" y="-6.5" font-family="Helvetica,sans-Serif" font-size="10.00">app.routers.areas.toggle_area</text>
</a>
</g>
</g>
<!-- Node1&#45;&gt;Node3 -->
<g id="edge2_Node000001_Node000003" class="edge">
<title>Node1&#45;&gt;Node3</title>
<g id="a_edge2_Node000001_Node000003"><a xlink:title=" ">
<path fill="none" stroke="#63b8ff" d="M169.33,-20.09C161.32,-19.24 153.26,-18.4 145.39,-17.57"/>
<polygon fill="#63b8ff" stroke="#63b8ff" points="168.77,-23.55 179.08,-21.11 169.5,-16.59 168.77,-23.55"/>
</a>
</g>
</g>
</g>
</svg>
