<?xml version="1.0" encoding="UTF-8" standalone="no"?>
<!DOCTYPE svg PUBLIC "-//W3C//DTD SVG 1.1//EN"
 "http://www.w3.org/Graphics/SVG/1.1/DTD/svg11.dtd">
<!-- Generated by graphviz version 12.1.0 (20240811.2233)
 -->
<!-- Title: app.area_engine.execute_area Pages: 1 -->
<svg width="639pt" height="134pt"
 viewBox="0.00 0.00 639.00 134.00" xmlns="http://www.w3.org/2000/svg" xmlns:xlink="http://www.w3.org/1999/xlink">
<g id="graph0" class="graph" transform="scale(1 1) rotate(0) translate(4 130)">
<title>app.area_engine.execute_area</title>
<!-- Node1 -->
<g id="Node000001" class="node">
<title>Node1</title>
<g id="a_Node000001"><a xlink:title=" ">
<polygon fill="#999999" stroke="#666666" points="148.75,-76 0,-76 0,-56 148.75,-56 148.75,-76"/>
<text text-anchor="middle" x="74.38" y="-62.5" font-family="Helvetica,sans-Serif" font-size="10.00">app.area_engine.execute_area</text>
</a>
</g>
</g>
<!-- Node2 -->
<g id="Node000002" class="node">
<title>Node2</title>
<g id="a_Node000002"><a xlink:href="namespaceapp_1_1area__engine.html#abfe3b0a96a5e0558e981db240f066d39" target="_top" xlink:title=" ">
<polygon fill="white" stroke="#666666" points="481.88,-126 365.38,-126 365.38,-94 481.88,-94 481.88,-126"/>
<text text-anchor="start" x="373.38" y="-112.5" font-family="Helvetica,sans-Serif" font-size="10.00">app.area_engine.check</text>
<text text-anchor="middle" x="423.62" y="-100.5" font-family="Helvetica,sans-Serif" font-size="10.00">_action_conditions</text>
</a>
</g>
</g>
<!-- Node1&#45;&gt;Node2 -->
<g id="edge1_Node000001_Node000002" class="edge">
<title>Node1&#45;&gt;Node2</title>
<g id="a_edge1_Node000001_Node000002"><a xlink:title=" ">
<path fill="none" stroke="#63b8ff" d="M114.85,-76.48C135.53,-81.6 161.36,-87.41 184.75,-91 241.31,-99.68 306.08,-104.52 353.73,-107.14"/>
<polygon fill="#63b8ff" stroke="#63b8ff" points="353.48,-110.63 363.65,-107.67 353.85,-103.64 353.48,-110.63"/>
</a>
</g>
</g>
<!-- Node4 -->
<g id="Node000004" class="node">
<title>Node4</title>
<g id="a_Node000004"><a xlink:href="namespaceapp_1_1area__engine.html#a5aa9be97ce9a830bf00bade2e77f5d51" target="_top" xlink:title=" ">
<polygon fill="white" stroke="#666666" points="320,-82 184.75,-82 184.75,-50 320,-50 320,-82"/>
<text text-anchor="start" x="192.75" y="-68.5" font-family="Helvetica,sans-Serif" font-size="10.00">app.area_engine.interpolate</text>
<text text-anchor="middle" x="252.38" y="-56.5" font-family="Helvetica,sans-Serif" font-size="10.00">_parameters</text>
</a>
</g>
</g>
<!-- Node1&#45;&gt;Node4 -->
<g id="edge3_Node000001_Node000004" class="edge">
<title>Node1&#45;&gt;Node4</title>
<g id="a_edge3_Node000001_Node000004"><a xlink:title=" ">
<path fill="none" stroke="#63b8ff" d="M149.25,-66C157.09,-66 165.08,-66 172.96,-66"/>
<polygon fill="#63b8ff" stroke="#63b8ff" points="172.9,-69.5 182.9,-66 172.9,-62.5 172.9,-69.5"/>
</a>
</g>
</g>
<!-- Node6 -->
<g id="Node000006" class="node">
<title>Node6</title>
<g id="a_Node000006"><a xlink:href="namespaceapp_1_1area__engine.html#ab8d65d7a5fcb78515462dba22d4f6d4a" target="_top" xlink:title=" ">
<polygon fill="white" stroke="#666666" points="314.75,-32 190,-32 190,0 314.75,0 314.75,-32"/>
<text text-anchor="start" x="198" y="-18.5" font-family="Helvetica,sans-Serif" font-size="10.00">app.area_engine.reaction</text>
<text text-anchor="middle" x="252.38" y="-6.5" font-family="Helvetica,sans-Serif" font-size="10.00">_name_to_key</text>
</a>
</g>
</g>
<!-- Node1&#45;&gt;Node6 -->
<g id="edge7_Node000001_Node000006" class="edge">
<title>Node1&#45;&gt;Node6</title>
<g id="a_edge7_Node000001_Node000006"><a xlink:title=" ">
<path fill="none" stroke="#63b8ff" d="M112.27,-55.52C132.64,-49.73 158.59,-42.36 182.55,-35.55"/>
<polygon fill="#63b8ff" stroke="#63b8ff" points="183.28,-38.98 191.94,-32.88 181.36,-32.25 183.28,-38.98"/>
</a>
</g>
</g>
<!-- Node3 -->
<g id="Node000003" class="node">
<title>Node3</title>
<g id="a_Node000003"><a xlink:href="namespaceapp_1_1area__engine.html#a6d272313d230efaad9eade58b221745e" target="_top" xlink:title=" ">
<polygon fill="white" stroke="#666666" points="631,-82 527.25,-82 527.25,-50 631,-50 631,-82"/>
<text text-anchor="start" x="535.25" y="-68.5" font-family="Helvetica,sans-Serif" font-size="10.00">app.area_engine.get</text>
<text text-anchor="middle" x="579.12" y="-56.5" font-family="Helvetica,sans-Serif" font-size="10.00">_nested_value</text>
</a>
</g>
</g>
<!-- Node2&#45;&gt;Node3 -->
<g id="edge2_Node000002_Node000003" class="edge">
<title>Node2&#45;&gt;Node3</title>
<g id="a_edge2_Node000002_Node000003"><a xlink:title=" ">
<path fill="none" stroke="#63b8ff" d="M481.78,-93.62C493.02,-90.39 504.86,-87 516.25,-83.74"/>
<polygon fill="#63b8ff" stroke="#63b8ff" points="516.89,-87.19 525.54,-81.07 514.96,-80.47 516.89,-87.19"/>
</a>
</g>
</g>
<!-- Node4&#45;&gt;Node3 -->
<g id="edge4_Node000004_Node000003" class="edge">
<title>Node4&#45;&gt;Node3</title>
<g id="a_edge4_Node000004_Node000003"><a xlink:title=" ">
<path fill="none" stroke="#63b8ff" d="M320.27,-66C377.59,-66 459.54,-66 515.57,-66"/>
<polygon fill="#63b8ff" stroke="#63b8ff" points="515.26,-69.5 525.26,-66 515.26,-62.5 515.26,-69.5"/>
</a>
</g>
</g>
<!-- Node5 -->
<g id="Node000005" class="node">
<title>Node5</title>
<g id="a_Node000005"><a xlink:href="namespaceapp_1_1area__engine.html#a343570afddea12486de42ff53ee9c060" target="_top" xlink:title=" ">
<polygon fill="white" stroke="#666666" points="491.25,-38 356,-38 356,-6 491.25,-6 491.25,-38"/>
<text text-anchor="start" x="364" y="-24.5" font-family="Helvetica,sans-Serif" font-size="10.00">app.area_engine.interpolate</text>
<text text-anchor="middle" x="423.62" y="-12.5" font-family="Helvetica,sans-Serif" font-size="10.00">_single_value</text>
</a>
</g>
</g>
<!-- Node4&#45;&gt;Node5 -->
<g id="edge5_Node000004_Node000005" class="edge">
<title>Node4&#45;&gt;Node5</title>
<g id="a_edge5_Node000004_Node000005"><a xlink:title=" ">
<path fill="none" stroke="#63b8ff" d="M316.4,-49.62C326.79,-46.91 337.65,-44.09 348.29,-41.33"/>
<polygon fill="#63b8ff" stroke="#63b8ff" points="349.01,-44.76 357.8,-38.85 347.24,-37.98 349.01,-44.76"/>
</a>
</g>
</g>
<!-- Node5&#45;&gt;Node3 -->
<g id="edge6_Node000005_Node000003" class="edge">
<title>Node5&#45;&gt;Node3</title>
<g id="a_edge6_Node000005_Node000003"><a xlink:title=" ">
<path fill="none" stroke="#63b8ff" d="M481.78,-38.38C493.02,-41.61 504.86,-45 516.25,-48.26"/>
<polygon fill="#63b8ff" stroke="#63b8ff" points="514.96,-51.53 525.54,-50.93 516.89,-44.81 514.96,-51.53"/>
</a>
</g>
</g>
</g>
</svg>
