<?xml version="1.0" encoding="UTF-8" standalone="no"?>
<!DOCTYPE svg PUBLIC "-//W3C//DTD SVG 1.1//EN"
 "http://www.w3.org/Graphics/SVG/1.1/DTD/svg11.dtd">
<!-- Generated by graphviz version 12.1.0 (20240811.2233)
 -->
<!-- Title: app.db.insert_services Pages: 1 -->
<svg width="277pt" height="66pt"
 viewBox="0.00 0.00 277.00 66.00" xmlns="http://www.w3.org/2000/svg" xmlns:xlink="http://www.w3.org/1999/xlink">
<g id="graph0" class="graph" transform="scale(1 1) rotate(0) translate(4 62)">
<title>app.db.insert_services</title>
<!-- Node1 -->
<g id="Node000001" class="node">
<title>Node1</title>
<g id="a_Node000001"><a xlink:title=" ">
<polygon fill="#999999" stroke="#666666" points="114.25,-39 0,-39 0,-19 114.25,-19 114.25,-39"/>
<text text-anchor="middle" x="57.12" y="-25.5" font-family="Helvetica,sans-Serif" font-size="10.00">app.db.insert_services</text>
</a>
</g>
</g>
<!-- Node2 -->
<g id="Node000002" class="node">
<title>Node2</title>
<g id="a_Node000002"><a xlink:href="namespaceapp_1_1db.html#a38000937adf31bedee700ba19a1187da" target="_top" xlink:title=" ">
<polygon fill="white" stroke="#666666" points="264.88,-58 154.38,-58 154.38,-38 264.88,-38 264.88,-58"/>
<text text-anchor="middle" x="209.62" y="-44.5" font-family="Helvetica,sans-Serif" font-size="10.00">app.db.load_yaml_file</text>
</a>
</g>
</g>
<!-- Node1&#45;&gt;Node2 -->
<g id="edge1_Node000001_Node000002" class="edge">
<title>Node1&#45;&gt;Node2</title>
<g id="a_edge1_Node000001_Node000002"><a xlink:title=" ">
<path fill="none" stroke="#63b8ff" d="M114.59,-36.13C123.84,-37.3 133.5,-38.52 142.95,-39.71"/>
<polygon fill="#63b8ff" stroke="#63b8ff" points="142.47,-43.18 152.83,-40.96 143.35,-36.23 142.47,-43.18"/>
</a>
</g>
</g>
<!-- Node3 -->
<g id="Node000003" class="node">
<title>Node3</title>
<g id="a_Node000003"><a xlink:href="namespaceapp_1_1db.html#a29df0aa0d3c747d0fd865cc2fc0ea7ab" target="_top" xlink:title=" ">
<polygon fill="white" stroke="#666666" points="269,-20 150.25,-20 150.25,0 269,0 269,-20"/>
<text text-anchor="middle" x="209.62" y="-6.5" font-family="Helvetica,sans-Serif" font-size="10.00">app.db.scan_yaml_files</text>
</a>
</g>
</g>
<!-- Node1&#45;&gt;Node3 -->
<g id="edge2_Node000001_Node000003" class="edge">
<title>Node1&#45;&gt;Node3</title>
<g id="a_edge2_Node000001_Node000003"><a xlink:title=" ">
<path fill="none" stroke="#63b8ff" d="M114.59,-21.87C122.42,-20.88 130.53,-19.86 138.56,-18.84"/>
<polygon fill="#63b8ff" stroke="#63b8ff" points="138.85,-22.34 148.33,-17.61 137.97,-15.39 138.85,-22.34"/>
</a>
</g>
</g>
</g>
</svg>
